<svg width="228" height="79" fill="none" xmlns="http://www.w3.org/2000/svg"><path d="M44.683 27.037V.893h13.71v26.209c0 5.165 3.444 6.887 6.695 6.887 3.253 0 6.632-1.722 6.632-6.887V.893h13.71v26.144c0 12.882-9.246 19.386-20.342 19.386-11.158 0-20.404-6.504-20.404-19.386zm42.531-3.825C87.214 9.438 98.055 0 112.658 0c4.017 0 8.226.83 11.286 2.36v12.944c-2.933-1.593-6.184-2.933-10.903-2.933-6.888 0-11.734 4.656-11.734 10.84 0 6.378 5.166 10.842 12.244 10.842 3.826 0 7.716-.83 11.031-3.189V44c-3.251 1.721-7.652 2.423-11.797 2.423-14.602 0-25.57-9.437-25.57-23.211zM127.324.893h13.71v16.643L153.596.893h16.133l-15.814 20.723 19.002 23.914h-16.834l-15.049-19.258v19.259h-13.71V.893z" fill="#FAB31A"/><path d="M172.47.893h13.711V45.53H172.47V.893zm54.712 0V12.69h-12.816v32.84h-13.711V12.69h-12.689V.893h39.216z" fill="#fff"/><path d="M29.286 17.32c-.277.928-.622 1.593-1.082 2.09h-.002c-.564.603-1.281.995-2.184 1.193 1.418 1.681 2.223 3.342 2.395 4.945a5.786 5.786 0 01-.198 2.315 6.177 6.177 0 01-1.021 1.977c-.87 1.137-2.156 2.08-3.718 2.727-1.489.615-3.167.921-4.727.862a11.193 11.193 0 01-4.056-.917 10.54 10.54 0 01-3.262-2.205 9.701 9.701 0 01-2.142-3.18 9.064 9.064 0 01-.687-3.831c.078-2.033.856-3.98 2.25-5.629a.518.518 0 01.892.19 5.312 5.312 0 001.393 2.329 5.638 5.638 0 002.158 1.33c.83.279 1.697.343 2.437.182.654-.142 1.193-.455 1.573-.911a4.288 4.288 0 01-1.786-3.65 4.28 4.28 0 011.38-2.998 4.31 4.31 0 013.106-1.144h.002c2.224.093 3.996 1.825 4.151 3.998.768.018 1.594-.025 2.47-.314a.52.52 0 01.658.642zM19.351.894H0v44.642h19.351c13.935 0 23.15-8.865 23.15-22.321 0-13.457-9.216-22.32-23.15-22.32V.893zM8.527 66.715a4.474 4.474 0 110-8.947 4.474 4.474 0 01-.001 8.947zm6.029-10.363a8.526 8.526 0 00-12.058 0 8.526 8.526 0 000 12.058l6.029 6.03 6.029-6.03a8.527 8.527 0 000-12.058z" fill="#FAB31A"/><path d="M24.854 74.35v-3.054a5.72 5.72 0 002.35.5c.823 0 1.498-.205 2.056-.646.558-.44 1.145-1.352 1.791-2.702L23.005 53.88h3.641l6.08 11.132 5.052-11.133h3.465l-7.578 16.155c-1.497 3.201-3.465 4.787-5.903 4.787-1.263 0-2.231-.147-2.908-.47zm18.62-20.47h16.83v2.966H53.49V74.44h-3.23V56.846h-6.785V53.88zm21.089 20.56V53.88h3.23v8.399l8.43-8.4h4.14l-9.515 9.4 11.043 11.16h-4.406l-9.692-9.868v9.868h-3.23zm25.61-7.96h7.518l-3.76-8.635-3.758 8.634zm-6.755 7.96l8.987-20.678h3.113l8.988 20.677h-3.466l-2.232-5.111h-9.751l-2.204 5.111h-3.435zm32.011-1.38v-3.173c1.793 1.144 4.466 1.91 6.727 1.91 3.495 0 5.639-1.411 5.639-3.614 0-1.909-1.997-3.2-5.023-3.2h-2.555v-2.967h2.938c2.496 0 3.935-1.029 3.935-2.762 0-1.761-1.733-2.73-4.436-2.73-2.201 0-4.317.5-6.343 1.497v-2.967c1.997-1.027 4.171-1.555 6.52-1.555 2.232 0 4.025.498 5.405 1.526s2.056 2.379 2.056 4.053c0 1.116-.324 2.027-.999 2.762-.676.733-1.41 1.232-2.203 1.497 1.087.323 2.026.94 2.819 1.82.793.852 1.205 1.968 1.205 3.29 0 1.852-.763 3.377-2.291 4.582s-3.583 1.791-6.197 1.791c-2.908 0-5.287-.586-7.197-1.76zm33.894-1.587V56.847h-7.225c0 3.437-.206 6.315-.617 8.635-.41 2.322-1.116 4.317-2.143 5.992h9.985v-.001zm-15.478 7.372v-7.371h1.968c1.086-1.617 1.88-3.525 2.379-5.728.499-2.203.763-5.23.763-9.017V53.88h13.599v17.593h2.967v7.371h-3.055V74.44h-15.567v4.406h-3.054zm25.875-4.406V53.88h14.626v2.966h-11.395v5.14h9.28v2.967h-9.28v6.52h11.777v2.966H159.72zm21.469-2.614c-2.056-2.027-3.084-4.582-3.084-7.666 0-3.084 1.028-5.638 3.084-7.636 2.056-2.026 4.64-3.024 7.753-3.024 2.116 0 3.966.47 5.581 1.38v3.26c-1.675-1.086-3.524-1.616-5.551-1.616-2.144 0-3.966.735-5.404 2.174-1.438 1.439-2.144 3.26-2.144 5.462 0 2.204.735 4.054 2.173 5.493 1.468 1.44 3.289 2.144 5.493 2.144 2.32 0 4.287-.617 5.874-1.88v3.26c-1.704 1.087-3.701 1.645-6.022 1.645-3.083 0-5.668-.998-7.753-2.996zm21.705-.352h5.139c2.908 0 4.582-1.38 4.582-3.73 0-2.379-1.733-3.79-4.582-3.79h-5.139v7.52zm-3.231 2.966V53.88h3.231v7.107h5.315c2.38 0 4.259.617 5.639 1.88s2.056 2.88 2.056 4.875c0 1.969-.705 3.584-2.085 4.846-1.38 1.235-3.23 1.851-5.61 1.851h-8.546z" fill="#fff"/></svg>