<svg width="228" height="79" viewBox="0 0 228 79" fill="none" xmlns="http://www.w3.org/2000/svg">
<path d="M44.6833 27.0374V0.893115H58.3932V27.1019C58.3932 32.267 61.8366 33.9887 65.088 33.9887C68.341 33.9887 71.7199 32.267 71.7199 27.1019V0.893115H85.4306V27.0374C85.4306 39.9187 76.1839 46.4231 65.088 46.4231C53.93 46.4231 44.684 39.9187 44.684 27.0374H44.6833ZM87.2144 23.2116C87.2144 9.43791 98.0554 0 112.658 0C116.675 0 120.884 0.829378 123.944 2.35987V15.3041C121.011 13.7107 117.76 12.3706 113.041 12.3706C106.153 12.3706 101.307 17.0266 101.307 23.2116C101.307 29.5893 106.473 34.0525 113.551 34.0525C117.377 34.0525 121.267 33.2239 124.582 30.864V44.0003C121.331 45.7212 116.93 46.4231 112.785 46.4231C98.1828 46.4231 87.2144 36.986 87.2144 23.2116ZM127.324 0.893115H141.034V17.5357L153.596 0.893115H169.729L153.915 21.6165L172.917 45.53H156.083L141.034 26.2725V45.5308H127.324V0.893115Z" fill="#FAB31A"/>
<path d="M172.47 0.892944H186.181V45.5306H172.47V0.892944ZM227.182 0.892944V12.6899H214.366V45.5306H200.655V12.6899H187.966V0.892944H227.182Z" fill="white"/>
<path d="M29.2863 17.3208C29.0085 18.2485 28.6639 18.9126 28.2036 19.4092L28.202 19.4107C27.6378 20.0127 26.9209 20.4053 26.0184 20.6029C27.4363 22.2844 28.2413 23.9455 28.4129 25.5476C28.5018 26.3424 28.4365 27.1214 28.2146 27.8627C27.9969 28.5782 27.6511 29.2482 27.194 29.8401C26.3237 30.9772 25.0379 31.9199 23.476 32.5667C21.9872 33.182 20.3087 33.4881 18.7491 33.4291C17.3516 33.3796 15.9757 33.0687 14.6927 32.5124C13.4766 31.9885 12.3701 31.2403 11.4311 30.3067C10.5127 29.3998 9.78454 28.3188 9.28919 27.1269C8.78545 25.9146 8.55106 24.6074 8.60224 23.2956C8.68014 21.2631 9.45758 19.3163 10.8519 17.667C10.9123 17.5953 10.9909 17.5414 11.0795 17.5109C11.1681 17.4805 11.2633 17.4747 11.355 17.4942C11.4466 17.5136 11.5313 17.5576 11.5998 17.6215C11.6684 17.6853 11.7183 17.7666 11.7443 17.8566C11.9991 18.7405 12.479 19.5431 13.1371 20.1858C13.7461 20.7871 14.4839 21.2418 15.2947 21.5156C16.1257 21.795 16.992 21.8587 17.7317 21.6982C18.3864 21.5558 18.9254 21.2434 19.3055 20.787C18.7292 20.3738 18.2643 19.8241 17.9526 19.1872C17.6409 18.5503 17.492 17.846 17.5192 17.1374C17.5393 16.5712 17.6716 16.0146 17.9085 15.4999C18.1455 14.9853 18.4823 14.5228 18.8994 14.1394C19.3161 13.7532 19.805 13.4532 20.338 13.2567C20.871 13.0602 21.4377 12.9711 22.0053 12.9945H22.0068C24.2306 13.0881 26.0026 14.82 26.1584 16.9934C26.9264 17.0107 27.7519 16.9682 28.6277 16.6794C28.7177 16.6502 28.814 16.646 28.9061 16.6675C28.9983 16.689 29.0828 16.7352 29.1506 16.8012C29.2184 16.8672 29.2669 16.9505 29.2908 17.0421C29.3147 17.1337 29.3132 17.23 29.2863 17.3208ZM19.3511 0.892944H0V45.5353H19.3511C33.2861 45.5353 42.5013 36.6703 42.5013 23.2137C42.5013 9.75721 33.2853 0.893731 19.3511 0.893731V0.892944ZM8.5267 66.7151C7.93923 66.7152 7.35751 66.5995 6.81475 66.3748C6.27199 66.15 5.77881 65.8205 5.36338 65.4052C4.94794 64.9898 4.61839 64.4967 4.39353 63.954C4.16867 63.4113 4.05291 62.8296 4.05286 62.2421C4.0528 61.6546 4.16846 61.0729 4.39323 60.5302C4.61799 59.9874 4.94746 59.4942 5.36282 59.0788C5.77818 58.6633 6.2713 58.3338 6.81402 58.1089C7.35675 57.8841 7.93845 57.7683 8.52591 57.7683C9.71234 57.7683 10.8502 58.2396 11.6891 59.0785C12.528 59.9174 12.9994 61.0553 12.9994 62.2417C12.9994 63.4281 12.528 64.566 11.6891 65.4049C10.8502 66.2438 9.71234 66.7151 8.52591 66.7151H8.5267ZM14.5558 56.3519C11.2265 53.0218 5.82689 53.0218 2.49758 56.3519C-0.832525 59.6804 -0.832525 65.08 2.49758 68.4101L8.5267 74.4392L14.5558 68.4101C17.8851 65.08 17.8851 59.6812 14.5558 56.3519Z" fill="#FAB31A"/>
<path d="M24.8539 74.3503V71.2964C25.5929 71.6274 26.3938 71.7977 27.2035 71.7961C28.0266 71.7961 28.7018 71.5907 29.2597 71.1501C29.8183 70.7094 30.4054 69.7982 31.0514 68.4479L23.0047 53.8795H26.6464L32.7259 65.0116L37.7777 53.8795H41.2431L33.6654 70.0343C32.168 73.2353 30.2 74.8209 27.7622 74.8209C26.4993 74.8209 25.5306 74.6738 24.8539 74.3503ZM43.4747 53.8795H60.3039V56.8461H53.4902V74.4393H50.2601V56.8461H43.4747V53.8795ZM64.5625 74.4393V53.8803H67.7927V62.2787L76.2226 53.8795H80.3632L70.8481 63.2789L81.8913 74.4393H77.4847L67.7935 64.5709V74.4385H64.5633L64.5625 74.4393ZM90.1725 66.4791H97.6912L93.9314 57.8446L90.1725 66.4791ZM83.4179 74.4393L92.4049 53.7623H95.5178L104.506 74.4393H101.04L98.8078 69.3277H89.0567L86.8534 74.4393H83.4179ZM115.429 73.0591V69.8871C117.222 71.0313 119.895 71.7961 122.156 71.7961C125.651 71.7961 127.795 70.386 127.795 68.1835C127.795 66.2745 125.798 64.9825 122.772 64.9825H120.217V62.0159H123.155C125.651 62.0159 127.09 60.9875 127.09 59.2539C127.09 57.4929 125.357 56.5234 122.654 56.5234C120.453 56.5234 118.337 57.0231 116.311 58.0209V55.0543C118.308 54.0267 120.482 53.4987 122.831 53.4987C125.063 53.4987 126.856 53.9975 128.236 55.0252C129.616 56.0529 130.292 57.404 130.292 59.0785C130.292 60.1943 129.968 61.1055 129.293 61.8396C128.617 62.573 127.883 63.0719 127.09 63.3371C128.177 63.6597 129.116 64.2774 129.909 65.1579C130.702 66.0094 131.114 67.1252 131.114 68.4479C131.114 70.2987 130.351 71.8244 128.823 73.0292C127.295 74.2339 125.24 74.8201 122.626 74.8201C119.718 74.8201 117.339 74.2339 115.429 73.0591ZM149.323 71.4727V56.8469H142.098C142.098 60.284 141.892 63.1616 141.481 65.4821C141.071 67.8035 140.365 69.799 139.338 71.4743H149.323V71.4727ZM133.845 78.845V71.4735H135.813C136.899 69.8572 137.693 67.949 138.192 65.7458C138.691 63.5425 138.955 60.5169 138.955 56.7288V53.8803H152.554V71.4727H155.521V78.8442H152.466V74.4393H136.899V78.845H133.845ZM159.72 74.4393V53.8803H174.346V56.8461H162.951V61.986H172.231V64.9526H162.951V71.4735H174.728V74.4393H159.72ZM181.189 71.8252C179.133 69.7982 178.105 67.2432 178.105 64.1594C178.105 61.0748 179.133 58.5206 181.189 56.5234C183.245 54.4972 185.829 53.4987 188.942 53.4987C191.058 53.4987 192.908 53.9684 194.523 54.8781V58.1389C192.848 57.053 190.999 56.5234 188.972 56.5234C186.828 56.5234 185.006 57.2576 183.568 58.6968C182.13 60.136 181.424 61.9561 181.424 64.1594C181.424 66.3627 182.159 68.2126 183.597 69.6518C185.065 71.0919 186.886 71.7961 189.09 71.7961C191.41 71.7961 193.377 71.1792 194.964 69.9155V73.1763C193.26 74.263 191.263 74.8209 188.942 74.8209C185.859 74.8209 183.274 73.8231 181.189 71.8252ZM202.894 71.4727H208.033C210.941 71.4727 212.615 70.0925 212.615 67.7429C212.615 65.3641 210.882 63.9532 208.033 63.9532H202.894V71.4735V71.4727ZM199.663 74.4393V53.8803H202.894V60.9874H208.209C210.589 60.9874 212.468 61.6036 213.848 62.8665C215.228 64.1303 215.904 65.7465 215.904 67.7421C215.904 69.7109 215.199 71.3256 213.819 72.5885C212.439 73.8231 210.589 74.4393 208.209 74.4393H199.663Z" fill="white"/>
</svg>
