<svg width="155" height="100" viewBox="0 0 155 100" fill="none" xmlns="http://www.w3.org/2000/svg">
<g opacity="0.4" clip-path="url(#clip0)">
<path fill-rule="evenodd" clip-rule="evenodd" d="M66.3956 95.6721C66.4868 95.6717 66.576 95.698 66.6522 95.7476C66.7283 95.7972 66.788 95.868 66.8238 95.9509C66.8595 96.0339 66.8698 96.1255 66.8532 96.2142C66.8367 96.3029 66.7941 96.3848 66.7307 96.4497C66.6674 96.5146 66.5861 96.5596 66.4971 96.579C66.408 96.5984 66.3152 96.5915 66.2301 96.559C66.1451 96.5265 66.0716 96.4699 66.0188 96.3963C65.9661 96.3227 65.9365 96.2354 65.9336 96.1452C65.934 96.0226 65.9823 95.9049 66.0684 95.8167C66.1545 95.7285 66.2717 95.6767 66.3956 95.6721ZM83.9667 95.6721C84.0578 95.67 84.1475 95.6946 84.2244 95.7429C84.3014 95.7911 84.3623 95.8608 84.3993 95.9432C84.4363 96.0256 84.4479 96.1169 84.4326 96.2058C84.4173 96.2947 84.3758 96.3771 84.3133 96.4427C84.2507 96.5082 84.17 96.5541 84.0812 96.5743C83.9924 96.5946 83.8996 96.5885 83.8143 96.5567C83.729 96.5249 83.6552 96.4689 83.602 96.3957C83.5489 96.3224 83.5188 96.2353 83.5155 96.1452C83.5129 96.0846 83.5225 96.0241 83.5439 95.9673C83.5653 95.9104 83.598 95.8584 83.6401 95.8143C83.6821 95.7702 83.7327 95.7349 83.7888 95.7104C83.8449 95.686 83.9054 95.673 83.9667 95.6721ZM99.9155 96.1381V92.6743C99.9155 92.6011 99.9155 92.5261 99.9155 92.4547C99.9155 92.3297 99.9696 92.2761 100.096 92.2886C100.222 92.3011 100.332 92.2886 100.457 92.2886C100.699 92.2886 100.704 92.2886 100.706 92.5404C100.706 93.2278 100.706 93.9169 100.706 94.6061C100.706 94.7936 100.625 95.0275 100.746 95.1578C100.867 95.2882 101.13 95.2007 101.33 95.2132C101.531 95.2257 101.738 95.2132 101.94 95.2132C102.691 95.2542 103.194 95.7185 103.225 96.463C103.256 97.2075 103.254 97.9467 103.225 98.6877C103.21 99.0367 103.058 99.3662 102.801 99.606C102.544 99.8457 102.203 99.9769 101.85 99.9714C101.294 99.9857 100.737 99.9714 100.179 99.9714C99.9281 99.9714 99.9227 99.9714 99.9227 99.6965V96.1398L99.9155 96.1381ZM100.702 97.5986C100.702 98.0538 100.702 98.5074 100.702 98.9609C100.702 99.1876 100.711 99.1965 100.933 99.2001C101.222 99.2001 101.511 99.2001 101.798 99.2001C102.225 99.1876 102.444 98.9716 102.451 98.5431C102.451 97.9092 102.451 97.2736 102.451 96.6416C102.451 96.213 102.225 96.0041 101.792 95.9899C101.525 95.9899 101.251 95.9899 100.993 95.9899C100.735 95.9899 100.702 95.9899 100.7 96.2684C100.7 96.713 100.7 97.1611 100.7 97.6003L100.702 97.5986ZM78.0712 96.1291V92.6653C78.0712 92.5921 78.0712 92.5171 78.0712 92.4439C78.0712 92.3368 78.1163 92.2904 78.2246 92.2904C78.867 92.2904 79.5094 92.2654 80.15 92.3065C80.4809 92.3306 80.7905 92.4769 81.0175 92.7164C81.2444 92.9558 81.3722 93.2709 81.3753 93.5991C81.3952 94.349 81.397 95.1043 81.3753 95.8542C81.3678 96.2031 81.2229 96.5354 80.9714 96.7801C80.72 97.0249 80.3819 97.1629 80.0291 97.1647C79.7296 97.1754 79.4282 97.1647 79.1268 97.1647C78.8255 97.1647 78.8471 97.1647 78.8453 97.4521C78.8453 98.1663 78.8453 98.8716 78.8453 99.5804C78.8453 99.6643 78.8453 99.759 78.8453 99.8357C78.8471 99.8542 78.8447 99.8729 78.8382 99.8903C78.8316 99.9078 78.8212 99.9235 78.8077 99.9364C78.7941 99.9493 78.7778 99.9589 78.76 99.9647C78.7421 99.9705 78.7232 99.9722 78.7046 99.9696H78.6793C78.0874 100.032 78.0784 100.023 78.0784 99.434L78.0712 96.1291ZM78.8507 94.715C78.8507 95.2025 78.8507 95.6881 78.8507 96.1738C78.8507 96.3327 78.9013 96.4059 79.0709 96.4023C79.3705 96.4023 79.67 96.4023 79.9732 96.4023C80.3846 96.3862 80.6012 96.1756 80.6084 95.7613C80.6084 95.0757 80.6192 94.3883 80.6084 93.7009C80.6084 93.292 80.3792 93.0813 79.9678 93.0653C79.6899 93.0564 79.412 93.0653 79.134 93.0653C78.8561 93.0653 78.8616 93.0653 78.858 93.3295C78.858 93.7937 78.858 94.2598 78.858 94.7222L78.8507 94.715ZM49.1764 98.2574C49.0266 98.2574 48.8768 98.2574 48.727 98.2574C48.5772 98.2574 48.5033 98.202 48.4852 98.0449C48.4148 97.4468 48.3354 96.8469 48.2578 96.2505C48.1303 95.2531 48.0034 94.2562 47.8771 93.2599C47.8626 93.1456 47.8428 93.051 47.7093 93.026C47.5757 93.001 47.5288 92.9135 47.5288 92.776C47.5288 92.1833 47.4855 92.3047 47.9944 92.2975C48.1622 92.2975 48.3643 92.2279 48.4924 92.335C48.6206 92.4422 48.57 92.6528 48.5917 92.8171C48.7818 94.2657 48.9676 95.7137 49.1493 97.1611C49.189 97.4843 49.1854 97.4932 49.5102 97.4861C50.0101 97.4754 49.9686 97.6003 50.0516 97.0219C50.2489 95.509 50.4414 93.9973 50.629 92.4868C50.6471 92.3404 50.6994 92.2832 50.8492 92.2904C51.5386 92.3136 51.4411 92.169 51.3617 92.8475C51.2101 94.1062 51.0387 95.3649 50.8763 96.6237C50.7878 97.304 50.7084 97.9878 50.611 98.6698C50.5828 98.9783 50.4549 99.2697 50.2462 99.5006C50.0375 99.7315 49.7592 99.8897 49.4525 99.9518C49.3787 99.9655 49.3038 99.9721 49.2287 99.9714C48.7054 99.9607 48.6639 99.9072 48.6873 99.3929C48.6873 99.2323 48.7631 99.1948 48.9039 99.2001C49.021 99.209 49.1386 99.209 49.2558 99.2001C49.3533 99.1838 49.4466 99.1484 49.5301 99.096C49.6137 99.0436 49.6859 98.9753 49.7425 98.895C49.7991 98.8148 49.839 98.7241 49.8598 98.6285C49.8807 98.5328 49.8821 98.434 49.8639 98.3377C49.8423 98.252 49.7773 98.2574 49.7159 98.2574C49.5355 98.2574 49.355 98.2574 49.1746 98.2574H49.1764ZM55.3877 92.3261C55.2903 92.7992 55.1928 93.2635 55.0936 93.7277C54.96 94.3585 54.8253 94.9894 54.6893 95.6203C54.6568 95.7661 54.6568 95.9172 54.6893 96.0631C54.9299 97.2534 55.1706 98.4437 55.4112 99.634L55.4436 99.7893C55.4779 99.9322 55.4112 99.9679 55.2758 99.9804C54.7182 100.012 54.7164 100.016 54.6063 99.4662C54.4006 98.4592 54.1955 97.4527 53.991 96.4469C53.9711 96.3594 53.991 96.238 53.8791 96.2041C53.7446 96.1666 53.6022 96.1666 53.4676 96.2041C53.363 96.2309 53.3828 96.3434 53.3666 96.4202C53.2655 96.9058 53.1699 97.395 53.0724 97.8824C52.9479 98.5056 52.818 99.1323 52.7025 99.7518C52.6718 99.9214 52.6051 99.9929 52.4336 99.9768C52.2606 99.9875 52.0869 99.9743 51.9175 99.9375C51.9332 99.6627 51.9786 99.3904 52.0529 99.1251C52.2514 98.105 52.4541 97.0879 52.661 96.0738C52.6971 95.9085 52.6971 95.7374 52.661 95.5721C52.4408 94.5561 52.2279 93.542 52.0113 92.5368C51.9987 92.4743 51.9969 92.4118 51.9843 92.3225C52.195 92.2971 52.4075 92.2894 52.6195 92.2993C52.7602 92.2993 52.7584 92.4064 52.7783 92.4957C52.8757 92.9409 52.9714 93.3855 53.0652 93.8295C53.1573 94.2651 53.2457 94.7008 53.3395 95.1346C53.3612 95.2328 53.3395 95.3739 53.4658 95.4042C53.6113 95.4426 53.7643 95.4426 53.9098 95.4042C53.9964 95.3792 53.9819 95.2828 53.9964 95.2132C54.1432 94.5419 54.2887 93.8693 54.4331 93.1956C54.4854 92.9581 54.5377 92.7189 54.5865 92.4814C54.6081 92.3654 54.6532 92.2886 54.794 92.3029C54.9942 92.296 55.1945 92.3056 55.3931 92.3315L55.3877 92.3261ZM86.9316 96.1434V92.6993C86.9316 92.6136 86.9316 92.5207 86.9316 92.4457C86.9316 92.3707 86.9731 92.3011 87.0832 92.2904C87.6931 92.2279 87.7022 92.2332 87.7022 92.8403C87.7022 93.6134 87.7022 94.3865 87.7022 95.1614C87.7022 95.406 87.7022 95.4096 87.9512 95.4132C88.101 95.4132 88.2525 95.4132 88.4005 95.4132C88.5918 95.431 88.655 95.3435 88.6965 95.1703C88.9022 94.3062 89.1206 93.442 89.3389 92.5814C89.4111 92.2886 89.4147 92.2886 89.7179 92.2868C89.8352 92.2868 89.9543 92.2975 90.0788 92.2868C90.2592 92.269 90.3025 92.3547 90.2917 92.5082C90.2917 92.6046 90.2917 92.6992 90.2917 92.7939C90.2917 92.8885 90.2773 92.9849 90.1582 93.0099C90.0391 93.0349 89.9777 93.1403 89.9525 93.2617C89.7624 94.033 89.5705 94.8031 89.3768 95.5721C89.3416 95.7049 89.3416 95.8445 89.3768 95.9774C89.6174 96.9629 89.8616 97.9497 90.1095 98.9377C90.1455 99.0894 90.1816 99.2233 90.3639 99.259C90.4577 99.2769 90.4595 99.3501 90.4668 99.4287C90.5155 99.975 90.5173 99.975 89.9669 99.9732H89.8695C89.597 99.9732 89.5933 99.9732 89.5266 99.7108C89.3263 98.9091 89.1314 98.1038 88.9329 97.3057C88.8571 97.0076 88.7777 96.7112 88.7163 96.413C88.7149 96.3764 88.7053 96.3405 88.6882 96.3079C88.6712 96.2754 88.647 96.247 88.6175 96.2248C88.588 96.2026 88.5539 96.1872 88.5176 96.1796C88.4813 96.172 88.4438 96.1724 88.4077 96.1809C88.2273 96.1952 88.0468 96.1809 87.8664 96.1809C87.8449 96.1774 87.8228 96.179 87.8021 96.1857C87.7814 96.1924 87.7626 96.204 87.7473 96.2194C87.7321 96.2348 87.7209 96.2537 87.7146 96.2743C87.7083 96.295 87.7071 96.3168 87.7112 96.338C87.7112 96.4094 87.7112 96.4844 87.7112 96.5576V99.5769C87.7112 99.6518 87.7112 99.725 87.7112 99.8C87.7112 99.9214 87.6607 99.9786 87.5415 99.9786C87.39 99.9786 87.242 99.9786 87.0904 99.9786C86.9803 99.9786 86.9406 99.9214 86.9424 99.8197C86.9424 99.7465 86.9424 99.6715 86.9424 99.5965L86.9316 96.1434ZM43.6219 96.1309V92.685C43.6219 92.6011 43.6219 92.5171 43.6219 92.4296C43.6219 92.3422 43.6562 92.2904 43.7518 92.2922C43.7735 92.2922 43.7951 92.2922 43.8168 92.2922C44.5242 92.3047 44.3816 92.1993 44.3888 92.8278C44.3979 93.6009 44.3888 94.374 44.3888 95.1489C44.3888 95.4131 44.3888 95.4203 44.6523 95.4185C44.8652 95.4185 45.1125 95.4971 45.2803 95.3828C45.4481 95.2685 45.4211 94.9971 45.4734 94.7954C45.6719 94.0384 45.8614 93.2783 46.0418 92.5154C46.0815 92.3493 46.1501 92.2761 46.3197 92.2975C46.3829 92.3065 46.4515 92.2975 46.5128 92.2975C46.659 92.3136 46.8647 92.2225 46.9369 92.3493C47.0271 92.5082 46.9694 92.7225 46.9622 92.9117C46.9622 92.9921 46.8791 93.0064 46.8214 93.0224C46.772 93.0388 46.7285 93.0691 46.6964 93.1098C46.6643 93.1504 46.645 93.1995 46.6409 93.251C46.4479 94.0437 46.253 94.8347 46.0508 95.6256C46.0247 95.727 46.0247 95.8332 46.0508 95.9345C46.3053 96.9522 46.5597 97.9699 46.807 98.9876C46.8395 99.1216 46.8792 99.2287 47.0307 99.259C47.1336 99.2805 47.1534 99.3554 47.1534 99.4501C47.1534 100.096 47.2148 99.9679 46.6734 99.9857H46.6391C46.2494 99.9768 46.2945 100.043 46.197 99.65C45.9348 98.6038 45.6755 97.5557 45.4193 96.5059C45.3435 96.197 45.3417 96.188 45.0168 96.197C44.8165 96.197 44.5657 96.1077 44.4303 96.2541C44.295 96.4005 44.3924 96.6201 44.3924 96.8094C44.3924 97.7414 44.3924 98.6734 44.3924 99.6072C44.3924 99.6804 44.3924 99.7536 44.3924 99.8286C44.3924 99.9339 44.3473 99.9857 44.2391 99.9839C44.2174 99.9839 44.1958 99.9839 44.1741 99.9839C43.4992 99.9839 43.6327 100.061 43.6237 99.4626C43.6147 98.3502 43.6237 97.2379 43.6237 96.1273L43.6219 96.1309ZM99.1269 96.1273V99.5893C99.1269 99.6643 99.1269 99.7375 99.1269 99.8125C99.1269 99.9339 99.0728 99.9911 98.9464 99.9911C98.8201 99.9911 98.6685 99.9911 98.5314 99.9911C98.3942 99.9911 98.3509 99.9268 98.3509 99.7965C98.3509 99.7125 98.3509 99.6286 98.3509 99.5429V93.5581C98.3509 93.4849 98.3509 93.4099 98.3509 93.3367C98.3509 93.0688 98.3509 93.0653 98.0875 93.0599H97.4468C97.205 93.0599 97.196 93.0599 97.1671 93.3027C97.1112 93.7848 97.0661 94.2705 97.0155 94.7543L96.5825 98.9555C96.5554 99.2305 96.5193 99.5036 96.5031 99.7768C96.494 99.9232 96.4363 99.9839 96.2865 99.9804C96.0609 99.9804 95.8372 99.9804 95.6116 99.9804C95.4925 99.9804 95.4311 99.9322 95.4311 99.8125C95.4366 99.7073 95.4366 99.6018 95.4311 99.4965C95.4167 99.3572 95.4654 99.2662 95.6116 99.2465C95.7578 99.2269 95.792 99.1055 95.8065 98.9734C95.8769 98.2592 95.9563 97.545 96.0303 96.8308C96.1506 95.6845 96.2673 94.5371 96.3803 93.3884C96.3984 93.2099 96.4453 93.0421 96.1999 92.9956C96.1367 92.9831 96.1349 92.9278 96.1277 92.8724C96.0483 92.3529 96.0934 92.3011 96.6276 92.3011C97.3223 92.3011 98.0189 92.3011 98.7137 92.3011C99.1792 92.3011 99.1305 92.244 99.1323 92.6993C99.1323 93.8419 99.1323 94.9858 99.1323 96.1309L99.1269 96.1273ZM111.541 96.1309V99.5947C111.541 99.6679 111.541 99.7429 111.541 99.8161C111.541 99.9393 111.481 99.9732 111.36 99.9839C110.765 100.034 110.765 100.036 110.765 99.4358V96.4755C110.765 96.1934 110.765 96.188 110.485 96.1863C110.068 96.1863 109.651 96.1863 109.232 96.1863H108.976C108.87 96.1863 108.821 96.238 108.823 96.3434C108.823 96.4166 108.823 96.4916 108.823 96.5648V99.584C108.823 99.6572 108.823 99.7322 108.823 99.8054C108.823 99.9286 108.767 99.9839 108.642 99.9839C108.518 99.9839 108.364 99.9839 108.226 99.9839C108.087 99.9839 108.034 99.9196 108.045 99.7911C108.045 99.7179 108.045 99.6429 108.045 99.5697V92.6064C108.045 92.2957 108.045 92.2922 108.363 92.294C108.893 92.294 108.821 92.2225 108.825 92.7457C108.825 93.5384 108.825 94.3347 108.825 95.1275C108.825 95.4096 108.825 95.4132 109.101 95.4132C109.559 95.4132 110.021 95.4132 110.481 95.4132C110.761 95.4132 110.766 95.4132 110.766 95.1346C110.766 94.3312 110.766 93.5277 110.766 92.7207C110.766 92.6457 110.766 92.5707 110.766 92.4975C110.756 92.3547 110.801 92.2868 110.963 92.2922C111.67 92.3082 111.532 92.1975 111.535 92.8278C111.535 93.9277 111.535 95.0311 111.535 96.1327L111.541 96.1309ZM59.7764 96.1327V99.5251C59.7764 99.5983 59.7764 99.6733 59.7764 99.7465C59.7854 99.9 59.7331 99.9786 59.5581 99.9768C58.8723 99.9625 59.0041 100.041 59.0005 99.4554C58.9914 98.4913 59.0005 97.5271 59.0005 96.563C59.0005 96.4898 59.0005 96.4166 59.0005 96.3416C59.0005 96.2363 58.9535 96.1845 58.8471 96.1845H57.2049C57.0984 96.1845 57.0497 96.2398 57.0515 96.3434C57.0515 96.4184 57.0515 96.4916 57.0515 96.5666V99.5858C57.0515 99.659 57.0515 99.734 57.0515 99.8072C57.0515 99.9322 56.9902 99.9643 56.8711 99.975C56.2774 100.025 56.2774 100.029 56.2774 99.4287V92.7582C56.2774 92.6957 56.2774 92.6314 56.2774 92.5689C56.2774 92.2957 56.2774 92.2904 56.5607 92.2922C57.1363 92.2922 57.0425 92.2118 57.0479 92.7796C57.0479 93.5741 57.0479 94.3687 57.0479 95.1632C57.0479 95.4042 57.0569 95.4114 57.3005 95.4114C57.7818 95.4114 58.263 95.4114 58.7442 95.4114C58.9824 95.4114 58.9878 95.4114 58.9878 95.1596C58.9878 94.3347 58.9878 93.5081 58.9878 92.6832C58.9878 92.6082 58.9878 92.535 58.9878 92.46C58.9878 92.3404 59.0365 92.2815 59.1593 92.2815C59.8991 92.2922 59.7584 92.1904 59.7638 92.8171C59.7728 93.9187 59.7638 95.0204 59.7638 96.122L59.7764 96.1327ZM69.4056 96.122V92.6993C69.4056 92.6261 69.4056 92.5511 69.4056 92.4779C69.3966 92.3475 69.4489 92.285 69.5861 92.2904C69.8207 92.2904 70.0553 92.2904 70.2917 92.2904H72.1522C72.3976 92.2904 72.4048 92.2904 72.403 92.5368C72.403 93.1546 72.4734 93.0474 71.9122 93.0564C71.4285 93.0564 70.9485 93.0564 70.4685 93.0564C70.1924 93.0564 70.1888 93.0564 70.187 93.3438C70.187 93.939 70.187 94.5341 70.187 95.1293C70.187 95.4167 70.187 95.4167 70.4956 95.4185C70.7626 95.4185 71.0369 95.4185 71.2968 95.4185C72.1991 95.4328 72.7008 95.9363 72.7062 96.829C72.7062 97.4022 72.7062 97.9717 72.7062 98.5449C72.7155 98.7329 72.6853 98.9208 72.6176 99.0967C72.5498 99.2727 72.4459 99.4328 72.3125 99.567C72.179 99.7012 72.0189 99.8066 71.8422 99.8765C71.6656 99.9464 71.4762 99.9794 71.286 99.9732C70.7446 99.9732 70.2159 99.9732 69.6799 99.9732C69.4056 99.9732 69.402 99.9732 69.402 99.684C69.402 98.4937 69.402 97.3081 69.402 96.1273L69.4056 96.122ZM71.9284 97.7128C71.9284 97.4164 71.9284 97.1201 71.9284 96.8201C71.9369 96.7348 71.9264 96.6488 71.8975 96.568C71.8686 96.4872 71.8222 96.4137 71.7614 96.3527C71.7006 96.2917 71.6269 96.2447 71.5457 96.215C71.4645 96.1853 71.3777 96.1737 71.2914 96.1809C71.0027 96.1702 70.7139 96.1809 70.4252 96.1809C70.196 96.1809 70.187 96.1809 70.1834 96.4094C70.1834 96.7665 70.1834 97.1093 70.1834 97.4575C70.1834 97.9432 70.1834 98.4306 70.1834 98.918C70.1834 99.1876 70.1834 99.1894 70.445 99.193C70.7067 99.1965 71.0009 99.193 71.277 99.193C71.701 99.1805 71.9194 98.9573 71.9302 98.5323C71.9302 98.2574 71.9302 97.9824 71.9302 97.7075L71.9284 97.7128ZM92.7207 92.2904C93.0816 92.2904 93.4281 92.2993 93.78 92.2904C93.9442 92.2904 94.0091 92.344 94.0236 92.5011C94.0669 92.9831 94.121 93.4688 94.1697 93.9527C94.3177 95.362 94.4639 96.7725 94.6083 98.1842C94.6588 98.6895 94.7111 99.1948 94.7562 99.7018C94.7797 99.9696 94.7725 99.9714 94.5162 99.9786C94.0272 99.9929 94.02 99.9929 93.9748 99.5144C93.8936 98.8216 93.8233 98.1253 93.7493 97.4307C93.7222 97.1754 93.7222 97.1736 93.4641 97.17C93.0792 97.17 92.6942 97.17 92.3092 97.17C92.0782 97.17 92.0692 97.17 92.044 97.4146C91.9609 98.161 91.8852 98.9091 91.8112 99.6554C91.7787 99.975 91.7823 99.9768 91.4502 99.9786C91.0154 99.9786 91.0081 99.9786 91.0514 99.5376C91.1886 98.1699 91.333 96.8005 91.4755 95.431C91.5459 94.7275 91.6163 94.0205 91.6921 93.317C91.7065 93.1706 91.7137 93.0403 91.5242 92.9992C91.4484 92.9831 91.434 92.926 91.4232 92.8582C91.3474 92.3529 91.3961 92.2922 91.8978 92.2922L92.7207 92.2904ZM92.8831 96.3969C93.0545 96.3969 93.2259 96.3969 93.3956 96.3969C93.6085 96.3969 93.6139 96.3809 93.6121 96.1845C93.6121 96.1416 93.6121 96.1006 93.6121 96.0577C93.5219 95.1543 93.4317 94.249 93.3396 93.3456C93.3108 93.0617 93.3054 93.0617 93.0058 93.0581H92.7171C92.4969 93.0581 92.4843 93.076 92.4608 93.2938C92.4211 93.6604 92.3832 94.0276 92.3471 94.3954C92.284 94.9936 92.228 95.5953 92.1667 96.1916C92.1486 96.3505 92.201 96.4059 92.3471 96.4005C92.5276 96.4005 92.708 96.4005 92.8885 96.4005L92.8831 96.3969ZM75.2308 92.294C75.5917 92.294 75.9382 92.294 76.2919 92.294C76.447 92.294 76.5156 92.3315 76.5301 92.4993C76.6022 93.2599 76.6871 94.0169 76.7665 94.7757C76.9132 96.1755 77.0576 97.5759 77.1996 98.9769C77.2266 99.2412 77.2519 99.5126 77.2808 99.7679C77.297 99.9089 77.2663 99.9875 77.1003 99.9821C76.4308 99.9589 76.5463 100.102 76.4669 99.4251C76.3875 98.7484 76.3279 98.0771 76.2558 97.4039C76.2305 97.1808 76.2251 97.1754 76.0013 97.1718C75.6043 97.1718 75.2091 97.1718 74.8121 97.1718C74.5703 97.1718 74.5649 97.1718 74.5396 97.4218C74.4674 98.1253 74.3971 98.8323 74.3303 99.5376C74.2888 99.9821 74.2924 99.9839 73.8485 99.9804C73.807 99.9804 73.7636 99.9804 73.7185 99.9804C73.5146 99.9696 73.5038 99.9625 73.5254 99.7554C73.659 98.4615 73.7943 97.1665 73.9315 95.8702C74.0205 95.0061 74.1095 94.1419 74.1986 93.2777C74.2112 93.1724 74.231 93.0617 74.0795 93.0278C73.9279 92.9939 73.9134 92.8939 73.9152 92.7653C73.9152 92.185 73.8864 92.3082 74.3646 92.2975C74.6533 92.2975 74.9438 92.2975 75.2326 92.2975L75.2308 92.294ZM75.4022 96.4041H75.8515C76.1493 96.4041 76.1529 96.3916 76.124 96.0934C76.041 95.2721 75.9706 94.449 75.8696 93.6313C75.7866 92.9564 75.9472 93.0742 75.2181 93.0635C74.998 93.0635 74.9962 93.0635 74.9709 93.2974C74.9096 93.8544 74.8494 94.4115 74.7905 94.9686C74.7489 95.3453 74.7129 95.7256 74.6713 96.1041C74.6407 96.3916 74.6461 96.4005 74.9529 96.4023C75.1026 96.4023 75.2524 96.4023 75.4004 96.4023L75.4022 96.4041ZM63.8764 96.1291V99.5572C63.8764 99.6429 63.8764 99.7268 63.8764 99.8107C63.8764 99.9322 63.8205 99.9893 63.6959 99.9786C63.5679 99.9714 63.4396 99.9714 63.3116 99.9786C63.1311 99.9911 63.0968 99.9036 63.0986 99.7482C63.0986 99.0341 63.0986 98.3092 63.0986 97.5896C63.0986 97.5057 63.0986 97.4111 63.0986 97.3361C63.0986 97.2147 63.0481 97.1576 62.9182 97.1665C62.7882 97.1754 62.6403 97.1665 62.5013 97.1665C62.0538 97.1665 62.1548 97.1504 62.0628 97.5039C61.8824 98.2181 61.7127 98.943 61.5214 99.659C61.4348 99.9982 61.4998 99.9732 61.1298 99.9768C61.098 99.9795 61.066 99.9795 61.0342 99.9768C60.888 99.9607 60.6895 100.05 60.6101 99.9232C60.5109 99.7661 60.5776 99.5536 60.5776 99.3644C60.5776 99.3001 60.63 99.2733 60.6823 99.2626C60.8429 99.2251 60.8898 99.1108 60.9241 98.968C61.0541 98.4127 61.1912 97.8574 61.3356 97.3057C61.3629 97.2391 61.3629 97.1646 61.3356 97.0979C61.3083 97.0312 61.2559 96.9777 61.1894 96.9486C60.9905 96.831 60.8275 96.6624 60.7176 96.4606C60.6077 96.2588 60.555 96.0314 60.565 95.8024C60.565 95.0882 60.565 94.3847 60.565 93.6741C60.5594 93.4909 60.592 93.3086 60.6606 93.1384C60.7293 92.9681 60.8325 92.8137 60.964 92.6846C61.0955 92.5555 61.2524 92.4545 61.4249 92.388C61.5975 92.3214 61.7821 92.2906 61.9672 92.2975C62.5085 92.2975 63.0391 92.2975 63.5732 92.2975C63.8511 92.2975 63.8548 92.2975 63.8548 92.5779C63.8548 93.761 63.8548 94.9466 63.8548 96.1345L63.8764 96.1291ZM63.0806 94.7722C63.0806 94.2847 63.0806 93.7991 63.0806 93.3135C63.0806 93.0742 63.0806 93.0706 62.8243 93.0671C62.5482 93.0671 62.2703 93.0581 61.9924 93.0671C61.5611 93.0813 61.341 93.2992 61.3374 93.7188C61.3374 94.3954 61.3374 95.0704 61.3374 95.747C61.3374 96.172 61.5575 96.3898 61.987 96.4041C62.2757 96.4148 62.5627 96.4041 62.8514 96.4041C63.0752 96.4041 63.0806 96.4041 63.0824 96.1648C63.0824 95.7006 63.0824 95.2364 63.0824 94.7722H63.0806ZM107.21 96.1327V99.5929C107.21 99.6661 107.21 99.7411 107.21 99.8143C107.21 99.9357 107.159 99.9929 107.038 99.9929C106.917 99.9929 106.76 99.9929 106.621 99.9929C106.482 99.9929 106.441 99.9304 106.441 99.8C106.441 99.4626 106.441 99.1233 106.441 98.7859C106.441 98.3199 106.441 97.8521 106.441 97.3879C106.441 97.2397 106.39 97.1754 106.237 97.1825C106.066 97.195 105.895 97.195 105.724 97.1825C105.531 97.1629 105.465 97.2504 105.427 97.42C105.253 98.1521 105.073 98.8817 104.885 99.609C104.773 100.041 104.876 99.9946 104.389 99.9929C103.866 99.9929 103.932 100.082 103.922 99.5126C103.922 99.384 103.94 99.2822 104.084 99.2519C104.198 99.2287 104.232 99.1448 104.265 99.0466C104.409 98.4514 104.556 97.8563 104.705 97.2611C104.724 97.2117 104.723 97.1569 104.703 97.1079C104.683 97.0588 104.645 97.0191 104.597 96.9969C104.373 96.8691 104.191 96.6811 104.071 96.4548C103.951 96.2285 103.899 95.9731 103.92 95.7185C103.931 95.0632 103.94 94.4044 103.92 93.7545C103.911 93.5611 103.943 93.3679 104.014 93.1876C104.085 93.0072 104.194 92.8437 104.333 92.7076C104.472 92.5716 104.639 92.466 104.822 92.3978C105.005 92.3296 105.201 92.3003 105.396 92.3118C105.908 92.3297 106.421 92.3118 106.935 92.3118C107.213 92.3118 107.217 92.3118 107.217 92.5903C107.217 93.7807 107.217 94.9662 107.217 96.147L107.21 96.1327ZM106.446 94.7865C106.446 94.3097 106.446 93.8348 106.446 93.3581C106.446 93.0849 106.446 93.0831 106.156 93.0796C105.865 93.076 105.614 93.0796 105.354 93.0796C104.918 93.0938 104.703 93.3045 104.701 93.7312C104.701 94.4079 104.701 95.0828 104.701 95.7613C104.701 96.1898 104.914 96.4023 105.347 96.4166C105.636 96.4273 105.925 96.4166 106.213 96.4166C106.437 96.4166 106.443 96.4166 106.444 96.1791C106.444 95.7131 106.444 95.2489 106.444 94.7847L106.446 94.7865ZM69.8965 30.817C69.8913 30.7925 69.8927 30.767 69.9006 30.7432C69.9086 30.7194 69.9227 30.698 69.9416 30.6813C71.0493 29.3342 72.2931 28.1024 73.6536 27.0051C74.125 26.6392 74.6212 26.3057 75.1387 26.007C75.2542 25.9392 75.3318 25.9159 75.4257 26.0534C76.3749 27.4372 77.5406 28.6281 78.7623 29.7743C78.8201 29.8279 78.9049 29.8689 78.9103 29.9671C78.1181 29.8368 77.3295 29.6886 76.5391 29.5743C75.6118 29.4141 74.6697 29.3542 73.7294 29.3958C72.9809 29.4473 72.2494 29.6406 71.5747 29.9654C71.1037 30.1903 70.6508 30.4528 70.1942 30.7063C70.1058 30.7545 70.0282 30.8456 69.8965 30.8152V30.817ZM142.406 36.2877C142.343 36.4002 142.253 36.4959 142.144 36.5662C141.075 37.4835 140.142 38.5456 139.372 39.7211C138.82 40.5544 138.413 41.4736 138.169 42.4404C138.109 42.6939 138.097 42.6796 137.871 42.6439C136.985 42.51 136.094 42.3832 135.206 42.2511C135.025 42.2261 135.025 42.2029 135.079 42.019C135.177 41.7382 135.298 41.4659 135.44 41.2048C136.049 40.0927 136.895 39.1247 137.92 38.3677C139.201 37.3876 140.677 36.6866 142.251 36.3109C142.292 36.3002 142.334 36.2984 142.41 36.2877H142.406ZM87.2853 35.1932L82.8027 34.5344L78.2679 33.8648L73.7023 33.1917L72.6538 33.0381C72.5798 33.0256 72.5077 33.0167 72.4337 33.0024C72.3903 32.998 72.3494 32.9801 72.3169 32.9512C72.2845 32.9223 72.2622 32.884 72.2532 32.8417C72.2406 32.7525 72.3416 32.7346 72.4012 32.7025C73.2622 32.2327 74.2018 31.9206 75.1748 31.7812C77.1689 31.4759 79.1214 31.7187 81.0451 32.2454C83.1618 32.8242 85.1698 33.7383 86.9912 34.9521C87.1086 35.0095 87.2088 35.0963 87.2817 35.2039L87.2853 35.1932ZM85.8019 22.4932C85.7014 22.5033 85.6009 22.4738 85.5222 22.4111C84.4736 21.8782 83.5237 21.1738 82.7125 20.3275C81.1425 18.7027 81.2598 16.3459 82.2487 14.8032C82.2902 14.7425 82.3354 14.6836 82.3751 14.6247C82.3844 14.6055 82.398 14.5887 82.4149 14.5754C82.4318 14.5622 82.4514 14.5529 82.4724 14.5483C82.4935 14.5436 82.5152 14.5438 82.5362 14.5486C82.5572 14.5535 82.5767 14.5631 82.5934 14.5765C83.6437 15.1496 84.6145 15.8138 85.257 16.8529C85.6273 17.4704 85.8467 18.165 85.8976 18.8812C85.9385 19.6636 85.9307 20.4477 85.8741 21.2291C85.8633 21.5683 85.8453 21.9058 85.829 22.2433C85.8383 22.3242 85.8309 22.4062 85.8074 22.4843L85.8019 22.4932ZM112.064 26.9604C112.062 26.9185 112.065 26.8764 112.075 26.8355C112.567 25.5856 112.991 24.3269 113.54 23.1092C114.421 21.1684 115.918 19.9793 118.051 19.5758C118.629 19.4669 119.215 19.4115 119.787 19.2669C120.026 19.208 120.258 19.1383 120.495 19.0723C120.59 19.9275 119.251 22.6325 118.118 23.8591C116.494 25.6213 114.413 26.5176 112.073 26.9604H112.064ZM72.477 11.8733C72.4517 10.2164 72.3218 8.58627 72.4192 6.95615C72.4609 6.09789 72.6362 5.25114 72.939 4.44579C73.4803 3.05492 74.4259 1.98722 75.6115 1.10163C75.7342 1.00878 75.8028 1.02485 75.8985 1.13555C76.6634 1.99181 77.1264 3.07086 77.2176 4.21011C77.2943 5.23921 77.1249 6.27172 76.7231 7.22397C75.9971 9.04207 74.7012 10.5821 73.0256 11.618C72.892 11.7019 72.7477 11.7733 72.6051 11.8465C72.5641 11.862 72.5209 11.8711 72.477 11.8733ZM112.19 38.8641C112.232 38.807 112.244 38.7748 112.266 38.7605C113.056 38.216 113.82 37.6357 114.637 37.1304C115.853 36.3928 117.219 35.9283 118.636 35.7699C119.559 35.6542 120.491 35.616 121.421 35.6556C122.342 35.679 123.253 35.8503 124.118 36.1627C124.625 36.3378 125.085 36.6241 125.465 37.0001C125.645 37.1786 125.645 37.1929 125.432 37.3161C123.858 38.2728 122.231 39.1425 120.56 39.9211C120.358 40.015 120.132 40.0449 119.912 40.0068C118.391 39.7765 116.868 39.5568 115.346 39.3319L112.197 38.8641H112.19ZM55.0394 0.498143C55.1688 0.501483 55.2943 0.54247 55.4003 0.615983C57.3839 1.58296 59.0183 3.13088 60.0814 5.04928C60.7837 6.2628 61.1918 7.62104 61.2736 9.01709C61.3553 10.4131 61.1084 11.8089 60.5524 13.0946C60.3432 13.6198 60.0878 14.1258 59.7891 14.6068C59.565 14.495 59.3563 14.3552 59.1683 14.1908C58.7173 13.8154 58.3001 13.402 57.9213 12.9553C57.3293 12.2725 56.7866 11.5494 56.2972 10.7913C55.6261 9.72685 55.2061 8.52646 55.0683 7.27932C54.9402 6.2172 54.8914 5.1472 54.9221 4.07799C54.942 2.94422 54.9781 1.81224 55.0087 0.685616C55.0087 0.624911 54.9907 0.558849 55.0466 0.50707L55.0394 0.498143ZM104.268 10.3557C104.025 11.2305 104.073 12.0876 104.102 12.9428C104.145 14.1819 104.178 15.421 104.01 16.6565C103.922 17.3506 103.745 18.0309 103.485 18.6813C103.246 19.284 102.9 19.8392 102.462 20.3203C101.428 21.4403 100.238 22.4094 98.9284 23.1985C98.745 23.3077 98.5558 23.4072 98.3618 23.4966C98.1073 23.6181 98.1019 23.6145 97.9702 23.3717C97.6032 22.7012 97.3439 21.9784 97.2014 21.2291C96.9241 19.7069 97.099 18.1378 97.7049 16.7119C98.6575 14.3129 100.407 12.3061 102.666 11.0216C103.018 10.8198 103.386 10.6466 103.766 10.5039C103.926 10.4326 104.095 10.3828 104.268 10.3557ZM36.2611 4.03335C37.2536 4.66005 38.3544 4.85109 39.4245 5.14034C39.7132 5.2189 40.0001 5.3046 40.2816 5.40101C41.6146 5.84813 42.729 6.77479 43.4035 7.99707C43.6264 8.41989 43.8077 8.86294 43.9449 9.3201C44.6667 11.4359 45.2911 13.5802 45.939 15.7174L46.2512 16.7298C46.2262 16.7497 46.1963 16.7627 46.1646 16.7674C46.1329 16.7721 46.1005 16.7683 46.0707 16.7565C44.7615 16.477 43.4897 16.0473 42.2811 15.4764C39.7006 14.214 38.0241 12.1786 37.1363 9.48257C36.7449 8.26328 36.4848 7.00648 36.3603 5.73311C36.3242 5.38673 36.2881 5.04035 36.2629 4.69219C36.2484 4.49222 36.2629 4.29224 36.2629 4.03871L36.2611 4.03335ZM76.1439 18.7027C76.1716 18.697 76.2003 18.6991 76.2269 18.7089C76.2534 18.7187 76.2765 18.7358 76.2937 18.758C76.8752 19.3232 77.5541 19.781 78.2985 20.1096C78.6847 20.2882 79.0691 20.4774 79.4589 20.6453C81.2737 21.4656 82.938 22.5788 84.3836 23.9394C87.3288 26.6405 89.7053 29.8911 91.3763 33.5041C91.5712 33.9283 91.7423 34.3629 91.8888 34.8057C91.9215 34.8671 91.9323 34.9375 91.9194 35.0057C91.8099 35.0337 91.6945 35.0294 91.5874 34.9932C88.0198 34.3326 84.7878 32.931 81.96 30.6653C79.7476 28.8905 78.0676 26.7176 77.066 24.0591C76.4516 22.3938 76.1394 20.6343 76.1439 18.8616V18.7027ZM93.3162 33.4756C93.2602 33.3685 93.2368 33.3345 93.2223 33.297C92.7773 32.1932 92.2025 31.1451 91.5098 30.1743C90.9793 29.4029 90.4271 28.6423 89.9091 27.8692C89.1302 26.7648 88.5276 25.5484 88.1226 24.2626C87.8586 23.3454 87.7018 22.4013 87.6552 21.4487C87.5256 19.7341 87.6712 18.0101 88.0865 16.3405C88.2799 15.5584 88.5837 14.8071 88.9888 14.1087C89.349 13.4794 89.8533 12.9424 90.4613 12.5411C90.6635 12.4143 90.6725 12.4143 90.7789 12.6018C92.0566 14.8318 93.3288 17.0654 94.3303 19.4347C95.0063 20.9689 95.5011 22.5751 95.8047 24.2215C96.1656 26.3855 96.079 28.5066 95.1965 30.5492C94.7568 31.5516 94.1606 32.4795 93.4299 33.2988C93.3938 33.3381 93.3685 33.3863 93.3072 33.4774L93.3162 33.4756ZM132.764 44.8811C133.138 44.9275 133.52 44.9721 133.899 45.0221L138.67 45.6453C138.936 45.6792 139.199 45.722 139.464 45.756C139.553 45.7685 139.6 45.8077 139.596 45.897C139.596 45.9506 139.596 46.0024 139.596 46.0559C139.596 47.4426 139.596 48.8305 139.596 50.2196C139.615 50.3193 139.598 50.4223 139.547 50.5106C138.876 50.441 138.196 50.3749 137.516 50.3053C136.77 50.2303 136.027 50.1535 135.281 50.0821C135.018 50.0571 135.013 50.0661 135.011 50.3267C135.011 51.517 135.011 52.7032 135.011 53.8852C135.011 54.1387 135.011 54.1387 135.28 54.1583C135.877 54.2065 136.476 54.2494 137.072 54.2976C137.366 54.3208 137.371 54.3244 137.369 54.6226C137.369 56.0402 137.365 57.4591 137.355 58.8791C137.355 59.1398 137.355 59.1398 137.086 59.1273C136.476 59.1005 135.866 59.0683 135.256 59.0469C134.993 59.0362 134.987 59.0469 134.986 59.3022C134.986 60.4925 134.982 61.6787 134.975 62.8607C134.975 63.1249 134.975 63.1285 135.267 63.1356L139.183 63.241C139.237 63.241 139.291 63.241 139.345 63.241C139.584 63.2499 139.587 63.2499 139.587 63.4963C139.587 64.9139 139.587 66.3328 139.587 67.7528C139.587 68.0064 139.587 68.0081 139.279 68.0081L133.82 68.0349C133.509 68.0349 133.197 68.0349 132.889 68.0349C132.73 68.0349 132.647 67.9867 132.665 67.8171C132.665 67.7225 132.665 67.6261 132.665 67.5296C132.683 60.0974 132.701 52.6633 132.719 45.2275C132.698 45.1066 132.714 44.9823 132.764 44.8704V44.8811ZM140.841 67.9635C140.95 67.5046 141.054 67.0422 141.168 66.5816C141.624 64.7116 142.083 62.841 142.545 60.9699C142.626 60.6396 142.624 60.6395 142.29 60.6271C142.034 60.6181 141.776 60.6056 141.52 60.6038C141.37 60.6038 141.305 60.536 141.32 60.3878C141.32 60.336 141.32 60.2825 141.32 60.2307C141.32 55.6016 141.32 50.9737 141.32 46.3469C141.32 45.9738 141.32 45.9791 141.695 46.0274L146.464 46.6523C146.795 46.6933 147.123 46.7344 147.45 46.779C147.686 46.8112 147.686 46.813 147.693 47.0611V47.22C147.693 53.9953 147.693 60.7723 147.693 67.5511C147.693 68.0278 147.74 67.9724 147.264 67.976C146.858 67.976 146.45 67.976 146.044 67.976C145.703 67.976 145.703 67.976 145.703 67.6189V65.2978C145.703 63.973 145.703 62.6488 145.703 61.3252C145.703 61.2537 145.703 61.177 145.703 61.1038C145.703 60.9752 145.667 60.9092 145.522 60.9056C145.331 60.9056 145.138 60.8931 144.945 60.8734C144.783 60.8556 144.721 60.9252 144.689 61.0752C144.577 61.6108 144.451 62.1465 144.328 62.6821C143.967 64.3485 143.606 66.015 143.245 67.6814C143.182 67.976 143.182 67.976 142.884 67.976C142.307 67.976 141.727 67.976 141.15 67.976C141.046 67.99 140.94 67.979 140.841 67.9439V67.9635ZM143.391 53.5191V55.8045C143.391 56.2223 143.391 56.1616 143.723 56.1795C144.288 56.2205 144.853 56.2616 145.418 56.2955C145.703 56.3134 145.708 56.308 145.708 56.0349C145.708 54.4791 145.708 52.924 145.708 51.3694C145.708 51.107 145.708 51.1052 145.445 51.0784C144.849 51.0159 144.254 50.9588 143.658 50.8999C143.397 50.8731 143.389 50.8749 143.388 51.1409C143.388 51.9337 143.388 52.7282 143.388 53.5209L143.391 53.5191ZM73.1898 14.8854C73.2078 15.421 73.2223 15.8799 73.2403 16.3423C73.2764 17.2225 73.3089 18.101 73.3504 18.9776C73.4154 20.3221 73.5309 21.6558 73.9188 22.961C74.0724 23.4905 74.2716 24.0061 74.5144 24.5019C74.5362 24.5285 74.552 24.5594 74.5608 24.5926C74.5696 24.6257 74.5712 24.6603 74.5654 24.6941C74.5596 24.7279 74.5465 24.7601 74.5272 24.7885C74.5078 24.817 74.4825 24.841 74.453 24.8589C72.3831 26.5623 70.1617 28.0174 67.6083 28.9209C67.2457 29.0489 66.8764 29.1573 66.5021 29.2458C66.2602 29.303 66.2386 29.2905 66.2386 29.0476C66.258 28.3433 66.3567 27.6432 66.5327 26.9604C67.0194 25.0388 67.7127 23.1743 68.6008 21.3987C69.869 18.7084 71.4659 16.1822 73.3558 13.8766C74.4252 12.5627 75.6867 11.414 77.0985 10.4681C78.1801 9.76472 79.2057 8.9804 80.1663 8.12205C81.4818 6.98098 82.569 5.60553 83.3712 4.06728C83.3904 4.03157 83.4121 3.99586 83.4361 3.96015C83.4361 3.96015 83.4542 3.94944 83.4795 3.93694C83.5599 4.17223 83.6073 4.41735 83.6202 4.6654C83.9431 7.05231 83.7898 9.47869 83.1691 11.8072C83.0807 12.1447 83.142 12.2125 82.7468 11.9983C82.6151 11.9269 82.4761 11.8679 82.3498 11.793C82.3291 11.7768 82.3051 11.7653 82.2795 11.7593C82.2539 11.7533 82.2272 11.7529 82.2014 11.7582C82.1756 11.7635 82.1513 11.7743 82.1302 11.7899C82.109 11.8054 82.0916 11.8254 82.0791 11.8483C81.9672 12.0036 81.8445 12.1501 81.7182 12.3C81.3771 12.7357 81.0397 13.1713 80.6968 13.607C79.9246 14.5889 79.4078 15.7433 79.1918 16.969C79.1774 17.0529 79.1918 17.1476 79.0998 17.2083C77.1815 16.3655 75.1911 15.6942 73.188 14.8997L73.1898 14.8854ZM111.512 17.3689C111.702 17.9024 111.836 18.4541 111.91 19.0151C112.205 21.1577 111.748 23.1396 110.727 25.0179C109.841 26.608 108.674 28.0274 107.28 29.2083C105.003 31.2169 102.295 32.6876 99.3597 33.5095C98.2809 33.8248 97.1582 33.9677 96.0339 33.9327H95.9689C95.5611 33.9184 95.5611 33.9184 95.6838 33.5488C96.0533 32.4652 96.5176 31.4155 97.0715 30.4117C98.9014 27.0326 101.406 24.0563 104.432 21.663C105.47 20.879 106.579 20.1928 107.746 19.6133C108.648 19.1455 109.55 18.6991 110.429 18.1849C110.816 17.9487 111.179 17.6754 111.512 17.3689ZM96.5807 36.1323C96.6924 36.0474 96.8295 36.0016 96.9704 36.002C98.0594 35.7697 99.1066 35.3754 100.076 34.8325C101.09 34.2665 102.106 33.6988 103.081 33.0631C105.123 31.7005 107.328 30.5939 109.646 29.769C111.216 29.2405 112.835 28.8679 114.48 28.6566C115.761 28.4781 117.054 28.3638 118.322 28.1013C119.509 27.8642 120.648 27.434 121.693 26.8283C121.739 26.8002 121.786 26.7746 121.834 26.7515C121.862 26.7474 121.891 26.7474 121.919 26.7515C121.886 26.8551 121.857 26.9515 121.823 27.0479C121.324 28.3923 120.618 29.6523 119.73 30.7831C118.208 32.7593 116.321 34.431 114.168 35.7092C112.849 36.48 111.404 37.0166 109.898 37.2947C108.458 37.5685 107 37.7368 105.535 37.7982C105.011 37.8009 104.488 37.7531 103.974 37.6553C102.29 37.4125 100.608 37.1608 98.9212 36.9126C98.6144 36.8679 98.304 36.8358 98.0008 36.7769C97.4811 36.6733 97.0426 36.393 96.5807 36.1323ZM122.677 43.5652L124.707 43.8259L128.365 44.3044C129.012 44.3901 129.66 44.4829 130.306 44.5561C130.436 44.5722 130.505 44.6151 130.498 44.749C130.498 44.8132 130.498 44.8775 130.498 44.94C130.489 50.1405 130.478 55.3409 130.463 60.5413C130.463 61.0359 130.534 60.9913 130.027 60.9734C128.507 60.9163 126.989 60.8681 125.47 60.8163H125.308C125.203 60.8163 125.149 60.8574 125.151 60.9645C125.152 61.0716 125.151 61.1341 125.151 61.2198L125.134 67.5743V67.7332C125.134 68.1046 125.165 68.0778 124.788 68.0778C124.136 68.0778 123.483 68.0778 122.828 68.0778C122.53 68.0778 122.527 68.0778 122.527 67.785C122.527 66.5762 122.541 65.3692 122.547 64.1623C122.574 57.4347 122.602 50.7094 122.63 43.9866C122.606 43.845 122.623 43.6996 122.678 43.567L122.677 43.5652ZM125.205 52.3407H125.174C125.174 53.3477 125.174 54.3512 125.174 55.3564C125.174 55.6135 125.174 55.6171 125.434 55.6367C125.975 55.6778 126.517 55.7117 127.067 55.751L127.867 55.8063C127.984 55.8152 128.047 55.7742 128.047 55.6474C128.047 55.5849 128.047 55.5206 128.047 55.4581C128.047 53.7417 128.051 52.0265 128.06 50.3125C128.06 50.0589 128.06 49.8054 128.06 49.5518C128.06 49.3876 127.996 49.3358 127.836 49.3197C127.251 49.268 126.666 49.2019 126.082 49.1412L125.38 49.0716C125.257 49.0573 125.199 49.1037 125.199 49.2287C125.199 49.2715 125.199 49.3126 125.199 49.3554L125.205 52.3407ZM67.4458 0C67.5636 0.0445109 67.6697 0.114691 67.7562 0.205328C68.2531 0.626796 68.6688 1.13369 68.9833 1.70154C69.522 2.66744 69.9125 3.70724 70.1419 4.78682C70.6311 6.99269 70.8132 9.25438 70.6833 11.5091C70.6368 12.7052 70.4901 13.8954 70.2447 15.0675C69.9146 16.506 69.3748 17.8893 68.6423 19.174C68.0035 20.3257 67.2672 21.4184 66.5779 22.5414C65.7686 23.8027 65.1212 25.1588 64.6506 26.5783C64.6018 26.7301 64.5567 26.8837 64.5062 27.0336C64.5062 27.0533 64.4827 27.0658 64.4701 27.0854C64.3672 27.0336 64.3312 26.9265 64.277 26.8408C63.0868 24.9452 62.3258 22.8169 62.0466 20.6024C61.8151 18.7069 61.8522 16.7886 62.1567 14.9032C62.6096 11.9233 63.5462 9.08085 64.656 6.2866C65.4753 4.22797 66.3938 2.2104 67.3159 0.196401C67.34 0.120285 67.385 0.0522879 67.4458 0V0ZM112.187 55.1439L112.257 42.5618C112.257 42.2404 112.179 42.1815 112.618 42.2404C114.323 42.4725 116.032 42.685 117.739 42.9064C118.683 43.0278 119.625 43.1545 120.571 43.2777C120.843 43.3135 120.847 43.3099 120.847 43.5866L120.83 47.1772C120.83 47.5682 120.83 47.961 120.83 48.352C120.83 48.5913 120.83 48.5948 120.601 48.5734L116.196 48.1235C115.953 48.0985 115.707 48.0717 115.462 48.0503C115.123 48.0181 115.123 48.0199 115.119 48.3467C115.119 49.2912 115.101 50.2321 115.094 51.1748C115.094 51.5569 115.094 51.9372 115.094 52.3193C115.094 52.5836 115.094 52.5889 115.357 52.6086C115.985 52.6585 116.62 52.7032 117.245 52.7514C117.447 52.7675 117.649 52.796 117.853 52.8014C118.012 52.8014 118.059 52.8782 118.046 53.0192C118.046 53.0603 118.046 53.1031 118.046 53.146C118.039 54.7029 118.033 56.2598 118.028 57.8167V57.9114C118.028 58.1935 118.028 58.1935 117.743 58.1792C116.942 58.1417 116.14 58.1024 115.337 58.0667C115.074 58.0542 115.068 58.0667 115.067 58.3238C115.067 59.6677 115.062 61.0127 115.054 62.359C115.054 62.625 115.054 62.6321 115.348 62.6393C116.642 62.6732 117.938 62.7018 119.232 62.7321C119.67 62.7446 120.109 62.7553 120.547 62.7732C120.769 62.7821 120.778 62.7892 120.776 63.016C120.776 64.6146 120.77 66.2138 120.756 67.8135C120.756 68.0706 120.747 68.076 120.484 68.0778L112.39 68.1206C112.132 68.1206 112.129 68.1206 112.131 67.8528C112.131 66.5601 112.15 65.2675 112.152 63.9766C112.152 61.0318 112.152 58.0875 112.152 55.1439H112.187ZM34.5936 15.762C34.9464 15.7476 35.2996 15.7703 35.6475 15.8299C38.1204 16.0709 40.5463 16.657 42.8532 17.5707C45.2557 18.5669 47.4902 19.9204 49.4795 21.5844C50.851 22.7057 52.1359 23.9198 53.4315 25.1232C54.5251 26.1391 55.6277 27.1408 56.8169 28.0478C58.1885 29.1181 59.7124 29.982 61.3392 30.6117C61.3969 30.6349 61.4709 30.6331 61.4962 30.7242C61.1944 30.9182 60.8726 31.0799 60.5361 31.2063C60.4438 31.2339 60.3452 31.2339 60.2528 31.2063C59.0023 31.0277 57.7553 30.8492 56.5065 30.6706L51.9356 29.9957L47.3971 29.3244C47.3122 29.3119 47.2274 29.2994 47.1426 29.2922C46.6854 29.2441 46.2408 29.114 45.8307 28.9084C44.7415 28.4135 43.6806 27.8597 42.6528 27.2497C42.0365 26.8665 41.4464 26.4436 40.8862 25.9838C39.6038 24.916 38.5847 23.5725 37.9068 22.0558C37.5098 21.1863 37.176 20.2935 36.8024 19.4151C36.2836 18.1352 35.5617 16.9454 34.664 15.8906C34.6375 15.8526 34.6139 15.8126 34.5936 15.771V15.762ZM46.7384 6.02592C46.8088 6.06521 46.8485 6.08306 46.8828 6.10627C48.5069 7.27932 50.2014 8.35595 51.8399 9.51114C53.1139 10.4039 54.3807 11.3234 55.4779 12.4286C57.9628 14.9282 59.8251 17.81 60.8916 21.1773C61.5395 23.2306 62.0177 25.325 62.4923 27.4264C62.5392 27.6407 62.5248 27.6621 62.2956 27.6728C61.5562 27.6987 60.8173 27.6113 60.1049 27.4139C58.845 27.068 57.6461 26.5333 56.5498 25.8285C54.1194 24.2828 52.0219 22.2767 50.3782 19.9257C48.7444 17.6876 47.5742 15.1518 46.9351 12.4643C46.4431 10.4074 46.3659 8.27482 46.7077 6.1884C46.7077 6.14912 46.724 6.10627 46.7402 6.03128L46.7384 6.02592ZM78.8056 37.8339L80.1284 38.0035C80.9206 38.1071 81.7164 38.216 82.5122 38.3124C82.662 38.332 82.7215 38.382 82.7143 38.5302C82.7035 38.7088 82.7017 38.8873 82.7017 39.0658C82.6692 42.5725 82.6385 46.0785 82.6097 49.584C82.6097 49.6358 82.6097 49.6893 82.6097 49.7411C82.597 49.8964 82.6782 49.9393 82.8208 49.95C83.3333 49.9839 83.844 50.0286 84.3565 50.0696L86.6284 50.2482C86.6826 50.2482 86.7349 50.2482 86.789 50.2607C86.9154 50.275 86.9695 50.2143 86.9695 50.0964C86.9695 49.9268 86.9785 49.7572 86.9803 49.5893L87.0724 39.3247C87.0724 38.9123 87.0724 38.9052 87.4784 38.9551C88.4853 39.0813 89.4929 39.2117 90.5011 39.3462C90.7627 39.3801 90.7627 39.3854 90.7609 39.7033C90.7393 42.1065 90.7182 44.5109 90.6977 46.9165L90.5768 60.4503C90.5552 62.9202 90.5329 65.3883 90.5101 67.8546C90.5101 68.1867 90.5101 68.1885 90.1834 68.1903L87.1626 68.2063H87.0363C86.7999 68.2045 86.7999 68.2045 86.7999 67.976C86.7999 67.8903 86.7999 67.7975 86.7999 67.7225C86.8372 64.1313 86.8739 60.5408 86.91 56.9508C86.91 56.4741 86.9316 56.5508 86.5292 56.5294C85.2786 56.4598 84.0262 56.4044 82.7757 56.3509C82.5465 56.3402 82.5447 56.3419 82.5411 56.6044C82.5254 57.715 82.5104 58.8267 82.496 59.9397C82.4707 62.5976 82.4466 65.2556 82.4238 67.9135C82.4238 68.2706 82.4436 68.2492 82.0972 68.251H78.7569C78.7251 68.2483 78.6931 68.2483 78.6613 68.251C78.4808 68.2742 78.4447 68.1885 78.4465 68.0313C78.4555 67.3832 78.4465 66.7369 78.461 66.0906C78.5476 57.7453 78.6348 49.4001 78.7226 41.0549C78.7334 40.0782 78.7479 39.1051 78.7641 38.1303C78.7483 38.0282 78.7634 37.9239 78.8074 37.8303L78.8056 37.8339ZM110.355 41.9369C110.193 42.5404 110.043 43.1117 109.886 43.6813C108.947 47.1022 108.005 50.5231 107.06 53.9441C106.987 54.2064 106.987 54.4834 107.06 54.7458C108.15 59.0916 109.236 63.4362 110.319 67.7796C110.364 67.8747 110.378 67.9815 110.359 68.0849C110.266 68.1136 110.168 68.1221 110.072 68.1099C109.216 68.1099 108.359 68.1188 107.502 68.1099C107.164 68.1099 107.193 68.1742 107.098 67.8117C106.195 64.4658 105.4 61.0984 104.532 57.7453C104.516 57.6949 104.502 57.6436 104.492 57.5918C104.492 57.5599 104.486 57.5283 104.472 57.4993C104.459 57.4702 104.44 57.4444 104.415 57.4236C104.391 57.4028 104.362 57.3876 104.331 57.379C104.3 57.3705 104.267 57.3687 104.236 57.3739C104.055 57.3739 103.893 57.3739 103.723 57.3597C103.617 57.3597 103.563 57.3989 103.566 57.5079C103.57 57.6168 103.566 57.6864 103.566 57.7632C103.544 61.1115 103.523 64.4586 103.503 67.8046C103.503 67.8475 103.503 67.8903 103.503 67.9314C103.521 68.0921 103.433 68.1367 103.292 68.1295C103.238 68.1295 103.184 68.1295 103.129 68.1295L100.657 68.1456C100.175 68.1456 100.237 68.1706 100.237 67.7457C100.237 67.1725 100.246 66.6012 100.249 66.0281L100.302 57.6061C100.302 57.5329 100.302 57.4579 100.302 57.3847C100.311 57.2418 100.262 57.1633 100.103 57.1722C99.8794 57.1847 99.6232 57.0758 99.4427 57.1918C99.2622 57.3079 99.2893 57.5703 99.2316 57.7703C98.2775 61.1317 97.3241 64.4944 96.3713 67.8582C96.2666 68.2295 96.2883 68.1599 95.9653 68.1617C94.9385 68.1617 93.9081 68.1617 92.8813 68.1617C92.7861 68.1769 92.6885 68.1677 92.598 68.1349C92.5932 68.0186 92.6168 67.9029 92.6665 67.7975C94.0019 63.1553 95.3391 58.5131 96.6781 53.8709C96.7223 53.7192 96.7223 53.5583 96.6781 53.4067C95.4943 48.9537 94.3111 44.5014 93.1285 40.0496C93.0996 39.9389 93.0726 39.8265 93.0383 39.6925C93.3559 39.6408 93.6464 39.7336 93.9406 39.7657C94.7165 39.855 95.4907 39.9657 96.2648 40.0657C96.5626 40.1032 96.5662 40.1014 96.642 40.3942C97.5515 43.8985 98.4616 47.4033 99.3723 50.9088C99.4535 51.2177 99.4535 51.2177 99.7765 51.2373C99.9155 51.248 100.054 51.2516 100.193 51.2605C100.302 51.2605 100.35 51.2177 100.349 51.1123C100.347 51.007 100.349 50.9427 100.349 50.857C100.373 47.5539 100.395 44.249 100.415 40.9424C100.415 40.8995 100.415 40.8567 100.415 40.8174C100.397 40.6513 100.482 40.6156 100.626 40.6388C100.987 40.687 101.328 40.7281 101.677 40.7745C102.261 40.8513 102.844 40.9317 103.427 41.012C103.665 41.0424 103.669 41.0441 103.669 41.2816C103.669 42.1904 103.669 43.1028 103.656 44.0134C103.642 46.4071 103.627 48.8014 103.611 51.1963C103.614 51.2492 103.614 51.3022 103.611 51.3552C103.605 51.3809 103.605 51.4077 103.612 51.4334C103.618 51.459 103.631 51.4828 103.648 51.5026C103.666 51.5224 103.688 51.5377 103.713 51.5472C103.738 51.5566 103.765 51.56 103.792 51.5569C103.952 51.5587 104.112 51.5695 104.272 51.5891C104.436 51.6123 104.495 51.5462 104.537 51.3962C104.694 50.791 104.865 50.191 105.033 49.5876C105.747 47.0058 106.459 44.4234 107.17 41.8405C107.179 41.8101 107.19 41.7797 107.199 41.7494C107.273 41.5084 107.273 41.5048 107.533 41.5369L109.186 41.7601L110.351 41.9119L110.355 41.9369ZM73.2836 68.2795H71.461C71.1957 68.2795 71.1903 68.2795 71.1741 68.0242C71.1362 67.3582 71.1019 66.6905 71.0676 66.0245C70.987 64.395 70.9058 62.766 70.824 61.1377C70.8114 60.8377 70.8042 60.8359 70.4865 60.827C69.0645 60.7895 67.6407 60.7485 66.2187 60.7128C65.939 60.7128 65.9408 60.7128 65.9192 60.9895L65.3995 68.0564C65.3814 68.3063 65.3814 68.3099 65.1161 68.3099C63.7573 68.3099 62.3949 68.3188 61.036 68.3206C60.7762 68.3206 60.7671 68.3206 60.787 68.0564C60.8537 67.1065 60.9277 66.1548 61.0017 65.1996C61.0775 64.2158 61.1569 63.2356 61.2327 62.2536L61.5359 58.3256L61.812 54.619C61.9323 53.0133 62.0526 51.4063 62.1729 49.7982C62.2643 48.5734 62.3576 47.3486 62.4526 46.1238C62.5717 44.6347 62.6944 43.1474 62.8135 41.6601C62.9092 40.4656 62.994 39.2747 63.0968 38.0892C63.1492 37.4143 63.1997 36.7376 63.2592 36.0627C63.2809 35.8235 63.2917 35.8127 63.5299 35.8431C64.2626 35.9324 64.9946 36.0258 65.7261 36.1234L69.4164 36.6055L73.0454 37.0786C73.2367 37.1018 73.4262 37.1465 73.6175 37.1536C73.8088 37.1608 73.8593 37.2661 73.8665 37.4375C73.8828 37.9339 73.9098 38.4302 73.9369 38.9284C74.0391 41.0233 74.142 43.1176 74.2455 45.2114C74.3195 46.7148 74.388 48.2163 74.462 49.7179C74.5595 51.7069 74.6581 53.6959 74.758 55.6849C74.8265 57.0407 74.8963 58.3946 74.9673 59.7468C75.0684 61.6513 75.1706 63.5558 75.2741 65.4603C75.3198 66.3066 75.3643 67.1523 75.4076 67.9974C75.4221 68.2581 75.4076 68.2617 75.1496 68.2635C74.5288 68.2635 73.908 68.2635 73.2872 68.2635L73.2836 68.2795ZM70.5136 53.8334C70.4396 52.4693 70.362 51.1052 70.2935 49.7447C70.2159 48.1895 70.1473 46.6362 70.0751 45.0811C70.0535 44.6061 70.0318 44.1294 70.0138 43.6527C70.0138 43.5081 69.9759 43.4188 69.8008 43.4027C69.0032 43.3277 68.2056 43.2438 67.4098 43.1581C67.2582 43.1421 67.1986 43.1849 67.1896 43.3367C67.1697 43.717 67.1355 44.0973 67.1048 44.4758C67.0055 45.7631 66.9045 47.0504 66.8088 48.336C66.7276 49.4447 66.6518 50.5535 66.5742 51.6623C66.5291 52.3157 66.4876 52.971 66.4371 53.6263C66.4263 53.7691 66.4569 53.8548 66.6175 53.8495C66.6591 53.8495 66.7024 53.8584 66.7457 53.8602L70.3007 54.0655C70.519 54.0762 70.5262 54.0655 70.5118 53.8298L70.5136 53.8334ZM3.16702 0.874875C3.5117 0.924868 3.84915 0.973075 4.1848 1.02485C4.9355 1.14091 5.69342 1.2034 6.45134 1.25161C8.34253 1.37302 10.2409 1.45515 12.1231 1.59084C14.3788 1.74796 16.6147 2.04435 18.8 2.66212C20.6853 3.1655 22.4622 4.00404 24.0441 5.13677C26.1663 6.70083 27.6099 8.74875 28.5898 11.1663C29.1371 12.5721 29.4385 14.0598 29.4813 15.5656C29.5372 16.8155 29.521 18.0867 29.6112 19.3454C29.662 20.2229 29.8097 21.0922 30.0515 21.9379C30.0678 21.9879 30.0642 22.0451 30.1345 22.0879C30.223 22.0236 30.1869 21.9219 30.1887 21.8415C30.2031 21.2291 30.1995 20.6149 30.2609 20.0007C30.337 18.9884 30.6303 18.0038 31.1213 17.1125C31.6124 16.2212 32.2898 15.4437 33.1085 14.8318C33.1518 14.7997 33.1969 14.7765 33.2402 14.7479C33.2531 14.7596 33.2619 14.7752 33.2651 14.7922C33.2684 14.8093 33.266 14.8269 33.2582 14.8425C32.8721 15.5799 32.7295 16.3816 32.6357 17.194C32.4173 19.108 32.4859 21.022 32.6068 22.9378C32.6934 24.2894 32.8288 25.6392 32.9785 26.9854C33.002 27.1943 32.9966 27.1979 32.7764 27.164L28.6259 26.5516C28.4021 26.5176 28.3931 26.5176 28.3624 26.2355C28.2848 25.5089 28.1946 24.7857 28.0845 24.0626C27.7236 21.6576 27.1823 19.3008 26.1591 17.069C24.95 14.414 23.1599 12.2483 20.6335 10.7163C18.9604 9.72501 17.1301 9.02055 15.2198 8.6327C14.9166 8.56663 14.6116 8.51664 14.3066 8.45415C14.3066 8.45415 14.2904 8.46308 14.2814 8.46843C14.3651 8.55207 14.4687 8.61348 14.5827 8.64698C15.7129 9.15213 16.8119 9.72268 17.8743 10.3557C19.9171 11.6055 21.6404 13.1785 22.909 15.2121C23.9066 16.8357 24.589 18.6293 24.9211 20.5006C24.9771 20.8024 25.0222 21.1077 25.0619 21.4112C25.0835 21.6041 25.0835 21.6041 24.867 21.6041C24.4934 21.6041 24.1181 21.6041 23.7445 21.588C21.5195 21.4951 19.3342 21.1934 17.23 20.4364C14.5863 19.4847 12.4696 17.8457 10.7967 15.6156C9.8176 14.281 8.95778 12.8645 8.22704 11.3823C7.24896 9.45222 6.38277 7.46858 5.46063 5.51171C4.76768 4.03335 4.04765 2.56749 3.26266 1.13198C3.20787 1.05641 3.17482 0.967558 3.16702 0.874875ZM41.2525 50.6892C41.3427 45.1947 41.4336 39.6991 41.525 34.2023C41.525 33.863 41.5394 33.5256 41.5521 33.1863C41.5629 32.9756 41.5719 32.9649 41.7776 32.9917L43.8132 33.2595C45.0319 33.4202 46.2512 33.5797 47.471 33.738L51.1289 34.2165L54.7886 34.6933C55.6566 34.8075 56.5264 34.9164 57.3962 35.0307C57.6669 35.0682 57.6687 35.0736 57.6651 35.3503L57.5243 45.0739C57.4978 46.9487 57.472 48.8228 57.4467 50.6963C57.4166 53.1115 57.386 55.526 57.3547 57.9399C57.3547 58.3256 57.4142 58.3256 56.9757 58.3077L52.4192 58.1417L46.9297 57.9417H46.8034C46.5236 57.9417 46.5218 57.9417 46.5164 58.2185C46.4876 60.1825 46.4641 62.1376 46.4352 64.098C46.4172 65.4323 46.3973 66.7661 46.3757 68.0992C46.3757 68.3777 46.3757 68.3795 46.0942 68.3813L41.2778 68.3974C40.9728 68.3974 40.971 68.3974 40.9746 68.1046C41.0335 64.3551 41.0937 60.6056 41.155 56.8562C41.1875 54.8017 41.22 52.7466 41.2525 50.691V50.6892ZM46.7059 45.7506C46.6879 46.8516 46.6692 47.9527 46.65 49.0537C46.65 49.4679 46.65 49.8804 46.6319 50.2928C46.6319 50.441 46.6843 50.5089 46.834 50.5089C46.9207 50.5089 47.0055 50.5089 47.0903 50.5231C48.2651 50.5981 49.4362 50.6785 50.6128 50.7517C51.1686 50.7898 51.7238 50.8225 52.2784 50.8499C52.4896 50.8624 52.4896 50.8499 52.5022 50.6463C52.5022 50.6142 52.5022 50.5838 52.5022 50.5517C52.5419 47.7021 52.581 44.8537 52.6195 42.0065C52.6195 41.6494 52.6195 41.6494 52.2586 41.6226C51.7046 41.5708 51.1506 41.5101 50.5984 41.4548L47.0867 41.0977C46.7835 41.0691 46.7799 41.0763 46.7763 41.3637C46.7486 42.8242 46.7246 44.2847 46.7041 45.7453L46.7059 45.7506ZM145.898 13.6873C145.768 13.6922 145.643 13.7337 145.537 13.807C141.433 15.771 138.524 18.8741 136.705 22.9949C135.852 24.9731 135.228 27.0408 134.847 29.1583C134.49 31.1175 134.249 33.0956 134.125 35.0825C133.973 37.2822 133.908 39.4819 133.872 41.6887C133.872 42.0458 133.872 42.0565 133.511 42.0065C132.465 41.8565 131.417 41.7042 130.368 41.5494C130.117 41.5137 130.12 41.5101 130.137 41.2405C130.264 39.2524 130.172 37.2565 129.864 35.2878C129.313 31.7721 128.512 28.2991 127.468 24.8947C126.8 22.6271 125.921 20.4258 124.842 18.3188C124.334 17.3253 123.716 16.391 122.998 15.5335C122.626 15.093 122.202 14.6985 121.735 14.3587C121.638 14.2857 121.531 14.2257 121.419 14.1801C123.034 17.4689 124.21 20.9167 125.255 24.409C126.3 27.9014 127.161 31.4366 127.601 35.0575C127.486 35.0968 127.432 35.0307 127.372 34.995C125.719 33.965 124.213 32.7221 122.891 31.2991C122.783 31.1813 122.693 31.0956 122.792 30.8938C123.75 28.9994 123.821 27.0336 123.245 25.0232C123.217 24.8641 123.156 24.7126 123.065 24.5786C122.067 25.2928 120.923 25.6035 119.717 25.7213C119.701 25.6231 119.784 25.5946 119.836 25.5428C120.906 24.6251 121.46 23.4467 121.677 22.0772C121.803 21.2488 121.832 20.4114 121.917 19.5776C121.965 19.055 122.061 18.538 122.206 18.0331C122.272 17.81 122.262 17.7921 122.016 17.7475C121.763 17.7049 121.506 17.681 121.249 17.676C120.05 17.655 118.852 17.7471 117.671 17.951C117.601 17.9701 117.527 17.9701 117.458 17.951C117.436 17.7296 117.405 17.5011 117.393 17.2707C117.299 15.7049 117.294 14.1373 117.342 12.5678C117.366 11.8697 117.378 11.1716 117.375 10.4735C117.392 9.94824 117.326 9.42352 117.18 8.91837C117.323 8.87451 117.477 8.87142 117.622 8.90944C119.016 9.06161 120.393 9.33708 121.736 9.73254C123.469 10.2234 125.1 11.0121 126.556 12.0626C128.911 13.8105 130.346 16.137 130.983 18.9634C131.327 20.5504 131.446 22.1772 131.335 23.7966C131.249 25.2342 131.049 26.6628 130.736 28.0692C130.56 28.9344 130.587 29.8281 130.815 30.6813C131.002 31.388 131.234 32.0822 131.51 32.7596C131.521 32.7882 131.533 32.8185 131.579 32.815C131.624 32.8114 131.604 32.7489 131.602 32.7096C131.539 31.2366 131.523 29.7654 131.584 28.2942C131.707 25.3732 132.096 22.495 133.049 19.7115C133.87 17.3154 135.078 15.1407 136.839 13.2838C138.6 11.4269 140.715 10.1325 143.088 9.21297C144.837 8.5532 146.652 8.07918 148.502 7.79889C150.538 7.49802 152.593 7.33813 154.652 7.32038C154.747 7.32038 154.845 7.32038 154.94 7.32038C154.957 7.32038 154.975 7.33824 154.993 7.34895C155.022 7.40787 154.978 7.44715 154.948 7.48822C154.165 8.55949 153.684 9.76468 153.284 11.0109C152.829 12.4393 152.475 13.9069 152.066 15.3532C151.423 17.6028 150.622 19.7829 149.446 21.8237C147.931 24.4168 145.959 26.7202 143.622 28.6245C141.708 30.192 139.647 31.5754 137.467 32.756C137.422 32.781 137.375 32.8078 137.328 32.831C137.236 32.8757 137.189 32.831 137.167 32.7489C137.1 32.4486 137.058 32.1435 137.039 31.8365C136.989 30.7026 137.103 29.5674 137.378 28.4656C138.406 24.0552 140.38 19.9148 143.166 16.3245C143.933 15.3115 144.855 14.4235 145.9 13.6927L145.898 13.6873ZM16.8908 48.5091C16.9323 46.338 16.9846 43.5099 17.0406 40.6835C17.1091 37.2399 17.1771 33.7964 17.2445 30.3528C17.2445 30.1743 17.1903 29.9725 17.295 29.8582C17.3997 29.744 17.618 29.8493 17.7804 29.8689C18.9895 30.0189 20.1986 30.1814 21.4076 30.3385L25.0673 30.8188L28.6945 31.2884L32.3542 31.7812L35.9813 32.2508C36.0336 32.263 36.0867 32.272 36.1401 32.2775C36.2845 32.2775 36.3206 32.3597 36.3116 32.4846C36.3116 32.5257 36.3116 32.5686 36.3116 32.6096C36.231 37.6411 36.1486 42.6725 36.0644 47.7039C36.0102 50.957 35.9567 54.2095 35.9037 57.4614C35.8424 61.0193 35.7786 64.5777 35.7125 68.1367C35.7125 68.4402 35.7125 68.4402 35.3858 68.442C32.0546 68.4527 28.7246 68.464 25.3957 68.4759C22.5589 68.4843 19.7222 68.4968 16.8854 68.5134C16.4775 68.5134 16.4974 68.5706 16.5064 68.1438C16.5978 63.16 16.6899 58.181 16.7825 53.2067C16.8078 51.8604 16.8403 50.5178 16.8836 48.5145L16.8908 48.5091ZM23.2411 49.5465C23.2194 50.7213 23.1978 51.8968 23.1761 53.0728C23.1328 55.3594 23.0913 57.6465 23.0516 59.9343C23.0516 60.0093 23.0516 60.0825 23.0516 60.1575C23.0426 60.2842 23.0859 60.361 23.232 60.361C23.3169 60.361 23.4035 60.361 23.4883 60.361L25.6393 60.411C26.9982 60.4432 28.357 60.4771 29.7159 60.5056C29.9956 60.5056 29.9974 60.5056 30.0028 60.2325C30.0666 56.7282 30.1267 53.2228 30.1833 49.7161C30.2193 47.7164 30.256 45.7155 30.2933 43.7134C30.3168 42.3689 30.3457 41.0227 30.3727 39.68C30.3727 39.3658 30.3457 39.3997 30.0984 39.3747C29.5444 39.3212 28.9922 39.2605 28.4382 39.1962L24.959 38.8391C24.5241 38.7945 24.0856 38.7534 23.6507 38.7034C23.4937 38.6838 23.4287 38.7355 23.4414 38.8819C23.4432 38.9135 23.4432 38.9451 23.4414 38.9766L23.2411 49.5465ZM0 40.9888C0.140757 40.9549 0.193089 40.8281 0.268881 40.7299C4.05006 35.9092 7.82823 31.0884 11.6034 26.2677C11.9968 25.766 12.3884 25.2625 12.7836 24.7625C12.8361 24.6695 12.9074 24.5881 12.9929 24.5233C13.0759 24.5751 13.0362 24.6572 13.0398 24.7233C13.0398 24.8393 13.0398 24.9571 13.0398 25.0803V73.3145C13.0398 73.7948 13.0398 73.802 13.5397 73.7859C16.0865 73.7109 18.6334 73.6353 21.1803 73.5591C22.9343 73.5056 24.6901 73.4592 26.446 73.4074C29.0458 73.3324 31.6462 73.2556 34.2472 73.177L39.318 73.0306L47.3429 72.7967L52.4823 72.6486L60.4531 72.4146L65.6557 72.2647C68.2868 72.1897 70.919 72.1123 73.5525 72.0326L78.6576 71.8862L86.6501 71.6505L91.8184 71.5041L99.7495 71.2702L104.822 71.1238L112.876 70.8827L118.044 70.7363L125.941 70.5024C127.643 70.4524 129.346 70.406 131.046 70.3542L139.073 70.1203L144.017 69.9757L148.801 69.8436C148.904 69.8251 149.01 69.8319 149.11 69.8632C149.11 69.9632 149.027 69.9882 148.975 70.0311C147.809 70.9988 146.639 71.9594 145.479 72.9307C145.34 73.0451 145.166 73.111 144.985 73.1181C144.035 73.1872 143.086 73.2598 142.135 73.336C140.876 73.4324 139.617 73.5288 138.358 73.6252L135.54 73.8412C134.26 73.9377 132.979 74.0394 131.699 74.1376L128.049 74.4144L124.239 74.7072L120.558 74.9893L116.781 75.2821C115.554 75.3749 114.327 75.4678 113.1 75.5606L109.321 75.8517L106.506 76.0677L102.664 76.3641C101.724 76.4355 100.785 76.5034 99.8451 76.5766L96.0375 76.8712C94.8104 76.9652 93.5827 77.058 92.3543 77.1497L88.5774 77.4425L84.896 77.7228L81.1191 78.0246L77.4053 78.3067C76.1565 78.4007 74.9077 78.4971 73.659 78.5959C72.7098 78.6673 71.76 78.7399 70.8096 78.8137L67.0001 79.0958L63.3188 79.3744L59.5508 79.6725L55.9417 79.9475L52.0673 80.2457L48.4654 80.5242L44.5928 80.8224L40.9746 81.0991C39.6933 81.1955 38.4133 81.2943 37.1345 81.3955L33.4838 81.6705C32.2134 81.7693 30.9436 81.8675 29.6744 81.9651L26.0255 82.2418L22.2161 82.5364L18.5347 82.8167L14.7578 83.1078L11.0747 83.3809L7.29769 83.6738L3.64704 83.9523C2.86927 84.0112 2.0915 84.0773 1.31012 84.1308C0.828298 84.1648 0.90409 84.1844 0.895067 83.7452C0.79762 78.8935 0.700174 74.043 0.602727 69.1937C0.541371 66.378 0.499866 63.5623 0.445729 60.7449L0.153389 46.1291C0.128125 44.8793 0.137147 43.6295 0.06316 42.3797C0.0703487 42.2312 0.048914 42.0827 0 41.9422L0 40.9888Z" fill="black"/>
</g>
<defs>
<clipPath id="clip0">
<rect width="155" height="100" fill="white"/>
</clipPath>
</defs>
</svg>
