<svg width="216" height="38" viewBox="0 0 216 38" fill="none" xmlns="http://www.w3.org/2000/svg">
<g opacity="0.4">
<path fill-rule="evenodd" clip-rule="evenodd" d="M10.2241 0.0246582L0 28.5562H9.15369L10.2241 24.7937H19.5388L20.6482 28.5562H29.9555L19.7363 0.0246582H10.2241ZM14.901 8.62971L17.9099 18.8465H12.0066L14.901 8.62971Z" fill="black"/>
<path fill-rule="evenodd" clip-rule="evenodd" d="M46.4045 13.0234H42.5202V6.68364H45.1707C47.1531 6.68364 50.167 7.03964 50.167 9.6926C50.167 12.1481 48.5796 13.021 46.4045 13.021V13.0234ZM49.6037 14.94L55.7996 17.3125C58.0283 15.5642 59.0841 12.9235 59.0841 9.65115C59.0841 3.79171 55.1071 0.0244141 46.919 0.0244141H33.1617V28.5535H42.5129V19.6827H47.2263C48.0206 19.682 48.8143 19.6372 49.6037 19.5485V14.94Z" fill="black"/>
<path fill-rule="evenodd" clip-rule="evenodd" d="M50.855 16.7517V33.8667C51.5158 34.1252 57.6825 36.4953 59.0187 37.0074V19.8899C58.3555 19.6339 52.1937 17.2638 50.855 16.7517Z" fill="black"/>
<path fill-rule="evenodd" clip-rule="evenodd" d="M74.444 0.0219727L79.4744 17.8222L84.5096 0.0219727H95.7994V28.551H87.3991V19.8338C87.4237 16.6279 87.6224 13.4256 87.9941 10.2412H87.9136L82.7248 28.5486H76.2289L71.0352 10.2412H70.9571C71.2327 12.7406 71.5521 16.581 71.5521 18.8829V28.5486H63.1543V0.0219727H74.444Z" fill="black"/>
<path fill-rule="evenodd" clip-rule="evenodd" d="M115.73 18.8414L112.719 8.62215L109.827 18.8414H115.73ZM117.554 0.0219727L127.783 28.551H118.466L117.357 24.7862H108.042L106.974 28.551H97.8226L108.042 0.0219727H117.554Z" fill="black"/>
<path fill-rule="evenodd" clip-rule="evenodd" d="M139.761 21.8991H141.743C146.101 21.8991 148.478 19.5973 148.478 14.2085C148.478 8.26371 146.527 6.68119 141.543 6.68119H139.761V21.8991ZM130.407 0.0219727H142.933C152.121 0.0219727 157.832 4.30377 157.832 13.6915C157.832 24.4351 151.846 28.5657 142.692 28.5657H130.407V0.0219727Z" fill="black"/>
<path fill-rule="evenodd" clip-rule="evenodd" d="M175.347 18.8414L172.333 8.62215L169.439 18.8414H175.347ZM177.166 0.0219727L187.39 28.551H178.078L176.969 24.7862H167.654L166.586 28.551H157.432L167.654 0.0219727H177.166Z" fill="black"/>
<path d="M182.949 0V7.19566L185.497 14.345H190.62V0H182.949Z" fill="black"/>
<path fill-rule="evenodd" clip-rule="evenodd" d="M215.407 22.2699H203.849L208.653 18.9073C212.854 15.9471 215.137 13.5843 215.134 9.1026C215.127 3.7406 210.921 0.0976562 204.803 0.0976562C199.36 0.0976562 196.4 2.21905 193.398 6.09608L198.641 10.4583C200.835 7.93705 202.323 6.85685 204.203 6.85685C206.083 6.85685 207.324 7.93705 207.324 9.69757C207.324 11.38 206.363 12.7407 203.723 14.7401L193.237 22.7453V28.5975H215.41L215.407 22.2699Z" fill="black"/>
</g>
</svg>
