<svg width="307" height="134" viewBox="0 0 307 134" fill="none" xmlns="http://www.w3.org/2000/svg">
<path d="M239.751 61.3574C239.751 61.3574 246.657 54.1773 248.535 53.981C249.133 53.923 249.394 54.9448 248.704 56.0805C248.535 56.3907 248.736 56.7856 249.871 55.5941C251.006 54.4027 253.344 50.7435 250.241 48.954C247.676 47.4814 245.122 48.2735 245.122 48.2735C245.122 48.2735 242.617 44.0475 235.789 47.3096C230.893 49.6524 228.879 50.1745 224.504 50.3485C219.242 50.5493 209.117 48.51 196.543 35.2298L173.985 27.8533C173.985 27.8533 149.979 15.6709 139.729 2.73646C139.332 1.90421 141.38 15.1822 159.466 27.5343C159.522 27.6458 142.535 21.684 130.738 9.4301C130.459 9.08873 133.49 20.5907 148.355 28.6454C148.108 28.7079 136.374 25.8475 127.438 18.9575C127.383 18.9039 129.999 29.1764 147.688 33.7728C147.802 33.8263 137.053 31.8986 127.726 27.985C126.93 27.3603 132.846 35.8701 146.098 38.4271C146.098 38.4271 142.774 38.0947 139.462 37.519C136.843 37.0638 131.728 35.8545 131.728 35.8545C131.728 35.8545 132.843 39.2058 145.701 41.7739L135.632 40.5088C135.632 40.5088 136.142 43.5612 150.191 45.8906C149.789 46.2029 144.271 45.5759 140.035 44.0989C140.035 44.0989 141.059 47.2828 150.844 50.1745C152.636 50.6855 154.853 51.0536 157.409 51.1071C157.523 51.1071 163.782 57.6625 166.794 58.7424C167.704 59.0793 167.96 58.7602 168.328 58.9967C168.672 59.2154 168.48 59.4497 168.986 59.8201C169.497 60.1905 169.845 59.7509 170.334 60.0276C170.864 60.331 170.621 60.6702 171.215 61.0205C171.812 61.373 172.29 60.8375 172.745 61.1231C173.202 61.4065 172.959 61.9687 173.59 62.3056C174.217 62.6448 174.77 62.087 175.337 62.4083C175.912 62.743 175.446 63.2851 176.274 63.7068C177.097 64.1308 177.411 63.6756 178.038 63.9791C178.636 64.2691 178.179 64.876 179.089 65.3312C179.994 65.7863 180.51 65.1259 180.994 65.5231C181.478 65.9158 181.409 66.5494 182.357 67.3348C183.349 68.1604 185.359 69.3697 186.992 70.0636C186.992 70.0636 168.355 72.6875 160.16 75.2378C160.09 76.6122 161.627 78.3615 164.599 79.6066C165.208 79.8743 168.366 81.1416 171.195 81.2844C171.195 81.3224 163.16 84.7874 161.766 86.5546C162.013 86.8982 164.567 88.7724 175.703 86.742C175.703 86.7777 169.089 90.9412 167.795 92.927C167.882 93.0988 174.226 95.5799 181.489 91.4677C181.489 91.5034 179.501 93.4402 178.888 95.2162C178.861 95.3099 183.641 95.2965 187.025 92.3915C186.99 92.4629 186.307 95.7606 191.052 92.0122C191.052 92.0769 193.008 94.0314 200.144 84.3055C201.085 82.9645 202.051 81.5522 202.887 79.6958C205.827 79.2362 209.443 78.6025 212.664 77.6007C212.733 77.6364 214.977 78.3727 217.172 78.2031C219.39 78.038 218.557 78.7007 220.683 79.08C222.274 79.3611 222.686 78.8078 223.545 78.8881C224.342 78.9617 224.429 79.4504 225.881 79.6133C227.192 79.765 227.658 79.3187 228.691 79.5619C229.898 79.843 230.917 80.7802 236.438 81.3848C241.397 81.9293 244.665 81.0992 246.211 79.9658C246.175 80.0037 254.819 81.2688 256.135 78.5133C256.135 78.5133 265.035 79.5396 264.723 77.2236C265.202 77.1701 276.708 79.2674 278.642 75.6707C278.677 75.635 271.95 74.6532 272.499 74.4435C273.688 74.4435 288.117 76.9313 291.303 72.5581C289.978 72.4756 280.594 70.9383 280.725 70.8579C280.904 70.7419 298.209 73.0044 301.171 67.1407C300.549 67.0849 287.27 66.6298 287.094 66.3062C286.989 66.1612 302.708 67.085 303.672 61.0517C302.712 61.2213 295.49 61.9219 287.687 61.5069C287.921 61.1588 302.795 60.1057 304.278 52.997C303.594 52.9836 296.855 58.3207 274.928 56.9016C272.349 56.7856 266.28 55.4581 258.999 57.7808C251.606 59.9941 246.904 59.1797 246.795 59.1797C246.677 59.1797 242.448 58.314 239.751 61.3574Z" fill="#949494"/>
<path d="M197.174 68.9113C197.174 68.9135 167.896 73.2866 161.239 75.4196C161.108 75.4642 160.89 75.5261 160.772 75.5685C160.758 75.7983 160.989 76.6445 161.877 77.3763C164.135 79.3309 169.667 81.2191 172.913 80.8219C172.799 80.8911 166.801 83.82 164.854 84.8843C162.907 85.9597 162.345 86.4794 162.345 86.4794C162.345 86.4794 164.207 88.3667 177.399 86.0328C176.956 86.2604 168.969 91.8086 168.554 92.69C168.614 92.9265 175.484 95.3252 183.523 89.7761C183.601 89.7851 181.887 91.4097 180.546 93.1366C180.221 93.5605 179.914 94.0031 179.696 94.349C179.444 94.7528 179.419 94.9019 179.419 94.9019C179.419 94.9019 179.404 94.9019 179.504 94.9019C179.569 94.902 179.664 94.9109 179.76 94.9019C180.888 94.8395 184.261 94.405 187.67 91.4776C187.496 91.7744 186.196 95.5261 191.114 91.4564C191.192 91.588 192.366 93.3051 197.876 86.5645C203.27 79.8128 202.915 78.0357 202.915 78.0357L197.174 68.9113Z" fill="#949494"/>
<path d="M198.067 69.5706C198.063 69.5706 171.63 74.7919 166.789 76.5256C166.698 76.5702 171.238 79.6555 177.952 79.3543C175.822 80.6618 168.204 84.4788 167.363 85.416C167.756 85.6614 176.528 84.9734 182.014 83.8846C179.834 85.8436 175.722 89.1906 174.04 91.1586C174.14 91.0872 178.984 91.342 186.521 86.6921C185.419 89.6217 182.269 93.2004 182.269 93.2004C182.269 93.2004 186.824 91.6044 189.945 88.0746C189.793 88.3267 187.111 94.2695 193.007 88.3723C193.002 88.6758 193.16 91.5204 198.663 84.0547C202.945 77.8542 201.278 76.0151 201.278 76.0151L198.067 69.5706Z" fill="#949494"/>
<path d="M274.265 61.7412C274.265 61.7412 298.017 60.2641 303.647 53.7355C303.645 53.7355 301.825 61.8527 274.265 61.7412Z" fill="#949494"/>
<path d="M237.702 60.5101C233.479 64.8431 209.732 74.7896 207.976 76.164L211.633 76.6532C212.679 77.3984 214.687 77.6888 215.546 77.7379C216.396 77.7847 216.555 77.8094 216.885 77.7804C217.224 77.7537 217.507 77.7333 217.991 77.6954C218.475 77.6507 218.74 77.6983 219.054 77.908C219.859 78.448 220.205 78.627 221.202 78.7163C221.804 78.7698 222.263 78.67 222.669 78.5674C223.2 78.4268 223.617 78.2938 224.03 78.5036C225.263 79.1551 226.482 79.2785 227.836 79.0353C228.275 78.9527 228.654 78.9498 229.069 79.1416C230.564 79.8378 232.3 80.2632 233.917 80.5667C234.805 80.7318 235.836 80.9196 237.192 81.0133C238.539 81.1115 239.244 81.0913 241.423 80.9708C243.602 80.8547 245.552 80.059 245.208 79.9073C239.805 79.3763 238.093 77.8918 238.786 78.0569C251.9 81.3056 255.727 79.1182 255.138 78.8013C248.41 77.3555 246.968 76.3047 247.207 76.2065C258.217 79.2588 264.562 78.1873 263.835 77.6741C258.035 76.1345 251.97 73.1863 251.97 73.1863C267.653 78.2244 274.264 77.3937 276.678 76.5681C277.628 76.2468 277.934 75.9458 277.89 75.9726C262.88 73.8507 260.326 71.3065 260.326 71.2083C278.024 75.6842 285.701 74.7121 288.755 73.7393C290.04 73.3243 290.497 72.9099 290.541 72.9099C271.338 70.1855 271.078 69.0229 270.788 68.9113C296.587 73.9204 300.663 67.4672 300.514 67.465C286.267 67.2597 277.924 65.5321 276.507 65.2956C301.267 67.6919 303.087 61.5735 303.087 61.5735C296.216 62.5329 285.007 61.9157 277.762 61.4672C270.234 60.9049 267.483 61.0577 256.945 62.4455C237.088 65.1498 237.702 60.5101 237.702 60.5101Z" fill="#949494"/>
<path d="M237.766 60.978C236.231 62.5912 214.602 71.3693 210.506 74.5689L225.348 77.1849C234.489 81.1878 243.571 80.4269 242.89 80.1413C236.058 79.0838 233.97 75.8667 234.98 76.3129C246.961 80.0212 254.085 79.2997 253.543 79.0141C244.672 77.2671 245.256 74.9043 244.995 74.7816C250.668 77.1913 261.461 77.9434 260.794 77.4614C250.364 74.5318 249.971 72.0591 249.971 72.0591C266.217 76.4033 272.217 76.2238 273.85 76.0364C274.146 76.0052 274.294 75.958 274.339 75.9513C258.327 73.6643 256.86 69.6174 256.86 69.5282C274.248 73.6202 283.332 73.3355 286.352 73.0588C287.115 72.9852 287.476 72.9312 287.501 72.9312C268.074 71.1596 267.23 67.5632 266.96 67.465C284.174 70.6736 296.657 68.0012 296.516 67.9968C276.153 67.7379 271.36 64.2844 271.085 64.1684C290.759 66.1318 298.94 62.5945 298.94 62.5945C295.351 63.391 277.578 61.7826 270.915 61.3609C263.971 60.8499 264.808 61.1078 255.095 62.3818C240.674 63.783 237.766 60.978 237.766 60.978Z" fill="#949494"/>
<path d="M270.788 68.8989C270.788 68.8989 293.23 71.2439 300.522 67.4665C300.522 67.4665 296.989 73.8612 270.788 68.8989Z" fill="#949494"/>
<path d="M260.319 71.1993C260.319 71.1993 282.2 75.3717 290.555 72.9062C290.397 72.9062 286.315 77.9109 260.319 71.1993Z" fill="#949494"/>
<path d="M251.966 73.1807C251.966 73.1807 270.163 78.212 277.879 75.9607C277.881 75.9607 273.919 80.3384 251.966 73.1807Z" fill="#949494"/>
<path d="M276.496 65.3022C276.496 65.3022 300.136 68.0064 303.089 61.576C303.087 61.5783 297.602 65.9537 276.496 65.3022Z" fill="#949494"/>
<path d="M140.72 4.72171C140.718 4.71948 146.326 20.9616 166.725 30.6273C165.597 30.2613 144.782 25.048 131.577 10.911C131.633 11.027 138.879 26.4399 155.243 30.4784C154.275 30.3088 140.54 29.1362 128.43 20.2693C128.778 20.5884 133.653 31.6071 155.009 34.6684C155.009 34.6684 145.083 35.8231 129.089 29.0959C129.39 29.3124 138.339 38.7386 154.031 38.752C154.031 38.752 144.929 39.9505 132.917 36.5613C132.564 36.8134 141.769 42.1602 154.35 42.0487C154.493 42.062 150.206 43.3394 136.702 41.0703C136.144 41.1082 143.97 45.609 155.924 45.792C156.066 45.8054 150.455 47.9988 141.039 44.8349C140.656 45.0023 148.583 50.583 157.688 50.5562L159.241 52.0026C159.241 52.0026 165.496 58.5367 168.001 58.2556C168.389 58.211 168.882 58.3823 169 58.766C169.079 59.007 169.168 59.1538 169.404 59.2765C169.596 59.3792 169.787 59.3458 169.979 59.319C170.175 59.2878 170.386 59.2478 170.638 59.3616C171.191 59.6115 171.043 60.0028 171.339 60.2549C171.663 60.5427 172.126 60.5523 172.53 60.4675C173.21 60.3247 173.438 60.9493 173.657 61.3821C173.867 61.7927 174.381 61.9042 175.039 61.7011C175.401 61.5851 175.825 61.7685 176.017 62.1478C176.173 62.4602 176.159 62.8639 176.443 63.1049C176.739 63.3592 177.195 63.4103 177.57 63.3389C177.848 63.2898 178.235 63.2924 178.463 63.4665C178.755 63.6851 178.784 64.1044 178.952 64.381C179.121 64.6622 179.504 65.1136 180.78 64.9127C181.534 64.8101 181.791 65.5125 182.056 66.1038C182.413 66.9249 184.085 67.9229 184.629 68.2732C185.608 68.9024 187.834 70.0092 188.584 70.2725L190.455 70.0173C190.464 70.0173 190.484 70.0173 190.498 70.0173C190.498 70.0173 195.007 71.7001 186.415 78.695C187.901 81.2386 216.225 81.0562 232.493 67.0396C233.813 65.9017 235.319 64.2759 236.724 62.9773C236.746 62.772 237.093 52.6723 235.15 48.1741C235.15 48.1741 217.414 59.4735 196.919 35.8381C196.504 35.5972 195.16 35.7468 193.496 35.8807C190.748 36.1016 187.173 36.3146 185.692 34.8598C185.692 34.8598 151.398 18.5776 140.72 4.72171Z" fill="#949494"/>
<path d="M227.793 62.3179L221.266 63.4665C214.148 72.1281 192.508 76.7706 190.944 77.0786C192.461 77.1633 192.135 77.7166 192.135 77.7166C192.523 79.0688 191.986 79.5245 191.986 79.5245C194.939 79.52 196.69 78.2694 197.366 77.8655C197.531 78.7892 197.451 79.8861 197.451 79.8861C222.672 77.9962 233.449 66.1038 233.449 66.1038L230.196 67.5075C229.487 67.8333 230.154 67.3374 230.154 67.3374L232.216 65.2318L229.303 66.04L231.132 64.3172L225.22 65.6146L227.793 62.3179Z" fill="#949494"/>
<path d="M244.979 49.4404C244.979 49.4404 242.606 43.9516 233.36 49.1593C233.4 49.1593 234.955 48.4743 235.381 48.8335C235.421 48.7577 233.744 49.0834 230.784 51.2388C230.784 51.2388 231.542 51.0112 231.66 51.2388C231.7 51.1986 228.401 53.354 222.372 53.1331C222.372 53.0907 222.885 53.5816 225.47 53.7266C225.501 53.7266 223.083 54.7485 219.158 54.0658C219.131 54.0658 219.314 54.9493 221.535 55.4045C221.535 55.3688 219.169 56.0694 217.248 56.0247C217.248 56.0805 217.737 56.6763 220.402 56.8168C220.438 56.8168 219.387 57.6982 217.047 58.3497C217.047 58.3497 218.446 58.7513 222.428 57.6982C222.459 57.6982 220.576 58.9722 217.505 60.4493C217.505 60.4761 219.155 60.6791 222.459 60.0521C222.459 60.0834 221.97 60.7929 219.898 61.8103C219.925 61.8103 221.663 61.8683 223.824 61.2703C223.824 61.2436 223.057 62.3815 220.922 63.6845C220.978 63.6533 222.626 63.7113 227.435 62.5466C227.462 62.5466 225.414 65.242 224.674 65.9247C224.734 65.8399 227.123 65.503 229.144 64.9028C229.936 64.7065 231.045 64.3093 229.994 65.2419C228.934 66.1791 228.883 66.3486 228.883 66.3486C228.883 66.3486 230.761 65.9247 231.471 65.6123C231.502 65.6123 229.963 67.4866 229.144 67.964C229.222 67.9953 231.584 67.4553 232.834 66.719C232.865 66.719 233.03 67.964 233.661 68.3924C233.634 68.3924 237.016 63.5997 239.751 61.3551C241.511 59.2846 245.575 55.4536 245.889 54.7195C246.795 52.93 245.149 49.8376 244.979 49.4404Z" fill="#949494"/>
<path d="M238.439 49.9536C238.439 49.9536 238.22 51.2723 240.935 50.7613C240.935 50.7613 238.861 51.6449 237.995 50.2928C237.995 50.2928 237.219 50.2459 236.458 50.4757C236.456 50.4757 237.442 50.0473 238.439 49.9536Z" fill="#949494"/>
<path d="M238.508 49.7126C238.508 49.7126 239.414 49.0566 241.058 49.6479C241.185 49.6925 241.154 49.7461 241.285 49.7974C241.35 49.8197 241.446 49.8242 241.508 49.8354C241.682 49.871 241.847 49.8822 242.021 49.8911C242.191 49.9045 242.331 49.9001 242.497 49.8822C242.633 49.8599 242.789 49.7796 242.78 49.6279C242.775 49.3958 242.584 49.2217 242.392 49.1191C242.14 48.9852 241.874 49.0165 241.874 49.0165C241.874 49.0165 242.066 49.128 242.157 49.2507C242.298 49.4471 242.209 49.668 241.343 49.369C241.341 49.3712 238.774 48.3337 238.508 49.7126Z" fill="#949494"/>
<path d="M241.415 50.0161C241.415 50.3998 240.862 50.7078 240.177 50.7078C239.501 50.7078 238.943 50.3998 238.943 50.0161C238.943 49.6323 239.501 49.3244 240.177 49.3244C240.862 49.3244 241.415 49.6323 241.415 50.0161Z" fill="#949494"/>
<path d="M241.058 49.9692C241.058 50.2503 240.688 50.4802 240.235 50.4802C239.782 50.4802 239.412 50.2503 239.412 49.9692C239.412 49.6881 239.782 49.4583 240.235 49.4583C240.688 49.4583 241.058 49.6881 241.058 49.9692Z" fill="#949494"/>
<path d="M240.679 49.967C240.679 50.1187 240.482 50.2437 240.235 50.2437C239.987 50.2437 239.786 50.1187 239.786 49.967C239.786 49.8153 239.987 49.6903 240.235 49.6903C240.482 49.6903 240.679 49.8153 240.679 49.967Z" fill="#949494"/>
<path d="M240.34 49.3601C240.34 49.3601 240.659 49.8019 241.053 49.9224C241.446 50.0428 241.058 49.4226 241.058 49.4226L240.34 49.3601Z" fill="#949494"/>
<path d="M236.291 47.6443C235.245 48.0682 234.225 48.5591 233.206 49.0433C231.926 49.6524 229.9 50.1946 229.704 50.2526C229.755 50.2325 231.952 49.8956 233.659 49.1124C234.107 48.9027 234.573 48.7197 235.026 48.5323C235.849 48.1932 236.681 47.8719 237.527 47.5952C239.044 47.0954 240.995 47.0642 242.501 47.9344C243.442 48.4721 243.703 49.2597 243.712 49.34C243.712 49.349 243.717 49.3869 243.717 49.3869C244.065 49.1437 244.685 48.9562 244.975 48.9183C244.874 48.8335 244.897 48.8157 244.796 48.7354C243.996 47.6867 242.858 46.9236 241.551 46.7362C240.375 46.58 239.142 46.7072 238.009 47.0441C237.433 47.2181 236.853 47.4145 236.291 47.6443Z" fill="#949494"/>
<path opacity="0.55" d="M240.615 53.7466C240.613 53.7466 238.602 55.0886 235.597 56.3626C237.127 55.9543 238.774 56.4728 238.085 57.2559C237.654 57.7379 234.953 58.7459 234.172 59.085C236.751 58.5094 236.435 59.463 234.342 60.3399C233.365 60.8754 229.729 62.0286 229.175 62.2116C229.144 62.2339 229.721 62.1396 230.387 62.0414C231.398 61.8942 232.625 61.7401 232.195 61.9989C230.81 62.8289 228.699 63.9093 226.029 65.0829C226.029 65.0829 228.695 64.7299 231.642 63.6366C232.139 63.4447 231.746 63.9529 231.302 64.4661C230.858 64.9748 230.339 65.4785 230.6 65.2956C232.688 64.9475 232.989 64.5201 233.003 64.5937C232.414 65.3657 231.337 66.5151 230.77 66.9971C231.254 66.8677 232.364 66.4854 233.79 65.7848C233.68 66.0436 233.304 67.0939 233.641 67.5713C233.705 67.6651 235.017 65.2896 236.873 63.5515C238.202 62.2262 239.482 60.8878 241.7 58.7235C243.477 57.1572 245.254 55.2431 247.398 53.8954C247.347 53.766 246.202 53.8734 244.868 53.9805C242.972 54.1322 240.689 54.291 240.615 53.7466Z" fill="#949494"/>
<path d="M246.824 48.5782C245.271 48.5805 243.854 48.9731 243.571 49.2163C242.939 49.7495 242.938 51.7679 242.189 52.5555C241.439 53.3364 239.246 52.8697 238.744 53.7466C237.651 55.7971 241.954 55.1598 245.144 54.3208C246.63 53.9906 245.463 55.3205 245.463 55.3205C245.651 55.171 245.995 54.8951 245.995 54.8951C246.187 54.7545 246.377 54.6226 246.569 54.491C246.935 54.2478 247.308 54.0023 247.696 53.8104C247.914 53.6988 248.157 53.6121 248.397 53.5764C248.538 53.5563 248.823 53.4837 248.95 53.5551C250.217 54.1955 249.008 55.8312 249.057 55.916C250.054 55.1752 252.478 52.0344 250.566 49.8969C249.674 48.8884 248.198 48.5782 246.824 48.5782Z" fill="#949494"/>
<path d="M247.568 52.8107C247.06 52.8152 246.564 52.9421 246.08 53.0447C245.317 53.2098 244.553 53.3674 243.783 53.4701C243.252 53.5392 242.705 53.6145 242.167 53.619C241.632 53.6189 241.056 53.6261 240.53 53.7466C240.369 53.78 239.696 53.922 240.062 54.1719C240.314 54.337 240.774 54.2838 241.062 54.257C241.454 54.2169 241.832 54.1236 242.231 54.0656C242.519 54.0254 242.815 53.9915 243.103 53.938C243.426 53.871 243.732 53.8068 244.06 53.7466C244.608 53.6328 245.165 53.5346 245.718 53.4275C246.682 53.249 247.69 53.1086 248.631 53.4701C248.993 53.6106 249.397 53.6772 249.524 54.3421C249.556 54.1123 249.538 53.6837 249.163 53.2999C248.757 52.8715 248.097 52.8107 247.568 52.8107Z" fill="#949494"/>
<path d="M245.323 49.6926C245.483 49.8197 245.35 50.2504 245.044 50.5337C244.743 50.8149 244.355 50.9398 244.185 50.8149C244.02 50.6966 244.107 50.2883 244.408 50.0072C244.714 49.7261 245.149 49.5788 245.323 49.6926Z" fill="#949494"/>
<path d="M245.296 49.6323C245.466 49.7528 245.361 50.083 245.057 50.3641C244.761 50.6408 244.373 50.7702 244.199 50.6453C244.034 50.5248 244.138 50.1946 244.442 49.9179C244.743 49.6368 245.122 49.5051 245.296 49.6323Z" fill="#949494"/>
<path d="M245.557 49.079C245.557 49.079 249.164 48.1463 250.161 50.8193C250.206 50.8684 249.514 49.195 245.557 49.079Z" fill="#949494"/>
<path d="M303.661 53.7253C303.661 53.732 297.383 56.9797 288.351 57.3835C287.867 57.4014 287.383 57.4273 286.905 57.4473C284.652 57.55 282.411 57.6086 280.165 57.6175C277.642 57.6264 275.171 57.4857 272.552 57.2559C271.346 57.1577 270.132 56.9805 268.916 56.9582C267.183 56.9225 265.451 57.0263 263.749 57.2985C261.985 57.5796 260.309 58.1227 258.583 58.5533C255.063 59.4347 251.217 60.2242 247.568 59.7869C241.873 59.1042 240.211 61.531 240.211 61.531C241.706 62.0977 243.324 62.4024 245.463 62.5519C246.518 62.6322 249.979 62.6883 253.947 62.3179C256.787 62.0591 258.876 61.5722 261.007 61.1907C262.369 60.9519 263.496 60.8241 264.876 60.6589C266.023 60.5117 267.406 60.4811 268.555 60.5101C269.898 60.5435 272.338 60.8172 275.062 60.9354C277.14 61.0202 279.718 60.8779 281.866 60.744C283.461 60.6458 288.013 59.9339 289.372 59.7018C289.746 59.6438 302.184 57.2082 303.661 53.7253Z" fill="#949494"/>
<path d="M240.19 61.5269C240.19 61.5269 241.85 59.1016 247.545 59.7866C251.187 60.2239 255.046 59.4474 258.566 58.5639C260.29 58.1399 261.959 57.5866 263.717 57.3055C265.425 57.0332 267.163 56.935 268.892 56.9685C270.116 56.9953 271.319 57.1515 272.539 57.2586C275.153 57.4817 277.605 57.6335 280.136 57.6245C282.389 57.6089 284.638 57.5486 286.879 57.4415C287.368 57.4215 287.848 57.3947 288.334 57.3791C288.307 58.2939 286.239 58.5081 285.577 58.6196C284.214 58.845 282.606 58.8785 281.002 58.9052C278.923 58.9521 276.842 58.9856 274.758 58.8963C272.733 58.8115 270.707 58.575 268.68 58.5215C267.524 58.4902 266.371 58.5215 265.233 58.6643C263.848 58.8338 262.485 59.0904 261.116 59.3336C258.994 59.713 257.02 60.3957 254.181 60.659C251.341 60.9267 249.445 60.9267 247.31 60.6233C245.196 60.3176 242.653 60.2774 240.19 61.5269Z" fill="#949494"/>
<path d="M170.276 32.7116C169.096 32.7161 167.995 32.8661 166.98 33.2008C165.778 33.5957 164.505 34.2937 163.642 35.3915C162.683 36.6097 161.932 38.5237 161.898 40.8576V41.1766C161.921 42.8144 162.295 44.6467 163.174 46.5789C164.258 48.9396 166.489 51.6866 169.596 54.5761C171.195 56.0665 173.108 57.6374 175.401 59.2127C176.773 60.161 178.921 61.1605 180.568 62.1691C180.568 62.1691 204.748 58.0017 213.845 59.7019C216.943 60.2865 217.077 61.5523 217.077 61.5523C217.077 61.5523 217.304 60.0101 214.716 57.5112C213.008 55.8511 210.125 53.4828 206.679 51.3006C204 49.6138 201.793 47.8661 198.599 45.8558C198.229 45.6238 181.264 32.7116 170.276 32.7116Z" fill="#949494"/>
<path d="M145.419 11.0598C145.419 11.2294 153.302 23.4435 171.339 31.8396C171.339 31.8954 158.603 31.8486 138.637 18.738C138.692 18.854 147.262 28.2441 161.473 31.5418C161.391 31.5374 161.102 31.5766 160.623 31.6056C158.049 31.7797 149.766 31.9417 136.808 26.4373C136.926 26.4931 141.883 31.8786 161.176 34.7747C161.227 34.7568 160.516 35.0342 159.07 35.3064C155.803 35.9222 148.832 36.5352 138.743 33.8176C138.857 33.8801 144.375 37.3569 160.07 38.2628C160.07 38.3186 153.882 40.9 142.336 39.539C142.55 39.5747 148.075 41.5117 160.134 41.6233C160.243 41.6233 155.111 43.78 145.845 43.3248C146.077 43.5547 154.343 45.3815 160.772 45.1539C160.823 45.2075 156.779 48.4045 149.438 47.6637C149.438 47.7262 154.271 49.6972 159.73 49.2376C159.848 49.3491 165.851 56.8048 169.362 56.4478C169.888 56.4478 170.182 56.7322 170.383 57.1071C170.606 57.5176 170.861 57.6635 171.446 57.6814C171.555 57.6858 171.656 57.6903 171.743 57.6814C172.149 57.6635 172.386 57.6374 172.7 58.2131C173.039 58.82 173.038 58.9139 173.955 58.9362C174.836 58.9741 175.009 59.3056 175.209 59.6381C175.553 60.2093 175.861 60.4998 176.57 60.4463C177.311 60.4463 177.696 60.6796 177.952 61.1482C178.213 61.6167 179.078 62.7135 180.568 62.1691C180.568 62.1691 163.795 51.8761 162.43 43.027C161.973 39.7739 162.19 32.5582 170.829 33.2008C179.482 33.8434 190.949 41.0967 191.667 41.6233C191.707 41.6657 181.673 31.3717 181.673 31.3717C181.673 31.3717 164.393 27.8989 145.419 11.0598Z" fill="#949494"/>
<path d="M172.041 33.3284C172.041 33.3284 193.277 49.5907 189.668 70.1024C189.668 70.1024 205.65 68.3643 205.871 58.6384V58.2556C205.811 55.529 204.546 52.1969 201.406 48.1316C201.408 48.1316 184.118 34.8479 172.041 33.3284Z" fill="#949494"/>
<path d="M152.939 1.18799C152.939 1.18799 146.644 7.23907 175.767 30.0154C185.553 37.5815 204.36 53.3183 216.641 53.1666C219.452 53.0171 220.558 52.2339 216.414 50.8193C212.528 49.494 202.312 44.5005 197.114 35.9549C196.318 34.2168 192.414 33.1525 186.236 29.0292C186.238 29.0314 160.98 14.051 152.939 1.18799Z" fill="#949494"/>
<path d="M153.032 2.33957C152.998 2.35965 153.006 3.9678 153.521 5.44487C154.458 8.14019 157.602 13.5993 166.364 21.0137C178.197 31.0229 191.1 40.9177 197.77 45.0901C204.439 49.2647 211.825 51.867 215.546 52.1726C217.872 52.1682 213.717 50.6839 213.717 50.6839C213.717 50.6839 208.279 49.0218 200.024 42.5379C199.479 42.1006 198.365 41.0016 196.962 39.5602C196.038 38.5963 195.249 37.1108 191.625 34.7747C189.267 33.2619 188.329 32.616 185.777 30.8399C181.787 28.0643 158.126 12.4078 154.222 4.59407C153.961 4.14337 153.119 2.90184 153.032 2.33957Z" fill="#949494"/>
<path d="M238.808 53.6615C238.56 53.9092 238.48 54.1977 238.489 54.5123C238.498 55.1682 239.51 55.3035 240.594 55.2567C241.992 55.1942 243.571 54.7037 243.571 54.7037C238.077 55.5515 238.808 53.6615 238.808 53.6615Z" fill="#949494"/>
<path d="M197.323 78.142C190.946 81.2813 189.966 78.5249 189.966 78.5249C189.966 78.5249 189.401 79.3666 189.562 80.3327C189.584 80.4398 189.507 82.4685 193.453 81.46C194.613 81.161 194.729 81.1984 196.132 80.6518C197.692 80.0315 197.323 78.142 197.323 78.142Z" fill="#949494"/>
<path d="M191.263 77.2274C191.087 77.2274 190.895 77.2827 190.668 77.4188C189.617 78.2399 186.048 79.1718 185.99 79.1629C186.012 78.7501 185.023 78.6449 183.97 79.3968C182.649 80.3741 184.82 81.0133 184.82 81.0133C185.099 82.6332 188.026 81.5722 188.456 81.3536C189.119 81.0077 190.392 80.4595 191.242 79.886C192.545 78.7972 192.156 77.8229 192.156 77.8229C192.156 77.8229 191.85 77.2274 191.263 77.2274Z" fill="#949494"/>
<path d="M197.447 77.179C194.897 78.9907 192.506 78.8144 192.455 78.8747C192.551 78.7765 192.595 78.4864 192.62 78.357C192.651 78.1919 192.646 78.0246 192.615 77.8573C192.432 76.8487 191.299 76.9068 190.568 77.1923C190.257 77.3128 189.963 77.4824 189.686 77.6654C188.489 78.4575 185.879 78.7765 185.843 78.7564C185.821 78.0224 184.313 78.8367 184.353 78.7988C183.289 78.4195 184.293 77.3441 184.293 77.3441C181.596 77.9554 183.142 79.6088 183.142 79.5954C182.798 79.9747 183.385 80.4812 183.443 80.4477C183.579 81.3513 184.75 81.4607 184.71 81.4607C185.172 82.3353 186.606 82.3264 187.367 82.0653C187.951 81.8735 189.392 81.2577 189.515 81.2398C190.215 82.351 192.385 81.9716 193.117 81.8311C194.306 81.5945 195.479 81.338 196.559 80.7668C198.357 79.8051 197.652 77.3798 197.447 77.179ZM194.763 80.9341C194.502 80.9921 193.809 80.8181 193.722 80.2736C193.744 80.2736 193.255 80.769 193.918 81.1438C193.905 81.1862 192.925 81.3893 192.432 81.425C192.354 81.4629 191.504 81.3536 191.56 80.7087C191.542 80.6887 190.985 81.0077 191.491 81.5008C191.491 81.5008 190.075 81.715 189.767 80.7087C189.785 80.6507 188.774 81.0881 188.716 81.1059C188.658 81.1238 188.094 81.1327 188.094 80.7712C188.094 80.7935 187.692 81.097 188.094 81.3714C188.094 81.3714 185.968 82.197 185.914 81.2398C185.892 81.2175 188.676 80.6909 191.239 78.8747C191.221 78.8524 189.611 79.7449 188.79 79.9323C188.629 79.9747 187.788 79.7828 187.806 79.2339C187.806 79.1804 187.079 79.5954 188.038 80.1933L187.554 80.3808L187.043 80.5369C187.043 80.5369 186.16 80.5035 186.051 79.8274C186.028 79.8274 185.428 80.354 186.343 80.769C186.343 80.769 184.697 81.4584 183.92 80.3004C183.637 79.8676 184.204 79.3678 184.679 79.1804C185.154 78.9885 185.825 78.868 185.725 79.3767C185.769 79.3589 189.024 78.7431 190.521 77.8595C191.453 77.3061 192.655 78.0424 191.353 79.7828C191.317 79.823 193.835 80.2268 197.121 78.395C197.121 78.4128 197.683 80.2536 194.763 80.9341Z" fill="#949494"/>
<path d="M171.215 117.105H194.549C194.801 107.827 188.89 101.066 180.233 101.066C170.757 101.066 164.326 107.479 164.326 116.301C164.326 125.128 170.784 131.88 181.944 131.915C187.469 131.933 190.936 130.046 193.586 128.345L193.59 122.908C193.59 122.908 187.795 126.13 182.131 125.942C177.166 125.775 171.342 123.763 171.215 117.105ZM180.164 106.486C184.302 106.486 187.833 110.054 187.833 112.174H171.538C171.538 109.782 174.761 106.486 180.164 106.486Z" fill="#949494"/>
<path d="M94.9159 89.6024V89.415H84.1777V89.6024C85.5071 90.3923 85.8417 92.6547 85.9153 94.9395V125.124C85.8506 127.48 85.5272 129.894 84.1777 130.666V130.853H94.9159V130.666C93.5619 129.854 93.2429 127.435 93.1782 125.092V95.2274C93.2429 92.8645 93.5619 90.4191 94.9159 89.6024Z" fill="#949494"/>
<path d="M149.876 108.996C154.063 108.162 159.247 105.71 159.247 99.3016C159.247 93.2884 154.28 89.3882 144.282 89.3882L140.439 89.415H129.7V89.6024C131.03 90.3923 131.36 92.6548 131.438 94.9418V125.128C131.369 127.482 131.05 129.896 129.7 130.666V130.853H140.439V130.849L146.468 130.835C155.674 130.835 162.379 127.493 162.379 119.023C162.379 110.723 153.836 109.05 149.876 108.996ZM138.705 95.3121C138.714 95.0533 138.728 94.7945 138.741 94.529C139.756 94.4732 140.684 94.3683 141.712 94.3683C149.415 94.3683 151.846 96.2202 151.846 100.022C151.846 105.341 146.118 106.511 140.492 106.511C139.939 106.511 139.816 106.511 138.705 106.417V95.3121ZM144.9 125.507C142.526 125.507 140.978 125.396 138.705 125.03V112.017C139.528 111.919 140.434 111.868 141.188 111.868C148.482 111.868 154.619 112.6 154.619 119.026C154.621 122.915 152.25 125.507 144.9 125.507Z" fill="#949494"/>
<path d="M214.966 101.785L214.957 101.977C215.959 102.762 215.401 104.998 214.556 107.265L208.631 121.884L200.498 101.785H191.576V101.977C193.226 102.767 194.469 105.029 195.466 107.318L202.675 125.128C204.623 129.635 210.117 130.853 210.117 130.853H210.44L222.207 101.785H214.966Z" fill="#949494"/>
<path d="M125.953 125.09L125.966 111.484C125.888 109.297 125.578 107.048 124.416 105.393C122.417 102.443 118.4 101.069 114.891 101.069C110.932 101.069 109.241 101.256 106.321 103.782L106.29 103.826L106.294 101.809H97.2536V102.004C98.5786 102.789 98.9132 105.049 98.9868 107.336V125.128C98.9177 127.482 98.6031 129.896 97.2536 130.67V130.853H107.985V130.67C106.642 129.854 106.321 127.44 106.261 125.092L106.279 111.723C106.493 108.684 108.121 105.761 112.13 105.761C117.088 105.761 118.621 108.305 118.683 114.418V125.128C118.619 127.482 118.3 129.896 116.95 130.67V130.853H127.686V130.67C126.337 129.852 126.015 127.437 125.953 125.09Z" fill="#949494"/>
<path d="M66.3661 108.996C70.5619 108.162 75.7459 105.71 75.7459 99.3016C75.7459 93.2884 70.7783 89.3882 60.7761 89.3882L56.9327 89.415H46.1967V89.6024C47.5262 90.3923 47.8518 92.6548 47.921 94.9418V106.776C43.7252 106.906 39.8751 107.419 36.3753 108.204L28.7643 89.4172H19.3444L19.3533 89.6047C20.3593 90.3945 19.7749 92.657 18.9273 94.944L6.70341 125.13C5.67956 127.484 4.38579 129.898 2.72174 130.668V130.856H11.6532C11.7848 130.619 14.3902 126.197 20.337 121.685C23.3439 119.409 27.1895 117.142 32.03 115.424L35.9648 125.13C36.8481 127.484 37.5017 129.898 36.4712 130.668L36.4667 130.856H45.5454L38.5702 113.615C41.4187 113.035 44.526 112.651 47.9232 112.533V125.13C47.8675 127.484 47.5396 129.898 46.1989 130.668V130.856H56.935V130.851L62.9599 130.838C72.1791 130.838 78.8754 127.495 78.8754 119.026C78.8754 110.723 70.3366 109.05 66.3661 108.996ZM17.377 116.712L24.9656 97.9785L29.8707 110.085C24.8139 111.91 20.6739 114.286 17.377 116.712ZM55.2018 95.3121C55.2062 95.0533 55.2152 94.7945 55.2375 94.529C56.2524 94.4732 57.1848 94.3683 58.2042 94.3683C65.911 94.3683 68.3424 96.2202 68.3424 100.022C68.3424 105.348 62.6097 106.511 56.993 106.511C56.4398 106.511 56.3126 106.511 55.2018 106.417V95.3121ZM61.3962 125.507C59.0251 125.507 57.4748 125.396 55.2018 125.03V112.017C56.0293 111.919 56.9305 111.868 57.6889 111.868C64.9853 111.868 71.1195 112.6 71.1195 119.026C71.1195 122.915 68.7462 125.507 61.3962 125.507Z" fill="#949494"/>
<path d="M189.831 80.2893C189.831 80.2893 189.972 80.5214 190.768 80.1867C190.768 80.1733 190.11 80.209 189.963 79.7895C189.963 79.7784 189.644 80.0974 189.831 80.2893Z" fill="#949494"/>
<path d="M238.769 62.1874C238.769 62.1874 244.272 65.0612 261.825 61.8661C261.825 61.8661 265.432 61.1834 269.61 61.4065C269.61 61.4065 281.078 62.4909 290.683 59.4341C290.683 59.4341 280.357 61.3663 272.115 60.7282C272.115 60.7282 266.478 59.9205 261.825 60.9848C261.825 60.9848 246.307 64.055 239.675 61.315L238.769 62.1874Z" fill="#949494"/>
<path d="M153.022 2.34824C153.022 2.34824 160.682 15.6976 194.882 34.9196C195.658 35.3168 196.398 35.8478 196.851 36.6064C197.382 37.4945 197.844 38.3981 198.455 39.2371C199.466 40.6338 200.646 41.9257 201.866 43.1328C203.246 44.4871 204.732 45.7277 206.3 46.8589C207.306 47.5752 208.736 48.3717 209.82 48.9674C209.742 48.9674 202.236 45.9642 194.882 37.5681C193.378 35.9505 187.962 32.7576 187.672 32.5746C187.474 32.4407 155.156 11.4182 153.022 2.34824Z" fill="#949494"/>
</svg>
