<svg width="104" height="130" viewBox="0 0 104 130" fill="none" xmlns="http://www.w3.org/2000/svg">
<g opacity="0.4">
<path d="M37.992 20.799C37.4523 19.3421 36.9277 19.2224 36.0875 18.1298C38.6337 18.8532 44.7087 18.3543 46.7304 17.6558C46.6387 17.5959 46.4757 17.4163 46.4197 17.5111C46.3637 17.6059 46.1804 17.4013 46.0938 17.3814C44.4847 16.9772 44.5254 17.2117 42.9213 17.1618C38.0939 17.0022 30.2212 14.1284 25.7808 12.1726C23.7592 11.3194 21.4524 10.0172 19.4766 9.32373C20.658 11.6238 25.4956 15.256 28.1334 16.3835C28.0468 16.4384 27.9348 16.4334 27.8788 16.5482C27.8228 16.6629 27.6598 16.6629 27.5784 16.6779C27.1429 16.7773 26.6962 16.8209 26.2493 16.8076C31.2804 22.9294 33.1442 19.3022 37.992 20.799Z" fill="black"/>
<path d="M14.9748 27.6278C13.3248 29.879 11.9474 32.3165 10.8711 34.8898C12.5126 34.2474 13.5649 33.4143 15.3474 33.2688C13.8922 37.2787 12.8852 40.2146 12.5126 45.1229C14.3454 43.542 12.4421 44.4955 17.2003 40.7516C17.7844 43.7327 17.7894 45.168 18.8065 47.6774C20.876 52.8064 26.1075 57.9807 30.8205 60.4449V55.9833C31.8678 56.6909 32.467 57.4587 33.7761 58.2918C34.9644 59.0547 35.7298 59.1701 36.7972 60.0383C36.7274 60.0927 36.6533 60.1414 36.5757 60.1839L35.8406 60.6004C33.5848 61.7397 34.5918 60.7911 33.6351 62.0659L38.3229 63.0696C39.4155 63.5715 38.9019 63.3507 39.3299 63.6969C37.8496 64.3745 35.9513 64.9115 34.4861 65.6241L41.1275 67.6015C50.503 71.0644 42.7085 73.8899 42.1899 74.3365C43.8465 74.9739 49.3248 74.9287 51.1022 74.3365C50.5987 76.5196 49.788 75.8873 48.7004 77.4581C50.1455 77.2875 51.6913 76.2838 53.0911 75.7819C57.8946 74.0053 62.4867 74.0856 66.1221 70.9138C68.9267 68.4697 67.9851 68.2138 68.1664 67.4308C68.3326 66.7332 69.9489 64.7509 70.4826 63.8826C72.6175 60.4047 71.2228 59.953 74.5611 58.9894L76.3939 58.8389C77.4916 61.2127 73.3073 63.4009 72.3204 64.9617C81.6406 64.6154 84.2891 57.258 87.2296 55.4262C88.2515 54.8767 89.1361 54.1048 89.8177 53.1678C95.2305 46.0212 88.5488 41.7804 87.7734 40.2046C86.9325 38.5083 88.0403 38.5283 86.4592 36.6463C84.8782 34.7643 85.5378 36.3452 85.2961 33.329C84.9185 28.6717 80.8853 26.1222 76.3989 23.1361C77.3455 19.1211 77.7584 19.0709 76.3989 14.6043C72.0636 14.8151 71.4443 14.8201 67.8391 13.3998C60.4978 10.5392 55.2864 5.48541 44.2543 5.2144C31.3039 4.89822 32.9604 8.2256 25.886 6.52427C18.0613 4.64729 14.5367 1.19946 11.2789 0C11.2789 4.18055 13.2074 9.0336 14.5871 12.1151L19.2295 19.2667C20.307 20.5966 19.8085 19.347 20.6393 21.5C18.7058 23.8136 18.4591 22.7195 14.9748 27.6278ZM65.4071 67.3355C61.7667 67.2882 58.1447 66.8114 54.6167 65.9152C50.9209 65.0118 50.3922 63.5966 48.7759 60.8463C49.1536 60.5854 48.8464 60.7259 49.5866 60.475C49.5866 60.475 50.4627 60.2441 50.5282 60.2341C55.8 59.2303 55.1152 59.8978 60.9258 56.3898C60.1655 59.6218 56.7617 62.4122 55.0045 64.7258C56.8121 64.5501 56.6157 64.3494 57.809 65.1423C58.8161 65.5438 57.0941 65.1724 60.236 65.2026C62.3961 65.2026 59.4807 65.2276 61.4898 65.5187C63.7506 65.8449 68.539 62.3971 70.3315 61.2579C70.0042 63.0345 67.3205 67.3355 65.4071 67.3355ZM51.9783 49.0525C55.0498 50.001 56.51 53.9858 57.6731 57.1928C55.4878 57.5993 54.8181 58.2617 50.7598 58.8138C50.2867 56.4703 49.3337 54.2492 47.9602 52.2895C45.6994 49.2783 44.35 48.8567 42.2151 50.2821C42.3108 48.6861 42.9754 47.045 44.6521 47.045C50.0851 47.045 51.5755 51.8579 53.5795 55.5767C53.7164 55.8497 53.8747 56.1115 54.0528 56.3597L54.4204 56.8615C54.4002 53.5241 53.2723 51.1904 51.9783 49.0525ZM59.9087 63.4761C59.9087 65.4836 59.4052 62.7785 59.4052 64.4799L57.6983 62.8789C58.8312 62.096 58.3025 62.0458 59.7123 61.6594C59.7123 62.096 59.9087 63.4259 59.9087 63.4761ZM63.3125 63.2804C62.245 61.9655 60.2914 60.3746 61.1423 58.6632C61.8271 57.2781 63.4736 54.9344 63.1917 52.9169C62.4817 53.9206 60.382 55.6069 58.8966 55.9782C58.4586 53.1778 57.235 50.8291 57.2703 47.4465C59.3146 46.7539 60.2058 46.5532 62.1393 47.4465C67.8593 50.0612 65.6035 55.386 63.3679 60.8363C66.389 60.6757 68.826 58.0259 71.0969 59.2002C68.962 60.4549 66.1674 63.0696 63.3125 63.2804ZM77.2146 62.0609C77.8893 60.1889 79.3445 58.9342 79.6567 56.3848C79.2699 56.6773 78.8169 56.8703 78.3375 56.9468C77.3657 57.0422 77.0334 57.0171 76.978 56.9468C76.6457 57.0773 76.0817 57.2831 75.1754 57.5892C74.2338 57.1225 74.979 57.5892 74.3949 56.7662C74.2627 56.6048 74.1604 56.4213 74.0928 56.2242C74.0742 56.1173 74.0253 56.0181 73.9518 55.9381C73.0807 56.3195 71.7515 56.7612 71.0163 57.0974L70.6991 55.2455C68.4786 57.534 67.8995 57.4437 65.533 59.0848C66.253 56.5102 67.0436 55.3409 67.0436 51.9181C76.691 57.3032 76.3385 54.0159 79.8178 55.0197C81.1421 55.4011 81.2982 56.189 83.7201 56.3797C82.5066 59.2454 79.8531 60.7259 77.2146 62.0609ZM83.2015 32.4808C83.0454 32.9827 83.2971 36.7015 80.0595 34.8848C80.6184 33.4294 79.848 34.6639 81.5247 33.5097C82.5771 32.787 81.8671 32.8572 83.2015 32.4808ZM71.9378 17.0183C75.6588 17.2592 75.8098 16.396 74.3496 22.2979C72.119 20.7923 69.3749 18.3533 67.8995 16.2755C69.2792 16.4361 70.4373 16.923 71.9378 17.0183ZM25.5738 19.0258C24.7641 18.8436 23.9989 18.5024 23.3231 18.022C19.6827 15.6783 16.158 9.30461 15.3524 5.27964C19.8186 7.65347 29.5869 12.2506 36.3642 11.2117C35.6794 10.8905 35.2816 10.7901 34.6371 10.4238L33.1618 9.26948C37.6935 7.62838 44.5816 7.17168 50.1858 8.26575C55.5029 9.31967 65.4927 14.79 68.5491 18.3583C71.5249 21.8212 74.4352 24.2954 78.2922 27.3016C82.5418 30.6189 82.6778 29.5198 81.278 32.0291C78.7151 31.999 80.0192 31.9338 78.4281 30.8146C78.4281 33.4093 78.6245 33.8258 79.4603 35.6878C83.0202 36.7567 84.1279 33.9111 84.1128 38.1068C83.3809 38.026 82.6847 37.7484 82.0988 37.3038C82.6778 38.6438 88.574 43.7728 89.4199 46.6736C89.4199 46.6736 90.6384 46.6736 89.3897 49.0876C88.2719 51.2256 86.4894 53.1025 83.7402 53.1477C85.0594 52.2544 89.0926 50.6384 89.4199 46.6736C86.7355 46.6133 84.0804 46.1043 81.565 45.168C74.8884 42.7139 79.2237 42.3224 73.1915 34.8647C70.4725 31.5072 72.9901 31.0254 69.8784 28.7921C69.8784 31.8786 68.6297 32.5059 66.1171 30.9802C61.7012 28.3053 62.8039 23.5627 52.789 23.5627C53.8413 24.9829 54.803 24.5664 56.0417 26.4032C53.363 25.9014 51.8524 26.1523 49.4255 26.8047C49.528 26.8555 49.6362 26.8942 49.7477 26.9201C51.8927 27.5525 53.1767 27.2263 55.518 28.7821L53.1968 29.2388L54.6117 29.8761C58.1363 31.1509 61.1272 34.6589 61.2581 34.4431C61.3035 34.3628 61.4444 34.6037 61.53 34.689C59.3599 34.413 58.4586 33.9262 56.7416 33.6853L58.0507 34.5535C61.4042 36.3552 64.5512 36.0591 67.5723 35.8333C70.3114 35.6426 74.1835 39.507 74.8833 41.5295C67.2097 38.97 72.6528 39.3062 65.4021 39.773C65.6236 39.9844 65.8931 40.1394 66.1876 40.2246C66.2984 40.2698 66.6911 40.3903 66.7918 40.4304C75.2559 42.9397 75.4372 44.2948 80.709 51.7826C77.7786 54.5931 71.9176 52.6458 69.0677 51.1352C62.4565 47.6222 60.8352 41.2384 58.8815 38.5885C57.0739 36.1093 48.1113 34.5736 42.5474 38.443C44.058 38.443 45.7951 37.6902 47.5826 37.4694C49.2845 37.2929 51.0044 37.417 52.6631 37.8357C56.5251 38.6438 59.2088 39.6726 59.2844 42.7791C53.0407 40.5007 49.7175 39.8934 44.1335 43.3061C41.1728 45.1128 35.3572 49.725 34.4609 52.7362C35.7247 51.9031 35.3723 51.5267 36.903 51.1151C37.5676 54.302 40.9311 54.312 43.5343 55.8628C50.2966 59.8777 43.1063 68.56 64.9842 68.56C63.5492 71.8473 57.0185 70.6127 54.516 73.0116C54.1082 72.4746 54.1032 73.2123 54.4053 71.3906C52.6832 71.777 50.7094 72.2287 48.6551 72.5549L50.6692 70.1761C47.5826 68.2539 49.8937 70.5775 46.777 67.2401C45.5584 65.9403 44.3601 65.7345 42.3964 65.0972L45.0549 64.4999C43.5444 62.2265 41.9331 62.5477 39.8183 61.3081C42.5071 61.1776 42.7186 61.3382 45.0549 61.8099C40.5233 52.8968 29.9997 60.5904 29.9997 46.2521C28.4036 47.4064 27.5375 50.9545 28.3633 53.5492C26.0622 52.6458 23.6051 49.3335 22.452 46.8493C20.6998 43.02 21.0321 40.867 21.0119 36.019L17.7794 36.9123C19.8891 31.1459 22.0291 31.5122 23.2476 29.2036C20.3825 29.2036 19.9596 29.5098 17.7794 30.0167C21.5306 22.7396 25.3321 22.4184 27.3059 20.8074C27.9756 20.2604 27.4066 20.9128 27.9555 20.0847L25.5738 19.0258ZM67.0335 32.4808C65.9761 34.3929 62.9349 33.4193 61.4948 32.7067C59.3297 31.5825 58.7053 30.2274 60.2159 28.1045C61.3689 28.6767 61.8221 29.4897 63.2823 30.5537C64.5612 31.4671 65.3769 32.1195 67.0335 32.4557V32.4808ZM41.8022 53.3535C41.4672 53.0712 41.1858 52.7312 40.9714 52.3497C40.8283 52.0499 40.7136 51.7374 40.629 51.4163C40.0349 49.2482 40.5384 47.2156 42.059 45.9861C41.1577 50.3573 41.1275 48.39 41.8022 53.3535Z" fill="black"/>
<path d="M41.7993 39.3379C42.4193 39.0637 42.1441 39.1421 42.4266 38.729L40.9922 39.2845C41.4984 39.3842 41.293 39.5622 41.7993 39.3379Z" fill="black"/>
<path d="M101.956 95.0312C100.542 90.9781 98.2893 88.4239 95.1974 87.3686C93.65 88.2116 92.2862 89.3546 91.1857 90.7309C90.0853 92.1072 89.2703 93.6891 88.7884 95.3841C88.8785 93.751 89.3096 92.1549 90.054 90.6985C90.7984 89.2422 91.8395 87.9579 93.1104 86.9284C92.8274 86.8902 92.5423 86.87 92.2567 86.8679C90.827 86.8215 89.4027 87.0656 88.0701 87.5855C86.7374 88.1054 85.5241 88.8903 84.5034 89.8926C83.4564 90.8692 82.6268 92.0553 82.0686 93.3738C81.5104 94.6923 81.2361 96.1135 81.2636 97.5451C81.2636 100.506 82.5038 103.4 84.9437 106.243C86.0023 107.473 88.3246 109.573 91.877 112.561C94.0816 114.416 95.3655 115.881 95.7587 116.93C95.9412 117.402 96.0044 117.912 95.9429 118.414C95.8813 118.917 95.6969 119.396 95.4058 119.81C95.1454 120.248 94.7755 120.611 94.3323 120.863C93.8892 121.114 93.3881 121.246 92.8785 121.245C90.4823 121.292 88.6271 119.488 87.2929 115.787L80.0605 117.955C81.3734 123.169 83.9926 126.568 87.918 128.152C89.7328 127.56 91.43 126.397 93.023 124.68C94.616 122.963 95.7116 121.071 96.1721 119.135C95.762 123.248 93.843 126.488 90.415 128.854C91.1612 128.977 91.9176 129.028 92.6735 129.005C96.2023 128.887 99.115 127.416 101.412 124.593C103.825 121.617 104.55 118.23 103.589 114.43C103.203 112.914 102.191 111.294 100.528 109.577C98.927 108.001 97.2443 106.511 95.4865 105.114C93.2112 103.242 91.6384 101.85 90.7814 100.909C89.4102 99.3834 88.7649 98.0122 88.7649 96.7956C88.7633 96.0933 89.04 95.419 89.5345 94.9203C89.9851 94.4223 90.604 94.1086 91.272 94.0398C91.9892 93.9678 92.7077 94.1641 93.2885 94.5909C94.0385 95.1829 94.582 95.9969 94.8412 96.9166C95.3924 96.8359 97.7527 96.2075 101.922 95.0312H101.956ZM61.6568 107.671H64.537C65.1224 107.681 65.7035 107.571 66.245 107.349C66.7865 107.126 67.2768 106.796 67.6861 106.377C68.1092 105.972 68.4442 105.485 68.6703 104.945C68.8964 104.405 69.0087 103.824 69.0002 103.238V99.0036C68.9988 98.4189 68.8823 97.8401 68.6573 97.3003C68.4323 96.7605 68.1032 96.2704 67.6888 95.8578C67.2743 95.4452 66.7827 95.1184 66.2419 94.8958C65.7011 94.6732 65.1218 94.5594 64.537 94.5607H61.6568V107.671ZM76.7031 103.238C76.7031 105.954 75.7027 108.598 73.7019 111.17C71.7661 113.697 69.4763 115.377 66.8325 116.211C69.1005 115.844 71.2547 114.963 73.1306 113.636C73.2919 113.519 73.4666 113.388 73.6044 113.257C74.4203 114.613 74.952 116.121 75.1672 117.69L76.693 129.005H69.0607L67.5046 118.19C67.3078 117.258 66.789 116.425 66.0393 115.838C65.2714 115.223 64.314 114.894 63.3305 114.907H61.6501V129.022H53.9539V86.8679H62.0669C63.7243 87.8957 65.1383 89.2718 66.2107 90.9008C67.5237 92.7447 68.3157 94.5002 68.5868 96.1671C68.4417 92.7147 67.0811 89.4245 64.7454 86.8779C67.9325 86.9265 70.9727 88.2262 73.2098 90.4967C75.447 92.7672 76.7017 95.8263 76.7031 99.0137V103.238ZM41.556 110.017V97.7702C41.556 96.8057 41.1863 95.6328 40.4638 94.2381C39.1176 91.4577 36.725 89.3237 33.8094 88.3029C34.4614 88.6625 35.4058 89.4758 36.6594 90.7395C37.7803 91.8469 38.6343 93.195 39.1564 94.6817C38.9001 94.5999 38.6324 94.5591 38.3633 94.5607C37.938 94.553 37.5156 94.6329 37.1225 94.7953C36.7293 94.9578 36.3738 95.1994 36.078 95.5051C35.773 95.7972 35.5317 96.1492 35.3692 96.539C35.2067 96.9288 35.1265 97.348 35.1336 97.7702V110.017H41.556ZM38.3465 86.8679C39.7809 86.8464 41.2045 87.1193 42.5294 87.6696C43.8543 88.2198 45.0523 89.0359 46.0494 90.0673C47.0845 91.0616 47.9031 92.2591 48.4536 93.5846C49.0042 94.9101 49.2749 96.3351 49.2489 97.7702V129.005H41.556V117.71H30.2134L35.1168 118.822V128.995H27.424V97.7702C27.4006 96.3346 27.6736 94.9096 28.2258 93.5842C28.778 92.2589 29.5977 91.0616 30.6335 90.0673C31.6323 89.0353 32.832 88.2189 34.1586 87.6687C35.4852 87.1184 36.9105 86.8458 38.3465 86.8679ZM14.2228 97.861C14.23 97.429 14.1508 96.9999 13.9901 96.5989C13.8293 96.1979 13.5901 95.8331 13.2865 95.5257C12.9828 95.2183 12.6209 94.9747 12.2219 94.8089C11.8229 94.6432 11.3949 94.5588 10.9629 94.5607H8.81869L7.70291 87.4795V102.465H10.9561C11.3877 102.468 11.8155 102.385 12.2145 102.221C12.6134 102.056 12.9754 101.813 13.2792 101.507C13.5829 101.2 13.8223 100.836 13.9832 100.436C14.1441 100.035 14.2233 99.6065 14.2161 99.175L14.2228 97.861ZM0 94.0398L7.70291 86.8679H11.8165C13.136 86.8464 14.4457 87.097 15.664 87.6041C16.8824 88.1112 17.9831 88.8639 18.8977 89.8153C19.844 90.7282 20.5929 91.8256 21.0981 93.0395C21.6034 94.2535 21.8542 95.5582 21.835 96.8729V99.2254C21.8661 101.79 20.9562 104.277 19.2774 106.216C21.2347 107.998 22.443 110.457 22.6584 113.095C22.1436 114.833 21.1939 116.411 19.8992 117.679C18.4876 119.095 16.9708 119.832 15.3487 119.888H14.2531C14.7556 119.239 15.0244 118.44 15.016 117.619V113.889C15.0191 113.399 14.9249 112.913 14.7388 112.46C14.5527 112.007 14.2785 111.596 13.9321 111.25C13.5856 110.904 13.1738 110.63 12.7207 110.444C12.2675 110.258 11.7819 110.165 11.2922 110.168H7.70291V121.363L12.3475 121.393C15.249 121.393 17.4021 120.991 18.8069 120.187C20.7427 119.095 22.0467 117.03 22.7189 113.989V118.103C22.7135 120.993 21.5632 123.763 19.5197 125.806C17.4763 127.85 14.7064 129 11.8165 129.005H0V94.0398Z" fill="black"/>
</g>
</svg>
