<svg width="255" height="44" viewBox="0 0 255 44" fill="none" xmlns="http://www.w3.org/2000/svg">
<path d="M21.0941 23.375C21.2808 23.8417 21.5491 24.1334 21.8991 24.25C22.2491 24.3434 22.7974 24.4134 23.5441 24.46C23.7308 24.46 23.8358 24.5067 23.8591 24.6C23.9058 24.67 23.9291 24.7517 23.9291 24.845C23.9291 24.9384 23.8708 25.1834 23.7541 25.58C23.6608 25.9767 23.5674 26.5484 23.4741 27.295C23.4274 27.5984 23.3924 27.925 23.3691 28.275C23.3691 28.6484 23.3574 28.9867 23.3341 29.29C23.3108 29.6167 23.2641 29.885 23.1941 30.095C23.1474 30.305 23.0541 30.41 22.9141 30.41C22.7974 30.41 22.7274 30.2584 22.7041 29.955C22.6808 29.6517 22.6458 29.29 22.5991 28.87C22.5758 28.45 22.5174 28.0184 22.4241 27.575C22.3541 27.155 22.2024 26.8167 21.9691 26.56C21.7124 26.28 21.3274 26.1167 20.8141 26.07C20.3241 26.0234 19.8808 26 19.4841 26H3.87411C2.98744 26 2.32244 26.2217 1.87911 26.665C1.45911 27.1317 1.14411 27.645 0.934109 28.205C0.747442 28.765 0.630776 29.2667 0.584109 29.71C0.537443 30.1767 0.444109 30.41 0.304109 30.41C0.187442 30.41 0.105775 30.235 0.0591087 29.885C0.0357754 29.5584 0.0241089 29.1267 0.0241089 28.59C0.0241089 28.1234 0.0474419 27.6334 0.0941086 27.12C0.164109 26.63 0.199109 26.0234 0.199109 25.3C0.199109 25.0667 0.222442 24.8684 0.269109 24.705C0.315775 24.5184 0.467442 24.425 0.724109 24.425C0.840775 24.425 0.957442 24.4367 1.07411 24.46C1.19078 24.46 1.31911 24.46 1.45911 24.46C1.62244 24.46 1.77411 24.4134 1.91411 24.32C2.05411 24.2034 2.18244 24.075 2.29911 23.935C2.41578 23.7717 2.52078 23.6084 2.61411 23.445C2.70744 23.2817 2.77744 23.1417 2.82411 23.025C4.03744 19.9217 5.25077 16.8417 6.46411 13.785C7.70078 10.705 8.92578 7.6017 10.1391 4.47504L11.5041 0.975038C11.6441 0.601705 11.8191 0.415039 12.0291 0.415039C12.2158 0.415039 12.3791 0.601705 12.5191 0.975038L21.0941 23.375ZM17.4891 22.955C16.5324 20.3417 15.5758 17.7284 14.6191 15.115C13.6624 12.5017 12.7058 9.88837 11.7491 7.27504C11.5391 6.7617 11.3641 6.50504 11.2241 6.50504C11.1074 6.50504 10.9558 6.73837 10.7691 7.20504L4.95911 22.43C4.72578 23.06 4.60911 23.5384 4.60911 23.865C4.60911 24.075 4.66744 24.2267 4.78411 24.32C4.90077 24.4134 5.13411 24.46 5.48411 24.46H17.1041C17.5474 24.46 17.7691 24.3084 17.7691 24.005C17.7691 23.7484 17.6758 23.3984 17.4891 22.955Z" fill="#949494"/>
<path d="M32.2017 1.53504C32.2017 1.44171 32.26 1.38337 32.3767 1.36004C32.4934 1.3367 32.6334 1.32504 32.7967 1.32504C33.17 1.32504 33.6134 1.36004 34.1267 1.43004C34.64 1.4767 35.3284 1.50004 36.1917 1.50004C36.7517 1.50004 37.265 1.46504 37.7317 1.39504C38.2217 1.32504 38.7584 1.29004 39.3417 1.29004C39.435 1.29004 39.5517 1.3017 39.6917 1.32504C39.855 1.34837 39.9367 1.41837 39.9367 1.53504C39.9367 1.65171 39.82 1.73337 39.5867 1.78004C39.3534 1.80337 39.0734 1.8967 38.7467 2.06004C38.28 2.27004 37.9767 2.59671 37.8367 3.04004C37.72 3.46004 37.6617 4.11337 37.6617 5.00004V19.385C37.6617 19.7817 37.6617 20.0734 37.6617 20.26C37.685 20.4467 37.755 20.54 37.8717 20.54C37.9417 20.54 38.035 20.4934 38.1517 20.4C38.2684 20.2834 38.385 20.1667 38.5017 20.05L53.0617 2.13004C53.6917 1.36004 54.1817 0.975038 54.5317 0.975038C54.7184 0.975038 54.8234 1.11504 54.8467 1.39504C54.8934 1.65171 54.9167 2.02504 54.9167 2.51504V2.97004C54.9167 3.32004 54.9167 3.70504 54.9167 4.12504C54.9167 4.52171 54.905 4.9067 54.8817 5.28004C54.8817 5.65337 54.8817 6.00337 54.8817 6.33004C54.8817 6.6567 54.8817 6.9017 54.8817 7.06504V16.69C54.8817 17.9734 54.8817 19.07 54.8817 19.98C54.905 20.89 54.9284 21.6717 54.9517 22.325C54.9984 22.955 55.0684 23.48 55.1617 23.9C55.255 24.2967 55.3834 24.6467 55.5467 24.95C55.64 25.1367 55.815 25.2767 56.0717 25.37C56.3284 25.44 56.585 25.4984 56.8417 25.545C57.1217 25.5917 57.355 25.6384 57.5417 25.685C57.7517 25.7084 57.8567 25.7667 57.8567 25.86C57.8567 25.9767 57.775 26.0467 57.6117 26.07C57.4484 26.1167 57.2384 26.14 56.9817 26.14C56.795 26.14 56.5384 26.1284 56.2117 26.105C55.9084 26.105 55.5817 26.0934 55.2317 26.07C54.905 26.0467 54.5784 26.0234 54.2517 26C53.9484 26 53.6917 26 53.4817 26C52.595 26 51.895 26.0234 51.3817 26.07C50.8684 26.1167 50.3784 26.14 49.9117 26.14C49.795 26.14 49.6667 26.1284 49.5267 26.105C49.3867 26.0817 49.3167 26.0117 49.3167 25.895C49.3167 25.8017 49.4217 25.7434 49.6317 25.72C49.865 25.6967 50.04 25.6617 50.1567 25.615C50.5067 25.5217 50.7867 25.335 50.9967 25.055C51.23 24.775 51.3934 24.4367 51.4867 24.04C51.6034 23.6434 51.6734 23.2117 51.6967 22.745C51.7434 22.255 51.7667 21.765 51.7667 21.275V7.83504C51.7667 7.64837 51.755 7.46171 51.7317 7.27504C51.7317 7.06504 51.685 6.96004 51.5917 6.96004C51.3817 6.96004 51.1834 7.08837 50.9967 7.34504C50.8334 7.60171 50.6234 7.8817 50.3667 8.18504L36.7517 24.88C36.6117 25.0667 36.4484 25.265 36.2617 25.475C36.075 25.685 35.8884 25.8717 35.7017 26.035C35.5384 26.2217 35.375 26.3734 35.2117 26.49C35.0717 26.63 34.9667 26.7 34.8967 26.7C34.7334 26.7 34.6284 26.5717 34.5817 26.315C34.5584 26.0817 34.5467 25.6967 34.5467 25.16V5.03504C34.5467 4.91837 34.5467 4.74337 34.5467 4.51004C34.5467 4.25337 34.535 3.99671 34.5117 3.74004C34.4884 3.46004 34.4417 3.20337 34.3717 2.97004C34.325 2.71337 34.255 2.53837 34.1617 2.44504C33.9517 2.23504 33.73 2.09504 33.4967 2.02504C33.2634 1.9317 33.0417 1.87337 32.8317 1.85004C32.645 1.8267 32.4934 1.80337 32.3767 1.78004C32.26 1.75671 32.2017 1.67504 32.2017 1.53504Z" fill="#949494"/>
<path d="M85.9595 19.98C85.9595 21.1 85.7145 22.0567 85.2245 22.85C84.7578 23.62 84.1278 24.2617 83.3345 24.775C82.5412 25.2884 81.6428 25.6617 80.6395 25.895C79.6595 26.1284 78.6678 26.245 77.6645 26.245C76.7078 26.245 75.8678 26.1984 75.1445 26.105C74.4445 26.035 73.6745 26 72.8345 26C72.5778 26 72.2862 26 71.9595 26C71.6328 26.0234 71.2945 26.035 70.9445 26.035C70.5945 26.0584 70.2445 26.07 69.8945 26.07C69.5678 26.0934 69.2878 26.105 69.0545 26.105C68.9145 26.105 68.7628 26.0934 68.5995 26.07C68.4362 26.07 68.3545 26.0234 68.3545 25.93C68.3545 25.8134 68.4595 25.7317 68.6695 25.685C68.9028 25.6384 69.1712 25.58 69.4745 25.51C69.7778 25.44 70.0695 25.3584 70.3495 25.265C70.6295 25.1484 70.8278 24.9617 70.9445 24.705C71.0378 24.5184 71.1078 24.1917 71.1545 23.725C71.2245 23.2584 71.2712 22.7334 71.2945 22.15C71.3412 21.5667 71.3645 20.9717 71.3645 20.365C71.3878 19.7584 71.3995 19.2217 71.3995 18.755V4.68504C71.3995 4.14837 71.3645 3.70504 71.2945 3.35504C71.2478 2.9817 71.1312 2.67837 70.9445 2.44504C70.8278 2.30504 70.6528 2.20004 70.4195 2.13004C70.1862 2.06004 69.9412 2.0017 69.6845 1.95504C69.4512 1.88504 69.2412 1.8267 69.0545 1.78004C68.8912 1.73337 68.8095 1.67504 68.8095 1.60504C68.8095 1.48837 68.9028 1.41837 69.0895 1.39504C69.2995 1.34837 69.4628 1.32504 69.5795 1.32504C69.9762 1.32504 70.4662 1.36004 71.0495 1.43004C71.6562 1.4767 72.2512 1.50004 72.8345 1.50004C73.0678 1.50004 73.3595 1.50004 73.7095 1.50004C74.0595 1.4767 74.4095 1.46504 74.7595 1.46504C75.1328 1.4417 75.4945 1.43004 75.8445 1.43004C76.2178 1.40671 76.5445 1.39504 76.8245 1.39504C77.6645 1.39504 78.4812 1.53504 79.2745 1.81504C80.0912 2.07171 80.8145 2.45671 81.4445 2.97004C82.0978 3.48337 82.6112 4.1017 82.9845 4.82504C83.3812 5.54837 83.5795 6.36504 83.5795 7.27504C83.5795 8.13837 83.4862 8.87337 83.2995 9.48004C83.1128 10.0867 82.8678 10.6 82.5645 11.02C82.2845 11.44 81.9695 11.79 81.6195 12.07C81.2695 12.3267 80.9195 12.5484 80.5695 12.735C80.3828 12.8284 80.2312 12.8984 80.1145 12.945C80.0212 12.9917 79.9745 13.0384 79.9745 13.085C79.9745 13.1317 80.0562 13.19 80.2195 13.26C80.3828 13.3067 80.5812 13.365 80.8145 13.435C81.3978 13.645 81.9928 13.925 82.5995 14.275C83.2295 14.625 83.7895 15.0684 84.2795 15.605C84.7695 16.1184 85.1662 16.7367 85.4695 17.46C85.7962 18.1834 85.9595 19.0234 85.9595 19.98ZM80.8145 8.50004C80.8145 7.66004 80.6628 6.89004 80.3595 6.19004C80.0562 5.46671 79.6595 4.84837 79.1695 4.33504C78.6795 3.82171 78.1312 3.42504 77.5245 3.14504C76.9178 2.84171 76.3112 2.69004 75.7045 2.69004C75.2145 2.69004 74.8995 2.74837 74.7595 2.86504C74.6195 2.95837 74.5495 3.32004 74.5495 3.95004V11.79C74.5495 12.1867 74.7012 12.4317 75.0045 12.525C75.3078 12.6184 75.7628 12.665 76.3695 12.665H77.2445C77.7812 12.665 78.2712 12.6067 78.7145 12.49C79.1578 12.3734 79.5312 12.1634 79.8345 11.86C80.1612 11.5334 80.4062 11.1017 80.5695 10.565C80.7328 10.0284 80.8145 9.34004 80.8145 8.50004ZM82.8095 20.575C82.8095 19.5017 82.6112 18.5567 82.2145 17.74C81.8178 16.9234 81.2812 16.235 80.6045 15.675C79.9278 15.115 79.1345 14.695 78.2245 14.415C77.3378 14.135 76.3928 13.995 75.3895 13.995C75.0628 13.995 74.8412 14.03 74.7245 14.1C74.6078 14.1467 74.5495 14.2984 74.5495 14.555V20.645C74.5495 21.765 74.5962 22.64 74.6895 23.27C74.8062 23.9 74.9812 24.3667 75.2145 24.67C75.4712 24.9734 75.7862 25.16 76.1595 25.23C76.5328 25.3 76.9995 25.335 77.5595 25.335C78.1662 25.335 78.7728 25.265 79.3795 25.125C80.0095 24.9617 80.5812 24.705 81.0945 24.355C81.6078 23.9817 82.0162 23.4917 82.3195 22.885C82.6462 22.2784 82.8095 21.5084 82.8095 20.575Z" fill="#949494"/>
<path d="M96.0015 1.53504C96.0015 1.44171 96.0598 1.38337 96.1765 1.36004C96.2932 1.3367 96.4332 1.32504 96.5965 1.32504C96.9698 1.32504 97.4132 1.36004 97.9265 1.43004C98.4398 1.4767 99.1282 1.50004 99.9915 1.50004C100.551 1.50004 101.065 1.46504 101.531 1.39504C102.021 1.32504 102.558 1.29004 103.141 1.29004C103.235 1.29004 103.351 1.3017 103.491 1.32504C103.655 1.34837 103.736 1.41837 103.736 1.53504C103.736 1.65171 103.62 1.73337 103.386 1.78004C103.153 1.80337 102.873 1.8967 102.546 2.06004C102.08 2.27004 101.776 2.59671 101.636 3.04004C101.52 3.46004 101.461 4.11337 101.461 5.00004V19.385C101.461 19.7817 101.461 20.0734 101.461 20.26C101.485 20.4467 101.555 20.54 101.671 20.54C101.741 20.54 101.835 20.4934 101.951 20.4C102.068 20.2834 102.185 20.1667 102.301 20.05L116.861 2.13004C117.491 1.36004 117.981 0.975038 118.331 0.975038C118.518 0.975038 118.623 1.11504 118.646 1.39504C118.693 1.65171 118.716 2.02504 118.716 2.51504V2.97004C118.716 3.32004 118.716 3.70504 118.716 4.12504C118.716 4.52171 118.705 4.9067 118.681 5.28004C118.681 5.65337 118.681 6.00337 118.681 6.33004C118.681 6.6567 118.681 6.9017 118.681 7.06504V16.69C118.681 17.9734 118.681 19.07 118.681 19.98C118.705 20.89 118.728 21.6717 118.751 22.325C118.798 22.955 118.868 23.48 118.961 23.9C119.055 24.2967 119.183 24.6467 119.346 24.95C119.44 25.1367 119.615 25.2767 119.871 25.37C120.128 25.44 120.385 25.4984 120.641 25.545C120.921 25.5917 121.155 25.6384 121.341 25.685C121.551 25.7084 121.656 25.7667 121.656 25.86C121.656 25.9767 121.575 26.0467 121.411 26.07C121.248 26.1167 121.038 26.14 120.781 26.14C120.595 26.14 120.338 26.1284 120.011 26.105C119.708 26.105 119.381 26.0934 119.031 26.07C118.705 26.0467 118.378 26.0234 118.051 26C117.748 26 117.491 26 117.281 26C116.395 26 115.695 26.0234 115.181 26.07C114.668 26.1167 114.178 26.14 113.711 26.14C113.595 26.14 113.466 26.1284 113.326 26.105C113.186 26.0817 113.116 26.0117 113.116 25.895C113.116 25.8017 113.221 25.7434 113.431 25.72C113.665 25.6967 113.84 25.6617 113.956 25.615C114.306 25.5217 114.586 25.335 114.796 25.055C115.03 24.775 115.193 24.4367 115.286 24.04C115.403 23.6434 115.473 23.2117 115.496 22.745C115.543 22.255 115.566 21.765 115.566 21.275V7.83504C115.566 7.64837 115.555 7.46171 115.531 7.27504C115.531 7.06504 115.485 6.96004 115.391 6.96004C115.181 6.96004 114.983 7.08837 114.796 7.34504C114.633 7.60171 114.423 7.8817 114.166 8.18504L100.551 24.88C100.411 25.0667 100.248 25.265 100.061 25.475C99.8748 25.685 99.6882 25.8717 99.5015 26.035C99.3382 26.2217 99.1748 26.3734 99.0115 26.49C98.8715 26.63 98.7665 26.7 98.6965 26.7C98.5332 26.7 98.4282 26.5717 98.3815 26.315C98.3582 26.0817 98.3465 25.6967 98.3465 25.16V5.03504C98.3465 4.91837 98.3465 4.74337 98.3465 4.51004C98.3465 4.25337 98.3348 3.99671 98.3115 3.74004C98.2882 3.46004 98.2415 3.20337 98.1715 2.97004C98.1248 2.71337 98.0548 2.53837 97.9615 2.44504C97.7515 2.23504 97.5298 2.09504 97.2965 2.02504C97.0632 1.9317 96.8415 1.87337 96.6315 1.85004C96.4448 1.8267 96.2932 1.80337 96.1765 1.78004C96.0598 1.75671 96.0015 1.67504 96.0015 1.53504Z" fill="#949494"/>
<path d="M147.519 19.63C147.519 20.7734 147.274 21.7767 146.784 22.64C146.318 23.5034 145.641 24.2267 144.754 24.81C143.891 25.3934 142.853 25.825 141.639 26.105C140.426 26.4084 139.084 26.56 137.614 26.56C136.868 26.56 136.016 26.4667 135.059 26.28C134.126 26.1167 133.251 25.93 132.434 25.72C132.294 25.6967 132.178 25.545 132.084 25.265C132.014 24.985 131.956 24.67 131.909 24.32C131.886 23.9467 131.874 23.5617 131.874 23.165C131.874 22.745 131.874 22.3834 131.874 22.08C131.874 21.94 131.886 21.8117 131.909 21.695C131.956 21.5784 132.038 21.52 132.154 21.52C132.248 21.52 132.329 21.5784 132.399 21.695C132.469 21.7884 132.528 21.905 132.574 22.045C132.621 22.1617 132.656 22.29 132.679 22.43C132.703 22.5467 132.726 22.6284 132.749 22.675C132.959 23.1417 133.251 23.5384 133.624 23.865C134.021 24.1917 134.464 24.4717 134.954 24.705C135.444 24.9384 135.946 25.1134 136.459 25.23C136.996 25.3234 137.509 25.37 137.999 25.37C140.286 25.37 141.919 24.915 142.899 24.005C143.879 23.095 144.369 21.8467 144.369 20.26C144.369 19.2567 144.206 18.335 143.879 17.495C143.576 16.655 143.098 15.9317 142.444 15.325C141.814 14.7184 141.009 14.24 140.029 13.89C139.049 13.54 137.883 13.365 136.529 13.365H135.724C135.631 13.365 135.538 13.3417 135.444 13.295C135.351 13.225 135.304 13.1084 135.304 12.945C135.304 12.7117 135.468 12.56 135.794 12.49C136.144 12.42 136.564 12.3734 137.054 12.35C137.568 12.3034 138.104 12.245 138.664 12.175C139.224 12.105 139.726 11.9534 140.169 11.72C140.986 11.3 141.616 10.74 142.059 10.04C142.503 9.3167 142.724 8.34837 142.724 7.13504C142.724 6.3417 142.584 5.64171 142.304 5.03504C142.024 4.40504 141.639 3.88004 141.149 3.46004C140.683 3.04004 140.146 2.72504 139.539 2.51504C138.956 2.2817 138.349 2.16504 137.719 2.16504C136.786 2.16504 135.981 2.37504 135.304 2.79504C134.651 3.1917 134.103 3.69337 133.659 4.30004C133.519 4.51004 133.414 4.73171 133.344 4.96504C133.274 5.17504 133.216 5.37337 133.169 5.56004C133.123 5.7467 133.076 5.89837 133.029 6.01504C133.006 6.1317 132.948 6.19004 132.854 6.19004C132.644 6.19004 132.539 6.0617 132.539 5.80504C132.539 5.36171 132.563 4.9067 132.609 4.44004C132.656 3.97337 132.679 3.53004 132.679 3.11004C132.679 2.94671 132.668 2.79504 132.644 2.65504C132.644 2.4917 132.644 2.32837 132.644 2.16504C132.644 2.02504 132.726 1.95504 132.889 1.95504C132.959 1.95504 133.029 1.9667 133.099 1.99004C133.193 2.01337 133.274 2.02504 133.344 2.02504C133.578 2.02504 133.846 1.9667 134.149 1.85004C134.476 1.73337 134.849 1.6167 135.269 1.50004C135.689 1.36004 136.168 1.2317 136.704 1.11504C137.264 0.998372 137.894 0.940039 138.594 0.940039C139.481 0.940039 140.344 1.08004 141.184 1.36004C142.024 1.64004 142.771 2.03671 143.424 2.55004C144.101 3.06337 144.638 3.68171 145.034 4.40504C145.454 5.12837 145.664 5.93337 145.664 6.82004C145.664 7.6367 145.501 8.36004 145.174 8.99004C144.848 9.59671 144.451 10.1217 143.984 10.565C143.518 11.0084 143.028 11.37 142.514 11.65C142.001 11.93 141.569 12.14 141.219 12.28C141.196 12.28 141.161 12.3034 141.114 12.35C141.068 12.3734 141.044 12.4084 141.044 12.455C141.044 12.5484 141.091 12.595 141.184 12.595C141.744 12.6884 142.386 12.8984 143.109 13.225C143.856 13.5517 144.556 14.0067 145.209 14.59C145.863 15.15 146.411 15.85 146.854 16.69C147.298 17.53 147.519 18.51 147.519 19.63Z" fill="#949494"/>
<path d="M157.887 1.53504C157.887 1.44171 157.946 1.38337 158.062 1.36004C158.179 1.3367 158.319 1.32504 158.482 1.32504C158.856 1.32504 159.299 1.36004 159.812 1.43004C160.326 1.4767 161.014 1.50004 161.877 1.50004C162.437 1.50004 162.951 1.46504 163.417 1.39504C163.907 1.32504 164.444 1.29004 165.027 1.29004C165.121 1.29004 165.237 1.3017 165.377 1.32504C165.541 1.34837 165.622 1.41837 165.622 1.53504C165.622 1.65171 165.506 1.73337 165.272 1.78004C165.039 1.80337 164.759 1.8967 164.432 2.06004C163.966 2.27004 163.662 2.59671 163.522 3.04004C163.406 3.46004 163.347 4.11337 163.347 5.00004V19.385C163.347 19.7817 163.347 20.0734 163.347 20.26C163.371 20.4467 163.441 20.54 163.557 20.54C163.627 20.54 163.721 20.4934 163.837 20.4C163.954 20.2834 164.071 20.1667 164.187 20.05L178.747 2.13004C179.377 1.36004 179.867 0.975038 180.217 0.975038C180.404 0.975038 180.509 1.11504 180.532 1.39504C180.579 1.65171 180.602 2.02504 180.602 2.51504V2.97004C180.602 3.32004 180.602 3.70504 180.602 4.12504C180.602 4.52171 180.591 4.9067 180.567 5.28004C180.567 5.65337 180.567 6.00337 180.567 6.33004C180.567 6.6567 180.567 6.9017 180.567 7.06504V16.69C180.567 17.9734 180.567 19.07 180.567 19.98C180.591 20.89 180.614 21.6717 180.637 22.325C180.684 22.955 180.754 23.48 180.847 23.9C180.941 24.2967 181.069 24.6467 181.232 24.95C181.326 25.1367 181.501 25.2767 181.757 25.37C182.014 25.44 182.271 25.4984 182.527 25.545C182.807 25.5917 183.041 25.6384 183.227 25.685C183.437 25.7084 183.542 25.7667 183.542 25.86C183.542 25.9767 183.461 26.0467 183.297 26.07C183.134 26.1167 182.924 26.14 182.667 26.14C182.481 26.14 182.224 26.1284 181.897 26.105C181.594 26.105 181.267 26.0934 180.917 26.07C180.591 26.0467 180.264 26.0234 179.937 26C179.634 26 179.377 26 179.167 26C178.281 26 177.581 26.0234 177.067 26.07C176.554 26.1167 176.064 26.14 175.597 26.14C175.481 26.14 175.352 26.1284 175.212 26.105C175.072 26.0817 175.002 26.0117 175.002 25.895C175.002 25.8017 175.107 25.7434 175.317 25.72C175.551 25.6967 175.726 25.6617 175.842 25.615C176.192 25.5217 176.472 25.335 176.682 25.055C176.916 24.775 177.079 24.4367 177.172 24.04C177.289 23.6434 177.359 23.2117 177.382 22.745C177.429 22.255 177.452 21.765 177.452 21.275V7.83504C177.452 7.64837 177.441 7.46171 177.417 7.27504C177.417 7.06504 177.371 6.96004 177.277 6.96004C177.067 6.96004 176.869 7.08837 176.682 7.34504C176.519 7.60171 176.309 7.8817 176.052 8.18504L162.437 24.88C162.297 25.0667 162.134 25.265 161.947 25.475C161.761 25.685 161.574 25.8717 161.387 26.035C161.224 26.2217 161.061 26.3734 160.897 26.49C160.757 26.63 160.652 26.7 160.582 26.7C160.419 26.7 160.314 26.5717 160.267 26.315C160.244 26.0817 160.232 25.6967 160.232 25.16V5.03504C160.232 4.91837 160.232 4.74337 160.232 4.51004C160.232 4.25337 160.221 3.99671 160.197 3.74004C160.174 3.46004 160.127 3.20337 160.057 2.97004C160.011 2.71337 159.941 2.53837 159.847 2.44504C159.637 2.23504 159.416 2.09504 159.182 2.02504C158.949 1.9317 158.727 1.87337 158.517 1.85004C158.331 1.8267 158.179 1.80337 158.062 1.78004C157.946 1.75671 157.887 1.67504 157.887 1.53504Z" fill="#949494"/>
<path d="M217.751 13.26C217.751 15.0334 217.506 16.725 217.016 18.335C216.55 19.945 215.815 21.3567 214.811 22.57C213.808 23.7834 212.536 24.7517 210.996 25.475C209.456 26.1984 207.636 26.56 205.536 26.56C203.74 26.56 202.071 26.2567 200.531 25.65C199.015 25.0434 197.685 24.1917 196.541 23.095C195.398 21.975 194.5 20.645 193.846 19.105C193.216 17.5417 192.901 15.8267 192.901 13.96C192.901 12.1167 193.193 10.4017 193.776 8.81504C194.36 7.20504 195.188 5.82837 196.261 4.68504C197.335 3.51837 198.606 2.60837 200.076 1.95504C201.57 1.27837 203.226 0.940039 205.046 0.940039C206.936 0.940039 208.663 1.27837 210.226 1.95504C211.79 2.60837 213.12 3.5067 214.216 4.65004C215.336 5.77004 216.2 7.0767 216.806 8.57004C217.436 10.0634 217.751 11.6267 217.751 13.26ZM214.356 15.465C214.356 13.9017 214.17 12.3267 213.796 10.74C213.423 9.15337 212.84 7.73004 212.046 6.47004C211.253 5.1867 210.25 4.14837 209.036 3.35504C207.846 2.5617 206.435 2.16504 204.801 2.16504C203.261 2.16504 201.955 2.48004 200.881 3.11004C199.831 3.74004 198.968 4.5567 198.291 5.56004C197.615 6.56337 197.125 7.69504 196.821 8.95504C196.518 10.1917 196.366 11.4167 196.366 12.63C196.366 14.2867 196.576 15.885 196.996 17.425C197.44 18.9417 198.081 20.295 198.921 21.485C199.761 22.6517 200.788 23.5967 202.001 24.32C203.215 25.02 204.591 25.37 206.131 25.37C207.485 25.37 208.675 25.1017 209.701 24.565C210.728 24.005 211.58 23.27 212.256 22.36C212.956 21.4267 213.481 20.365 213.831 19.175C214.181 17.985 214.356 16.7484 214.356 15.465Z" fill="#949494"/>
<path d="M251.124 20.925C251.124 22.2317 251.183 23.2117 251.299 23.865C251.416 24.5184 251.719 25.0084 252.209 25.335C252.326 25.405 252.489 25.4634 252.699 25.51C252.909 25.5334 253.119 25.5567 253.329 25.58C253.539 25.6034 253.726 25.6384 253.889 25.685C254.053 25.7317 254.134 25.8017 254.134 25.895C254.134 25.9884 254.088 26.0467 253.994 26.07C253.901 26.1167 253.808 26.14 253.714 26.14C253.551 26.14 253.306 26.1284 252.979 26.105C252.653 26.105 252.279 26.0934 251.859 26.07C251.463 26.0467 251.054 26.0234 250.634 26C250.238 26 249.864 26 249.514 26C248.628 26 247.799 26.0234 247.029 26.07C246.283 26.1167 245.746 26.14 245.419 26.14C245.326 26.14 245.233 26.1167 245.139 26.07C245.046 26.0467 244.999 25.9884 244.999 25.895C244.999 25.8017 245.081 25.7317 245.244 25.685C245.408 25.6384 245.594 25.6034 245.804 25.58C246.014 25.5567 246.224 25.5334 246.434 25.51C246.644 25.4634 246.808 25.405 246.924 25.335C247.414 25.0084 247.706 24.5184 247.799 23.865C247.916 23.2117 247.974 22.2317 247.974 20.925V14.66C247.974 14.4034 247.928 14.2517 247.834 14.205C247.741 14.135 247.566 14.1 247.309 14.1H234.149C233.893 14.1 233.718 14.135 233.624 14.205C233.554 14.2517 233.519 14.4034 233.519 14.66V20.925C233.519 22.2317 233.566 23.2117 233.659 23.865C233.776 24.5184 234.079 25.0084 234.569 25.335C234.686 25.405 234.849 25.4634 235.059 25.51C235.269 25.5334 235.479 25.5567 235.689 25.58C235.899 25.6034 236.086 25.6384 236.249 25.685C236.413 25.7317 236.494 25.8017 236.494 25.895C236.494 25.9884 236.448 26.0467 236.354 26.07C236.261 26.1167 236.168 26.14 236.074 26.14C235.911 26.14 235.666 26.1284 235.339 26.105C235.013 26.105 234.639 26.0934 234.219 26.07C233.823 26.0467 233.414 26.0234 232.994 26C232.598 26 232.224 26 231.874 26C230.988 26 230.159 26.0234 229.389 26.07C228.643 26.1167 228.106 26.14 227.779 26.14C227.686 26.14 227.593 26.1167 227.499 26.07C227.406 26.0467 227.359 25.9884 227.359 25.895C227.359 25.8017 227.441 25.7317 227.604 25.685C227.768 25.6384 227.954 25.6034 228.164 25.58C228.374 25.5567 228.584 25.5334 228.794 25.51C229.004 25.4634 229.168 25.405 229.284 25.335C229.774 25.0084 230.078 24.5184 230.194 23.865C230.311 23.2117 230.369 22.2317 230.369 20.925V4.68504C230.369 4.12504 230.311 3.62337 230.194 3.18004C230.101 2.71337 229.879 2.3867 229.529 2.20004C229.389 2.13004 229.214 2.0717 229.004 2.02504C228.794 1.97837 228.596 1.94337 228.409 1.92004C228.246 1.87337 228.094 1.8267 227.954 1.78004C227.838 1.73337 227.779 1.67504 227.779 1.60504C227.779 1.5117 227.849 1.44171 227.989 1.39504C228.129 1.34837 228.281 1.32504 228.444 1.32504C228.584 1.32504 228.794 1.3367 229.074 1.36004C229.378 1.38337 229.693 1.40671 230.019 1.43004C230.346 1.43004 230.673 1.4417 230.999 1.46504C231.349 1.48837 231.629 1.50004 231.839 1.50004C232.073 1.50004 232.353 1.48837 232.679 1.46504C233.006 1.4417 233.333 1.41837 233.659 1.39504C233.986 1.34837 234.301 1.31337 234.604 1.29004C234.908 1.26671 235.153 1.25504 235.339 1.25504C235.549 1.25504 235.724 1.27837 235.864 1.32504C236.028 1.37171 236.109 1.45337 236.109 1.57004C236.109 1.64004 236.039 1.69837 235.899 1.74504C235.759 1.7917 235.584 1.83837 235.374 1.88504C235.188 1.90837 234.989 1.94337 234.779 1.99004C234.593 2.03671 234.441 2.09504 234.324 2.16504C233.928 2.42171 233.694 2.76004 233.624 3.18004C233.554 3.60004 233.519 4.14837 233.519 4.82504V11.825C233.519 12.0817 233.543 12.245 233.589 12.315C233.659 12.385 233.834 12.42 234.114 12.42H247.344C247.648 12.42 247.823 12.3967 247.869 12.35C247.939 12.28 247.974 12.105 247.974 11.825V4.72004C247.974 4.16004 247.939 3.64671 247.869 3.18004C247.823 2.71337 247.636 2.3867 247.309 2.20004C247.169 2.10671 246.983 2.03671 246.749 1.99004C246.539 1.94337 246.329 1.90837 246.119 1.88504C245.933 1.83837 245.769 1.80337 245.629 1.78004C245.489 1.73337 245.419 1.67504 245.419 1.60504C245.419 1.5117 245.489 1.44171 245.629 1.39504C245.769 1.34837 245.921 1.32504 246.084 1.32504C246.224 1.32504 246.434 1.3367 246.714 1.36004C247.018 1.38337 247.333 1.40671 247.659 1.43004C247.986 1.43004 248.313 1.4417 248.639 1.46504C248.989 1.48837 249.269 1.50004 249.479 1.50004C249.713 1.50004 249.993 1.48837 250.319 1.46504C250.646 1.4417 250.973 1.41837 251.299 1.39504C251.626 1.34837 251.941 1.31337 252.244 1.29004C252.548 1.26671 252.793 1.25504 252.979 1.25504C253.189 1.25504 253.364 1.27837 253.504 1.32504C253.668 1.37171 253.749 1.45337 253.749 1.57004C253.749 1.64004 253.668 1.69837 253.504 1.74504C253.364 1.7917 253.189 1.83837 252.979 1.88504C252.793 1.90837 252.594 1.94337 252.384 1.99004C252.174 2.03671 252.011 2.09504 251.894 2.16504C251.521 2.42171 251.299 2.76004 251.229 3.18004C251.159 3.60004 251.124 4.14837 251.124 4.82504V20.925Z" fill="#949494"/>
<path d="M46.7625 42.945C46.7625 42.9817 46.7149 43.0074 46.6195 43.022C46.5242 43.044 46.3995 43.055 46.2455 43.055C46.0695 43.055 45.9155 43.0514 45.7835 43.044C45.6515 43.0367 45.4975 43.033 45.3215 43.033C45.2629 43.033 45.1895 43.0367 45.1015 43.044C45.0135 43.0514 44.9402 43.055 44.8815 43.055C44.8155 43.055 44.7495 43.0257 44.6835 42.967C44.6249 42.901 44.5772 42.8497 44.5405 42.813L41.1635 39.447C41.1049 39.3884 41.0389 39.326 40.9655 39.26C40.8995 39.1867 40.8555 39.15 40.8335 39.15C40.8042 39.15 40.7859 39.1684 40.7785 39.205C40.7785 39.2417 40.7785 39.2674 40.7785 39.282V41.922C40.7785 42.054 40.7932 42.2044 40.8225 42.373C40.8519 42.5344 40.9252 42.659 41.0425 42.747C41.0865 42.7764 41.1415 42.802 41.2075 42.824C41.2735 42.8387 41.3359 42.8534 41.3945 42.868C41.4605 42.8754 41.5155 42.89 41.5595 42.912C41.6109 42.9267 41.6365 42.9487 41.6365 42.978C41.6365 43.0074 41.6182 43.0257 41.5815 43.033C41.5522 43.0404 41.5229 43.044 41.4935 43.044C41.4055 43.044 41.3285 43.0404 41.2625 43.033C41.1965 43.033 41.1232 43.0294 41.0425 43.022C40.9619 43.0147 40.8665 43.0074 40.7565 43C40.6465 43 40.5072 43 40.3385 43C40.1332 43 39.9095 43.0074 39.6675 43.022C39.4255 43.0367 39.2019 43.044 38.9965 43.044C38.9599 43.044 38.9232 43.0404 38.8865 43.033C38.8572 43.0257 38.8425 43.0037 38.8425 42.967C38.8425 42.9377 38.8719 42.9157 38.9305 42.901C38.9965 42.8864 39.0735 42.8717 39.1615 42.857C39.2495 42.8424 39.3375 42.8204 39.4255 42.791C39.5135 42.7544 39.5832 42.6994 39.6345 42.626C39.6785 42.56 39.7152 42.4024 39.7445 42.153C39.7739 41.9037 39.7885 41.57 39.7885 41.152V36.235C39.7885 36.0737 39.7775 35.9454 39.7555 35.85C39.7409 35.7474 39.7079 35.6704 39.6565 35.619C39.6125 35.5604 39.5465 35.5164 39.4585 35.487C39.3779 35.4577 39.2679 35.432 39.1285 35.41C39.0332 35.3954 38.9855 35.366 38.9855 35.322C38.9855 35.2854 39.0259 35.2634 39.1065 35.256C39.1945 35.2487 39.2569 35.245 39.2935 35.245C39.3669 35.245 39.4329 35.2487 39.4915 35.256C39.5502 35.2634 39.6125 35.2707 39.6785 35.278C39.7519 35.278 39.8362 35.2817 39.9315 35.289C40.0269 35.2964 40.1479 35.3 40.2945 35.3C40.3605 35.3 40.4375 35.2964 40.5255 35.289C40.6209 35.2817 40.7162 35.2744 40.8115 35.267C40.9069 35.2597 40.9985 35.2524 41.0865 35.245C41.1819 35.2377 41.2625 35.234 41.3285 35.234C41.3579 35.234 41.3982 35.2377 41.4495 35.245C41.5082 35.2524 41.5375 35.2707 41.5375 35.3C41.5375 35.3294 41.5192 35.3514 41.4825 35.366C41.4459 35.3807 41.3982 35.399 41.3395 35.421C41.2882 35.4357 41.2295 35.4577 41.1635 35.487C41.0975 35.509 41.0389 35.5457 40.9875 35.597C40.9435 35.641 40.9069 35.685 40.8775 35.729C40.8555 35.7657 40.8372 35.8244 40.8225 35.905C40.8079 35.9784 40.7969 36.0847 40.7895 36.224C40.7822 36.3634 40.7785 36.554 40.7785 36.796V38.567C40.7785 38.6184 40.7785 38.666 40.7785 38.71C40.7859 38.7467 40.8005 38.765 40.8225 38.765C40.8812 38.765 40.9692 38.71 41.0865 38.6C41.2039 38.4827 41.3579 38.3324 41.5485 38.149L43.2645 36.532C43.3085 36.488 43.3672 36.433 43.4405 36.367C43.5212 36.2937 43.5982 36.2167 43.6715 36.136C43.7449 36.0554 43.8072 35.9747 43.8585 35.894C43.9172 35.8134 43.9465 35.74 43.9465 35.674C43.9465 35.6007 43.9209 35.5494 43.8695 35.52C43.8255 35.4834 43.7742 35.4577 43.7155 35.443C43.6569 35.4284 43.6019 35.4174 43.5505 35.41C43.5065 35.3954 43.4845 35.377 43.4845 35.355C43.4845 35.3184 43.5102 35.2964 43.5615 35.289C43.6202 35.2744 43.6642 35.267 43.6935 35.267C43.8182 35.267 43.9429 35.2744 44.0675 35.289C44.1922 35.2964 44.3169 35.3 44.4415 35.3C44.6395 35.3 44.8045 35.3 44.9365 35.3C45.0759 35.2927 45.1932 35.2854 45.2885 35.278C45.3912 35.2707 45.4755 35.267 45.5415 35.267C45.6149 35.2597 45.6809 35.256 45.7395 35.256C45.8349 35.256 45.8825 35.278 45.8825 35.322C45.8825 35.366 45.8459 35.3954 45.7725 35.41C45.7065 35.4174 45.6075 35.4467 45.4755 35.498C45.3435 35.5494 45.1785 35.6374 44.9805 35.762C44.7825 35.8794 44.5662 36.0444 44.3315 36.257L41.8785 38.523C41.8639 38.5377 41.8419 38.5597 41.8125 38.589C41.7905 38.611 41.7795 38.6367 41.7795 38.666C41.7795 38.6954 41.7905 38.721 41.8125 38.743C41.8345 38.765 41.8529 38.7834 41.8675 38.798L44.9585 41.845C45.0245 41.911 45.1089 41.9917 45.2115 42.087C45.3142 42.175 45.4242 42.2667 45.5415 42.362C45.6589 42.4574 45.7725 42.5454 45.8825 42.626C45.9925 42.7067 46.0879 42.7617 46.1685 42.791C46.1979 42.8057 46.2455 42.8167 46.3115 42.824C46.3775 42.824 46.4435 42.8314 46.5095 42.846C46.5755 42.8534 46.6342 42.8644 46.6855 42.879C46.7369 42.8937 46.7625 42.9157 46.7625 42.945Z" fill="#949494"/>
<path d="M65.4048 38.996C65.4048 39.5534 65.3278 40.085 65.1738 40.591C65.0271 41.097 64.7961 41.5407 64.4808 41.922C64.1654 42.3034 63.7658 42.6077 63.2818 42.835C62.7978 43.0624 62.2258 43.176 61.5658 43.176C61.0011 43.176 60.4768 43.0807 59.9928 42.89C59.5161 42.6994 59.0981 42.4317 58.7388 42.087C58.3794 41.735 58.0971 41.317 57.8918 40.833C57.6938 40.3417 57.5948 39.8027 57.5948 39.216C57.5948 38.6367 57.6864 38.0977 57.8698 37.599C58.0531 37.093 58.3134 36.6604 58.6508 36.301C58.9881 35.9344 59.3878 35.6484 59.8498 35.443C60.3191 35.2304 60.8398 35.124 61.4118 35.124C62.0058 35.124 62.5484 35.2304 63.0398 35.443C63.5311 35.6484 63.9491 35.9307 64.2938 36.29C64.6458 36.642 64.9171 37.0527 65.1078 37.522C65.3058 37.9914 65.4048 38.4827 65.4048 38.996ZM64.3378 39.689C64.3378 39.1977 64.2791 38.7027 64.1618 38.204C64.0444 37.7054 63.8611 37.258 63.6118 36.862C63.3624 36.4587 63.0471 36.1324 62.6658 35.883C62.2918 35.6337 61.8481 35.509 61.3348 35.509C60.8508 35.509 60.4401 35.608 60.1028 35.806C59.7728 36.004 59.5014 36.2607 59.2888 36.576C59.0761 36.8914 58.9221 37.247 58.8268 37.643C58.7314 38.0317 58.6838 38.4167 58.6838 38.798C58.6838 39.3187 58.7498 39.821 58.8818 40.305C59.0211 40.7817 59.2228 41.207 59.4868 41.581C59.7508 41.9477 60.0734 42.2447 60.4548 42.472C60.8361 42.692 61.2688 42.802 61.7528 42.802C62.1781 42.802 62.5521 42.7177 62.8748 42.549C63.1974 42.373 63.4651 42.142 63.6778 41.856C63.8978 41.5627 64.0628 41.229 64.1728 40.855C64.2828 40.481 64.3378 40.0924 64.3378 39.689Z" fill="#949494"/>
<path d="M84.6934 41.405C84.6934 41.8157 84.7117 42.1237 84.7484 42.329C84.785 42.5344 84.8804 42.6884 85.0344 42.791C85.071 42.813 85.1224 42.8314 85.1884 42.846C85.2544 42.8534 85.3204 42.8607 85.3864 42.868C85.4524 42.8754 85.511 42.8864 85.5624 42.901C85.6137 42.9157 85.6394 42.9377 85.6394 42.967C85.6394 42.9964 85.6247 43.0147 85.5954 43.022C85.566 43.0367 85.5367 43.044 85.5074 43.044C85.456 43.044 85.379 43.0404 85.2764 43.033C85.1737 43.033 85.0564 43.0294 84.9244 43.022C84.7997 43.0147 84.6714 43.0074 84.5394 43C84.4147 43 84.2974 43 84.1874 43C83.9087 43 83.6484 43.0074 83.4064 43.022C83.1717 43.0367 83.003 43.044 82.9004 43.044C82.871 43.044 82.8417 43.0367 82.8124 43.022C82.783 43.0147 82.7684 42.9964 82.7684 42.967C82.7684 42.9377 82.794 42.9157 82.8454 42.901C82.8967 42.8864 82.9554 42.8754 83.0214 42.868C83.0874 42.8607 83.1534 42.8534 83.2194 42.846C83.2854 42.8314 83.3367 42.813 83.3734 42.791C83.5274 42.6884 83.619 42.5344 83.6484 42.329C83.685 42.1237 83.7034 41.8157 83.7034 41.405V39.436C83.7034 39.3554 83.6887 39.3077 83.6594 39.293C83.63 39.271 83.575 39.26 83.4944 39.26H79.3584C79.2777 39.26 79.2227 39.271 79.1934 39.293C79.1714 39.3077 79.1604 39.3554 79.1604 39.436V41.405C79.1604 41.8157 79.175 42.1237 79.2044 42.329C79.241 42.5344 79.3364 42.6884 79.4904 42.791C79.527 42.813 79.5784 42.8314 79.6444 42.846C79.7104 42.8534 79.7764 42.8607 79.8424 42.868C79.9084 42.8754 79.967 42.8864 80.0184 42.901C80.0697 42.9157 80.0954 42.9377 80.0954 42.967C80.0954 42.9964 80.0807 43.0147 80.0514 43.022C80.022 43.0367 79.9927 43.044 79.9634 43.044C79.912 43.044 79.835 43.0404 79.7324 43.033C79.6297 43.033 79.5124 43.0294 79.3804 43.022C79.2557 43.0147 79.1274 43.0074 78.9954 43C78.8707 43 78.7534 43 78.6434 43C78.3647 43 78.1044 43.0074 77.8624 43.022C77.6277 43.0367 77.459 43.044 77.3564 43.044C77.327 43.044 77.2977 43.0367 77.2684 43.022C77.239 43.0147 77.2244 42.9964 77.2244 42.967C77.2244 42.9377 77.25 42.9157 77.3014 42.901C77.3527 42.8864 77.4114 42.8754 77.4774 42.868C77.5434 42.8607 77.6094 42.8534 77.6754 42.846C77.7414 42.8314 77.7927 42.813 77.8294 42.791C77.9834 42.6884 78.0787 42.5344 78.1154 42.329C78.152 42.1237 78.1704 41.8157 78.1704 41.405V36.301C78.1704 36.125 78.152 35.9674 78.1154 35.828C78.086 35.6814 78.0164 35.5787 77.9064 35.52C77.8624 35.498 77.8074 35.4797 77.7414 35.465C77.6754 35.4504 77.613 35.4394 77.5544 35.432C77.503 35.4174 77.4554 35.4027 77.4114 35.388C77.3747 35.3734 77.3564 35.355 77.3564 35.333C77.3564 35.3037 77.3784 35.2817 77.4224 35.267C77.4664 35.2524 77.514 35.245 77.5654 35.245C77.6094 35.245 77.6754 35.2487 77.7634 35.256C77.8587 35.2634 77.9577 35.2707 78.0604 35.278C78.163 35.278 78.2657 35.2817 78.3684 35.289C78.4784 35.2964 78.5664 35.3 78.6324 35.3C78.7057 35.3 78.7937 35.2964 78.8964 35.289C78.999 35.2817 79.1017 35.2744 79.2044 35.267C79.307 35.2524 79.406 35.2414 79.5014 35.234C79.5967 35.2267 79.6737 35.223 79.7324 35.223C79.7984 35.223 79.8534 35.2304 79.8974 35.245C79.9487 35.2597 79.9744 35.2854 79.9744 35.322C79.9744 35.344 79.9524 35.3624 79.9084 35.377C79.8644 35.3917 79.8094 35.4064 79.7434 35.421C79.6847 35.4284 79.6224 35.4394 79.5564 35.454C79.4977 35.4687 79.45 35.487 79.4134 35.509C79.2887 35.5897 79.2154 35.696 79.1934 35.828C79.1714 35.96 79.1604 36.1324 79.1604 36.345V38.545C79.1604 38.6257 79.1677 38.677 79.1824 38.699C79.2044 38.721 79.2594 38.732 79.3474 38.732H83.5054C83.6007 38.732 83.6557 38.7247 83.6704 38.71C83.6924 38.688 83.7034 38.633 83.7034 38.545V36.312C83.7034 36.136 83.6924 35.9747 83.6704 35.828C83.6557 35.6814 83.597 35.5787 83.4944 35.52C83.4504 35.4907 83.3917 35.4687 83.3184 35.454C83.2524 35.4394 83.1864 35.4284 83.1204 35.421C83.0617 35.4064 83.0104 35.3954 82.9664 35.388C82.9224 35.3734 82.9004 35.355 82.9004 35.333C82.9004 35.3037 82.9224 35.2817 82.9664 35.267C83.0104 35.2524 83.058 35.245 83.1094 35.245C83.1534 35.245 83.2194 35.2487 83.3074 35.256C83.4027 35.2634 83.5017 35.2707 83.6044 35.278C83.707 35.278 83.8097 35.2817 83.9124 35.289C84.0224 35.2964 84.1104 35.3 84.1764 35.3C84.2497 35.3 84.3377 35.2964 84.4404 35.289C84.543 35.2817 84.6457 35.2744 84.7484 35.267C84.851 35.2524 84.95 35.2414 85.0454 35.234C85.1407 35.2267 85.2177 35.223 85.2764 35.223C85.3424 35.223 85.3974 35.2304 85.4414 35.245C85.4927 35.2597 85.5184 35.2854 85.5184 35.322C85.5184 35.344 85.4927 35.3624 85.4414 35.377C85.3974 35.3917 85.3424 35.4064 85.2764 35.421C85.2177 35.4284 85.1554 35.4394 85.0894 35.454C85.0234 35.4687 84.972 35.487 84.9354 35.509C84.818 35.5897 84.7484 35.696 84.7264 35.828C84.7044 35.96 84.6934 36.1324 84.6934 36.345V41.405Z" fill="#949494"/>
<path d="M104.213 41.999C104.198 42.0944 104.176 42.2044 104.147 42.329C104.125 42.4537 104.107 42.5564 104.092 42.637C104.077 42.7397 103.989 42.824 103.828 42.89C103.667 42.956 103.465 43.011 103.223 43.055C102.981 43.099 102.717 43.1284 102.431 43.143C102.152 43.165 101.885 43.176 101.628 43.176C101.071 43.176 100.543 43.0954 100.044 42.934C99.5454 42.7727 99.109 42.5234 98.735 42.186C98.361 41.8487 98.064 41.4234 97.844 40.91C97.624 40.3894 97.514 39.777 97.514 39.073C97.514 38.479 97.613 37.94 97.811 37.456C98.009 36.9647 98.2804 36.5467 98.625 36.202C98.977 35.8574 99.384 35.5934 99.846 35.41C100.315 35.2194 100.818 35.124 101.353 35.124C101.793 35.124 102.171 35.146 102.486 35.19C102.801 35.2267 103.076 35.2744 103.311 35.333C103.436 35.3697 103.571 35.41 103.718 35.454C103.865 35.4907 103.975 35.509 104.048 35.509C104.092 35.509 104.121 35.5017 104.136 35.487C104.151 35.465 104.176 35.454 104.213 35.454C104.235 35.454 104.246 35.4724 104.246 35.509C104.253 35.5384 104.257 35.5604 104.257 35.575C104.257 35.6557 104.25 35.7437 104.235 35.839C104.22 35.9344 104.213 36.0187 104.213 36.092C104.213 36.1874 104.217 36.2974 104.224 36.422C104.239 36.5394 104.246 36.6567 104.246 36.774C104.246 36.8327 104.239 36.895 104.224 36.961C104.217 37.027 104.195 37.06 104.158 37.06C104.121 37.06 104.092 37.049 104.07 37.027C104.055 36.9977 104.044 36.961 104.037 36.917C104.03 36.873 104.019 36.8254 104.004 36.774C103.997 36.7154 103.978 36.6567 103.949 36.598C103.795 36.29 103.498 36.0334 103.058 35.828C102.625 35.6227 102.053 35.52 101.342 35.52C100.88 35.52 100.477 35.6044 100.132 35.773C99.7947 35.9417 99.5124 36.1727 99.285 36.466C99.0577 36.7594 98.889 37.104 98.779 37.5C98.669 37.8887 98.614 38.303 98.614 38.743C98.614 39.3517 98.6947 39.9054 98.856 40.404C99.0174 40.9027 99.2447 41.3317 99.538 41.691C99.8314 42.043 100.183 42.318 100.594 42.516C101.012 42.714 101.474 42.813 101.98 42.813C102.266 42.813 102.552 42.769 102.838 42.681C103.124 42.5857 103.384 42.4574 103.619 42.296C103.729 42.2227 103.813 42.1347 103.872 42.032C103.938 41.922 103.989 41.8194 104.026 41.724C104.07 41.6287 104.103 41.548 104.125 41.482C104.154 41.416 104.18 41.383 104.202 41.383C104.246 41.383 104.272 41.4124 104.279 41.471C104.286 41.5297 104.29 41.57 104.29 41.592C104.29 41.6287 104.279 41.6874 104.257 41.768C104.242 41.8487 104.228 41.9257 104.213 41.999Z" fill="#949494"/>
<path d="M123.515 42.978C123.515 43.0147 123.493 43.033 123.449 43.033C123.412 43.0404 123.379 43.044 123.35 43.044C123.181 43.044 122.979 43.0367 122.745 43.022C122.517 43.0074 122.319 43 122.151 43C121.953 43 121.755 43.0074 121.557 43.022C121.366 43.0367 121.175 43.044 120.985 43.044C120.963 43.044 120.922 43.0404 120.864 43.033C120.812 43.033 120.787 43.0184 120.787 42.989C120.787 42.9377 120.82 42.9084 120.886 42.901C120.952 42.8864 121.025 42.8717 121.106 42.857C121.194 42.835 121.271 42.802 121.337 42.758C121.403 42.7067 121.436 42.6224 121.436 42.505C121.436 42.3584 121.414 42.2007 121.37 42.032C121.326 41.8634 121.267 41.6837 121.194 41.493L120.787 40.437C120.757 40.3564 120.728 40.305 120.699 40.283C120.677 40.261 120.614 40.25 120.512 40.25H118.18C118.07 40.25 118.004 40.2574 117.982 40.272C117.96 40.2867 117.934 40.3307 117.905 40.404L117.388 41.757C117.351 41.8524 117.314 41.9624 117.278 42.087C117.241 42.2117 117.223 42.3364 117.223 42.461C117.223 42.5417 117.234 42.6114 117.256 42.67C117.285 42.7214 117.329 42.758 117.388 42.78C117.49 42.8167 117.593 42.846 117.696 42.868C117.806 42.8827 117.861 42.9084 117.861 42.945C117.861 42.989 117.842 43.0147 117.806 43.022C117.776 43.0294 117.743 43.033 117.707 43.033C117.604 43.033 117.483 43.0257 117.344 43.011C117.212 43.0037 117.017 43 116.761 43C116.614 43 116.467 43.0037 116.321 43.011C116.181 43.0257 116.046 43.033 115.914 43.033C115.884 43.033 115.848 43.0294 115.804 43.022C115.752 43.0147 115.727 42.989 115.727 42.945C115.727 42.901 115.767 42.8754 115.848 42.868C115.928 42.8534 115.994 42.835 116.046 42.813C116.251 42.7177 116.405 42.5747 116.508 42.384C116.61 42.1934 116.724 41.944 116.849 41.636L119.115 36.015C119.21 35.7877 119.283 35.6044 119.335 35.465C119.393 35.3184 119.441 35.2047 119.478 35.124C119.514 35.0434 119.54 34.992 119.555 34.97C119.577 34.9407 119.599 34.926 119.621 34.926C119.672 34.926 119.727 35.0067 119.786 35.168L122.47 42.021C122.506 42.1237 122.561 42.2447 122.635 42.384C122.708 42.5234 122.774 42.6224 122.833 42.681C122.877 42.725 122.935 42.7617 123.009 42.791C123.089 42.813 123.166 42.835 123.24 42.857C123.313 42.879 123.375 42.901 123.427 42.923C123.485 42.9377 123.515 42.956 123.515 42.978ZM120.501 39.733C120.501 39.7037 120.453 39.5644 120.358 39.315L119.522 37.137C119.47 37.005 119.43 36.9207 119.401 36.884C119.379 36.8474 119.36 36.829 119.346 36.829C119.324 36.829 119.298 36.851 119.269 36.895C119.247 36.939 119.214 37.0197 119.17 37.137L118.268 39.458C118.209 39.612 118.18 39.7037 118.18 39.733C118.18 39.7697 118.227 39.788 118.323 39.788H120.281C120.427 39.788 120.501 39.7697 120.501 39.733Z" fill="#949494"/>
<path d="M134.407 42.978C134.407 42.956 134.429 42.9414 134.473 42.934C134.51 42.9267 134.543 42.9194 134.572 42.912C134.69 42.9047 134.796 42.8644 134.891 42.791C134.994 42.7177 135.086 42.6297 135.166 42.527C135.247 42.4244 135.317 42.3107 135.375 42.186C135.441 42.0614 135.496 41.9367 135.54 41.812L138.18 35.069C138.217 34.981 138.261 34.937 138.312 34.937C138.356 34.937 138.397 34.981 138.433 35.069L141.073 41.922C141.176 42.2007 141.286 42.417 141.403 42.571C141.528 42.725 141.719 42.824 141.975 42.868C142.005 42.8754 142.045 42.8864 142.096 42.901C142.148 42.9157 142.173 42.9414 142.173 42.978C142.173 43.0147 142.148 43.033 142.096 43.033C142.045 43.0404 142.005 43.044 141.975 43.044C141.792 43.044 141.609 43.0367 141.425 43.022C141.242 43.0074 141.073 43 140.919 43C140.773 43 140.644 43 140.534 43C140.432 43.0074 140.34 43.0147 140.259 43.022C140.179 43.0294 140.105 43.033 140.039 43.033C139.973 43.0404 139.907 43.044 139.841 43.044C139.819 43.044 139.79 43.0404 139.753 43.033C139.717 43.033 139.698 43.0184 139.698 42.989C139.698 42.9597 139.72 42.9377 139.764 42.923C139.816 42.9084 139.871 42.89 139.929 42.868C139.988 42.846 140.039 42.8167 140.083 42.78C140.135 42.736 140.16 42.6737 140.16 42.593C140.16 42.5417 140.149 42.4757 140.127 42.395C140.105 42.307 140.076 42.2117 140.039 42.109C140.01 42.0064 139.973 41.9 139.929 41.79C139.893 41.6727 139.852 41.559 139.808 41.449L138.224 37.269C138.151 37.0637 138.096 36.961 138.059 36.961C138.008 36.961 137.942 37.071 137.861 37.291L136.101 41.977C136.065 42.0797 136.032 42.1824 136.002 42.285C135.98 42.3804 135.969 42.472 135.969 42.56C135.969 42.648 135.999 42.714 136.057 42.758C136.116 42.7947 136.182 42.824 136.255 42.846C136.329 42.868 136.395 42.8864 136.453 42.901C136.512 42.9157 136.541 42.934 136.541 42.956C136.541 43.0074 136.497 43.033 136.409 43.033C136.255 43.033 136.079 43.0257 135.881 43.011C135.683 43.0037 135.522 43 135.397 43C135.265 43 135.133 43.0074 135.001 43.022C134.877 43.044 134.752 43.055 134.627 43.055C134.598 43.055 134.554 43.0514 134.495 43.044C134.437 43.0367 134.407 43.0147 134.407 42.978Z" fill="#949494"/>
<path d="M158.997 35.333C158.997 35.3917 158.983 35.4797 158.953 35.597C158.924 35.707 158.902 35.806 158.887 35.894L158.865 36.114C158.858 36.18 158.851 36.2387 158.843 36.29C158.836 36.3414 158.818 36.367 158.788 36.367C158.744 36.367 158.722 36.3304 158.722 36.257C158.722 36.1837 158.708 36.1287 158.678 36.092C158.62 36.0187 158.524 35.96 158.392 35.916C158.26 35.8647 158.099 35.839 157.908 35.839H156.445C156.365 35.839 156.313 35.8867 156.291 35.982C156.277 36.07 156.269 36.2314 156.269 36.466V40.679C156.269 41.1557 156.273 41.537 156.28 41.823C156.288 42.1017 156.317 42.318 156.368 42.472C156.42 42.626 156.497 42.7324 156.599 42.791C156.709 42.8424 156.86 42.8717 157.05 42.879C157.087 42.879 157.124 42.8864 157.16 42.901C157.197 42.9084 157.215 42.9304 157.215 42.967C157.215 43.0037 157.186 43.0257 157.127 43.033C157.076 43.0404 157.021 43.044 156.962 43.044C156.86 43.044 156.772 43.0404 156.698 43.033C156.632 43.033 156.559 43.0294 156.478 43.022C156.405 43.0147 156.321 43.0074 156.225 43C156.13 43 156.005 43 155.851 43C155.763 43 155.653 43 155.521 43C155.389 43.0074 155.257 43.0147 155.125 43.022C154.993 43.0294 154.869 43.033 154.751 43.033C154.634 43.0404 154.546 43.044 154.487 43.044C154.465 43.044 154.44 43.0404 154.41 43.033C154.381 43.0257 154.366 43.0074 154.366 42.978C154.366 42.934 154.403 42.9047 154.476 42.89C154.55 42.8754 154.63 42.8607 154.718 42.846C154.814 42.824 154.905 42.7947 154.993 42.758C155.081 42.7214 155.14 42.6627 155.169 42.582C155.191 42.5307 155.206 42.4684 155.213 42.395C155.228 42.3217 155.239 42.2227 155.246 42.098C155.261 41.9734 155.268 41.8157 155.268 41.625C155.276 41.4344 155.279 41.196 155.279 40.91V36.334C155.279 36.1214 155.268 35.9857 155.246 35.927C155.232 35.8684 155.173 35.839 155.07 35.839H153.178C153.046 35.839 152.947 35.8647 152.881 35.916C152.815 35.9674 152.764 36.026 152.727 36.092C152.698 36.1507 152.676 36.2057 152.661 36.257C152.647 36.3084 152.625 36.334 152.595 36.334C152.559 36.334 152.537 36.3194 152.529 36.29C152.522 36.2534 152.518 36.213 152.518 36.169C152.518 36.147 152.526 36.1067 152.54 36.048C152.555 35.9894 152.57 35.927 152.584 35.861C152.606 35.7877 152.625 35.7144 152.639 35.641C152.661 35.5677 152.68 35.5054 152.694 35.454C152.709 35.388 152.72 35.322 152.727 35.256C152.735 35.1827 152.764 35.146 152.815 35.146C152.867 35.146 152.914 35.157 152.958 35.179C153.01 35.201 153.068 35.2194 153.134 35.234C153.259 35.2487 153.402 35.2634 153.563 35.278C153.732 35.2927 153.897 35.3 154.058 35.3H157.699C157.809 35.3 157.923 35.3 158.04 35.3C158.165 35.2927 158.282 35.2854 158.392 35.278C158.502 35.2707 158.601 35.267 158.689 35.267C158.777 35.2597 158.847 35.256 158.898 35.256C158.964 35.256 158.997 35.2817 158.997 35.333Z" fill="#949494"/>
<path d="M170.832 35.311C170.832 35.2817 170.851 35.2634 170.887 35.256C170.924 35.2487 170.968 35.245 171.019 35.245C171.137 35.245 171.276 35.256 171.437 35.278C171.599 35.2927 171.815 35.3 172.086 35.3C172.262 35.3 172.424 35.289 172.57 35.267C172.724 35.245 172.893 35.234 173.076 35.234C173.106 35.234 173.142 35.2377 173.186 35.245C173.238 35.2524 173.263 35.2744 173.263 35.311C173.263 35.3477 173.227 35.3734 173.153 35.388C173.08 35.3954 172.992 35.4247 172.889 35.476C172.743 35.542 172.647 35.6447 172.603 35.784C172.567 35.916 172.548 36.1214 172.548 36.4V40.921C172.548 41.0457 172.548 41.1374 172.548 41.196C172.556 41.2547 172.578 41.284 172.614 41.284C172.636 41.284 172.666 41.2694 172.702 41.24C172.739 41.2034 172.776 41.1667 172.812 41.13L177.388 35.498C177.586 35.256 177.74 35.135 177.85 35.135C177.909 35.135 177.942 35.179 177.949 35.267C177.964 35.3477 177.971 35.465 177.971 35.619V35.762C177.971 35.872 177.971 35.993 177.971 36.125C177.971 36.2497 177.968 36.3707 177.96 36.488C177.96 36.6054 177.96 36.7154 177.96 36.818C177.96 36.9207 177.96 36.9977 177.96 37.049V40.074C177.96 40.4774 177.96 40.822 177.96 41.108C177.968 41.394 177.975 41.6397 177.982 41.845C177.997 42.043 178.019 42.208 178.048 42.34C178.078 42.4647 178.118 42.5747 178.169 42.67C178.199 42.7287 178.254 42.7727 178.334 42.802C178.415 42.824 178.496 42.8424 178.576 42.857C178.664 42.8717 178.738 42.8864 178.796 42.901C178.862 42.9084 178.895 42.9267 178.895 42.956C178.895 42.9927 178.87 43.0147 178.818 43.022C178.767 43.0367 178.701 43.044 178.62 43.044C178.562 43.044 178.481 43.0404 178.378 43.033C178.283 43.033 178.18 43.0294 178.07 43.022C177.968 43.0147 177.865 43.0074 177.762 43C177.667 43 177.586 43 177.52 43C177.242 43 177.022 43.0074 176.86 43.022C176.699 43.0367 176.545 43.044 176.398 43.044C176.362 43.044 176.321 43.0404 176.277 43.033C176.233 43.0257 176.211 43.0037 176.211 42.967C176.211 42.9377 176.244 42.9194 176.31 42.912C176.384 42.9047 176.439 42.8937 176.475 42.879C176.585 42.8497 176.673 42.791 176.739 42.703C176.813 42.615 176.864 42.5087 176.893 42.384C176.93 42.2594 176.952 42.1237 176.959 41.977C176.974 41.823 176.981 41.669 176.981 41.515V37.291C176.981 37.2324 176.978 37.1737 176.97 37.115C176.97 37.049 176.956 37.016 176.926 37.016C176.86 37.016 176.798 37.0564 176.739 37.137C176.688 37.2177 176.622 37.3057 176.541 37.401L172.262 42.648C172.218 42.7067 172.167 42.769 172.108 42.835C172.05 42.901 171.991 42.9597 171.932 43.011C171.881 43.0697 171.83 43.1174 171.778 43.154C171.734 43.198 171.701 43.22 171.679 43.22C171.628 43.22 171.595 43.1797 171.58 43.099C171.573 43.0257 171.569 42.9047 171.569 42.736V36.411C171.569 36.3744 171.569 36.3194 171.569 36.246C171.569 36.1654 171.566 36.0847 171.558 36.004C171.551 35.916 171.536 35.8354 171.514 35.762C171.5 35.6814 171.478 35.6264 171.448 35.597C171.382 35.531 171.313 35.487 171.239 35.465C171.166 35.4357 171.096 35.4174 171.03 35.41C170.972 35.4027 170.924 35.3954 170.887 35.388C170.851 35.3807 170.832 35.355 170.832 35.311Z" fill="#949494"/>
<path d="M198.475 41.405C198.475 41.8157 198.493 42.1237 198.53 42.329C198.566 42.5344 198.662 42.6884 198.816 42.791C198.852 42.813 198.904 42.8314 198.97 42.846C199.036 42.8534 199.102 42.8607 199.168 42.868C199.234 42.8754 199.292 42.8864 199.344 42.901C199.395 42.9157 199.421 42.9377 199.421 42.967C199.421 42.9964 199.406 43.0147 199.377 43.022C199.347 43.0367 199.318 43.044 199.289 43.044C199.237 43.044 199.16 43.0404 199.058 43.033C198.955 43.033 198.838 43.0294 198.706 43.022C198.581 43.0147 198.453 43.0074 198.321 43C198.196 43 198.079 43 197.969 43C197.69 43 197.43 43.0074 197.188 43.022C196.953 43.0367 196.784 43.044 196.682 43.044C196.652 43.044 196.623 43.0367 196.594 43.022C196.564 43.0147 196.55 42.9964 196.55 42.967C196.55 42.9377 196.575 42.9157 196.627 42.901C196.678 42.8864 196.737 42.8754 196.803 42.868C196.869 42.8607 196.935 42.8534 197.001 42.846C197.067 42.8314 197.118 42.813 197.155 42.791C197.309 42.6884 197.4 42.5344 197.43 42.329C197.466 42.1237 197.485 41.8157 197.485 41.405V39.436C197.485 39.3554 197.47 39.3077 197.441 39.293C197.411 39.271 197.356 39.26 197.276 39.26H193.14C193.059 39.26 193.004 39.271 192.975 39.293C192.953 39.3077 192.942 39.3554 192.942 39.436V41.405C192.942 41.8157 192.956 42.1237 192.986 42.329C193.022 42.5344 193.118 42.6884 193.272 42.791C193.308 42.813 193.36 42.8314 193.426 42.846C193.492 42.8534 193.558 42.8607 193.624 42.868C193.69 42.8754 193.748 42.8864 193.8 42.901C193.851 42.9157 193.877 42.9377 193.877 42.967C193.877 42.9964 193.862 43.0147 193.833 43.022C193.803 43.0367 193.774 43.044 193.745 43.044C193.693 43.044 193.616 43.0404 193.514 43.033C193.411 43.033 193.294 43.0294 193.162 43.022C193.037 43.0147 192.909 43.0074 192.777 43C192.652 43 192.535 43 192.425 43C192.146 43 191.886 43.0074 191.644 43.022C191.409 43.0367 191.24 43.044 191.138 43.044C191.108 43.044 191.079 43.0367 191.05 43.022C191.02 43.0147 191.006 42.9964 191.006 42.967C191.006 42.9377 191.031 42.9157 191.083 42.901C191.134 42.8864 191.193 42.8754 191.259 42.868C191.325 42.8607 191.391 42.8534 191.457 42.846C191.523 42.8314 191.574 42.813 191.611 42.791C191.765 42.6884 191.86 42.5344 191.897 42.329C191.933 42.1237 191.952 41.8157 191.952 41.405V36.301C191.952 36.125 191.933 35.9674 191.897 35.828C191.867 35.6814 191.798 35.5787 191.688 35.52C191.644 35.498 191.589 35.4797 191.523 35.465C191.457 35.4504 191.394 35.4394 191.336 35.432C191.284 35.4174 191.237 35.4027 191.193 35.388C191.156 35.3734 191.138 35.355 191.138 35.333C191.138 35.3037 191.16 35.2817 191.204 35.267C191.248 35.2524 191.295 35.245 191.347 35.245C191.391 35.245 191.457 35.2487 191.545 35.256C191.64 35.2634 191.739 35.2707 191.842 35.278C191.944 35.278 192.047 35.2817 192.15 35.289C192.26 35.2964 192.348 35.3 192.414 35.3C192.487 35.3 192.575 35.2964 192.678 35.289C192.78 35.2817 192.883 35.2744 192.986 35.267C193.088 35.2524 193.187 35.2414 193.283 35.234C193.378 35.2267 193.455 35.223 193.514 35.223C193.58 35.223 193.635 35.2304 193.679 35.245C193.73 35.2597 193.756 35.2854 193.756 35.322C193.756 35.344 193.734 35.3624 193.69 35.377C193.646 35.3917 193.591 35.4064 193.525 35.421C193.466 35.4284 193.404 35.4394 193.338 35.454C193.279 35.4687 193.231 35.487 193.195 35.509C193.07 35.5897 192.997 35.696 192.975 35.828C192.953 35.96 192.942 36.1324 192.942 36.345V38.545C192.942 38.6257 192.949 38.677 192.964 38.699C192.986 38.721 193.041 38.732 193.129 38.732H197.287C197.382 38.732 197.437 38.7247 197.452 38.71C197.474 38.688 197.485 38.633 197.485 38.545V36.312C197.485 36.136 197.474 35.9747 197.452 35.828C197.437 35.6814 197.378 35.5787 197.276 35.52C197.232 35.4907 197.173 35.4687 197.1 35.454C197.034 35.4394 196.968 35.4284 196.902 35.421C196.843 35.4064 196.792 35.3954 196.748 35.388C196.704 35.3734 196.682 35.355 196.682 35.333C196.682 35.3037 196.704 35.2817 196.748 35.267C196.792 35.2524 196.839 35.245 196.891 35.245C196.935 35.245 197.001 35.2487 197.089 35.256C197.184 35.2634 197.283 35.2707 197.386 35.278C197.488 35.278 197.591 35.2817 197.694 35.289C197.804 35.2964 197.892 35.3 197.958 35.3C198.031 35.3 198.119 35.2964 198.222 35.289C198.324 35.2817 198.427 35.2744 198.53 35.267C198.632 35.2524 198.731 35.2414 198.827 35.234C198.922 35.2267 198.999 35.223 199.058 35.223C199.124 35.223 199.179 35.2304 199.223 35.245C199.274 35.2597 199.3 35.2854 199.3 35.322C199.3 35.344 199.274 35.3624 199.223 35.377C199.179 35.3917 199.124 35.4064 199.058 35.421C198.999 35.4284 198.937 35.4394 198.871 35.454C198.805 35.4687 198.753 35.487 198.717 35.509C198.599 35.5897 198.53 35.696 198.508 35.828C198.486 35.96 198.475 36.1324 198.475 36.345V41.405Z" fill="#949494"/>
<path d="M213.875 35.718C213.706 35.718 213.607 35.7694 213.578 35.872C213.556 35.9747 213.545 36.158 213.545 36.422V41.416C213.545 41.6507 213.549 41.845 213.556 41.999C213.563 42.1457 213.578 42.2704 213.6 42.373C213.622 42.4757 213.655 42.56 213.699 42.626C213.743 42.6847 213.805 42.7397 213.886 42.791C213.915 42.813 213.963 42.8314 214.029 42.846C214.102 42.8534 214.172 42.8644 214.238 42.879C214.304 42.8864 214.363 42.8974 214.414 42.912C214.465 42.9194 214.491 42.9377 214.491 42.967C214.491 42.9964 214.476 43.0147 214.447 43.022C214.418 43.0367 214.388 43.044 214.359 43.044C214.286 43.044 214.194 43.0404 214.084 43.033C213.974 43.033 213.857 43.0294 213.732 43.022C213.615 43.0147 213.494 43.0074 213.369 43C213.252 43 213.145 43 213.05 43C212.771 43 212.518 43.0074 212.291 43.022C212.064 43.0367 211.891 43.044 211.774 43.044C211.664 43.044 211.609 43.0147 211.609 42.956C211.609 42.9414 211.627 42.9267 211.664 42.912C211.701 42.89 211.737 42.879 211.774 42.879C211.913 42.8717 212.034 42.846 212.137 42.802C212.24 42.758 212.32 42.692 212.379 42.604C212.438 42.5087 212.482 42.384 212.511 42.23C212.54 42.076 212.555 41.8817 212.555 41.647V37.17C212.555 36.73 212.548 36.389 212.533 36.147C212.526 35.8977 212.493 35.729 212.434 35.641C212.397 35.5897 212.339 35.5494 212.258 35.52C212.185 35.4834 212.108 35.4577 212.027 35.443C211.954 35.421 211.888 35.4027 211.829 35.388C211.77 35.3734 211.741 35.355 211.741 35.333C211.741 35.2964 211.759 35.2744 211.796 35.267C211.84 35.2524 211.88 35.245 211.917 35.245C211.968 35.245 212.038 35.2487 212.126 35.256C212.221 35.2634 212.32 35.2707 212.423 35.278C212.533 35.278 212.643 35.2817 212.753 35.289C212.863 35.2964 212.962 35.3 213.05 35.3C213.417 35.3 213.772 35.2964 214.117 35.289C214.462 35.2817 214.777 35.2744 215.063 35.267C215.349 35.2524 215.595 35.2414 215.8 35.234C216.013 35.2267 216.167 35.223 216.262 35.223C216.306 35.223 216.332 35.234 216.339 35.256C216.354 35.278 216.361 35.311 216.361 35.355C216.361 35.575 216.368 35.751 216.383 35.883C216.405 36.0077 216.416 36.1324 216.416 36.257C216.416 36.3817 216.387 36.444 216.328 36.444C216.291 36.444 216.269 36.411 216.262 36.345C216.262 36.279 216.251 36.2094 216.229 36.136C216.207 36.0774 216.181 36.0224 216.152 35.971C216.123 35.9197 216.068 35.8757 215.987 35.839C215.906 35.8024 215.782 35.773 215.613 35.751C215.452 35.729 215.224 35.718 214.931 35.718H213.875Z" fill="#949494"/>
</svg>
