<svg width="186" height="76" viewBox="0 0 186 76" fill="none" xmlns="http://www.w3.org/2000/svg">
<g opacity="0.4" clip-path="url(#clip0)">
<path d="M31.0023 21.0708H25.8345V31.6087H31.0023V21.0708Z" fill="black"/>
<path d="M31.0023 10.5379H25.8345V15.8068H31.0023V10.5379Z" fill="black"/>
<path d="M10.3357 10.5379H25.8345V5.26893H5.16787V0H0V5.26893H5.16787V36.8776H25.8345V31.6087H10.3357V21.0708H25.8345V15.8019H10.3357V10.5379Z" fill="black"/>
<path d="M87.8394 5.26893H72.3358V10.5379H87.8394V5.26893Z" fill="black"/>
<path d="M72.3355 10.5379H67.1676V31.6087H72.3355V10.5379Z" fill="black"/>
<path d="M87.8394 31.6087H72.3358V36.8776H87.8394V31.6087Z" fill="black"/>
<path d="M93.002 10.5379H87.8341V31.6087H93.002V10.5379Z" fill="black"/>
<path d="M118.837 5.26893H113.669V10.5379H108.502V15.8019H103.334V5.26893H98.1658V36.8776H103.334V21.0708H113.669V26.3397H118.837V21.0708H113.669V15.8019H118.837V10.5379H124V5.26893H118.837Z" fill="black"/>
<path d="M124.005 26.3397H118.837V36.8776H124.005V26.3397Z" fill="black"/>
<path d="M155.002 31.6087H134.336V21.0708H149.834V15.8019H134.336V10.5379H155.002V5.26893H129.168V36.8776H155.002V31.6087Z" fill="black"/>
<path d="M25.8395 70.7311H10.3359V76H25.8395V70.7311Z" fill="black"/>
<path d="M25.8395 44.3913H10.3359V49.6602H25.8395V44.3913Z" fill="black"/>
<path d="M10.3358 49.6603H5.16797V70.7311H10.3358V49.6603Z" fill="black"/>
<path d="M15.4989 60.1932H25.8346V70.731H31.0025V54.9292H15.4989V60.1932Z" fill="black"/>
<path d="M41.3333 49.6602H56.8369V44.3913H36.1654V76H41.3333V65.4621H56.8369V76H61.9999V65.4621H56.8369V60.1932H41.3333V49.6602Z" fill="black"/>
<path d="M62.0048 49.6603H56.8369V60.1981H62.0048V49.6603Z" fill="black"/>
<path d="M62.0048 10.5379H56.8369V21.0758H62.0048V10.5379Z" fill="black"/>
<path d="M41.3333 10.5379H56.8369V5.26893H36.1654V36.8776H41.3333V26.3397H56.8369V36.8776H61.9999V26.3397H56.8369V21.0708H41.3333V10.5379Z" fill="black"/>
<path d="M165.333 21.0708V10.5379H180.837V5.26893H160.166V36.8776H165.333V26.3397H180.837V36.8776H186V26.3397H180.837V21.0708H165.333Z" fill="black"/>
<path d="M186.005 10.5379H180.837V21.0758H186.005V10.5379Z" fill="black"/>
<path d="M72.3355 49.6603H67.1676V70.7311H72.3355V49.6603Z" fill="black"/>
<path d="M87.8394 70.7311H72.3358V76H87.8394V70.7311Z" fill="black"/>
<path d="M93.002 49.6603H87.8341V70.7311H93.002V49.6603Z" fill="black"/>
<path d="M87.8394 44.3913H72.3358V49.6602H87.8394V44.3913Z" fill="black"/>
<path d="M118.833 70.7311H103.334V76H118.833V70.7311Z" fill="black"/>
<path d="M103.334 44.3913H98.1658V70.731H103.334V44.3913Z" fill="black"/>
<path d="M124.005 44.3913H118.837V70.731H124.005V44.3913Z" fill="black"/>
<path d="M155.002 49.6602H149.834V60.1932H134.336V49.6602H149.834V44.3913H129.168V76H134.336V65.4621H149.834V60.2177H155.002V49.6602Z" fill="black"/>
<path d="M160.17 70.7311H155.002V76H160.17V70.7311Z" fill="black"/>
</g>
<defs>
<clipPath id="clip0">
<rect width="186" height="76" fill="white"/>
</clipPath>
</defs>
</svg>
