<svg width="109" height="122" viewBox="0 0 109 122" fill="none" xmlns="http://www.w3.org/2000/svg">
<g opacity="0.4">
<path fill-rule="evenodd" clip-rule="evenodd" d="M0 60.8532C0 27.2449 27.2449 0 60.8532 0C80.4424 0 97.8697 9.25605 109 23.6332L93.1362 35.9229L60.7457 61.0155L93.1362 86.1081L108.843 98.2758C97.7057 112.537 80.3502 121.706 60.8532 121.706C27.2449 121.706 0 94.4615 0 60.8532ZM71.0338 35.5169C74.4158 35.5169 77.1574 32.7753 77.1574 29.3933C77.1574 26.0113 74.4158 23.2697 71.0338 23.2697C67.6518 23.2697 64.9102 26.0113 64.9102 29.3933C64.9102 32.7753 67.6518 35.5169 71.0338 35.5169Z" fill="black"/>
</g>
</svg>
