<svg width="215" height="104" viewBox="0 0 215 104" fill="none" xmlns="http://www.w3.org/2000/svg">
<path d="M148.543 7.47649H153.289C153.417 7.34841 153.546 7.22034 153.546 7.09226C153.546 7.09226 153.674 5.81149 153.674 5.68341C153.674 5.55534 153.546 5.42726 153.417 5.42726C153.161 5.1711 152.776 5.1711 152.648 5.42726C152.52 5.68341 152.391 5.93957 152.263 6.19572C152.006 6.57995 151.75 6.70803 151.237 6.70803C151.237 6.70803 150.98 6.70803 150.98 6.3238V1.20072C150.98 1.20072 150.98 0.944563 151.365 0.944563C151.493 0.944563 151.622 0.688409 151.622 0.560332C151.622 0.560332 151.622 0.176101 151.109 0.176101H148.286H148.415C148.415 0.176101 148.03 0.0480244 148.03 0.432255C148.03 0.432255 148.03 0.816486 148.415 0.816486L148.671 0.944563V5.93957C148.671 5.93957 148.8 6.45187 148.286 6.45187C148.03 6.45187 147.902 6.70803 148.03 6.83611C147.902 6.96418 147.773 7.47649 148.543 7.47649Z" fill="#949494"/>
<path d="M180.355 0.944575C180.355 0.944575 180.612 0.944575 180.612 1.58496C180.612 1.58496 180.74 6.57996 180.612 6.70804C180.484 6.83612 180.355 6.96419 180.099 6.96419C179.97 6.96419 179.842 7.09227 179.842 7.22035C179.842 7.34842 180.099 7.4765 180.227 7.4765C180.612 7.4765 181.766 7.4765 184.332 7.4765C184.717 7.4765 185.23 7.34842 185.615 7.22035C186.384 6.96419 186.897 6.19573 186.769 5.29919C186.769 5.04304 186.641 4.78688 186.512 4.65881C186.256 4.1465 185.743 3.89035 185.23 3.76227L185.101 3.63419C185.358 3.50611 186.256 3.24996 186.384 2.22535C186.384 2.22535 186.769 0.432267 184.075 0.30419C182.664 0.176113 181.253 0.176113 179.97 0.432267C179.842 0.432267 179.842 0.560344 179.842 0.688421C179.97 0.560344 179.97 0.816498 180.355 0.944575ZM183.177 2.99381V1.32881L183.306 0.944575C183.306 0.944575 183.562 0.816498 183.819 1.07265C184.075 1.20073 184.204 1.45688 184.204 1.58496C184.204 1.96919 184.204 2.22535 184.204 2.60958C184.075 2.99381 183.819 3.24996 183.562 3.24996C183.434 3.37804 183.177 3.24996 183.177 2.99381ZM183.177 6.45189V4.53073L183.306 4.1465C183.306 4.1465 183.562 4.01842 183.947 4.27458C184.204 4.40265 184.332 4.65881 184.332 4.91496C184.46 5.29919 184.46 5.68342 184.332 6.06765C184.204 6.45189 183.947 6.70804 183.562 6.83612C183.434 6.83612 183.177 6.70804 183.177 6.45189C183.177 6.57996 183.177 6.57996 183.177 6.45189Z" fill="#949494"/>
<path d="M48.6164 7.47647C50.5405 7.34839 52.0798 5.68339 51.9515 3.76224C51.9515 1.71301 50.4122 0.176081 48.3598 0.0480042C46.3074 0.0480042 44.7681 1.71301 44.8964 3.76224C44.8964 3.89031 44.8964 4.01839 44.8964 4.14647C45.0247 6.06762 46.6922 7.60455 48.6164 7.47647ZM48.3598 0.944543C49.0012 0.944543 49.5143 2.22531 49.5143 3.76224C49.5143 5.29916 49.0012 6.57993 48.3598 6.57993C47.7184 6.57993 47.3336 5.29916 47.3336 3.76224C47.3336 2.22531 47.8467 0.944543 48.3598 0.944543Z" fill="#949494"/>
<path d="M28.4772 7.47649C28.862 7.47649 29.8882 7.47649 32.582 7.47649C32.9668 7.47649 33.4799 7.34842 33.8647 7.22034C34.6344 6.96419 35.1475 6.19572 35.0192 5.29918C35.0192 5.04303 34.8909 4.78688 34.7627 4.6588C34.5061 4.14649 33.993 3.89034 33.4799 3.63418L33.3516 3.50611C33.6082 3.37803 34.5061 3.12188 34.6344 2.09726C34.6344 2.09726 35.0192 0.304182 32.3254 0.176105C31.0427 0.0480284 29.7599 0.0480284 28.3489 0.176105C28.2206 0.304182 28.2206 0.432259 28.2206 0.560336C28.2206 0.560336 28.2206 0.688413 28.4772 0.81649C28.4772 0.81649 28.7337 0.81649 28.7337 1.45688C28.7337 1.45688 28.862 6.45188 28.7337 6.57995C28.6054 6.70803 28.4772 6.83611 28.2206 6.83611C28.0923 6.83611 27.9641 6.96419 27.9641 7.22034C28.0923 7.34842 28.2206 7.47649 28.4772 7.47649ZM31.2992 2.9938V1.3288L31.4275 0.944567C31.4275 0.944567 31.684 0.81649 31.9406 1.07264C32.1971 1.20072 32.3254 1.45688 32.3254 1.58495C32.3254 1.96918 32.3254 2.22534 32.3254 2.60957C32.1971 2.9938 31.9406 3.24995 31.684 3.24995C31.4275 3.37803 31.2992 3.24995 31.2992 2.9938ZM31.2992 4.53072L31.4275 4.14649C31.4275 4.14649 31.684 4.01841 32.0689 4.27457C32.3254 4.40265 32.4537 4.6588 32.582 4.91495C32.7102 5.29918 32.7102 5.68342 32.582 6.06765C32.4537 6.45188 32.0689 6.70803 31.684 6.83611C31.4275 6.83611 31.2992 6.83611 31.2992 6.57995V4.53072Z" fill="#949494"/>
<path d="M67.2163 60.8846C67.2163 60.8846 66.8315 60.2442 67.3446 59.86C67.6012 59.7319 67.8577 59.7319 67.986 59.86C68.3708 60.1162 68.4991 60.5004 68.6274 60.8846C68.6274 60.8846 68.6274 61.6531 69.2687 61.6531C69.2687 61.6531 69.7818 61.6531 69.7818 61.0127V59.9881C69.7818 59.9881 69.7818 59.2196 68.2425 58.8354C68.1143 58.8354 68.1143 58.8354 67.986 58.8354C67.3446 58.7073 66.7032 58.8354 66.1901 59.2196C65.9336 59.3477 65.677 59.6038 65.5488 59.9881C65.2922 60.5004 65.1639 61.0127 65.2922 61.525C65.2922 61.525 65.2922 62.2935 66.575 63.5742C67.0881 64.0865 67.6012 64.5988 68.1143 65.1112C68.1143 65.1112 68.6274 65.8796 68.2425 66.3919C68.1143 66.52 67.986 66.6481 67.7294 66.6481C67.3446 66.6481 66.8315 66.3919 66.575 66.0077C66.4467 65.7515 66.3184 65.3673 66.3184 65.1112C66.3184 65.1112 66.3184 65.1112 66.3184 64.9831C66.1901 64.855 66.0619 64.7269 65.9336 64.7269H65.8053C65.5488 64.7269 65.4205 64.855 65.2922 65.1112V66.6481C65.2922 66.9042 65.4205 67.2885 65.677 67.4165C66.1901 67.6727 66.8315 67.8008 67.4729 67.8008C68.1143 67.8008 68.7556 67.6727 69.1405 67.2885C69.5253 67.0323 69.7818 66.52 69.9101 66.0077C70.0384 65.1112 69.9101 64.3427 69.397 63.5742C68.6274 62.6777 67.8577 61.7812 67.2163 60.8846Z" fill="#949494"/>
<path d="M63.2398 65.1112C62.9832 65.1112 62.855 65.2392 62.7267 65.4954C62.7267 65.4954 62.5984 65.7515 62.4701 66.1358C62.3418 66.3919 62.0853 66.6481 61.8287 66.6481C61.8287 66.6481 61.3156 66.6481 61.3156 66.1358V63.8304C61.3156 63.8304 61.3156 63.19 61.8287 63.4462C61.8287 63.4462 62.0853 63.5742 62.2136 64.2146C62.2136 64.4708 62.3418 64.5989 62.5984 64.5989C62.5984 64.5989 62.9832 64.7269 62.9832 64.3427V62.0373C62.9832 62.0373 62.9832 61.525 62.5984 61.6531C62.5984 61.6531 62.3418 61.6531 62.2136 62.2935C62.2136 62.2935 62.2136 62.2935 62.2136 62.4215C62.0853 62.6777 61.7005 62.8058 61.4439 62.6777C61.4439 62.6777 61.3156 62.6777 61.3156 62.2935V60.2442C61.3156 60.1162 61.4439 59.9881 61.5722 59.9881C61.5722 59.9881 62.4701 59.86 62.5984 60.5004C62.5984 60.6285 62.7267 60.7565 62.8549 60.8846C62.9832 61.0127 62.9832 61.0127 63.1115 61.0127H63.3681C63.6246 61.0127 63.8812 60.7565 63.8812 60.5004V59.4758V59.3477C63.8812 59.0915 63.6246 58.8354 63.2398 58.8354H59.2632C59.0067 58.8354 58.7501 58.9635 58.6219 59.0915C58.4936 59.3477 58.6219 59.6038 58.8784 59.6038C59.135 59.6038 59.2632 59.7319 59.2632 59.9881V65.8796C59.2632 65.8796 59.2632 66.2638 59.0067 66.3919C58.8784 66.3919 58.7501 66.52 58.6219 66.6481C58.6219 66.6481 58.4936 67.2885 58.8784 67.2885H63.4963C63.4963 67.2885 63.8812 67.2885 63.8812 66.9042V65.3673C63.7529 65.2392 63.4963 65.1112 63.2398 65.1112Z" fill="#949494"/>
<path d="M75.9391 58.9634H71.8342C71.5777 58.8354 71.1929 59.0915 71.1929 59.3477C71.1929 59.86 71.1929 60.3723 71.3211 60.7565C71.3211 60.8846 71.4494 61.0127 71.5777 61.0127C71.706 61.0127 71.9625 61.0127 72.0908 60.8846L72.4756 60.2442C72.4756 60.2442 72.8604 59.7319 72.8604 60.5004V66.2638C72.8604 66.52 72.7322 66.6481 72.4756 66.6481C72.2191 66.7762 72.0908 66.9042 72.0908 67.1604C72.0908 67.1604 72.0908 67.1604 72.0908 67.2885C72.0908 67.5446 72.3473 67.6727 72.6039 67.6727H75.2977C75.2977 67.6727 75.2977 67.6727 75.426 67.6727C75.6825 67.6727 75.8108 67.4165 75.6825 67.1604C75.6825 67.1604 75.6825 66.9042 75.1694 66.6481C75.0411 66.52 74.9129 66.3919 74.9129 66.2638V60.7565C74.9129 60.7565 75.0411 59.9881 75.2977 60.3723C75.426 60.6284 75.5542 60.8846 75.6825 61.1408C75.6825 61.1408 76.3239 61.525 76.4522 60.6285V59.86C76.5804 59.7319 76.5804 58.9634 75.9391 58.9634Z" fill="#949494"/>
<path d="M186.384 41.2888L182.664 32.5796C182.664 32.5796 182.536 32.3234 182.664 31.9392C183.562 31.2988 184.332 30.6584 185.102 29.7619C187.026 27.3284 187.282 23.9984 185.871 21.1807C185.871 21.1807 184.588 17.2103 177.277 16.698L166.245 16.8261C166.117 16.8261 166.117 16.8261 165.988 16.8261C165.219 17.0823 164.834 17.9788 165.091 18.8753C165.347 19.7719 166.63 20.028 166.63 20.028C167.4 20.2842 167.271 22.5896 167.271 22.5896L167.4 42.4415C167.528 43.0819 166.502 43.5942 166.502 43.5942C165.732 43.7223 165.219 44.3627 165.219 45.1311C165.219 45.8996 165.988 46.54 166.758 46.54H175.737C177.277 46.54 177.02 45.2592 177.02 45.2592C177.02 44.6188 176.764 44.1065 176.251 43.8504C175.609 43.7223 175.224 43.0819 175.353 42.4415L175.096 34.7569C175.096 33.4761 175.866 34.7569 175.866 34.7569L180.355 45.5154C180.997 46.54 181.638 46.54 181.638 46.54L187.282 46.6681C189.848 45.8996 188.437 44.1065 188.437 44.1065C187.539 43.5942 186.384 41.2888 186.384 41.2888ZM178.688 27.2003C178.559 28.4811 177.662 29.6338 176.379 30.018H176.251C175.737 30.018 175.224 29.7619 175.224 29.2496C175.224 29.1215 175.224 28.9934 175.224 28.8653L175.353 21.693C175.353 21.693 175.353 20.2842 175.737 20.028C175.737 20.028 176.379 19.5157 177.405 20.2842C178.175 20.9246 178.688 21.8211 178.688 22.8457C178.816 24.2546 178.816 25.7915 178.688 27.2003Z" fill="#949494"/>
<path d="M190.104 32.5796C190.813 32.5796 191.387 32.0062 191.387 31.2988C191.387 30.5915 190.813 30.0181 190.104 30.0181C189.396 30.0181 188.821 30.5915 188.821 31.2988C188.821 32.0062 189.396 32.5796 190.104 32.5796Z" fill="#949494"/>
<path d="M162.397 32.5796C163.105 32.5796 163.679 32.0062 163.679 31.2988C163.679 30.5915 163.105 30.0181 162.397 30.0181C161.688 30.0181 161.114 30.5915 161.114 31.2988C161.114 32.0062 161.688 32.5796 162.397 32.5796Z" fill="#949494"/>
<path d="M30.5296 32.5796C31.238 32.5796 31.8123 32.0062 31.8123 31.2988C31.8123 30.5915 31.238 30.0181 30.5296 30.0181C29.8211 30.0181 29.2468 30.5915 29.2468 31.2988C29.2468 32.0062 29.8211 32.5796 30.5296 32.5796Z" fill="#949494"/>
<path d="M57.8522 32.5796C58.5607 32.5796 59.135 32.0062 59.135 31.2988C59.135 30.5915 58.5607 30.0181 57.8522 30.0181C57.1438 30.0181 56.5695 30.5915 56.5695 31.2988C56.5695 32.0062 57.1438 32.5796 57.8522 32.5796Z" fill="#949494"/>
<path d="M83.8922 79.1996C83.6356 80.7365 84.1487 82.2735 85.0466 83.5542C85.5597 82.5296 86.4577 81.7612 87.4839 81.2489C87.8687 79.0716 87.7404 77.1504 87.997 74.3327C88.5101 76.3819 88.8949 78.5592 88.8949 80.7366C93.128 79.0715 100.311 80.3523 102.877 84.1946C103.133 82.7858 103.775 79.9681 104.545 79.0715C103.005 78.0469 102.62 73.18 102.236 71.2588L100.183 70.7465L98.9004 76.51C98.6438 77.5346 97.7459 78.0469 96.7197 77.9189C95.6935 77.6627 95.1804 76.7662 95.3087 75.7415L96.5914 69.9781L90.6908 68.6973C89.2797 68.5692 88.6384 69.85 87.8687 70.6185C86.0728 72.5396 84.4053 74.7169 82.866 76.7662C81.3266 79.3277 80.8135 84.0666 84.277 84.9631C83.3791 83.2981 83.1225 81.1208 83.8922 79.1996Z" fill="#949494"/>
<path d="M105.186 62.4215L104.031 67.5446C104.288 67.2884 104.673 67.1604 105.058 66.9042C108.136 65.3673 108.008 66.7761 108.649 63.3181C108.778 62.5496 101.338 60.7565 99.2853 60.2442C99.2853 60.5004 99.2853 60.8846 99.2853 61.1407C98.7722 62.9338 98.3873 64.7269 98.1308 66.52C97.6177 68.4411 101.466 68.4411 102.749 68.6973C102.877 68.4411 103.134 68.313 103.262 68.185H103.134C103.518 66.1357 104.031 64.3427 104.416 62.2934C104.673 62.2934 104.929 62.2934 105.186 62.4215Z" fill="#949494"/>
<path d="M102.107 70.3623C102.107 70.1061 102.236 69.85 102.236 69.5938L102.364 69.3377L90.4342 66.6481C90.6908 67.4165 91.2039 67.9288 91.9735 68.0569L102.107 70.3623Z" fill="#949494"/>
<path d="M100.953 58.7073C96.848 57.8108 93.2563 57.8108 92.4866 58.8354L92.3583 58.9635C97.8742 59.0915 103.39 60.3723 108.393 62.5496C108.393 62.5496 108.393 62.5496 108.393 62.4215C108.264 61.0127 105.058 59.6038 100.953 58.7073Z" fill="#949494"/>
<path d="M90.5624 61.7811C90.3059 62.6777 90.1776 63.7023 90.1776 64.5988C90.1776 65.1111 90.4342 66.52 91.2038 66.1358L96.4631 67.2884L98.1307 59.9881C96.7197 59.7319 92.3583 58.8354 91.3321 59.86C90.819 60.3723 90.6907 61.1408 90.5624 61.7811Z" fill="#949494"/>
<path d="M121.605 69.85C121.477 68.6973 120.836 67.6727 119.938 66.9042C114.165 67.1604 108.521 68.4411 103.262 70.7465C103.262 70.7465 103.262 70.8746 103.262 71.0027L104.545 77.1504L121.477 73.0519C121.862 72.1554 121.862 71.0027 121.605 69.85Z" fill="#949494"/>
<path d="M110.702 66.2639C106.725 67.1604 103.647 68.6973 103.39 69.85V69.9781C108.264 67.8008 113.524 66.52 118.911 66.2639L118.783 66.1358C118.013 65.2392 114.678 65.3673 110.702 66.2639Z" fill="#949494"/>
<path d="M122.503 77.2785C122.118 76.2539 121.605 75.6135 120.579 75.8697L106.084 79.4558C104.801 79.9681 104.801 81.377 104.545 82.4016C103.903 84.835 103.39 87.2685 103.133 89.83C102.749 93.2881 104.929 97.3866 107.88 96.362C105.827 95.0812 104.416 92.9039 104.416 90.4704C104.929 92.2635 106.084 93.8004 107.495 94.8251C107.238 91.8793 107.495 88.9335 108.265 86.1158C108.649 90.4704 108.008 99.4358 113.011 101.229C110.958 101.101 109.291 99.692 108.649 97.7708L108.521 97.3866L108.778 98.4112C109.676 102.894 113.78 103.406 117.116 103.022C118.655 102.894 120.194 102.638 121.733 102.125C121.733 102.125 124.427 101.229 125.197 100.845C126.608 100.204 127.762 99.0516 128.275 97.6427C128.532 96.49 128.66 95.2093 128.532 93.9285C128.532 93.8004 128.532 93.6724 128.532 93.5443C128.275 90.9827 127.634 88.4212 126.608 86.1158C125.967 84.4508 123.401 79.5839 122.503 77.2785Z" fill="#949494"/>
<path d="M96.4632 76.1258C96.3349 76.3819 96.3349 76.6381 96.3349 77.0223C96.4632 77.2785 96.7197 77.4065 96.9763 77.5346H97.2328C98.1308 75.6135 98.7721 73.5642 99.2852 71.3869C99.2852 71.1308 99.4135 70.8746 99.4135 70.7465C98.7721 70.7465 99.0287 71.3869 98.7721 71.7711C98.1308 73.3081 97.3611 74.7169 96.4632 76.1258Z" fill="#949494"/>
<path d="M104.801 77.4065C105.186 77.6627 105.058 78.0469 105.956 78.0469C108.778 77.7908 111.471 77.4065 114.293 76.7662C116.731 76.2539 119.809 75.2292 121.092 73.4362C119.04 74.3327 116.859 74.9731 114.678 75.2292C114.165 75.3573 112.882 75.6135 112.369 75.7415C109.932 76.2538 107.238 77.2785 104.801 77.4065Z" fill="#949494"/>
<path d="M101.851 89.5739C101.979 88.5493 102.236 87.1404 102.492 85.7316C102.107 85.2193 101.722 84.7069 101.209 84.1946C98.7721 82.1454 96.8479 81.1208 93.7693 81.1208C91.5887 81.2489 89.5362 81.8893 87.7404 83.17C85.0466 84.835 84.277 88.4212 85.9445 91.1108C85.0466 90.4704 84.4052 89.5739 84.4052 88.4212C84.1487 91.7512 87.3556 95.3373 89.6645 96.3619C90.5625 96.7462 91.4604 97.0023 92.3583 97.1304C93.2562 97.2585 94.2824 97.3866 95.1804 97.3866C97.8741 97.3866 100.568 97.5146 102.877 95.0812H103.005C102.749 94.5689 102.492 94.0566 102.364 93.5443C101.851 92.1354 101.722 90.8546 101.851 89.5739Z" fill="#949494"/>
<path d="M87.997 32.5796C88.7054 32.5796 89.2797 32.0062 89.2797 31.2988C89.2797 30.5915 88.7054 30.0181 87.997 30.0181C87.2885 30.0181 86.7142 30.5915 86.7142 31.2988C86.7142 32.0062 87.2885 32.5796 87.997 32.5796Z" fill="#949494"/>
<path d="M137.896 32.5796C138.605 32.5796 139.179 32.0062 139.179 31.2988C139.179 30.5915 138.605 30.0181 137.896 30.0181C137.188 30.0181 136.613 30.5915 136.613 31.2988C136.613 32.0062 137.188 32.5796 137.896 32.5796Z" fill="#949494"/>
<path d="M78.3763 65.3673C77.9915 65.4954 77.7349 65.7515 77.6067 66.2638C77.4784 66.52 77.6067 66.9042 77.8632 67.1604C78.1198 67.4165 78.5046 67.5446 78.7611 67.5446C79.146 67.4165 79.5308 67.1604 79.6591 66.7761C79.7873 66.3919 79.6591 66.1358 79.4025 65.7515C79.146 65.3673 78.7611 65.2392 78.3763 65.3673Z" fill="#949494"/>
<path d="M101.081 57.4265L101.851 57.5546L102.236 57.6827L105.314 44.1065L103.518 57.9388L104.801 58.3231L107.495 37.7027L110.317 65.2392C110.702 65.1112 111.215 64.9831 111.6 64.9831L110.06 50.3823L112.498 64.7269L113.78 64.4708L108.393 32.1954C108.906 31.6831 109.034 30.9146 108.521 30.4023C108.264 30.1461 108.008 30.0181 107.623 29.89C106.853 29.89 106.34 30.5304 106.469 31.1708C106.469 31.555 106.597 31.8111 106.853 32.0673L101.081 57.4265Z" fill="#949494"/>
<path d="M27.964 39.7519C27.964 38.4711 27.7075 37.3184 27.1944 36.1657C26.2965 33.9884 24.6289 32.5796 21.422 30.9146C21.422 30.9146 21.422 30.9146 21.2937 30.7865C21.1655 30.6584 21.1655 30.4023 21.2937 30.2742C22.5765 29.3776 26.1682 28.353 26.4247 22.9738C26.4247 22.9738 27.8358 14.0084 17.1889 12.7276C17.1889 12.7276 2.18068 11.703 0.641377 13.1119C0.256551 13.4961 0 14.1365 0.128275 14.7769C0.128275 14.7769 0.128275 15.5453 1.79586 16.3138C1.79586 16.3138 3.07861 16.3138 3.07861 19.5157C3.07861 19.5157 3.46344 45.2592 2.95034 46.2838C2.43723 46.7961 1.79586 47.3084 1.0262 47.6927C0.384826 48.0769 0 48.7173 0 49.3577C0.128275 50.1261 0.769653 50.7665 1.53931 50.7665C3.20689 50.8946 7.43998 51.0227 18.2151 50.7665C20.011 50.7665 21.6786 50.3823 23.2179 49.4857C25.5268 48.205 28.2206 45.3873 27.964 39.7519ZM12.571 27.5846L12.6993 18.7473C12.6993 18.7473 12.6993 17.0823 13.2124 16.698C13.2124 16.698 13.982 15.9296 15.3931 17.0823C16.291 17.8507 16.6758 18.8753 16.8041 20.028C17.0606 21.8211 17.0606 23.6142 16.8041 25.4073C16.5475 26.9442 15.5213 28.353 13.982 28.8653H13.8537C13.2124 28.9934 12.6993 28.4811 12.571 27.8407C12.571 27.8407 12.571 27.7126 12.571 27.5846ZM17.4455 43.21C17.1889 45.003 16.0344 46.54 14.3669 47.1804C14.2386 47.1804 14.1103 47.1804 14.1103 47.3084C13.4689 47.4365 12.8275 46.9242 12.6993 46.1557C12.6993 46.0277 12.6993 45.8996 12.6993 45.6434V35.6534C12.6993 35.6534 12.571 33.7323 13.2124 33.348C13.2124 33.348 14.1103 32.4515 15.7779 33.7323C16.8041 34.5007 17.4455 35.7815 17.5737 37.0623C17.702 39.1115 17.702 41.1607 17.4455 43.21Z" fill="#949494"/>
<path d="M55.0301 41.2888L51.4384 32.5796C51.4384 32.5796 51.1819 32.3234 51.4384 31.9392C52.3364 31.2988 53.106 30.5303 53.8757 29.7619C55.7998 27.3284 56.0563 23.9984 54.6453 21.1807C54.6453 21.1807 53.3626 17.2103 46.0509 16.698L35.0192 16.8261H34.8909C34.1212 17.0823 33.7364 17.9788 33.993 18.8753C34.1212 19.7719 35.5323 20.028 35.5323 20.028C36.3019 20.2842 36.1737 22.5896 36.1737 22.5896L36.3019 42.4415C36.3019 43.0819 35.404 43.5942 35.404 43.5942C34.6343 43.7223 33.993 44.3627 33.993 45.1311C33.993 45.8996 34.7626 46.54 35.5323 46.54H44.5116C46.0509 46.54 45.7943 45.2592 45.7943 45.2592C45.7943 44.6188 45.5378 44.1065 45.0247 43.8504C44.3833 43.7223 43.9985 43.0819 44.1267 42.4415L43.9985 34.7569C43.9985 33.4761 44.7681 34.7569 44.7681 34.7569L49.2577 45.5154C49.8991 46.54 50.5405 46.54 50.5405 46.54L56.1846 46.6681C58.4936 45.7715 57.3391 44.1065 57.3391 44.1065C56.3129 43.5942 55.0301 41.2888 55.0301 41.2888ZM47.3336 27.2003C47.2053 28.4811 46.3074 29.6338 45.0247 30.018H44.8964C44.3833 30.018 43.8702 29.7619 43.8702 29.2496C43.8702 29.1215 43.8702 28.9934 43.8702 28.8653L43.9985 21.693C43.9985 21.693 43.9985 20.2842 44.3833 20.028C44.3833 20.028 45.0247 19.3876 46.1791 20.2842C46.9488 20.9246 47.3336 21.8211 47.3336 22.7176C47.5902 24.2546 47.5902 25.7915 47.3336 27.2003Z" fill="#949494"/>
<path d="M72.3474 46.0277C78.3763 46.0277 83.2508 39.6238 83.2508 31.8111C83.2508 23.9984 78.3763 17.5946 72.3474 17.5946C66.3184 17.5946 61.5722 23.9984 61.5722 31.8111C61.5722 39.6238 66.4467 46.0277 72.3474 46.0277ZM72.4757 20.7965C74.2715 20.7965 75.8108 25.6634 75.8108 31.8111C75.8108 37.9588 74.3998 42.8258 72.4757 42.8258C70.5515 42.8258 69.1405 37.9588 69.1405 31.8111C69.1405 25.6634 70.6798 20.7965 72.4757 20.7965Z" fill="#949494"/>
<path d="M89.6646 24.895C90.306 25.0231 90.9473 24.895 91.3322 24.3827C91.3322 24.3827 92.1018 23.1019 92.4867 22.3334C92.4867 22.3334 93.5129 20.6684 93.7694 22.9738L93.6411 41.2888C93.6411 41.9292 93.128 42.4415 92.4867 42.5696C91.8453 42.8258 91.3322 43.4661 91.3322 44.1065C91.3322 44.1065 91.0756 45.5154 92.8715 45.6435H101.338C101.466 45.6435 101.466 45.6435 101.594 45.6435C102.236 45.5154 102.749 44.875 102.62 44.1065C102.62 44.1065 102.749 43.0819 101.209 42.4415C100.696 42.1854 100.311 41.545 100.44 41.0327L100.696 23.23C100.696 23.23 100.825 20.7965 101.979 22.0773C102.236 22.9738 102.749 23.8704 103.262 24.6388C103.262 24.6388 105.314 26.0477 105.699 23.23V20.7965C105.699 20.7965 105.827 18.3631 103.518 18.235H90.4342C90.4342 18.235 88.6384 17.9788 88.3818 19.6438C88.2536 21.1807 88.3818 22.7177 88.7667 24.2546C88.8949 24.5107 89.1515 24.895 89.6646 24.895Z" fill="#949494"/>
<path d="M134.048 44.7469C134.304 43.21 132.637 42.9538 132.637 42.9538C132.252 42.6977 131.995 42.3134 131.995 41.9292V23.1019C131.867 21.8211 132.637 21.4369 132.637 21.4369C133.92 21.0527 134.048 20.6684 134.048 19.9C134.048 19.6438 134.048 19.5157 134.048 19.5157C134.048 18.363 132.124 18.363 132.124 18.363H125.453C124.684 18.235 123.914 18.4911 123.529 19.1315C123.401 19.3877 123.401 19.5157 123.401 19.7719C123.401 21.0527 124.171 21.3088 124.171 21.3088C124.94 21.565 125.453 22.3334 125.325 23.23V28.9934C125.453 30.018 125.197 30.2742 124.94 30.4023H120.835C120.707 30.2742 120.322 30.018 120.451 28.9934V23.1019C120.322 22.3334 120.835 21.4369 121.605 21.1807C121.605 21.1807 122.375 20.9246 122.375 19.6438C122.375 19.3877 122.375 19.1315 122.246 19.0034C121.862 18.363 121.092 18.1069 120.322 18.235H113.652C113.652 18.235 111.728 18.235 111.728 19.3877V19.7719C111.728 20.5403 111.856 21.0527 113.139 21.3088C113.139 21.3088 113.909 21.693 113.78 22.9738V41.8011C113.78 42.1854 113.652 42.6977 113.267 42.8257C113.267 42.8257 111.728 43.0819 111.856 44.6188C111.984 45.1311 112.369 45.3873 112.882 45.5154C112.882 45.5154 121.477 45.7715 122.118 45.1311C122.246 45.0031 122.246 44.875 122.246 44.875C122.503 44.1065 122.246 43.3381 121.477 43.0819C120.964 43.0819 120.579 42.6977 120.451 42.1854V34.6288C120.322 33.9884 120.707 33.348 121.349 33.22H122.375H123.786H124.812C125.453 33.348 125.838 33.9884 125.71 34.6288V42.0573C125.582 42.5696 125.197 42.9538 124.684 42.9538C123.914 43.21 123.529 43.9784 123.786 44.7469C123.786 44.875 123.914 45.0031 124.042 45.1311C124.555 45.7715 133.278 45.5154 133.278 45.5154C133.406 45.5154 133.92 45.2592 134.048 44.7469Z" fill="#949494"/>
<path d="M157.266 17.4665H143.669C142.899 17.3384 142.001 17.5946 141.488 18.363C141.103 19.1315 141.36 20.028 142.129 20.4122C142.771 20.4122 143.284 21.0526 143.284 21.693L143.155 41.545C143.155 41.545 143.284 42.6976 142.386 43.0819C141.873 43.2099 141.488 43.4661 141.231 43.9784C141.231 43.9784 140.718 45.8996 142.257 46.1557H157.779C157.779 46.1557 159.19 46.1557 159.19 44.8749V39.7519V39.6238C159.062 38.8553 158.292 38.343 157.522 38.4711C156.753 38.4711 155.983 38.9834 155.726 39.7519L154.957 41.8011C154.572 42.6976 153.674 43.4661 152.648 43.5942C152.648 43.5942 150.852 43.5942 150.724 42.0573V34.1165C150.724 34.1165 150.595 32.0673 152.52 32.8357C152.52 32.8357 153.546 33.348 153.931 35.3973C153.931 35.3973 154.187 36.678 155.213 36.8061C155.213 36.8061 156.624 37.0623 156.624 35.7815V27.9688C156.624 27.9688 156.753 26.3038 155.213 26.5599C155.213 26.5599 154.444 26.5599 153.674 28.7373V28.8653C153.289 29.8899 152.135 30.2742 151.108 29.8899C151.108 29.8899 150.724 29.7619 150.724 28.6092L150.852 22.0772C150.852 21.9492 150.852 21.9492 150.852 21.8211C150.852 21.4369 151.237 21.0526 151.622 21.0526C151.622 21.0526 154.572 20.6684 155.213 22.9738C155.342 23.4861 155.598 23.8703 155.983 24.2546C156.24 24.5107 156.496 24.6388 156.881 24.6388C157.137 24.6388 157.394 24.6388 157.522 24.6388C158.548 24.6388 159.318 23.8703 159.19 22.8457V19.6438C159.19 19.5157 159.19 19.2596 159.19 19.1315C159.062 17.9788 158.164 17.3384 157.266 17.4665Z" fill="#949494"/>
<path d="M212.168 32.3234C212.168 32.3234 202.547 23.23 201.906 21.0527C201.906 21.0527 200.238 18.235 202.29 16.698C203.317 16.3138 204.471 16.3138 205.369 16.9542C206.908 18.1069 207.934 19.7719 208.319 21.693C208.319 21.693 208.319 24.895 210.885 24.895C210.885 24.895 213.45 25.1511 213.45 21.9492V17.7227C213.45 17.7227 213.45 14.1365 206.652 12.8557C206.139 12.7277 205.754 12.5996 205.369 12.5996C202.675 12.2153 199.981 12.7277 197.672 14.1365C196.39 14.7769 195.363 15.8015 194.722 16.9542C194.722 16.9542 193.055 18.8753 193.568 23.6142C193.568 23.6142 193.311 27.2004 199.212 32.8357L199.468 33.0919C201.906 35.2692 204.086 37.5746 206.01 40.1361C206.01 40.1361 208.448 43.4661 206.523 46.0277C206.01 46.6681 205.112 47.1804 204.343 47.0523C202.419 47.1804 200.623 46.1558 199.597 44.4908C198.827 43.21 198.442 41.8011 198.442 40.2642C198.442 40.2642 198.442 40.2642 198.314 39.6238C197.929 38.9834 197.288 38.4711 196.518 38.4711C196.518 38.4711 194.209 37.8307 193.952 40.0081V46.1558C193.696 47.5646 194.466 48.8454 195.748 49.4858C195.748 49.4858 197.929 50.8946 203.958 51.0227C206.652 51.1508 209.345 50.2542 211.654 48.5892C213.45 47.1804 214.605 45.2592 214.99 43.0819C214.733 42.9538 216.016 36.4219 212.168 32.3234Z" fill="#949494"/>
<path d="M61.9571 7.34839H63.6246C63.7529 7.34839 63.8812 7.34839 64.0095 7.22032C64.1377 7.09224 64.266 6.96416 64.1377 6.83609C64.1377 6.83609 64.1377 6.70801 63.7529 6.57993C63.7529 6.57993 63.3681 6.57993 63.4964 6.32378L64.266 5.17108C64.266 5.17108 64.3943 5.04301 64.5226 5.17108L65.0357 6.1957C65.0357 6.1957 65.1639 6.57993 65.0357 6.57993C64.9074 6.57993 64.9074 6.70801 64.7791 6.70801C64.7791 6.70801 64.6508 6.70801 64.6508 7.09224C64.6508 7.22032 64.7791 7.47647 65.0357 7.47647H67.986C67.986 7.47647 68.2426 7.47647 68.2426 7.22032C68.2426 7.09224 68.2426 6.83609 67.986 6.83609C67.8577 6.83609 67.7295 6.70801 67.6012 6.57993L65.8053 3.50608C65.8053 3.37801 65.8053 3.24993 65.8053 3.12185L66.7033 1.71301C66.7033 1.71301 67.0881 0.944543 67.4729 0.944543C67.4729 0.944543 67.8577 0.944543 67.8577 0.688389C67.8577 0.432235 67.7295 0.304158 67.4729 0.176081H65.8053C65.8053 0.176081 65.4205 0.176081 65.2922 0.432235C65.2922 0.432235 65.1639 0.816466 65.5488 0.944543L65.8053 1.07262C65.8053 1.07262 65.9336 1.07262 65.8053 1.32877L65.4205 2.09724L64.9074 1.2007C64.9074 1.2007 64.6508 0.816466 64.9074 0.816466C65.0357 0.816466 65.1639 0.688389 65.1639 0.560312C65.1639 0.560312 65.1639 0.560312 65.1639 0.432235C65.1639 0.176081 65.0357 0.0480042 64.7791 0.0480042H62.0853C61.8288 0.176081 61.7005 0.304158 61.8288 0.560312C61.8288 0.688389 61.9571 0.944543 62.0853 0.944543C62.2136 1.07262 62.3419 1.2007 62.4702 1.32877L64.0095 3.89031C64.0095 3.89031 64.1377 4.14647 64.0095 4.14647L62.5984 6.06762C62.4702 6.1957 62.3419 6.32378 62.2136 6.45185C62.0853 6.57993 61.9571 6.57993 61.8288 6.57993C61.8288 6.57993 61.5722 6.70801 61.5722 6.96416C61.7005 7.22032 61.8288 7.34839 61.9571 7.34839Z" fill="#949494"/>
<path d="M78.7612 7.47649H81.455C81.455 7.47649 81.8398 7.47649 81.8398 7.22034C81.8398 7.22034 81.9681 6.70803 81.5832 6.70803C81.5832 6.70803 81.3267 6.70803 81.3267 6.3238V1.20072C81.3267 1.20072 81.3267 0.944563 81.7115 0.944563C81.8398 0.944563 81.9681 0.688409 81.9681 0.560332C81.9681 0.560332 81.9681 0.176101 81.455 0.176101H78.6329H78.7612C78.7612 0.176101 78.3763 0.0480244 78.3763 0.432255C78.3763 0.432255 78.3763 0.816486 78.7612 0.816486C78.7612 0.816486 79.0177 0.816486 79.0177 0.944563V5.93957C79.0177 5.93957 79.146 6.45187 78.6329 6.45187C78.5046 6.45187 78.3763 6.70803 78.3763 6.83611C78.1198 6.96418 78.1198 7.47649 78.7612 7.47649Z" fill="#949494"/>
<path d="M91.9735 0.944548C91.9735 0.944548 92.3583 0.944548 92.3583 1.32878V6.45186C92.3583 6.45186 92.3583 6.57994 92.1018 6.57994C92.1018 6.57994 91.7169 6.57994 91.7169 6.96417C91.7169 7.22032 91.8452 7.3484 92.1018 7.3484H93.6411L94.1542 7.22032C94.1542 7.22032 94.2824 7.09224 94.2824 6.83609C94.2824 6.83609 94.2824 6.57994 93.6411 6.57994C93.6411 6.57994 93.3845 6.45186 93.3845 6.19571V2.8657C93.3845 2.8657 93.3845 2.48147 93.6411 2.73763L96.8479 6.96417C96.9762 7.09224 96.9762 7.22032 97.1045 7.22032C97.1045 7.22032 97.2328 7.3484 97.7459 7.3484C97.7459 7.3484 98.0024 7.3484 98.0024 6.96417V1.45686V1.07263C98.0024 1.07263 98.0024 0.944548 98.5155 0.816471C98.5155 0.816471 98.6438 0.816471 98.6438 0.43224C98.6438 0.304163 98.5155 0.176086 98.3873 0.176086H96.4631C96.3348 0.176086 96.3348 0.176086 96.2066 0.176086C96.2066 0.176086 95.95 0.176086 96.0783 0.688394C96.0783 0.688394 96.0783 0.944548 96.7197 0.944548C96.7197 0.944548 96.9762 0.944548 96.9762 1.2007V3.50609C96.9762 3.50609 96.9762 3.89032 96.5914 3.37801L94.7955 0.944548C94.7955 0.944548 94.2824 0.176086 94.0259 0.176086H91.9735C91.8452 0.176086 91.7169 0.176086 91.7169 0.176086C91.5887 0.304163 91.5887 0.43224 91.7169 0.560317C91.5887 0.560317 91.5887 0.944548 91.9735 0.944548Z" fill="#949494"/>
<path d="M109.932 6.83611C110.702 7.22034 111.6 7.4765 112.498 7.4765C114.293 7.4765 114.55 7.09226 114.55 7.09226C114.807 6.96419 114.807 6.3238 114.807 6.3238V4.91496C114.807 4.6588 114.935 4.40265 115.191 4.40265C115.32 4.27457 115.448 4.01842 115.448 3.89034C115.448 3.50611 114.807 3.63418 114.807 3.63418H111.984C111.728 3.63418 111.728 4.01842 111.728 4.01842C111.728 4.14649 111.856 4.27457 111.984 4.27457C112.626 4.27457 112.498 4.78688 112.498 4.78688V6.45188C112.498 6.70803 111.984 6.57996 111.984 6.57996C111.471 6.57996 111.215 6.19572 111.087 5.68342C110.958 4.91496 110.958 4.01842 110.958 3.24995C110.958 1.45688 111.6 0.944568 111.6 0.944568C111.984 0.688414 112.369 0.688414 112.882 0.816491C113.395 1.07264 113.395 1.45688 113.395 1.45688C113.395 1.96918 113.524 2.09726 113.524 2.09726C113.652 2.22534 113.78 2.35342 114.037 2.35342C114.55 2.35342 114.55 1.84111 114.55 1.84111V1.20072C114.422 0.176106 112.754 0.0480289 112.754 0.0480289C111.856 -0.0800481 110.958 0.0480289 110.06 0.43226C108.136 1.58495 108.521 4.27457 108.521 4.27457C108.521 5.42726 109.034 6.3238 109.932 6.83611Z" fill="#949494"/>
<path d="M135.844 7.34839C135.844 7.34839 137.896 7.22032 137.896 6.45185V5.29916C137.896 5.17108 137.896 4.91493 137.64 4.91493C137.64 4.91493 136.87 4.65878 136.742 5.17108C136.613 5.55532 136.485 5.81147 136.357 6.1957C136.357 6.1957 136.229 6.57993 135.459 6.57993C134.946 6.45185 134.561 6.06762 134.433 5.55532C134.048 4.14647 134.176 2.73762 134.689 1.45685C134.946 1.07262 135.459 0.816466 135.844 0.944543C135.844 0.944543 136.613 0.944543 136.87 2.09724C136.87 2.09724 136.998 2.48147 137.511 2.35339C137.64 2.35339 137.896 2.22531 137.896 1.96916C137.896 1.58493 137.896 1.32877 137.896 0.944543C137.896 0.944543 137.768 0.560312 136.87 0.176081C135.844 -0.0800729 134.689 0.0480042 133.663 0.560312C133.022 0.944543 132.509 1.45685 132.252 2.09724C132.252 2.09724 131.482 4.78685 133.022 6.32378C132.765 6.45185 133.407 7.34839 135.844 7.34839Z" fill="#949494"/>
<path d="M164.193 0.816466C164.449 0.816466 164.449 0.944543 164.449 1.07262V5.68339C164.449 6.57993 165.219 7.22032 165.988 7.34839C165.988 7.34839 168.682 7.60455 169.195 6.83609C169.452 6.57993 169.708 6.1957 169.708 5.81147V1.07262C169.708 1.07262 169.708 0.944543 170.222 0.944543C170.35 0.816466 170.478 0.688389 170.478 0.432235C170.478 0.304158 170.222 0.176081 170.093 0.176081H168.426C168.426 0.176081 168.169 0.176081 168.169 0.560312C168.297 0.688389 168.426 0.816466 168.554 0.816466C168.554 0.816466 168.554 0.816466 168.682 0.816466C168.81 0.816466 168.939 1.07262 168.939 1.2007C168.939 1.2007 168.939 5.42724 168.811 5.81147C168.682 6.32378 168.297 6.57993 167.784 6.57993C167.271 6.57993 166.886 6.1957 166.758 5.68339V1.32877C166.758 1.32877 166.63 0.816466 167.015 0.816466C167.015 0.816466 167.271 0.816466 167.271 0.304158C167.271 0.304158 167.271 0.0480042 166.886 0.0480042H164.064C163.808 0.0480042 163.808 0.304158 163.808 0.560312C163.808 0.560312 163.808 0.816466 164.193 0.816466Z" fill="#949494"/>
<path d="M135.844 64.855C135.844 64.855 135.459 64.7269 135.202 65.3673C135.074 65.6235 134.818 65.8796 134.433 65.8796H133.022C133.022 65.8796 133.791 64.855 134.048 64.4708C134.304 64.0866 134.561 63.8304 134.689 63.5742C135.331 62.6777 136.229 60.8846 135.331 59.7319C135.331 59.7319 133.92 57.9389 131.482 59.86C131.482 59.86 130.713 60.5004 131.354 61.0127C131.611 61.1408 131.995 61.1408 132.124 60.8846C132.124 60.8846 133.15 59.9881 133.791 60.8846C133.791 60.8846 134.433 61.9092 133.15 63.7023L131.354 65.8796C131.354 65.8796 130.841 66.2639 130.969 66.7762C130.969 66.7762 130.841 67.4166 131.611 67.4166H134.433C134.433 67.4166 135.202 67.4166 135.459 66.9043L135.972 65.3673C136.229 65.3673 136.485 64.855 135.844 64.855Z" fill="#949494"/>
<path d="M140.205 58.8354C138.794 58.8354 137.64 60.7565 137.64 63.19C137.64 65.6235 138.794 67.5446 140.205 67.5446C141.616 67.5446 142.771 65.6235 142.771 63.19C142.771 60.7565 141.616 58.8354 140.205 58.8354ZM140.077 66.6481C139.82 66.6481 139.435 65.1112 139.435 63.19C139.435 61.2688 139.692 59.7319 140.077 59.7319C140.462 59.7319 140.718 61.2688 140.718 63.19C140.718 65.1112 140.333 66.6481 140.077 66.6481Z" fill="#949494"/>
<path d="M147.132 66.52C147.132 66.52 146.747 66.52 146.747 66.0077V59.0915C146.747 59.0915 146.747 58.8354 146.106 58.8354C145.849 58.8354 145.593 58.9635 145.464 59.2196C145.336 59.6038 145.08 59.86 144.823 60.1162C144.566 60.2442 144.31 60.3723 144.053 60.3723C143.797 60.5004 143.669 60.7565 143.797 61.0127C143.797 61.0127 143.925 61.3969 144.566 61.2688C144.566 61.2688 144.823 61.1408 144.823 61.3969V66.0077C144.823 66.2638 144.566 66.52 144.31 66.3919C144.182 66.3919 143.925 66.6481 143.925 66.7762V66.9042C143.925 67.1604 144.182 67.2885 144.438 67.2885C144.438 67.2885 147.388 67.2885 147.517 67.2885C147.773 67.1604 147.773 66.9042 147.773 66.6481C147.773 66.7762 147.773 66.52 147.132 66.52Z" fill="#949494"/>
<path d="M153.289 58.8354C153.033 58.7073 152.776 58.7073 152.648 58.9635C152.391 59.2196 150.724 59.0915 150.724 59.0915C150.211 58.9635 150.082 59.3477 150.082 59.3477L149.184 62.4215C149.184 62.6777 149.441 63.0619 149.697 63.0619C152.391 63.9585 151.878 65.3673 151.878 65.3673C151.75 66.52 150.852 66.3919 150.852 66.3919C150.467 66.3919 150.082 66.2638 149.826 66.0077C149.441 65.7515 149.056 66.2638 149.056 66.2638C148.415 66.9042 149.056 67.1604 149.056 67.1604C149.954 67.5446 150.98 67.4165 151.878 66.9042C153.033 66.1358 153.546 64.7269 153.161 63.4462C152.648 61.7812 150.595 61.2688 150.595 61.2688C150.339 61.2688 150.595 60.8846 150.595 60.8846C150.724 60.6285 150.98 60.6285 150.98 60.6285H152.006C152.776 60.6285 152.904 60.2442 152.904 60.2442L153.417 59.3477C153.546 58.9635 153.289 58.8354 153.289 58.8354Z" fill="#949494"/>
<path d="M186.128 62.8058H163.679C163.166 62.8058 162.653 63.19 162.653 63.8304C162.653 64.4708 163.038 64.855 163.679 64.855H186.128C186.641 64.855 187.154 64.4708 187.154 63.8304C187.154 63.19 186.641 62.8058 186.128 62.8058Z" fill="#949494"/>
<path d="M48.1033 62.8058H25.6551C25.142 62.8058 24.6289 63.19 24.6289 63.8304C24.6289 64.4708 25.0137 64.855 25.6551 64.855H48.1033C48.6164 64.855 49.1295 64.4708 49.1295 63.8304C49.1295 63.19 48.6164 62.8058 48.1033 62.8058Z" fill="#949494"/>
</svg>
