<svg width="226" height="69" viewBox="0 0 226 69" fill="none" xmlns="http://www.w3.org/2000/svg">
<g clip-path="url(#clip0)">
<path d="M0.452626 38.2907C3.6918 36.3922 7.30713 35.2333 11.0421 34.8959C15.4731 34.4663 19.943 34.6934 24.3082 35.5702L27.1956 30.7721C27.9759 29.4706 28.6314 28.4201 29.1777 27.5028C29.5292 26.908 29.923 26.3394 30.356 25.8015C30.7034 25.4203 31.1259 25.1159 31.5968 24.9077C32.1712 24.6445 32.7918 24.498 33.4228 24.4765C34.1584 24.446 34.8934 24.5496 35.5922 24.7823C36.4481 25.0657 37.2426 25.51 37.9333 26.0916C38.2485 26.3607 38.5129 26.6847 38.7137 27.0481C38.9254 27.4568 39.0828 27.8918 39.1819 28.3417C39.3207 28.9318 39.4121 29.5322 39.455 30.137C39.5096 30.827 39.5643 31.6423 39.6267 32.591C39.6891 33.5396 39.814 34.8332 39.9154 36.2052C40.0169 37.5772 40.1885 39.1295 40.4227 40.9092C41.1775 41.2366 41.8535 41.7232 42.4048 42.3361C42.7788 42.7269 42.9933 43.2445 43.0056 43.7865C43.0056 44.351 42.6311 44.6254 41.9131 44.6254C41.5845 44.6052 41.2595 44.5446 40.9455 44.4451C41.069 45.368 41.2727 46.2783 41.5542 47.1656C41.7141 47.6246 41.9098 48.0702 42.1394 48.4984C42.5862 48.8362 42.9968 49.2198 43.3646 49.643C43.6856 49.9728 43.8886 50.4001 43.9421 50.8582C43.9606 50.9487 43.9606 51.0421 43.9421 51.1326C43.9097 51.2553 43.8481 51.3683 43.7626 51.4619C43.6336 51.5846 43.4749 51.6711 43.3022 51.7128C43.0015 51.7796 42.6899 51.7796 42.3892 51.7128C41.3159 51.5457 40.2674 51.2455 39.2677 50.819C38.4134 50.4441 37.6233 49.9361 36.9266 49.3137C36.4698 48.894 36.0685 48.4171 35.7327 47.8947C35.4245 47.4251 35.1632 46.9261 34.9523 46.4051C34.7647 45.9172 34.6211 45.4134 34.5231 44.8998C34.4295 44.4059 34.3437 43.9119 34.2734 43.4259L34.2032 42.9398C34.2032 42.783 34.1408 42.6262 34.1095 42.4851L34.0003 41.7011C32.3927 41.1418 30.7644 40.6583 29.1152 40.2507C27.5909 43.1306 26.2591 45.527 25.1198 47.44C24.1599 49.0459 23.0661 50.5671 21.8501 51.9872C21.1067 52.8768 20.2268 53.6416 19.2437 54.2529C18.4043 54.7662 17.4405 55.0374 16.4578 55.0369C15.6349 55.0044 14.8217 54.8458 14.0465 54.5665C13.0319 54.2271 12.0455 53.8077 11.0967 53.3121C10.3841 52.9849 9.76244 52.4869 9.2863 51.8617C9.00919 51.527 8.8746 51.096 8.91173 50.6622C9.00537 50.184 9.38775 49.8782 10.0589 49.8782C10.8318 49.8661 11.5941 50.0609 12.2673 50.4427C12.4454 50.4153 12.6205 50.3707 12.7901 50.3094C13.2372 50.1192 13.6488 49.8541 14.0075 49.5254C14.7238 48.901 15.3965 48.2278 16.0208 47.5105C17.0769 46.2998 18.0643 45.0303 18.9784 43.7081C19.4934 42.9868 20.0084 42.2342 20.5391 41.4423C21.0697 40.6505 21.5848 39.8743 22.0998 39.0276C19.0418 38.7299 15.9579 38.846 12.9306 39.3726C10.2511 39.8378 7.67829 40.7889 5.33768 42.1793C5.05593 42.3309 4.7326 42.386 4.41685 42.3361C3.99377 42.2874 3.57909 42.1819 3.18388 42.0225C2.73423 41.8548 2.3049 41.6365 1.90409 41.3718C1.51794 41.1293 1.15715 40.8482 0.827198 40.5329C0.440229 40.1899 0.167766 39.7355 0.0468385 39.2315C0.00408334 39.0516 0.0205216 38.8627 0.0936866 38.6931C0.166852 38.5235 0.292797 38.3823 0.452626 38.2907ZM33.6491 31.2817L30.6916 37.1303C31.191 37.3028 31.6904 37.4596 32.1743 37.6007C32.6581 37.7418 33.1653 37.9143 33.6881 38.1103C33.6881 37.0911 33.6413 36.0562 33.6491 34.9743C33.6569 33.8924 33.6491 32.8732 33.6491 31.8854V31.2817Z" fill="#949494"/>
<path d="M48.7803 47.4792C48.6704 47.7474 48.5453 48.0092 48.4057 48.2632C48.2268 48.4431 47.9875 48.5494 47.7346 48.5611C47.3672 48.6154 46.9939 48.6154 46.6265 48.5611C46.2166 48.5048 45.8155 48.3968 45.4325 48.2396C45.07 48.0984 44.7444 47.8759 44.4805 47.5889C44.2721 47.2715 44.1734 46.8941 44.1996 46.5148C44.1996 45.9739 44.1996 45.331 44.1996 44.5783C44.1996 43.8257 44.3244 43.0103 44.4259 42.1636C44.5273 41.3169 44.6444 40.4859 44.777 39.7097C44.9097 38.9335 45.0268 38.2514 45.1516 37.6556C45.2285 37.2325 45.3274 36.8138 45.4481 36.4012C45.5701 36.0342 45.8307 35.7301 46.1739 35.5545C46.5464 35.3413 46.9577 35.2054 47.3834 35.1546C47.8145 35.0917 48.2534 35.1077 48.6788 35.2017C49.0727 35.2847 49.4304 35.4905 49.7011 35.7897C49.8948 36.0878 50.0103 36.4303 50.0367 36.7854C50.1111 37.344 50.145 37.9074 50.1381 38.471C50.4698 37.7029 50.8944 36.9787 51.4023 36.315C51.8304 35.7341 52.4318 35.3056 53.1191 35.0919C53.6072 34.9447 54.1159 34.8785 54.6252 34.8959C55.1576 34.907 55.6847 35.005 56.1859 35.186C56.6932 35.3875 57.1569 35.6857 57.5515 36.0641C57.9809 36.4586 58.3146 36.9467 58.527 37.491C58.6189 37.817 58.6455 38.1581 58.605 38.4945C58.567 38.9521 58.4913 39.4058 58.3787 39.8508C58.2617 40.3369 58.129 40.8308 57.9807 41.3247C57.8325 41.8187 57.6998 42.2812 57.5983 42.7046C57.5063 43.0624 57.4411 43.4267 57.4033 43.7943C57.4033 44.1001 57.4033 44.2726 57.5125 44.3196C57.6218 44.3667 57.9183 44.3196 58.207 44.1079C58.5251 43.8319 58.8176 43.5275 59.081 43.1985C59.3698 42.83 59.6507 42.4145 59.916 42.0539C60.1132 41.7562 60.293 41.4473 60.4545 41.1287C60.4969 41.0248 60.565 40.9336 60.6524 40.8636C60.7399 40.7936 60.8436 40.7472 60.9539 40.7289C61.1842 40.6729 61.4258 40.6865 61.6484 40.7681C61.8646 40.8512 62.048 41.0025 62.1713 41.1993C62.2466 41.3137 62.2937 41.4445 62.3086 41.5809C62.3235 41.7172 62.3059 41.8552 62.2571 41.9833C61.8593 43.5442 61.1328 45.0013 60.1267 46.2561C59.4192 47.1366 58.4693 47.7883 57.3955 48.1299C56.4818 48.4009 55.5028 48.3455 54.6252 47.9731C53.7576 47.6122 53.0181 46.9976 52.5026 46.2091C52.2439 45.8419 52.1024 45.4045 52.0968 44.9547C52.09 44.5007 52.1532 44.0485 52.2841 43.614C52.4122 43.1578 52.5686 42.71 52.7523 42.2734C52.9396 41.8187 53.0879 41.4031 53.2049 41.019C53.3161 40.6853 53.374 40.336 53.3766 39.9841C53.3713 39.8233 53.3247 39.6665 53.2413 39.5292C53.1579 39.3918 53.0405 39.2784 52.9006 39.2001C52.7133 39.0825 52.5026 39.1452 52.2685 39.4039C51.9726 39.7258 51.711 40.0779 51.4881 40.4545C51.1952 40.96 50.9346 41.4837 50.7078 42.0225C50.4581 42.6183 50.2318 43.1985 50.0211 43.7708C49.8104 44.3431 49.6387 44.8449 49.4904 45.2918C49.3421 45.7387 49.2329 46.0758 49.1705 46.2561L49.108 46.3972C49.0246 46.7652 48.915 47.1268 48.7803 47.4792Z" fill="#949494"/>
<path d="M67.1578 36.9892C67.3666 37.4168 67.4349 37.9 67.3529 38.3691C67.2785 38.9611 67.1452 39.5442 66.9549 40.1095C66.7598 40.7132 66.5491 41.3169 66.3306 41.9206C66.1339 42.4502 65.9722 42.9924 65.8468 43.5435C65.7349 43.9221 65.7349 44.3252 65.8468 44.7038C65.9639 45.0095 66.2682 45.1585 66.7442 45.1585C67.2203 45.1614 67.6821 44.9948 68.0474 44.6881C68.4543 44.3611 68.8164 43.9815 69.1243 43.5591C69.4416 43.1419 69.7235 42.6987 69.9671 42.2342C70.2012 41.7873 70.3885 41.4502 70.5212 41.1287C70.5531 41.0026 70.6211 40.8886 70.7168 40.8008C70.8125 40.713 70.9317 40.6553 71.0596 40.6348C71.1852 40.6152 71.3134 40.6211 71.4367 40.652C71.56 40.683 71.6759 40.7385 71.7775 40.8151C72.0185 41.007 72.1977 41.2661 72.2926 41.5599C72.4164 41.9531 72.3998 42.3773 72.2458 42.7595C72.03 43.4196 71.7692 44.064 71.4654 44.6881C71.099 45.4357 70.6111 46.1167 70.0217 46.703C69.372 47.3478 68.6033 47.8591 67.7587 48.2083C66.746 48.6123 65.65 48.7604 64.567 48.6395C63.6973 48.6093 62.8591 48.3049 62.1713 47.7692C61.5648 47.2776 61.0901 46.6416 60.7901 45.919C60.4793 45.1454 60.3076 44.3225 60.2828 43.4886C60.2505 42.6041 60.3291 41.7191 60.517 40.8543C60.6899 40.0236 60.9516 39.214 61.2973 38.4396C61.596 37.7594 62.0018 37.132 62.4991 36.5815C62.7828 36.34 63.1294 36.1849 63.4979 36.1346C63.961 36.0489 64.4329 36.0226 64.9026 36.0562C65.3762 36.0898 65.8419 36.1956 66.2838 36.3698C66.6387 36.4664 66.9482 36.6858 67.1578 36.9892ZM64.9572 30.3017C65.4445 30.482 65.8962 30.7474 66.2916 31.0857C66.7807 31.4669 67.2164 31.9125 67.587 32.4106C67.9098 32.8348 68.1217 33.3335 68.2035 33.861C68.2328 34.101 68.1888 34.3443 68.0773 34.5585C67.9658 34.7727 67.7921 34.9478 67.5792 35.0606C67.0936 35.3752 66.5145 35.511 65.9405 35.4447C65.3177 35.379 64.7134 35.1926 64.1612 34.8959C63.5792 34.5781 63.0521 34.1677 62.6005 33.6807C62.1547 33.2322 61.8019 32.6992 61.5626 32.1127C61.3582 31.6894 61.2848 31.2142 61.3519 30.7486C61.3919 30.5922 61.4688 30.4479 61.5761 30.3278C61.6834 30.2077 61.818 30.1153 61.9684 30.0586C62.3642 29.9101 62.7891 29.8564 63.2092 29.9018C63.8053 29.9664 64.392 30.1006 64.9572 30.3017Z" fill="#949494"/>
<path d="M72.6827 30.0822C73.0781 29.7438 73.554 29.5142 74.064 29.4158C74.6692 29.2622 75.2894 29.1755 75.9134 29.157C76.4423 29.14 76.9702 29.2143 77.4741 29.3766C77.9267 29.5334 78.1296 29.7686 78.0828 30.0822C78.0282 30.4742 77.9579 31.0387 77.8565 31.7756C77.7551 32.5126 77.6302 33.3436 77.4819 34.2766C77.3337 35.2095 77.162 36.2131 76.9825 37.2793C76.803 38.3455 76.6001 39.3961 76.405 40.4153C77.0918 39.7332 77.7316 39.059 78.3247 38.3769L79.9323 36.5423C80.4161 36.0197 80.8453 35.5728 81.2199 35.2017C81.4636 34.935 81.7654 34.7284 82.1017 34.598C82.4403 34.5442 82.7853 34.5442 83.1239 34.598C83.5256 34.6573 83.9186 34.7653 84.2945 34.9195C84.6867 35.0815 85.0544 35.2979 85.387 35.5623C85.712 35.8032 85.9656 36.1284 86.1205 36.5031C86.1698 36.6566 86.1806 36.8199 86.152 36.9785C86.1234 37.1371 86.0563 37.2862 85.9566 37.4126C85.6993 37.8448 85.3986 38.2494 85.0592 38.6199C84.647 39.0541 84.2064 39.46 83.7404 39.8352C83.2488 40.235 82.7806 40.6192 82.3202 40.9249C81.8597 41.2307 81.4696 41.5286 81.1418 41.7089C80.9564 41.8426 80.7636 41.9656 80.5643 42.0774C80.4707 42.1244 80.5644 42.3675 80.7985 42.7987C81.0876 43.2862 81.4249 43.7432 81.8051 44.1628C82.2058 44.6198 82.6681 45.0183 83.1786 45.3467C83.36 45.4939 83.578 45.5885 83.8091 45.6203C84.0401 45.6521 84.2754 45.6198 84.4896 45.527C84.903 45.3078 85.2795 45.0247 85.6055 44.6881C85.9739 44.3152 86.3131 43.9141 86.6199 43.4886C86.9399 43.0496 87.2208 42.6184 87.4705 42.195C87.7202 41.7716 87.9153 41.411 88.0714 41.1288C88.1263 41.0022 88.2112 40.891 88.3186 40.8049C88.4261 40.7188 88.5528 40.6604 88.6879 40.6348C88.9394 40.5942 89.1968 40.6532 89.4058 40.7995C89.6424 40.9535 89.8209 41.1825 89.9131 41.4502C90.0296 41.7556 90.0296 42.0935 89.9131 42.3988C89.6712 43.0025 89.398 43.6924 89.1327 44.4686C88.8361 45.241 88.4539 45.9773 87.9934 46.6638C87.5269 47.352 86.9271 47.9386 86.2298 48.3886C85.4146 48.8791 84.4701 49.1088 83.5219 49.0472C82.719 49.0289 81.9364 48.7903 81.2589 48.3573C80.4902 47.8854 79.7712 47.3364 79.1129 46.7187C78.4492 46.1095 77.8286 45.4546 77.2556 44.7587C76.7172 44.0766 76.2802 43.4964 75.9368 43.0182C75.7105 44.1785 75.492 45.1977 75.2813 46.0836C75.1443 46.7078 74.9617 47.321 74.7351 47.9182C74.6677 48.0865 74.562 48.2365 74.4265 48.3564C74.291 48.4762 74.1294 48.5624 73.9547 48.6081C73.5361 48.7273 73.1021 48.7828 72.6671 48.7728C72.2067 48.7551 71.7516 48.6679 71.3171 48.5141C70.9368 48.3988 70.5891 48.1946 70.3026 47.9182C70.1413 47.6102 70.076 47.2605 70.1153 46.9147C70.1153 46.3737 70.1153 45.6916 70.1778 44.8684C70.2402 44.0452 70.3182 43.128 70.4275 42.1088C70.5367 41.0896 70.6772 40.0547 70.8177 38.9727C70.9581 37.8908 71.122 36.8795 71.2937 35.8367C71.4654 34.794 71.6448 33.9003 71.8087 33.0927C71.9726 32.2852 72.1365 31.5953 72.2925 31.0387C72.3594 30.6974 72.492 30.3725 72.6827 30.0822Z" fill="#949494"/>
<path d="M94.9386 34.5902C95.9957 34.5327 97.0497 34.7515 97.9976 35.2252C99.038 35.7175 99.9775 36.4008 100.768 37.2401C100.916 36.903 101.064 36.5894 101.213 36.315C101.333 36.0684 101.506 35.8515 101.72 35.6799C102.072 35.3524 102.516 35.1417 102.992 35.0762C103.509 34.9954 104.035 34.9954 104.553 35.0762C105.049 35.1568 105.525 35.3382 105.949 35.6094C106.348 35.8446 106.664 36.1979 106.855 36.6207C106.977 36.966 106.993 37.3401 106.901 37.6948C106.796 38.1827 106.655 38.6622 106.48 39.1295C106.285 39.6391 106.074 40.1566 105.832 40.6975C105.59 41.2385 105.388 41.7246 105.208 42.1871C105.053 42.5722 104.925 42.9678 104.826 43.371C104.755 43.6924 104.826 43.9198 104.966 44.0374C105.12 44.1558 105.301 44.2319 105.493 44.2581C105.684 44.2842 105.879 44.2595 106.059 44.1863C106.495 44.0069 106.891 43.7401 107.221 43.4023C107.594 43.0454 107.936 42.6572 108.244 42.242C108.507 41.8895 108.725 41.5049 108.891 41.0974C108.993 40.8227 109.194 40.5963 109.453 40.4623C109.555 40.4081 109.669 40.3797 109.785 40.3797C109.901 40.3797 110.014 40.4081 110.117 40.4623C110.36 40.5894 110.554 40.7933 110.671 41.0425C110.836 41.3719 110.903 41.7419 110.866 42.1087C110.808 42.4913 110.703 42.8652 110.554 43.222C110.356 43.7078 110.116 44.1748 109.836 44.6175C109.527 45.1202 109.183 45.5997 108.806 46.0523C108.425 46.5118 108.004 46.9368 107.549 47.3223C107.135 47.6796 106.679 47.985 106.191 48.2318C105.763 48.453 105.282 48.5482 104.802 48.5062C103.818 48.4243 102.862 48.1387 101.993 47.6673C101.225 47.2652 100.568 46.678 100.081 45.9582C99.5169 46.5535 98.9006 47.0967 98.2395 47.5811C97.5885 48.0593 96.867 48.4323 96.1013 48.6865C95.3453 48.9275 94.544 48.9892 93.7602 48.8668C92.8492 48.713 91.9984 48.3086 91.3021 47.6987C90.4244 46.9849 89.6839 46.1161 89.1171 45.135C88.6167 44.2726 88.2831 43.323 88.1338 42.3361C87.9981 41.4234 88.0485 40.4925 88.2821 39.5999C88.5234 38.7358 88.9465 37.9337 89.5229 37.2479C90.1511 36.5211 90.9145 35.9246 91.7703 35.4918C92.7543 34.9777 93.8324 34.6709 94.9386 34.5902ZM99.6207 41.8187C99.6321 41.5864 99.6634 41.3556 99.7144 41.1287C99.7584 40.8141 99.7584 40.4948 99.7144 40.1801C99.6812 39.8298 99.5748 39.4906 99.4022 39.1844C99.1648 38.8224 98.8171 38.5474 98.4112 38.4004C97.9435 38.1601 97.4025 38.1069 96.8973 38.2515C96.4024 38.3998 95.952 38.6692 95.5863 39.0355C95.1844 39.4355 94.8544 39.9023 94.6108 40.4153C94.3566 40.921 94.1929 41.4677 94.127 42.0303C94.063 42.5436 94.1082 43.0647 94.2597 43.5591C94.3376 43.7896 94.4615 44.0017 94.6239 44.1823C94.7862 44.363 94.9836 44.5084 95.2039 44.6097C95.3658 44.7058 95.5457 44.7672 95.7324 44.7901C95.919 44.813 96.1084 44.797 96.2886 44.743C96.6991 44.6124 97.0825 44.4078 97.4201 44.1393C97.8332 43.8216 98.2124 43.4616 98.5516 43.0652C98.8872 42.6497 99.2462 42.2263 99.5973 41.8187H99.6207Z" fill="#949494"/>
<path d="M119.676 40.9798C119.187 40.708 118.736 40.3733 118.334 39.9841C117.884 39.5633 117.474 39.1014 117.109 38.6043C116.736 38.102 116.42 37.5604 116.164 36.9892C115.927 36.4674 115.784 35.9072 115.743 35.335C115.721 34.7862 115.813 34.2388 116.015 33.7283C116.216 33.2177 116.523 32.7555 116.914 32.3715C117.972 31.2872 119.224 30.4122 120.605 29.7921C122.453 28.9293 124.382 28.2543 126.364 27.7772C128.792 27.1803 131.263 26.774 133.754 26.562C134.308 26.515 135.143 26.4758 136.259 26.4522C137.535 26.4378 138.81 26.5164 140.075 26.6874C141.604 26.8912 143.113 27.2269 144.585 27.691C146.189 28.1793 147.714 28.9004 149.111 29.8313C149.753 30.2571 150.363 30.7287 150.937 31.2425C151.587 31.8257 152.177 32.4717 152.701 33.1711C153.204 33.8543 153.606 34.6069 153.895 35.4055C154.162 36.162 154.195 36.9821 153.988 37.7576C153.761 38.5405 153.373 39.2669 152.849 39.89C152.262 40.5811 151.591 41.1948 150.851 41.7168C150.039 42.301 149.177 42.8125 148.276 43.2456C147.348 43.7054 146.391 44.106 145.412 44.4451C146.271 44.8528 147.207 45.3232 148.245 45.8406L151.39 47.4792L154.581 49.1177C155.635 49.6509 156.603 50.1056 157.492 50.4976C158.234 50.8151 158.992 51.0926 159.763 51.3286C160.55 51.5811 161.356 51.7648 162.174 51.8774C162.847 51.9808 163.531 51.9808 164.203 51.8774C164.465 51.8557 164.715 51.7572 164.922 51.5941C165.128 51.431 165.283 51.2106 165.366 50.9601C165.53 50.5525 165.951 50.3957 166.638 50.5054C167.541 50.7056 168.401 51.0696 169.174 51.5795C170.045 52.077 170.835 52.7063 171.515 53.4454C172.03 54.0648 172.218 54.5822 172.054 55.0134C171.927 55.394 171.723 55.7438 171.454 56.0407C171.185 56.3377 170.858 56.5752 170.493 56.7382C169.612 57.1111 168.662 57.2902 167.707 57.2635C166.766 57.2574 165.828 57.1602 164.906 56.9734C163.867 56.7834 162.842 56.5214 161.839 56.1894C160.778 55.8379 159.737 55.4323 158.717 54.9742C157.731 54.5315 156.77 54.0342 155.838 53.4846C155.167 53.1005 154.207 52.5673 152.951 51.9166C151.694 51.2659 150.352 50.5289 148.908 49.792C147.465 49.055 146.013 48.3259 144.546 47.6125C143.079 46.899 141.815 46.311 140.738 45.8484C139.653 46.0209 138.74 46.1307 137.991 46.1777C137.468 46.1646 136.952 46.0529 136.469 45.8484C135.904 45.6282 135.362 45.3497 134.854 45.0174C134.62 45.9896 134.409 47.0637 134.23 48.2475C134.035 49.6451 133.933 51.0542 133.925 52.4654C133.935 52.6086 133.905 52.7515 133.838 52.8787C133.772 53.0059 133.673 53.1124 133.551 53.1867C133.262 53.3444 132.935 53.4202 132.607 53.4062C132.27 53.4051 131.934 53.363 131.608 53.2808C131.264 53.1945 130.921 53.0926 130.593 52.975C129.884 52.6895 129.236 52.2719 128.681 51.7441C128.26 51.3971 127.982 50.9054 127.901 50.3643C127.709 48.5863 127.659 46.7956 127.753 45.0096C127.842 43.3712 128.032 41.74 128.322 40.1252C128.573 38.7153 128.92 37.3244 129.36 35.9622C129.699 34.8758 130.144 33.8255 130.687 32.8262C130.094 33.0143 129.548 33.2182 129.064 33.422C128.58 33.6259 128.143 33.8297 127.768 34.0257L126.551 34.7156C125.942 35.0527 125.287 35.4369 124.577 35.8524C123.918 36.2511 123.291 36.702 122.704 37.2009C122.202 37.6038 121.795 38.1123 121.51 38.6905C121.39 38.9391 121.338 39.215 121.359 39.4903C121.379 39.7657 121.472 40.0307 121.627 40.2585L121.861 40.6976L121.697 40.9876C121.622 41.1251 121.507 41.2367 121.368 41.3079C121.229 41.3792 121.072 41.4069 120.917 41.3875C120.476 41.3547 120.051 41.2147 119.676 40.9798ZM137.297 31.3601C136.579 31.462 135.814 31.5875 135.01 31.7443C134.206 31.9011 133.403 32.0814 132.591 32.2695C133.183 32.3585 133.764 32.511 134.323 32.7243C134.876 32.9434 135.411 33.2055 135.923 33.5083C136.498 33.8046 136.987 34.2447 137.343 34.7862C137.553 35.102 137.642 35.4837 137.593 35.8603C137.375 36.7749 137.148 37.6217 136.914 38.4004C136.672 39.1844 136.438 39.9136 136.196 40.6192L136.914 40.87C138.272 40.5773 139.591 40.2272 140.871 39.8195C142.04 39.4562 143.173 38.9865 144.257 38.4161C145.146 37.9426 145.957 37.3344 146.661 36.6129C147.24 36.0431 147.597 35.2839 147.667 34.4726C147.691 34.1745 147.661 33.8747 147.582 33.5867C147.449 33.1508 147.174 32.7725 146.801 32.5126C146.524 32.302 146.226 32.1207 145.912 31.9716C145.373 31.695 144.801 31.4895 144.21 31.3601C143.287 31.1807 142.35 31.0837 141.409 31.07C140.033 31.0565 138.657 31.1535 137.297 31.3601Z" fill="#949494"/>
<path d="M161.628 34.5902C162.372 34.5455 163.118 34.5876 163.852 34.7156C164.652 34.8402 165.436 35.0478 166.193 35.335C166.896 35.5951 167.558 35.9541 168.16 36.4012C168.653 36.733 169.049 37.1918 169.305 37.7296C169.562 38.2674 169.67 38.8646 169.619 39.4588C169.578 40.0854 169.338 40.6821 168.932 41.1601C168.353 41.8199 167.629 42.3353 166.818 42.6654C165.539 43.1963 164.186 43.5217 162.806 43.6297C162.971 44.0649 163.206 44.4701 163.501 44.8292C163.767 45.1588 164.126 45.3994 164.531 45.5192C165.36 45.8449 166.264 45.9264 167.137 45.7544C167.9 45.5828 168.613 45.2367 169.221 44.743C169.818 44.2429 170.343 43.6625 170.782 43.0182C171.203 42.413 171.586 41.7819 171.929 41.1288C171.985 40.9859 172.072 40.8575 172.184 40.753C172.297 40.6485 172.431 40.5706 172.577 40.5251C172.85 40.4399 173.144 40.4594 173.404 40.58C173.676 40.7185 173.892 40.9488 174.012 41.2307C174.162 41.6055 174.162 42.024 174.012 42.3988C173.498 44.222 172.438 45.8422 170.977 47.0401C170.144 47.7311 169.192 48.2626 168.168 48.6081C166.979 48.9874 165.721 49.0998 164.484 48.9374C163.873 48.8502 163.272 48.7032 162.689 48.4984C161.998 48.2627 161.341 47.933 160.739 47.5184C160.054 47.0548 159.43 46.5069 158.881 45.8876C158.255 45.1709 157.742 44.3618 157.36 43.4886C156.956 42.5864 156.747 41.6084 156.747 40.6192C156.747 39.6299 156.956 38.6519 157.36 37.7497C157.754 36.9137 158.337 36.181 159.061 35.6094C159.79 35.0089 160.687 34.6525 161.628 34.5902ZM163.72 37.93C163.468 38.0077 163.242 38.1511 163.064 38.3456C162.864 38.5749 162.71 38.8412 162.611 39.1296C162.491 39.4738 162.415 39.8321 162.385 40.1958C162.385 40.5956 162.346 40.9798 162.385 41.411C163.214 41.2685 163.994 40.9209 164.656 40.3996C165.097 40.0677 165.422 39.6039 165.585 39.0747C165.638 38.8921 165.636 38.6976 165.579 38.516C165.522 38.3344 165.413 38.1741 165.265 38.0555C165.034 37.9172 164.774 37.8339 164.507 37.8122C164.239 37.7904 163.969 37.8307 163.72 37.93Z" fill="#949494"/>
<path d="M170.79 34.8097C171.047 34.6607 171.359 34.5039 171.718 34.3315C172.077 34.159 172.499 33.9943 172.959 33.8219C173.108 33.286 173.295 32.7619 173.521 32.2539C173.662 31.8896 173.88 31.5606 174.161 31.2895C174.843 30.6158 175.635 30.0643 176.502 29.6588C176.826 29.5291 177.183 29.5086 177.519 29.6006C177.855 29.6925 178.153 29.8918 178.367 30.1684C178.507 30.3866 178.557 30.6507 178.507 30.9054C178.472 31.3764 178.409 31.8449 178.32 32.3087C179.008 32.1565 179.703 32.0414 180.404 31.9638C180.821 31.8834 181.252 31.9158 181.652 32.0579C182.175 32.3441 182.596 32.7884 182.854 33.3279C182.989 33.6223 183.05 33.9452 183.033 34.2687C183 34.6319 182.83 34.9686 182.557 35.2095C182.36 35.3915 182.122 35.5232 181.863 35.5937C181.477 35.7169 181.083 35.8139 180.685 35.8838C180.222 35.9674 179.722 36.0458 179.186 36.119C178.648 36.1974 178.094 36.2523 177.516 36.3071C177.321 37.2244 177.149 38.1417 176.993 39.059C176.845 39.92 176.749 40.7892 176.705 41.6619C176.663 42.3712 176.691 43.083 176.791 43.7865C176.806 44.029 176.87 44.266 176.977 44.484C177.084 44.7019 177.233 44.8965 177.415 45.0566C177.634 45.2667 177.904 45.4155 178.199 45.4884C178.493 45.5613 178.801 45.5557 179.093 45.4721C179.651 45.2678 180.145 44.9157 180.521 44.4529C180.964 43.9393 181.334 43.3668 181.621 42.7516C181.881 42.2273 182.111 41.688 182.308 41.1366C182.448 40.6976 182.674 40.4467 182.979 40.3526C183.132 40.3219 183.291 40.3249 183.443 40.3614C183.595 40.398 183.738 40.4672 183.861 40.5643C184.15 40.7842 184.374 41.0798 184.508 41.4188C184.584 41.5974 184.623 41.7893 184.623 41.9833C184.623 42.1773 184.584 42.3693 184.508 42.5478C184.376 42.9633 184.173 43.4808 183.907 44.1158C183.642 44.7508 183.33 45.378 182.994 46.0052C182.658 46.6177 182.266 47.1977 181.824 47.7379C181.487 48.178 181.036 48.5169 180.521 48.7179C179.949 48.8759 179.364 48.9783 178.773 49.0237C178.047 49.0858 177.317 49.0436 176.603 48.8982C175.84 48.7477 175.104 48.4835 174.418 48.1142C173.711 47.728 173.118 47.1598 172.701 46.4678C172.376 45.9352 172.166 45.3394 172.085 44.7195C171.953 43.9212 171.883 43.1139 171.874 42.3048C171.874 41.4188 171.874 40.4937 171.96 39.5059C172.046 38.518 172.147 37.5772 172.288 36.6599L171.266 36.7697C171.149 36.7993 171.027 36.8012 170.909 36.7753C170.791 36.7495 170.681 36.6966 170.587 36.6207C170.425 36.481 170.315 36.2904 170.275 36.0798C170.227 35.8493 170.246 35.6099 170.329 35.3899C170.41 35.148 170.573 34.9425 170.79 34.8097Z" fill="#949494"/>
<path d="M189.144 34.5902C190.201 34.5327 191.255 34.7515 192.203 35.2252C193.243 35.7175 194.183 36.4008 194.973 37.2401C195.121 36.903 195.269 36.5894 195.418 36.315C195.541 36.0701 195.714 35.8538 195.925 35.6799C196.277 35.3524 196.721 35.1417 197.197 35.0762C197.714 34.9954 198.241 34.9954 198.758 35.0762C199.254 35.1568 199.73 35.3382 200.155 35.6094C200.553 35.8446 200.869 36.1979 201.06 36.6207C201.182 36.966 201.198 37.3401 201.107 37.6948C201.001 38.1827 200.86 38.6622 200.685 39.1295C200.49 39.6391 200.279 40.1566 200.037 40.6975C199.796 41.2385 199.593 41.7246 199.413 42.1871C199.258 42.5722 199.13 42.9678 199.031 43.371C198.961 43.6924 199.031 43.9198 199.171 44.0374C199.325 44.1558 199.506 44.2319 199.698 44.2581C199.889 44.2842 200.085 44.2595 200.264 44.1863C200.7 44.0069 201.096 43.7401 201.427 43.4023C201.799 43.0454 202.141 42.6572 202.449 42.242C202.711 41.8876 202.931 41.5034 203.104 41.0974C203.2 40.8242 203.395 40.5975 203.651 40.4623C203.754 40.4081 203.869 40.3797 203.986 40.3797C204.103 40.3797 204.218 40.4081 204.322 40.4623C204.565 40.5894 204.759 40.7933 204.876 41.0425C205.041 41.3719 205.109 41.7419 205.071 42.1087C205.013 42.4913 204.908 42.8652 204.759 43.222C204.564 43.7077 204.326 44.1747 204.049 44.6175C203.735 45.1184 203.388 45.5977 203.011 46.0523C202.63 46.5118 202.209 46.9368 201.754 47.3223C201.34 47.6796 200.884 47.985 200.396 48.2318C199.968 48.453 199.487 48.5482 199.007 48.5062C198.023 48.4243 197.067 48.1387 196.198 47.6673C195.43 47.2652 194.773 46.678 194.286 45.9582C193.722 46.5535 193.106 47.0967 192.445 47.5811C191.794 48.0608 191.073 48.4339 190.306 48.6865C189.55 48.9275 188.749 48.9892 187.965 48.8668C187.059 48.6998 186.217 48.2847 185.531 47.6673C184.653 46.9536 183.912 46.0847 183.346 45.1036C182.841 44.2525 182.499 43.3138 182.339 42.3361C182.199 41.4236 182.25 40.4919 182.487 39.5999C182.729 38.7358 183.152 37.9337 183.728 37.2479C184.356 36.5211 185.12 35.9246 185.975 35.4918C186.959 34.9777 188.037 34.6709 189.144 34.5902ZM193.826 41.8187C193.841 41.5868 193.872 41.3562 193.919 41.1287C193.976 40.8159 193.99 40.4966 193.958 40.1801C193.925 39.8298 193.819 39.4906 193.646 39.1844C193.409 38.8224 193.061 38.5474 192.655 38.4004C192.19 38.1598 191.652 38.1065 191.149 38.2515C190.652 38.3986 190.198 38.6681 189.83 39.0355C189.427 39.4302 189.095 39.8916 188.847 40.3996C188.596 40.9067 188.433 41.4528 188.363 42.0147C188.299 42.5279 188.344 43.049 188.496 43.5435C188.568 43.772 188.684 43.9839 188.838 44.167C188.992 44.35 189.181 44.5005 189.393 44.6097C189.555 44.7058 189.735 44.7672 189.922 44.7901C190.109 44.813 190.298 44.797 190.478 44.743C190.889 44.6124 191.272 44.4078 191.61 44.1393C192.025 43.822 192.407 43.462 192.749 43.0652C193.092 42.6497 193.451 42.2263 193.802 41.8187H193.826Z" fill="#949494"/>
<path d="M209.769 36.9892C209.977 37.4168 210.046 37.9 209.964 38.3691C209.889 38.9611 209.756 39.5442 209.566 40.1096C209.371 40.7132 209.16 41.3169 208.941 41.9206C208.741 42.449 208.579 42.9914 208.458 43.5435C208.346 43.9221 208.346 44.3252 208.458 44.7038C208.575 45.0096 208.871 45.1585 209.355 45.1585C209.844 45.1695 210.321 45.0024 210.697 44.6881C211.102 44.359 211.464 43.9797 211.774 43.5592C212.091 43.1419 212.373 42.6987 212.617 42.2342C212.851 41.7873 213.038 41.4502 213.163 41.1288C213.198 41.0029 213.268 40.8896 213.365 40.8022C213.462 40.7148 213.581 40.6567 213.709 40.6348C213.963 40.597 214.221 40.6619 214.427 40.8152C214.668 41.007 214.847 41.2661 214.942 41.56C215.066 41.9531 215.05 42.3773 214.896 42.7595C214.68 43.4196 214.419 44.064 214.115 44.6881C213.749 45.4357 213.261 46.1167 212.671 46.703C212.022 47.3478 211.253 47.8591 210.408 48.2083C209.396 48.6123 208.3 48.7604 207.217 48.6395C206.347 48.6104 205.508 48.3058 204.821 47.7693C204.215 47.2776 203.74 46.6416 203.44 45.919C203.129 45.1454 202.957 44.3225 202.933 43.4886C202.9 42.6041 202.979 41.7191 203.167 40.8544C203.336 40.0227 203.598 39.2127 203.947 38.4396C204.246 37.7595 204.652 37.1321 205.149 36.5815C205.432 36.3385 205.779 36.1832 206.148 36.1347C206.619 36.0493 207.099 36.0256 207.576 36.0641C208.049 36.0977 208.515 36.2034 208.957 36.3777C209.288 36.4851 209.573 36.7003 209.769 36.9892ZM207.576 30.3017C208.063 30.482 208.515 30.7474 208.91 31.0857C209.399 31.4649 209.832 31.9109 210.198 32.4107C210.526 32.8327 210.741 33.332 210.822 33.8611C210.849 34.1008 210.804 34.3432 210.693 34.557C210.582 34.7708 210.409 34.9462 210.198 35.0606C209.712 35.3747 209.133 35.5104 208.559 35.4447C207.936 35.379 207.332 35.1927 206.78 34.8959C206.198 34.5781 205.671 34.1677 205.219 33.6807C204.771 33.2324 204.416 32.6995 204.173 32.1127C203.972 31.6886 203.901 31.2134 203.97 30.7486C204.01 30.5922 204.087 30.4479 204.195 30.3278C204.302 30.2077 204.437 30.1154 204.587 30.0587C204.993 29.917 205.426 29.874 205.851 29.9332C206.438 29.9894 207.017 30.1131 207.576 30.3017Z" fill="#949494"/>
<path d="M215.075 30.0822C215.336 29.8088 215.674 29.6203 216.043 29.5412C216.533 29.3895 217.043 29.3103 217.557 29.306C218.082 29.2861 218.607 29.3415 219.117 29.4706C219.527 29.5429 219.898 29.7598 220.163 30.0822C220.288 30.3733 220.326 30.6948 220.272 31.0073C220.272 31.4855 220.171 32.0579 220.061 32.7321C219.952 33.4063 219.82 34.1747 219.648 35.0057C219.476 35.8367 219.328 36.6913 219.172 37.5459C219.016 38.4004 218.875 39.255 218.743 40.0939C218.616 40.8728 218.53 41.6579 218.485 42.4459C218.444 43.0632 218.465 43.6831 218.548 44.2961C218.579 44.7194 218.765 45.116 219.07 45.4094C219.215 45.5088 219.383 45.5672 219.557 45.5782C219.732 45.5893 219.906 45.5526 220.061 45.4721C220.534 45.2723 220.963 44.982 221.326 44.6176C221.811 44.1463 222.241 43.6202 222.605 43.0496C223.024 42.438 223.387 41.7899 223.69 41.1131C223.745 40.9268 223.836 40.7532 223.958 40.6024C224.079 40.4517 224.23 40.3268 224.4 40.235C224.53 40.1707 224.673 40.1372 224.818 40.1372C224.963 40.1372 225.105 40.1707 225.235 40.235C225.526 40.4192 225.748 40.6948 225.867 41.019C226.025 41.4427 226.053 41.9045 225.945 42.344C225.803 42.9468 225.591 43.531 225.313 44.0844C224.997 44.7374 224.629 45.364 224.213 45.9582C223.812 46.5098 223.374 47.0337 222.902 47.5262C222.563 47.9113 222.152 48.2256 221.692 48.4513C220.981 48.7112 220.233 48.8567 219.476 48.8825C218.734 48.9065 217.993 48.822 217.276 48.6316C216.606 48.48 215.966 48.2205 215.379 47.8633C214.842 47.5095 214.398 47.0308 214.084 46.4678C213.689 45.7106 213.425 44.8914 213.304 44.0452C213.143 43.0078 213.065 41.9591 213.069 40.9092C213.069 39.796 213.14 38.6591 213.257 37.491C213.374 36.3228 213.53 35.2487 213.725 34.2452C213.889 33.3609 214.102 32.4866 214.365 31.6267C214.517 31.0768 214.757 30.5552 215.075 30.0822Z" fill="#949494"/>
<path d="M77.0372 13.2026L78.6447 11.9247C78.833 11.7755 79.0311 11.6392 79.2378 11.517C79.4319 11.3978 79.6461 11.3154 79.8699 11.2739C80.0744 11.2191 80.2897 11.2191 80.4942 11.2739C80.7282 11.3667 80.9312 11.5244 81.0794 11.7287C81.2671 11.9457 81.3673 12.2253 81.3604 12.5127C81.3487 12.7942 81.2566 13.0664 81.095 13.2967C81.2451 13.2138 81.405 13.1506 81.5711 13.1085C81.7286 13.0812 81.8896 13.0812 82.0471 13.1085C82.2049 13.1328 82.3561 13.1888 82.4919 13.2732C82.6341 13.3644 82.7606 13.4783 82.8665 13.6103C83.0343 13.8045 83.1403 14.0448 83.1708 14.3002C83.1973 14.526 83.1678 14.755 83.085 14.9666C83.0034 15.1931 82.8818 15.4029 82.726 15.586C82.5716 15.7776 82.3962 15.9512 82.2031 16.1034L80.4395 17.5068L77.0372 13.2026ZM79.3782 14.1748L80.065 13.626C80.1394 13.5708 80.2052 13.5048 80.2601 13.43C80.3167 13.3622 80.3616 13.2854 80.3927 13.2026C80.4081 13.117 80.4081 13.0294 80.3927 12.9439C80.374 12.8483 80.331 12.7591 80.2679 12.6852C80.2097 12.6027 80.1281 12.5399 80.0337 12.5048C79.949 12.4854 79.861 12.4854 79.7762 12.5048C79.6859 12.5221 79.599 12.5539 79.5187 12.5989C79.4331 12.6429 79.352 12.6954 79.2768 12.7557L78.6291 13.2653L79.3782 14.1748ZM80.7907 15.9623L81.6413 15.2802C81.7181 15.2252 81.7865 15.1592 81.8442 15.0842C81.9072 15.0134 81.9544 14.9299 81.9826 14.8394C82.0109 14.7488 82.0196 14.6531 82.0081 14.5589C81.987 14.4555 81.9415 14.3587 81.8754 14.2767C81.8092 14.1836 81.7125 14.117 81.6023 14.0885C81.5022 14.0651 81.398 14.0651 81.2979 14.0885C81.1912 14.1196 81.0889 14.1644 80.9936 14.2218C80.9035 14.2755 80.8174 14.3358 80.7361 14.4021L80.0181 14.9744L80.7907 15.9623Z" fill="#949494"/>
<path d="M85.4963 10.976L82.1095 9.33746L83.3971 8.55346L85.4494 9.71378V7.28338L86.6746 6.53857L86.5419 10.3175L87.7515 12.3245L86.7136 12.9595L85.4963 10.976Z" fill="#949494"/>
<path d="M94.4236 3.13601L95.3678 2.80673L99.4101 7.23634L98.1225 7.68322L97.2953 6.74242L95.282 7.44018L95.2273 8.69459L93.9709 9.13363L94.4236 3.13601ZM95.3834 4.50018L95.3054 6.33474L96.5774 5.8957L95.3834 4.50018Z" fill="#949494"/>
<path d="M106.129 5.48801C105.816 5.73363 105.472 5.93662 105.107 6.09169C104.739 6.243 104.358 6.35597 103.967 6.42881C103.567 6.49894 103.158 6.49894 102.758 6.42881C102.395 6.36315 102.047 6.22736 101.736 6.02897C101.421 5.82815 101.155 5.56052 100.955 5.24497C100.735 4.89659 100.586 4.50738 100.518 4.10033C100.439 3.69913 100.439 3.28632 100.518 2.88512C100.591 2.52067 100.74 2.1759 100.955 1.87376C101.162 1.57439 101.427 1.32088 101.736 1.12896C102.086 0.925714 102.469 0.78512 102.867 0.71344C103.27 0.632758 103.683 0.609009 104.092 0.64288C104.467 0.67805 104.828 0.80162 105.146 1.00352L104.475 2.0776C104.29 1.94517 104.08 1.85181 103.858 1.8032C103.601 1.74953 103.335 1.74953 103.078 1.8032C102.842 1.8439 102.616 1.93188 102.414 2.06192C102.231 2.18311 102.075 2.3405 101.954 2.52448C101.836 2.71344 101.757 2.92392 101.72 3.14385C101.677 3.38235 101.677 3.62663 101.72 3.86513C101.763 4.10542 101.847 4.33628 101.97 4.54721C102.083 4.73556 102.232 4.90051 102.407 5.03329C102.588 5.15949 102.792 5.24994 103.008 5.29985C103.242 5.34695 103.483 5.34695 103.718 5.29985C103.945 5.2565 104.165 5.18267 104.373 5.08033C104.522 5.00926 104.664 4.92253 104.795 4.82161L104.631 3.93569L103.655 4.11601L103.452 3.0184L105.567 2.61856L106.129 5.48801Z" fill="#949494"/>
<path d="M110.163 0.0392151H111.162L113.753 5.45667L112.372 5.48803L111.857 4.33555L109.726 4.41395L109.313 5.60563L107.978 5.65267L110.163 0.0392151ZM110.686 1.60722L110.085 3.3477L111.428 3.29282L110.686 1.60722Z" fill="#949494"/>
<path d="M116.219 0.0705872L117.421 0.180347L117.054 4.55508L119.286 4.75892L119.184 5.8722L115.751 5.5586L116.219 0.0705872Z" fill="#949494"/>
<path d="M126.145 5.0882C126.079 5.38774 125.963 5.67396 125.802 5.93492C125.656 6.17827 125.459 6.3869 125.224 6.54644C124.988 6.70077 124.722 6.80483 124.444 6.8522C124.106 6.89787 123.762 6.88194 123.43 6.80516C123.093 6.7368 122.772 6.6037 122.485 6.41316C122.24 6.25412 122.032 6.04266 121.877 5.7938C121.73 5.55528 121.637 5.28785 121.603 5.0098C121.565 4.70365 121.581 4.39312 121.65 4.09251L122.345 0.784027L123.531 1.05059L122.813 4.31204C122.782 4.46995 122.782 4.63236 122.813 4.79028C122.834 4.93886 122.881 5.08237 122.954 5.21364C123.029 5.33799 123.13 5.44486 123.25 5.52724C123.373 5.61941 123.514 5.68362 123.664 5.7154C123.813 5.74668 123.967 5.74668 124.116 5.7154C124.257 5.68587 124.39 5.62712 124.506 5.54292C124.629 5.46085 124.732 5.35403 124.811 5.22932C124.898 5.09226 124.962 4.94109 124.998 4.78244L125.708 1.52099L126.894 1.77971L126.145 5.0882Z" fill="#949494"/>
<path d="M132.021 4.90787C131.966 4.75093 131.869 4.61245 131.74 4.50803C131.614 4.40393 131.472 4.32177 131.319 4.26499C131.233 4.23226 131.144 4.20861 131.054 4.19443C130.96 4.18271 130.866 4.18271 130.773 4.19443C130.684 4.20047 130.6 4.23327 130.531 4.28851C130.452 4.33946 130.393 4.41741 130.367 4.50803C130.336 4.57579 130.323 4.65064 130.33 4.72499C130.337 4.79934 130.363 4.87055 130.406 4.93139C130.512 5.07207 130.635 5.19854 130.773 5.30771L131.28 5.69187C131.465 5.81623 131.628 5.96979 131.764 6.14659C131.903 6.31847 132.001 6.51939 132.052 6.7346C132.1 6.99875 132.071 7.27122 131.967 7.5186C131.878 7.78098 131.732 8.01964 131.537 8.21636C131.356 8.38557 131.14 8.51387 130.905 8.59268C130.665 8.66503 130.414 8.69422 130.164 8.67892C129.897 8.65435 129.635 8.59369 129.384 8.4986C129.065 8.39096 128.769 8.22627 128.51 8.01252C128.249 7.79785 128.037 7.53078 127.885 7.22852L129.017 6.63268C129.075 6.82751 129.179 7.00516 129.321 7.15012C129.465 7.29514 129.638 7.40744 129.828 7.4794C129.925 7.51208 130.024 7.5357 130.125 7.54996C130.221 7.56185 130.318 7.56185 130.414 7.54996C130.502 7.53753 130.585 7.50242 130.656 7.44804C130.729 7.39241 130.783 7.31587 130.812 7.22852C130.84 7.15827 130.85 7.08223 130.842 7.00706C130.834 6.93189 130.807 6.85987 130.765 6.79732C130.664 6.64793 130.54 6.51561 130.398 6.40531C130.242 6.27203 130.07 6.13875 129.891 5.99763C129.706 5.86437 129.539 5.70904 129.391 5.53507C129.255 5.3617 129.157 5.16132 129.103 4.94707C129.042 4.68494 129.066 4.41006 129.173 4.16307C129.258 3.90614 129.406 3.67448 129.602 3.48883C129.779 3.31853 129.992 3.19231 130.226 3.12035C130.478 3.03634 130.743 3.00433 131.007 3.02627C131.274 3.0425 131.536 3.09797 131.787 3.19091C132.067 3.295 132.33 3.44032 132.568 3.62211C132.81 3.80337 133.01 4.03628 133.153 4.30419L132.021 4.90787Z" fill="#949494"/>
<path d="M135.783 8.52996L135.369 4.76675L136.711 5.45668L136.821 7.80868L138.849 6.53076L140.121 7.18148L136.86 9.06308L135.783 11.172L134.698 10.6232L135.783 8.52996Z" fill="#949494"/>
<path d="M143.219 9.20419L144.047 9.76867L142.946 15.68L141.815 14.896L142.072 13.6573L140.309 12.4578L139.279 13.1712L138.178 12.3872L143.219 9.20419ZM142.704 10.7722L141.198 11.8149L142.306 12.5989L142.704 10.7722Z" fill="#949494"/>
<path d="M62.7799 64.7821C62.6618 64.6376 62.5123 64.5223 62.3429 64.445C62.153 64.364 61.9483 64.3239 61.7421 64.3274C61.5242 64.3251 61.3085 64.3706 61.11 64.4606C60.9167 64.5458 60.7438 64.6714 60.6027 64.8291C60.4612 64.9978 60.3479 65.1884 60.2672 65.3936C60.1114 65.8564 60.1114 66.3577 60.2672 66.8205C60.3464 67.0223 60.457 67.2102 60.5949 67.3771C60.7311 67.5368 60.902 67.6629 61.0944 67.7456C61.2839 67.8377 61.4925 67.8833 61.703 67.8789C61.9315 67.8856 62.1576 67.8315 62.3585 67.7221C62.5501 67.6199 62.7136 67.4718 62.8346 67.2909L63.8412 68.0749C63.6185 68.3938 63.3137 68.6458 62.9594 68.804C62.6087 68.9529 62.232 69.0301 61.8513 69.0314C61.4501 69.0365 61.0511 68.9702 60.673 68.8354C60.3192 68.6926 59.998 68.4793 59.7287 68.2082C59.4618 67.949 59.2518 67.6365 59.1122 67.2909C58.8209 66.518 58.8209 65.6647 59.1122 64.8918C59.2499 64.5452 59.4602 64.2324 59.7287 63.9746C60.0002 63.7177 60.3217 63.5202 60.673 63.3944C61.0506 63.2569 61.4496 63.1879 61.8513 63.1906C62.0163 63.1914 62.1808 63.2071 62.3429 63.2376C62.5111 63.2639 62.676 63.3086 62.8346 63.3709C62.9999 63.4357 63.1571 63.5199 63.3028 63.6218C63.4581 63.7265 63.5952 63.8563 63.7086 64.0059L62.7799 64.7821Z" fill="#949494"/>
<path d="M65.7532 66.107C65.7459 65.6966 65.8202 65.2888 65.9717 64.9075C66.1098 64.5602 66.3207 64.2467 66.59 63.9883C66.8593 63.73 67.1806 63.5328 67.5324 63.4101C68.2905 63.1454 69.1153 63.1454 69.8735 63.4101C70.2215 63.5378 70.54 63.7352 70.8099 63.9902C71.0761 64.25 71.286 64.5623 71.4264 64.9075C71.7177 65.6804 71.7177 66.5337 71.4264 67.3066C71.2915 67.6425 71.0927 67.9488 70.8411 68.2082C70.5692 68.4605 70.2512 68.6576 69.9047 68.7883C69.1448 69.0424 68.3235 69.0424 67.5636 68.7883C67.2027 68.6633 66.8708 68.466 66.5882 68.2082C66.3236 67.947 66.114 67.635 65.9717 67.2909C65.8234 66.9142 65.7492 66.5121 65.7532 66.107ZM67.0095 66.107C67.0071 66.3499 67.0467 66.5913 67.1266 66.8205C67.2051 67.0279 67.3246 67.2173 67.4778 67.3771C67.6268 67.5398 67.811 67.6659 68.0162 67.7456C68.2381 67.84 68.4776 67.8854 68.7185 67.8789C68.9569 67.8855 69.1939 67.84 69.4131 67.7456C69.6191 67.6632 69.8054 67.5376 69.9593 67.3771C70.1075 67.2148 70.224 67.026 70.3027 66.8205C70.4585 66.3577 70.4585 65.8564 70.3027 65.3936C70.2223 65.1865 70.106 64.9954 69.9593 64.8291C69.8039 64.6705 69.6181 64.5451 69.4131 64.4606C69.1927 64.37 68.9566 64.3247 68.7185 64.3274C68.478 64.3247 68.2392 64.37 68.0162 64.4606C67.8129 64.544 67.6294 64.6696 67.4778 64.8291C67.326 64.9931 67.2068 65.1847 67.1266 65.3936C67.0467 65.6228 67.0071 65.8642 67.0095 66.107Z" fill="#949494"/>
<path d="M74.0483 63.3474H75.8744L77.1386 66.9459L78.4106 63.3474H80.2366V68.8354H79.027V64.6331L77.5834 68.8589H76.6625L75.2735 64.6331V68.8589H74.0483V63.3474Z" fill="#949494"/>
<path d="M82.9133 63.3474H84.7471L86.0113 66.9459L87.2833 63.3474H89.1015V68.8354H87.892V64.6331L86.4483 68.8589H85.5275L84.1384 64.6331V68.8589H82.9289L82.9133 63.3474Z" fill="#949494"/>
<path d="M91.8328 63.3474H95.5551V64.4685H93.0423V65.4955H95.3834V66.6402H93.0423V67.7378H95.6955V68.8589H91.8328V63.3474Z" fill="#949494"/>
<path d="M98.2161 63.3474H100.339C100.601 63.3483 100.863 63.3772 101.119 63.4336C101.354 63.4818 101.579 63.5721 101.782 63.7001C101.972 63.8319 102.125 64.01 102.227 64.2176C102.343 64.4624 102.402 64.7305 102.399 65.0016C102.412 65.356 102.304 65.7042 102.095 65.9894C101.879 66.2706 101.562 66.4563 101.213 66.5069L102.602 68.8589H101.158L100.027 66.6402H99.4257V68.8432H98.2161V63.3474ZM99.4257 65.6288H100.487C100.599 65.622 100.71 65.5982 100.815 65.5582C100.909 65.5192 100.992 65.4572 101.057 65.3779C101.127 65.2742 101.163 65.1506 101.158 65.0251C101.163 64.9068 101.133 64.7896 101.072 64.688C101.017 64.607 100.942 64.5421 100.854 64.4998C100.759 64.45 100.656 64.4181 100.549 64.4058C100.438 64.398 100.326 64.398 100.214 64.4058H99.4335L99.4257 65.6288Z" fill="#949494"/>
<path d="M108.376 64.7821C108.26 64.6359 108.11 64.5202 107.939 64.4449C107.75 64.3633 107.545 64.3232 107.339 64.3273C107.121 64.327 106.906 64.3724 106.706 64.4606C106.516 64.5461 106.345 64.6718 106.207 64.8291C106.063 64.9958 105.949 65.187 105.871 65.3936C105.716 65.8563 105.716 66.3577 105.871 66.8205C105.945 67.0252 106.056 67.2141 106.199 67.3771C106.334 67.5348 106.502 67.6607 106.691 67.7456C106.889 67.8409 107.107 67.8904 107.327 67.8904C107.547 67.8904 107.764 67.8409 107.963 67.7456C108.152 67.6431 108.313 67.4949 108.431 67.3144L109.438 68.0984C109.219 68.4206 108.913 68.6736 108.556 68.8275C108.208 68.9755 107.834 69.0528 107.456 69.0549C107.052 69.0606 106.65 68.9943 106.269 68.8589C105.923 68.7053 105.61 68.4841 105.349 68.2082C105.082 67.9489 104.872 67.6365 104.732 67.2909C104.441 66.518 104.441 65.6647 104.732 64.8918C104.87 64.5452 105.08 64.2324 105.349 63.9745C105.618 63.7195 105.937 63.5221 106.285 63.3944C106.665 63.2563 107.067 63.1873 107.471 63.1905C107.634 63.191 107.796 63.2068 107.955 63.2376C108.303 63.2889 108.634 63.4204 108.923 63.6217C109.076 63.7286 109.213 63.8581 109.328 64.0059L108.376 64.7821Z" fill="#949494"/>
<path d="M111.638 63.3474H112.84V68.8354H111.638V63.3474Z" fill="#949494"/>
<path d="M117.304 63.3474H118.303L120.69 68.8354H119.325L118.849 67.675H116.718L116.274 68.8589H114.939L117.304 63.3474ZM117.764 64.9154L117.101 66.6402H118.443L117.764 64.9154Z" fill="#949494"/>
<path d="M122.836 63.3474H124.077V67.7378H126.317V68.8589H122.868L122.836 63.3474Z" fill="#949494"/>
<path d="M132.349 63.3474H134.472C134.734 63.3483 134.996 63.3772 135.252 63.4336C135.485 63.4804 135.708 63.5708 135.907 63.7001C136.097 63.8338 136.253 64.0113 136.36 64.2176C136.473 64.4631 136.529 64.7312 136.524 65.0016C136.537 65.356 136.429 65.7042 136.22 65.9894C136.114 66.1302 135.982 66.2485 135.831 66.3374C135.679 66.4262 135.512 66.4839 135.338 66.5069L136.735 68.8589H135.283L134.152 66.6402H133.559V68.8432H132.349V63.3474ZM133.559 65.6288H134.612C134.724 65.6237 134.835 65.5999 134.94 65.5582C135.036 65.5194 135.122 65.4575 135.19 65.3779C135.257 65.2733 135.29 65.1497 135.283 65.0251C135.291 64.9064 135.261 64.7883 135.197 64.688C135.146 64.6038 135.07 64.538 134.979 64.4998C134.886 64.4511 134.786 64.4192 134.682 64.4058H134.347H133.566L133.559 65.6288Z" fill="#949494"/>
<path d="M138.966 63.3474H142.697V64.4685H140.176V65.4955H142.556V66.6402H140.176V67.7378H142.806V68.8589H138.904L138.966 63.3474Z" fill="#949494"/>
<path d="M146.419 64.4214H144.858V63.3474H149.197V64.4214H147.636V68.8589H146.435L146.419 64.4214Z" fill="#949494"/>
<path d="M152.443 63.3474H153.45L155.83 68.8354H154.511L154.035 67.675H151.905L151.39 68.8589H150.055L152.443 63.3474ZM152.912 64.9154L152.248 66.6402H153.583L152.912 64.9154Z" fill="#949494"/>
<path d="M157.921 63.3474H159.131V68.8354H157.921V63.3474Z" fill="#949494"/>
<path d="M161.823 63.3474H163.033V67.7378H165.272V68.8589H161.823V63.3474Z" fill="#949494"/>
</g>
<defs>
<clipPath id="clip0">
<rect width="226" height="69" fill="white"/>
</clipPath>
</defs>
</svg>
