<svg width="164" height="121" viewBox="0 0 164 121" fill="none" xmlns="http://www.w3.org/2000/svg">
<g opacity="0.4">
<path d="M81.177 0L40.5637 83.7745L42.3378 92.4149L48.962 88.371L59.6142 64.373L81.1863 83.7055L101.68 64.373L113.699 88.3673L120.048 91.8641L121.141 83.7745L81.177 0ZM81.177 70.5434L64.8119 55.7346L81.177 21.1826L97.9922 55.7346L81.177 70.5434Z" fill="black"/>
<path d="M66.8938 21.4066L55.5164 24.0633L58.8694 37.9554L53.3685 49.3047L46.5026 17.8929L72.2422 10.3728L66.8938 21.4066Z" fill="black"/>
<path d="M95.5552 21.4066L106.931 24.0633L103.578 37.9554L109.079 49.3047L115.945 17.8929L90.2068 10.3728L95.5552 21.4066Z" fill="black"/>
<path d="M10.2431 103.792H5.59389L0 120.518L4.02804 120.587L4.84816 117.992H10.721C10.8568 117.992 11.7457 120.528 11.7457 120.528H15.7068L10.2431 103.792ZM5.95094 114.555L7.86268 108.111L9.77442 114.555H5.95094Z" fill="black"/>
<path d="M26.5633 114.281C26.5633 114.281 29.4309 113.595 29.4309 109.483C29.4309 104.341 24.9249 103.861 24.9249 103.861H17.2761V120.587H21.0996V115.104H22.6022L26.965 120.587H31.3352L26.5633 114.281ZM24.1736 111.667H21.0996V107.425H23.8463C23.8463 107.425 25.6074 107.494 25.6074 109.344C25.6074 111.607 24.1755 111.676 24.1755 111.676L24.1736 111.667Z" fill="black"/>
<path d="M141.831 114.281C141.831 114.281 144.699 113.595 144.699 109.483C144.699 103.861 140.193 103.861 140.193 103.861H132.544V120.587H136.369V115.104H137.87L142.24 120.587H146.612L141.831 114.281ZM138.989 111.667H136.369V107.425H139.002C139.34 107.42 139.673 107.505 139.968 107.672C140.405 107.925 140.875 108.437 140.875 109.464C140.877 109.715 140.853 109.965 140.804 110.211C140.716 110.627 140.487 111 140.156 111.267C139.826 111.534 139.414 111.678 138.989 111.676V111.667Z" fill="black"/>
<path d="M33.9391 107.561V120.587H37.7625V107.561H41.7236V103.861H30.2513V107.561H33.9391Z" fill="black"/>
<path d="M43.0891 103.861H46.7768V115.515C46.7768 115.515 47.0279 117.298 49.5087 117.298C51.6938 117.298 51.8296 115.651 51.8296 115.651V103.861H55.5173V116.474C55.5173 116.474 54.9705 121 49.2353 121C43.5001 121 43.0891 116.2 43.0891 116.2V103.861Z" fill="black"/>
<path d="M58.1123 120.587V103.861H62.4825L66.5794 113.321L70.6762 103.861H74.7731V120.587H71.0854V110.578L67.8086 117.845H65.3501L61.9358 110.578V120.587H58.1123Z" fill="black"/>
<path d="M125.73 103.824H121.081L115.485 120.55L119.513 120.619L120.334 118.005H126.206C126.342 118.005 127.229 120.541 127.229 120.541H131.19L125.73 103.824ZM121.436 114.587L123.348 108.142L125.262 114.587H121.436Z" fill="black"/>
<path d="M155.496 103.861H147.844V120.587H156.584C158.769 120.587 163.002 118.257 163.002 111.813C163.002 107.746 161.038 105.753 159.24 104.778C158.087 104.166 156.801 103.852 155.496 103.861ZM155.024 116.885H151.665V107.425H154.756C155.36 107.419 155.96 107.534 156.519 107.763C157.078 107.992 157.587 108.33 158.014 108.758C158.723 109.483 159.316 110.579 159.316 112.223C159.316 113.973 158.676 115.076 157.938 115.771C157.142 116.499 156.101 116.897 155.024 116.885Z" fill="black"/>
<path d="M95.9418 109.483H99.9029C99.9029 109.483 99.0828 103.587 92.1183 103.587C85.1539 103.587 83.787 108.254 83.3779 110.03C82.9688 111.805 82.8312 117.434 87.2014 119.902C91.5716 122.37 95.3969 119.766 96.2152 118.942V120.587H99.9029V111.676H92.1183V114.83H95.9418C95.9418 114.83 94.986 117.443 91.5716 117.443C88.1572 117.443 87.2014 113.879 87.2014 113.879C87.2014 113.879 86.2343 109.031 89.9332 107.836C90.983 107.467 92.1197 107.426 93.1928 107.721C94.2658 108.015 95.2245 108.629 95.9418 109.483Z" fill="black"/>
<path d="M102.362 103.861H106.05V115.515C106.05 115.515 106.597 117.298 108.782 117.298C110.967 117.298 111.103 115.651 111.103 115.651V103.861H114.79V116.474C114.79 116.474 114.243 121 108.508 121C102.773 121 102.362 116.2 102.362 116.2V103.861Z" fill="black"/>
</g>
</svg>
