<svg width="176" height="154" viewBox="0 0 176 154" fill="none" xmlns="http://www.w3.org/2000/svg">
<path d="M124.022 99.4054C124.699 96.7848 120.178 95.9112 120.1 99.6792C120.034 102.678 123.487 101.479 124.022 99.4054Z" fill="#949494"/>
<path d="M86.3122 102.743C87.7846 103.382 89.9867 102.613 90.1692 100.905C90.2864 99.8358 90.1561 97.9192 89.1919 97.2151C87.5892 96.0287 86.2471 97.3064 85.804 98.897C85.4783 100.11 84.9831 102.157 86.3122 102.743Z" fill="#949494"/>
<path d="M74.2332 95.9895C72.0181 99.7575 77.3344 101.531 78.911 98.7014C80.5789 95.6896 75.9792 93.0168 74.2332 95.9895Z" fill="#949494"/>
<path d="M59.0139 103.695C58.7794 105.416 58.9618 107.632 61.2551 107.463C62.506 107.372 63.5875 106.694 63.6787 105.364C63.9003 101.935 59.5091 100.123 59.0139 103.695Z" fill="#949494"/>
<path d="M47.0913 103.656C46.2704 106.198 50.2837 107.841 51.2349 105.455C52.3946 102.509 48.0555 100.683 47.0913 103.656Z" fill="#949494"/>
<path d="M83.4195 122.926C83.9928 123.382 84.9571 122.965 85.2567 122.339C85.9213 120.905 83.9668 118.962 83.0416 120.697C82.7158 121.309 82.8592 122.483 83.4195 122.926Z" fill="#949494"/>
<path d="M93.4788 139.302C93.974 138.702 94.2215 137.568 93.6352 136.942C93.1531 136.42 92.2409 136.407 91.7849 136.981C91.3679 137.489 91.2507 138.637 91.6416 139.197C92.0455 139.771 92.9967 139.875 93.4788 139.302Z" fill="#949494"/>
<path d="M96.984 131.453C97.1794 131.192 96.9318 130.684 96.6191 130.449C96.3976 130.279 96.0458 130.644 95.9546 130.866C95.8503 131.088 95.8894 131.427 96.0979 131.583C96.2543 131.701 96.7885 131.714 96.984 131.453Z" fill="#949494"/>
<path d="M96.8927 128.18C97.01 128.206 97.1533 128.128 97.2185 128.037C97.3227 127.92 97.3618 127.75 97.3748 127.607C97.4009 127.346 97.3227 126.942 96.997 126.903C96.6712 126.863 96.5279 127.281 96.5149 127.541C96.5279 127.815 96.593 128.115 96.8927 128.18Z" fill="#949494"/>
<path d="M101.844 136.603C101.805 135.469 100.072 135.612 100.085 136.759C100.085 137.985 101.883 137.711 101.844 136.603Z" fill="#949494"/>
<path d="M97.2706 137.098C97.01 138.037 98.4433 138.389 98.743 137.463C99.0297 136.577 97.5051 136.251 97.2706 137.098Z" fill="#949494"/>
<path d="M165.588 11.3337C164.65 12.0769 165.406 13.2633 166.292 13.7066C166.943 14.0326 169.927 14.7627 170.162 13.85C170.396 12.9504 166.526 10.5905 165.588 11.3337Z" fill="#949494"/>
<path d="M149.795 33.9025C149.04 32.1423 152.011 30.3561 154.108 29.0654C157.223 27.1488 159.099 24.124 160.154 22.2204C160.91 20.8514 162.383 21.2165 162.774 21.751C163.933 23.7459 161.21 28.0223 157.757 30.6169C154.565 33.0159 150.799 36.0407 149.795 33.9025Z" fill="#949494"/>
<path d="M145.926 34.8673C144.479 34.8543 142.863 36.7709 143.333 37.9443C144.036 39.4436 146.851 38.3485 147.45 37.0447C147.893 35.7278 147.372 34.8673 145.926 34.8673Z" fill="#949494"/>
<path d="M36.1459 71.5562C36.1459 68.8704 31.7156 69.9525 27.7544 68.9877C23.3241 68.0229 20.1578 64.7764 19.0111 66.3671C17.5387 68.388 20.9396 70.6566 24.9529 71.9865C29.722 73.5641 36.1459 73.9552 36.1459 71.5562Z" fill="#949494"/>
<path d="M38.817 71.6475C38.5043 68.9356 43.2734 69.2746 43.4167 71.2564C43.547 73.2251 39.1037 74.1117 38.817 71.6475Z" fill="#949494"/>
<path d="M165.901 15.2453C167.047 17.8529 167.569 21.1124 166.266 26.1972C165.393 29.7305 160.689 33.655 153.509 38.4008C151.945 39.4438 134.733 52.3254 110.158 62.2604C108.881 60.422 107.903 57.9448 107.669 57.5015C110.392 54.1246 106.783 53.7596 103.043 55.0634C98.6649 56.5888 94.2737 60.2655 100.997 60.6828C100.997 60.6828 102.17 63.4859 102.626 65.0896C102.626 65.0896 98.9906 66.3021 98.2088 66.5368C96.3715 64.3986 95.4855 62.2734 95.2509 61.9866C100.45 53.225 78.481 63.9683 88.2928 64.3464C88.7619 66.2891 89.4395 67.8667 89.7392 68.8837C61.6721 76.0285 32.2498 78.0755 24.9399 75.7808C17.8254 73.5252 13.9033 70.5265 12.4699 65.9632C10.4763 68.8967 8.613 68.3361 8.13088 67.3321C7.64877 66.3282 7.60967 64.1769 8.32634 62.9514C2.25425 63.2121 2.85364 60.3959 9.14724 59.5484C6.07211 49.1702 10.5024 51.8169 12.4178 55.5197C13.1345 51.9994 14.9066 49.1702 19.2326 47.2275C28.7056 43.0293 47.5994 49.4831 90.2343 36.1713C120.438 26.7448 143.124 5.98829 151.085 5.37551C156.363 4.97133 159.672 6.99222 161.874 9.20868C164.324 -0.022232 165.992 4.81487 167.034 8.06134C170.188 8.06134 173.028 8.34817 170.279 11.4903C173.823 13.0288 175.595 17.9833 165.901 15.2453ZM149.587 116.811C151.515 117.385 151.476 112.444 153.952 114.634C155.438 115.951 153.405 121.349 149.848 121.179C147.189 121.062 145.613 120.032 144.401 117.854C142.994 115.299 143.528 112.066 144.166 109.367C144.818 106.59 146.355 102.131 148.01 99.8229C149.483 97.7889 152.037 99.9793 152.61 102.144C153.418 105.129 151.203 108.089 149.965 110.631C148.962 112.73 146.395 115.847 149.587 116.811ZM104.033 133.591C104.528 133.213 106.47 132.157 106.991 132.105C107.916 132.014 108.359 132.874 107.747 133.513C107.213 134.1 105.362 134.491 105.128 135.182C104.945 135.703 105.375 135.925 105.871 135.834C106.301 135.743 106.861 135.299 107.291 135.599C108.307 136.316 105.493 137.138 106.587 137.763C107.069 138.037 107.734 137.411 108.099 137.138C108.49 136.838 108.841 136.577 109.402 136.655C110.04 136.747 110.079 137.307 109.819 137.711C109.48 138.233 108.933 138.585 108.424 138.911C107.395 139.55 106.418 139.967 105.48 139.276C104.581 138.598 104.177 137.281 103.812 136.264C103.629 135.756 103.473 135.417 103.356 134.882C103.265 134.334 103.642 133.878 104.033 133.591ZM102.339 124.256C99.5248 123.122 100.424 117.763 103.121 117.307C104.307 117.111 105.962 117.633 106.288 119.054C106.418 119.615 106.261 120.162 105.858 120.579C105.454 120.997 104.476 120.957 104.776 120.266C105.011 119.706 105.011 119.158 104.177 118.911C103.616 118.819 103.095 119.328 102.808 119.784C102.079 120.944 102.509 122.978 104.072 122.665C104.672 122.548 105.245 122.053 105.871 122.079C106.704 122.118 106.483 122.809 106.079 123.304C105.193 124.4 103.538 124.739 102.339 124.256ZM94.9512 132.027C94.5734 131.284 94.9121 130.436 95.3552 129.836C95.4725 129.667 95.9285 129.145 95.9285 129.145C95.9285 129.145 95.4594 128.376 95.5246 127.529C95.6028 126.681 96.2282 125.769 97.3879 125.951C98.5346 126.134 98.6909 128.389 97.2055 129.184C97.6355 129.602 98.0915 130.358 98.0915 130.358C98.0915 130.358 98.3652 129.823 98.8733 129.589C99.1209 129.471 99.6421 129.875 99.4727 130.084C99.3424 130.254 99.1339 130.54 99.0167 130.723C98.7821 131.088 99.4727 131.101 99.4467 131.466C99.4336 131.636 99.2903 131.962 99.1339 132.04C98.9776 132.118 98.5085 131.896 98.2739 131.753C97.9221 132.092 97.6485 132.666 96.593 132.731C95.9676 132.796 95.2509 132.613 94.9512 132.027ZM90.3255 136.147C91.2116 134.791 92.9967 134.113 94.3258 135.338C95.6158 136.525 95.4594 138.507 94.6776 139.928C94.2867 140.619 93.7394 141.414 92.9316 141.636C92.1497 141.857 91.1464 141.584 90.4428 141.206C88.6576 140.241 89.4525 137.503 90.3255 136.147ZM83.3804 117.776C85.1265 117.15 86.7292 118.754 87.0028 120.371C87.2764 121.987 86.9116 124.699 84.931 125.038C83.2631 125.325 81.6604 125.104 81.3347 122.874C81.1001 121.179 81.5301 118.441 83.3804 117.776ZM91.6546 119.21C91.5634 118.963 91.3549 118.793 91.1073 118.728C90.6122 118.611 89.9737 118.884 89.661 119.236C88.9964 119.993 89.0225 121.792 90.0388 122.274C90.6773 122.574 91.3288 122.118 91.9022 121.87C92.3061 121.688 92.9576 121.505 93.2443 122.014C93.4919 122.457 93.0488 123.044 92.7491 123.33C92.3322 123.709 91.7458 123.969 91.2116 124.113C90.2604 124.373 89.2049 124.295 88.4492 123.617C87.6283 122.887 87.4589 121.701 87.537 120.658C87.6152 119.654 87.7977 118.532 88.5925 117.815C89.3352 117.15 90.3907 117.033 91.3419 117.098C92.5928 117.176 93.2703 118.324 93.114 119.484C93.0488 119.993 92.9316 120.501 92.4103 120.697C91.824 120.918 91.5894 120.384 91.6546 119.927C91.7067 119.628 91.7588 119.523 91.6546 119.21ZM95.9155 121.362C96.5149 121.635 97.01 120.175 97.1664 119.849C97.4921 119.106 98.4043 117.072 99.3555 116.968C100.424 116.851 100.059 119.562 100.059 120.188C100.059 121.218 100.215 122.991 99.1991 123.669C98.6518 124.034 98.1176 123.422 98.0655 122.861C98.0133 122.353 98.2479 121.831 98.3652 121.349C98.4173 121.153 98.8473 119.901 98.4955 119.823C98.2218 119.758 97.7918 121.036 97.7006 121.244C97.3097 122.118 96.8537 123.93 95.5897 123.813C94.3518 123.709 93.987 122.548 93.974 121.505C93.9609 120.41 93.5961 118.467 94.1825 117.489C94.4952 116.968 95.2509 116.994 95.6028 117.424C96.0067 117.907 95.8894 119.028 95.8373 119.602C95.8112 119.888 95.5506 121.192 95.9155 121.362ZM79.7059 110.358C78.6374 106.72 81.1001 101.466 81.1001 101.466C79.9665 104.034 74.9238 103.773 74.0768 105.52C73.0214 108.063 75.6274 109.836 75.0671 113.083C74.6762 115.338 71.3274 114.673 70.0114 110.918C70.8062 113.865 69.9723 115.821 67.8484 115.495C66.2196 115.234 66.0632 114.034 65.2423 112.835C64.4605 111.701 63.1054 110.201 61.229 110.345C58.8315 110.527 59.1442 112.026 59.0009 113.291C58.8575 114.556 58.8966 117.32 57.3591 118.037C55.9909 118.689 54.8833 118.376 54.0754 117.098C53.2285 115.768 53.463 113.982 53.6454 112.496C53.7236 111.831 54.1145 108.402 54.2579 107.802C52.9679 108.923 48.6028 109.966 48.3682 112.717C48.1337 115.468 52.9679 119.901 49.2934 121.101C46.127 122.131 44.4852 117.346 43.4819 115.234C42.661 113.526 39.7683 106.577 40.1592 105.012C40.8498 102.144 45.0976 100.527 47.5082 99.7446C50.5182 98.8059 54.0885 99.0536 55.6 101.87C56.0951 100.149 56.9942 96.772 58.9878 96.2505C60.6687 95.8072 62.4278 97.45 63.5354 98.5712C65.2814 100.383 66.9884 102.822 68.4738 106.824C68.3957 104.777 66.9754 98.2062 68.2914 95.8463C70.0635 92.678 81.6604 89.7054 82.9113 95.9767C83.3804 94.9597 84.6965 92.2347 86.234 91.5828C87.7846 90.9309 89.1528 91.7784 90.1561 92.9388C92.8664 96.0679 94.2346 101.009 94.9122 104.999C95.2249 106.798 96.1631 111.831 93.2964 112.183C90.5991 112.522 90.8988 108.193 89.1398 106.537C88.397 105.846 86.7031 105.168 85.778 106.029C85.2568 106.537 85.1004 108.61 84.7746 109.484C83.7452 112.261 80.7613 113.982 79.7059 110.358ZM78.6765 121.14C78.2726 119.81 76.8783 120.605 76.3701 121.31C75.6535 122.326 75.9662 124.243 77.2562 124.569C78.5983 124.908 79.0544 123.617 80.3704 123.5C81.2304 123.422 81.2304 124.295 80.9177 124.791C80.5268 125.416 79.8492 125.847 79.1977 126.16C77.9598 126.759 77.0738 126.825 75.7708 126.251C73.3341 125.169 73.1517 121.023 75.2626 119.51C76.2398 118.819 77.621 118.35 78.8198 118.624C80.0577 118.911 80.6962 120.592 80.3313 121.714C80.1619 122.248 79.5756 122.952 78.9241 122.6C78.2726 122.248 78.8329 121.662 78.6765 121.14ZM87.8367 138.533C87.8889 138.976 87.6022 139.55 87.1201 139.615C86.651 139.667 86.2861 139.341 86.1298 138.937C85.9083 138.376 85.7649 137.633 85.6477 137.059C85.6086 136.838 85.5955 136.108 85.2828 135.964C84.9571 135.821 84.5662 137.503 83.9016 137.959C83.4456 138.246 82.8331 137.816 82.7289 137.333C82.6116 136.799 83.1328 135.938 83.3543 135.482C83.628 134.934 84.4359 133.135 84.7355 132.613C84.9831 132.183 85.3089 131.544 85.8171 131.388C86.234 131.258 87.0289 131.466 87.1852 131.975C87.3286 132.444 86.1689 133.787 86.4034 134.269C86.5989 134.7 87.967 133.813 88.4752 133.552C89.0095 133.278 89.5828 133.148 90.1561 133.344C90.5731 133.487 90.9249 133.969 90.547 134.387C89.687 135.338 88.2407 134.947 87.2374 135.651C86.2731 136.355 87.7325 137.711 87.8367 138.533ZM100.711 139.823C100.841 140.436 101.714 141.531 100.385 142.092C99.5248 142.457 99.2512 141.844 99.173 140.971C99.1209 140.41 99.2382 139.55 98.7952 139.289C98.4173 139.067 96.5149 139.693 96.0979 138.324C95.4725 136.108 97.2576 135.638 98.5997 135.26C99.9288 134.882 102.365 134.087 102.978 136.251C103.199 137.033 102.769 137.907 102.066 138.259C101.18 138.676 100.502 138.78 100.711 139.823ZM111.943 125.221C110.223 127.059 109.441 122.548 108.477 122.6C108.294 122.639 108.268 124.439 108.164 124.686C108.06 124.934 107.721 125.273 106.978 124.843C106.457 124.543 106.665 123.63 106.705 123.122C106.757 122.34 107.069 120.658 107.148 119.875C107.226 119.145 107.239 117.45 108.737 117.854C109.402 118.037 109.115 119.002 109.037 119.523C109.011 119.758 108.815 120.345 108.92 120.41C109.284 120.645 109.767 120.071 109.936 119.875C110.431 119.328 110.939 118.897 111.63 118.545C111.995 118.363 113.115 118.298 113.037 119.132C112.894 120.658 110.666 120.527 110.21 121.753C109.832 122.848 112.777 123.826 111.943 125.221ZM117.884 122.431C117.507 122.209 115.721 125.456 115.422 125.782C114.523 126.759 113.167 126.394 112.711 125.169C112.49 124.582 112.594 123.904 112.737 123.304C112.907 122.548 112.985 121.779 113.141 121.023C113.259 120.41 113.454 119.562 113.936 119.119C114.379 118.715 114.822 118.689 115.187 119.184C115.904 120.136 114.796 121.987 114.575 123.07C114.353 124.191 114.901 123.878 115.474 123.291C115.721 123.044 116.204 122.392 116.542 121.87C117.507 120.423 119.227 118.989 119.722 120.11C120.047 120.84 119.735 124.034 119.539 124.843C119.357 125.56 119.214 126.486 118.536 126.812C117.832 127.151 117.168 126.616 117.194 125.86C117.22 125.091 117.35 124.673 117.611 124.139C117.728 123.878 118.223 122.639 117.884 122.431ZM112.724 99.7186C110.926 100.253 111.004 98.6886 109.91 97.8932C108.972 97.2153 107.486 97.5673 106.248 98.4017C103.629 100.188 102.209 104.034 104.125 106.772C105.519 108.767 110.301 108.689 110.952 106.277C111.278 105.077 110.444 104.634 109.558 104.921C108.75 105.181 108.542 106.003 108.138 106.146C106.483 106.759 105.493 105.234 106.209 103.487C106.9 101.805 109.428 101.492 111.031 101.739C112.503 101.961 114.106 102.952 114.575 103.852C114.966 101.231 115.096 95.0379 117.976 93.7602C120.92 92.4434 126.771 94.1253 127.787 97.3065C128.4 99.2362 127.201 102.105 125.546 103.304C123.761 104.608 122.849 103.734 122.953 105.377C123.044 106.837 124.491 107.307 125.442 108.65C125.872 109.223 126.028 109.719 126.054 110.227C126.341 109.406 126.432 109.132 126.706 108.206C127.318 106.12 126.002 105.442 127.162 103.434C128.817 100.553 134.759 101.088 132.035 105.586C131.358 106.707 130.667 107.294 130.146 108.545C129.494 110.123 129.976 111.701 129.911 113.252C129.833 114.804 128.765 116.133 126.797 115.716C125.403 115.416 125.194 113.917 125.338 112.731C124.986 112.926 124.843 113.252 123.761 113.2C121.963 113.109 120.477 110.371 120.087 107.776C119.982 107.124 119.956 105.873 119.161 105.625C118.393 105.377 118.197 106.238 118.158 106.994C118.08 108.676 118.653 112.639 115.982 113.395C115.304 113.591 114.301 113.435 113.949 112.822C113.754 112.47 113.519 111.114 113.767 109.862C111.838 113.304 106.235 113.252 103.278 112.144C98.2349 110.723 97.6485 106.107 97.844 102.665C98.0394 99.2231 99.4467 95.9767 102.405 93.7602C104.958 91.8566 108.451 90.9831 111.122 92.4825C114.379 94.3078 114.783 98.9754 112.724 99.7186ZM136.218 112.704C136.544 114.126 137.573 114.595 138.576 114.152C139.515 113.734 139.658 111.805 140.948 111.909C143.919 112.626 141.86 116.655 140.805 117.515C138.642 119.289 135.54 118.871 133.703 116.968C131.71 114.895 131.449 112.744 131.892 110.006C132.465 106.446 134.563 102.952 136.114 99.4448C137.156 97.0849 139.71 94.6207 141.912 97.7368C143.775 100.384 141.547 103.786 139.645 106.068C138.199 107.815 135.632 110.136 136.218 112.704ZM133.325 94.2556C135.814 95.5855 133.664 101.283 130.485 99.3665C127.41 97.2544 129.729 92.326 133.325 94.2556ZM135.11 64.6985C136.153 67.8928 134.068 68.9358 133.377 70.1875C132.687 71.4391 133.547 72.9385 131.41 74.7638C130.98 73.9815 129.794 72.0128 130.693 70.0701C131.592 68.1275 134.329 68.4143 135.11 64.6985ZM131.657 64.3725C131.657 64.3725 129.833 63.0817 129.924 60.5524C130.016 57.697 132.335 58.2446 132.934 55.4284C134.693 58.9487 130.993 58.9878 131.657 64.3725ZM115.526 72.5343C121.038 76.0676 115.813 81.0612 117.858 82.9647C121.676 83.0951 118.145 76.7717 119.37 73.8642C120.282 71.5956 120.907 71.2435 121.35 69.7703C121.807 68.297 120.751 64.9331 123.93 63.5902C121.833 65.7545 123.292 68.5316 122.849 70.6959C122.627 71.7781 121.572 73.6295 121.611 75.1158C121.637 76.6022 122.732 77.4888 123.448 77.2932C124.165 77.0976 125.038 75.2201 124.1 72.2996C125.403 73.7077 125.95 75.1941 125.794 76.9151C125.624 79.1967 122.979 78.4145 123.8 85.9243C127.618 86.6805 125.637 82.5084 126.732 80.0833C127.826 77.6713 129.247 78.3884 128.504 75.3636C131.319 78.8186 127.735 79.8095 128.087 82.6518C128.413 85.2594 130.12 86.8109 129.012 88.8318C124.634 88.1799 119.969 87.6062 115.07 87.163C110.952 80.5788 119.852 79.5488 115.526 72.5343ZM100.984 57.8405C102.04 57.2016 103.473 56.5106 105.441 56.1977C107.812 61.4129 110.366 66.7194 112.242 71.7651C107.46 75.6895 106.548 78.3493 111.252 86.8501C109.454 86.7066 107.63 86.5893 105.792 86.498C101.818 77.6974 101.87 77.567 94.8209 77.9581C92.71 72.443 91.0031 67.1626 89.1919 61.8171C89.9998 61.2304 91.8501 60.5263 93.3616 60.3698C96.5149 67.619 99.7985 71.5565 102.509 70.8133C105.571 69.5486 104.059 63.9162 100.984 57.8405ZM68.7344 77.4366C68.3566 79.8486 70.5587 79.7574 71.0017 81.8174C71.4447 83.8774 69.6075 86.85 73.1386 86.0417C75.458 81.9347 69.1384 82.2867 74.2462 75.1941C73.712 81.7131 79.5104 78.4796 79.5104 83.76C82.4162 84.1121 80.9698 81.5957 80.6832 80.1355C80.1228 77.3845 82.6637 77.1107 82.4683 75.3766C83.3283 76.6413 82.4944 77.1367 82.4031 78.2841C82.3119 79.4314 82.8983 80.5657 83.641 80.5266C84.3707 80.4875 85.1004 79.3402 85.2828 77.7495C85.4652 76.1589 85.0222 74.7508 84.2143 73.0558C91.394 78.2319 84.2534 82.4823 88.371 83.8383C90.6252 84.5945 91.4852 82.5866 90.8597 81.4132C90.1952 80.1485 88.4752 79.6661 90.7946 76.211C90.1952 80.1485 93.0097 78.7665 93.7915 81.5045C94.1434 82.73 94.4431 83.8904 95.7331 84.5032C97.023 85.116 99.59 84.6727 99.16 82.8604C100.88 83.5775 100.958 85.3116 101.088 86.2503C100.255 86.2242 98.8473 86.1981 98.0003 86.1851C87.2243 85.9895 76.6307 86.9804 66.9232 88.7406C65.4899 86.1721 67.9135 84.9726 68.4738 83.0429C69.0472 81.1133 66.8972 79.7052 68.7344 77.4366ZM67.1448 81.348C67.1969 82.4693 66.5063 83.0429 66.1154 83.2124C66.2457 81.5827 64.1478 81.4784 64.0045 79.5879C63.9784 78.2058 65.3857 77.2932 65.3857 77.2932C64.213 79.4314 67.0535 79.5096 67.1448 81.348ZM136.101 87.0065C148.545 89.0013 156.48 91.2308 162.174 93.2648C164.037 93.9297 166.083 95.2205 166.787 97.4891C167.308 99.1579 166.956 101.361 165.992 104.243C165.354 106.381 160.754 121.44 160.22 123.513C159.308 126.668 157.952 129.184 156.05 130.371C154.148 131.557 149.952 130.384 147.346 129.706C141.678 128.22 135.501 126.564 127.006 124.452C127.253 126.199 127.318 127.894 127.527 129.758C127.853 132.77 128.022 136.525 127.058 138.102C125.781 140.189 121.012 140.41 115.422 139.902C102.261 155.756 87.094 150.528 76.3571 139.771C73.1126 139.993 68.4738 139.889 66.9102 138.559C65.4378 137.32 65.4508 135.495 65.7766 132.939C66.0502 130.749 66.4151 127.868 66.9102 124.23C59.3918 127.059 52.3424 129.706 47.4431 131.44C42.5698 132.965 40.1592 131.805 36.7583 124.934C35.1165 121.635 30.5559 111.335 29.6698 109.262C25.7087 99.9924 28.6926 97.6846 32.0935 95.9767C37.7616 93.1474 47.9512 89.7966 59.053 87.2151C58.0757 84.451 56.9942 81.5827 55.7954 78.4145C56.9682 78.2319 58.4406 77.9972 60.0042 77.7365C61.4375 81.7652 62.7927 85.5332 64.0957 89.2099C51.9645 91.6089 42.2961 94.9858 36.9537 97.802C34.3477 99.171 30.2171 101.166 32.9795 108.167C33.8004 110.149 38.1655 119.941 39.7292 123.083C42.9607 129.615 45.9706 128.663 50.6094 127.216C55.2742 125.56 61.9587 122.77 70.2199 120.527C69.7508 123.982 69.2556 127.607 68.995 129.68C68.6823 132.118 68.0178 134.608 69.1775 135.899C70.3372 137.19 74.585 137.02 77.5689 136.72C87.2634 147.32 102.105 152.392 114.418 136.877C119.748 137.359 123.188 137.777 124.4 135.782C125.312 134.282 125.051 132.235 124.751 129.38C124.556 127.607 124.035 122.626 123.787 120.723C132.296 122.718 139.176 124.569 144.557 125.977C148.74 127.072 154.916 129.536 157.053 122.131C157.561 120.162 162.018 105.416 162.63 103.382C164.806 96.9154 161.001 96.3808 157.926 95.2856C152.506 93.343 143.645 91.1526 131.801 89.249C136.466 73.3166 140.766 57.9448 143.098 49.6265C144.127 48.9877 146.238 47.4752 147.711 46.4583C146.03 55.1807 141 70.2527 136.101 87.0065ZM53.3718 35.6237C55.7303 36.5885 57.2418 37.9184 57.1506 40.4217C55.9779 40.5781 54.8182 40.7216 53.6715 40.8519C54.3751 39.1309 54.6227 37.6055 53.3718 35.6237ZM66.2978 38.5572C66.2326 36.1974 63.8351 35.6889 63.9002 33.9157C63.9524 32.7553 65.8939 31.3733 65.8939 31.3733C64.3433 34.5937 69.6856 34.6328 66.2978 38.5572ZM85.2698 36.6146C84.3707 36.9796 82.0513 37.6055 81.2304 37.801C80.631 34.4242 80.4356 31.5689 80.7353 29.5871C81.8168 31.9079 83.9146 34.8414 85.2698 36.6146ZM95.9937 33.0031C95.3812 33.329 93.2182 34.1374 92.7752 34.2547C91.8631 31.7123 90.9901 30.0173 90.2343 28.8309C92.4103 29.7436 94.2867 31.1386 95.9937 33.0031ZM69.0602 25.1933C80.1619 23.7982 95.1988 23.4462 109.428 24.3328C107.395 25.3889 105.154 26.3928 102.743 27.3576C87.6152 26.81 72.2787 27.501 61.646 29.8348C55.0788 31.4646 51.9124 32.4424 49.8537 34.8153C48.3682 36.5364 47.9643 38.831 48.1988 41.3604C46.9088 41.4778 45.5406 41.5951 44.1073 41.7124C44.0943 41.6212 44.0943 41.5429 44.0813 41.4517C43.4558 32.9248 44.407 28.4658 69.0602 25.1933ZM153.196 134.348C157.574 135.547 159.816 133.761 161.405 129.054C162.018 126.838 168.259 108.702 169.132 105.651C170.005 102.613 171.66 98.4408 170.11 94.9858C167.021 88.2842 147.398 85.8592 141.065 84.3207C145.235 70.0962 150.747 54.4767 152.597 43.0423C161.041 37.2013 172.116 32.9379 170.5 18.7134C175.843 19.0785 178.071 14.3848 173.628 10.7472C175.243 7.56589 173.08 6.17083 169.106 5.6493C166.63 -1.92578 162.226 -1.33907 160.181 4.18905C148.792 -5.64161 133.338 12.7159 114.692 20.969C109.284 20.0954 69.0602 18.5439 49.6452 24.737C35.5465 28.857 38.6086 40.1348 38.7389 41.9211C33.9698 42.1166 30.9207 42.1818 27.2592 42.2209C20.7832 42.2861 15.9751 42.938 10.9975 49.0659C5.09484 47.3449 3.68758 50.7217 5.5509 57.3059C-1.71996 61.1782 -1.60269 64.3595 4.46939 64.9853C5.05575 68.8054 5.87666 72.4561 11.0236 71.1914C11.7403 72.3779 16.5614 77.9581 25.6305 79.6922C34.7907 81.4523 51.2349 79.0664 51.2349 79.0664L54.1145 85.4419C40.3286 89.2882 34.2825 91.2178 31.1944 92.8084C25.839 95.3899 21.9299 97.3978 25.1744 106.159C26.8162 110.592 35.1686 129.198 36.8104 132.027C39.0255 135.638 41.9052 135.938 45.0976 135.221C48.7591 134.4 62.8187 128.728 62.8187 128.728C62.6102 131.505 60.5515 138.011 63.4311 140.632C67.2751 144.035 75.3538 142.979 75.3538 142.979C86.5467 154.543 102.795 159.055 116.816 143.135C116.816 143.135 126.693 143.957 130.081 141.101C132.687 138.898 130.902 131.896 130.615 128.467C134.003 129.106 152.779 134.23 153.196 134.348Z" fill="#949494"/>
<path d="M9.78572 65.8195C8.95179 64.2941 9.82482 60.7608 11.4666 61.4388C13.6818 62.3384 10.4763 67.0973 9.78572 65.8195Z" fill="#949494"/>
</svg>
