<svg width="1884" height="495" viewBox="0 0 1884 495" fill="none" xmlns="http://www.w3.org/2000/svg">
<path opacity="0.3" fill-rule="evenodd" clip-rule="evenodd" d="M1871.07 880.428C1885.85 1079.11 1900.19 1281.11 1826.61 1466.26C1747.32 1665.8 1644.87 1905.27 1439.21 1967.14C1225.74 2031.35 1033.7 1790.77 811.606 1771.58C617.207 1754.79 391.914 1990.66 243.658 1863.84C82.1292 1725.67 307.153 1416.51 189.55 1239.46C58.5132 1042.19 -393.147 1116.66 -409.572 880.427C-425.36 653.365 0.0242637 672.78 137.535 491.371C249.235 344.015 127.184 64.8143 283.536 -33.9382C437.595 -131.243 630.287 83.832 811.606 65.6253C1024.15 44.2837 1199.96 -207.441 1404.69 -146.516C1598.1 -88.9624 1659.65 159.133 1743.06 342.815C1820.56 513.456 1857.17 693.54 1871.07 880.428Z" stroke="white" stroke-width="1.5"/>
</svg>
