<svg width="2080" height="1723" viewBox="0 0 2080 1723" fill="none" xmlns="http://www.w3.org/2000/svg">
<path fill-rule="evenodd" clip-rule="evenodd" d="M85.717 1087.67C-12.8583 935.894 -28.0923 715.166 55.3497 554.776C139.245 393.515 351.876 361.26 510.012 272.099C627.53 205.84 739.912 141.599 867.223 97.0235C1003.55 49.2931 1137.9 -0.824756 1282.34 1.68645C1453.18 4.65646 1633.49 15.1384 1773.99 112.788C1922.94 216.315 2056.37 373.671 2077.1 554.077C2097.63 732.727 1924.83 871.99 1881.26 1046.35C1836.72 1224.59 1970.35 1480.38 1819.55 1584.74C1655.92 1697.97 1437.58 1463.38 1240.42 1489.81C1081 1511.18 981.313 1754.75 824.608 1718.1C669.766 1681.89 680.291 1433.83 559.169 1330.49C421.819 1213.3 184.121 1239.18 85.717 1087.67Z" stroke="#F3BB4C" stroke-width="2"/>
</svg>
