<svg width="2032" height="1892" viewBox="0 0 2032 1892" fill="none" xmlns="http://www.w3.org/2000/svg">
<path fill-rule="evenodd" clip-rule="evenodd" d="M2020.49 918.857C2033.57 1094.81 2046.27 1273.7 1981.13 1437.67C1910.93 1614.38 1820.23 1826.46 1638.15 1881.24C1449.16 1938.11 1279.15 1725.05 1082.52 1708.06C910.413 1693.19 710.955 1902.08 579.7 1789.77C436.695 1667.4 635.914 1393.61 531.797 1236.82C415.787 1062.11 15.9206 1128.06 1.37896 918.857C-12.5982 717.771 364.005 734.965 485.747 574.31C584.638 443.812 476.583 196.552 615.005 109.098C751.398 22.9249 921.993 213.394 1082.52 197.271C1270.69 178.371 1426.34 -44.5564 1607.6 9.39881C1778.82 60.3683 1833.31 280.081 1907.16 442.749C1975.77 593.868 2008.19 753.35 2020.49 918.857Z" stroke="#E9BC60" stroke-width="1.5"/>
</svg>
