<svg width="2032" height="1892" fill="none" xmlns="http://www.w3.org/2000/svg"><path clip-rule="evenodd" d="M2020.49 918.857c13.08 175.953 25.78 354.843-39.36 518.813-70.2 176.71-160.9 388.79-342.98 443.57-188.99 56.87-359-156.19-555.63-173.18-172.107-14.87-371.565 194.02-502.82 81.71-143.005-122.37 56.214-396.16-47.903-552.95-116.01-174.71-515.876-108.76-530.418-317.963-13.977-201.086 362.626-183.892 484.368-344.547 98.891-130.498-9.164-377.758 129.258-465.212 136.393-86.173 306.988 104.296 467.515 88.173 188.17-18.9 343.82-241.827 525.08-187.872 171.22 50.97 225.71 270.682 299.56 433.35 68.61 151.119 101.03 310.601 113.33 476.108z" stroke="#E9BC60" stroke-width="1.5"/></svg>