<svg width="1884" height="495" fill="none" xmlns="http://www.w3.org/2000/svg"><path opacity=".3" clip-rule="evenodd" d="M1871.07 880.428c14.78 198.682 29.12 400.682-44.46 585.832-79.29 199.54-181.74 439.01-387.4 500.88-213.47 64.21-405.51-176.37-627.604-195.56-194.399-16.79-419.692 219.08-567.948 92.26-161.529-138.17 63.495-447.33-54.108-624.38-131.037-197.27-582.697-122.8-599.122-359.033C-425.36 653.365.024 672.78 137.535 491.371c111.7-147.356-10.351-426.557 146.001-525.31 154.059-97.304 346.751 117.771 528.07 99.564C1024.15 44.284 1199.96-207.44 1404.69-146.516c193.41 57.554 254.96 305.649 338.37 489.331 77.5 170.641 114.11 350.725 128.01 537.613z" stroke="#fff" stroke-width="1.5"/></svg>