<svg width="2080" height="1723" fill="none" xmlns="http://www.w3.org/2000/svg"><path clip-rule="evenodd" d="M85.717 1087.67C-12.858 935.894-28.093 715.166 55.35 554.776c83.895-161.261 296.526-193.516 454.662-282.677 117.518-66.259 229.9-130.5 357.211-175.075C1003.55 49.294 1137.9-.825 1282.34 1.686c170.84 2.97 351.15 13.452 491.65 111.102 148.95 103.527 282.38 260.883 303.11 441.289 20.53 178.65-152.27 317.913-195.84 492.273-44.54 178.24 89.09 434.03-61.71 538.39-163.63 113.23-381.97-121.36-579.13-94.93-159.42 21.37-259.107 264.94-415.812 228.29-154.842-36.21-144.317-284.27-265.439-387.61-137.35-117.19-375.048-91.31-473.452-242.82z" stroke="#F3BB4C" stroke-width="2"/></svg>