<svg width="155" height="100" fill="none" xmlns="http://www.w3.org/2000/svg"><g opacity=".4" clip-path="url(#clip0)"><path fill-rule="evenodd" clip-rule="evenodd" d="M66.396 95.672a.467.467 0 01.428.279.455.455 0 01-.093.499.465.465 0 01-.797-.305.47.47 0 01.134-.328.482.482 0 01.328-.145zm17.57 0a.464.464 0 01.433.271.453.453 0 01-.086.5.463.463 0 01-.77-.476.452.452 0 01.246-.257.463.463 0 01.178-.038zm15.95.466v-3.684c0-.124.054-.178.18-.165.126.012.236 0 .361 0 .242 0 .247 0 .249.251v2.066c0 .188-.081.422.04.552.121.13.384.043.584.055.201.013.408 0 .61 0 .751.041 1.254.506 1.285 1.25.031.745.029 1.484 0 2.225a1.334 1.334 0 01-.424.918c-.257.24-.598.37-.951.365-.556.015-1.113 0-1.671 0-.25 0-.256 0-.256-.275V96.14l-.008-.002zm.786 1.46v1.363c0 .227.009.236.231.24h.865c.427-.013.646-.23.653-.658v-1.901c0-.429-.226-.638-.659-.652h-.799c-.258 0-.291 0-.293.278V97.6l.002-.001zm-22.63-1.469v-3.685c0-.107.044-.154.153-.154.642 0 1.284-.025 1.925.016.33.025.64.17.867.41.227.24.355.555.358.883.02.75.022 1.505 0 2.255a1.332 1.332 0 01-.404.926 1.36 1.36 0 01-.942.385c-.3.01-.6 0-.902 0-.301 0-.28 0-.282.287v2.384a.122.122 0 01-.085.129.124.124 0 01-.055.005h-.026c-.592.062-.6.053-.6-.536l-.008-3.305zm.779-1.414v1.459c0 .159.05.232.22.228h.902c.412-.016.628-.226.635-.64 0-.686.011-1.374 0-2.061 0-.409-.229-.62-.64-.636-.278-.009-.556 0-.834 0-.278 0-.272 0-.276.264v1.393l-.007-.007zm-29.675 3.542h-.449c-.15 0-.224-.055-.242-.212-.07-.598-.15-1.198-.227-1.794a2881.2 2881.2 0 01-.38-2.991c-.015-.114-.035-.209-.169-.234-.133-.025-.18-.112-.18-.25 0-.593-.044-.471.465-.478.168 0 .37-.07.498.037.129.107.078.318.1.482.19 1.449.376 2.897.557 4.344.04.323.036.332.361.325.5-.01.459.114.542-.464.197-1.513.39-3.025.577-4.535.018-.147.07-.204.22-.197.69.024.592-.121.513.557-.152 1.26-.323 2.518-.486 3.777-.088.68-.168 1.364-.265 2.046-.028.308-.156.6-.365.83a1.46 1.46 0 01-.794.452c-.073.014-.148.02-.223.02-.524-.011-.565-.065-.542-.58 0-.16.076-.197.217-.192.117.009.235.009.352 0a.748.748 0 00.604-.572.728.728 0 00.004-.29c-.022-.086-.087-.08-.148-.08h-.541.001zm6.212-5.93a536.708 536.708 0 01-.698 3.294 1.018 1.018 0 000 .442l.721 3.571.033.155c.034.143-.033.179-.168.191-.558.032-.56.036-.67-.514l-.615-3.02c-.02-.087 0-.208-.112-.242a.767.767 0 00-.411 0c-.105.027-.085.14-.101.216-.101.486-.197.975-.295 1.462-.124.624-.254 1.25-.37 1.87-.03.17-.097.24-.268.225a1.884 1.884 0 01-.517-.04 3.82 3.82 0 01.136-.812c.198-1.02.401-2.037.608-3.051a1.176 1.176 0 000-.502c-.22-1.016-.433-2.03-.65-3.035-.012-.063-.014-.125-.027-.215a3.82 3.82 0 01.636-.023c.14 0 .138.107.158.197.098.445.193.89.287 1.334.092.435.18.87.275 1.305.021.098 0 .239.126.27a.87.87 0 00.444 0c.086-.026.072-.122.086-.192a497.819 497.819 0 00.59-2.732c.022-.116.067-.192.208-.178.2-.007.4.003.6.029l-.006-.006zm31.544 3.816v-3.696c0-.075.041-.145.151-.156.61-.062.62-.057.62.55v2.321c0 .245 0 .249.248.252h.45c.19.018.254-.07.296-.243.205-.864.424-1.728.642-2.589.072-.292.076-.292.379-.294.117 0 .236.01.36 0 .181-.018.224.068.214.221v.286c0 .094-.015.19-.134.216-.119.025-.18.13-.206.252-.19.771-.382 1.541-.575 2.31a.791.791 0 000 .405 478 478 0 00.733 2.96c.035.152.072.286.254.322.094.018.096.091.103.17.049.546.05.546-.5.544h-.097c-.273 0-.277 0-.343-.262-.2-.802-.396-1.607-.594-2.405-.076-.298-.155-.595-.217-.893a.247.247 0 00-.198-.233.253.253 0 00-.11 0c-.18.015-.361 0-.542 0a.137.137 0 00-.119.04.134.134 0 00-.036.118V99.8c0 .121-.05.179-.17.179h-.45c-.11 0-.15-.058-.149-.16v-.222l-.01-3.454zm-43.31-.012V92.43c0-.088.034-.14.13-.138h.065c.707.013.565-.093.572.536.009.773 0 1.546 0 2.32 0 .265 0 .272.263.27.213 0 .46.08.628-.035.168-.114.141-.386.193-.588.199-.757.388-1.517.569-2.28.04-.166.108-.239.278-.218.063.01.132 0 .193 0 .146.017.352-.075.424.052.09.16.032.373.025.563 0 .08-.083.094-.14.11a.266.266 0 00-.181.229c-.193.793-.388 1.584-.59 2.375a.62.62 0 000 .308c.254 1.018.509 2.036.756 3.054.032.134.072.24.224.271.103.022.122.096.122.191 0 .646.062.518-.48.536h-.034c-.39-.01-.345.057-.442-.336a522.768 522.768 0 01-.778-3.144c-.075-.309-.077-.318-.402-.309-.2 0-.451-.09-.587.057-.135.146-.038.366-.038.555v3.02c0 .105-.045.157-.153.155h-.065c-.675 0-.541.077-.55-.521-.01-1.113 0-2.225 0-3.336l-.002.004zm55.505-.004v3.686c0 .12-.054.178-.18.178h-.416c-.137 0-.18-.064-.18-.195v-6.459c0-.268 0-.272-.263-.277h-.641c-.242 0-.251 0-.28.243-.056.482-.1.968-.151 1.451l-.434 4.201c-.027.276-.063.549-.079.822-.009.146-.067.207-.216.203h-.675c-.12 0-.18-.048-.18-.168a3.33 3.33 0 000-.316c-.015-.139.033-.23.18-.25.146-.02.18-.14.195-.273.07-.714.15-1.428.223-2.142.12-1.147.237-2.294.35-3.443.018-.178.065-.346-.18-.392-.063-.013-.065-.068-.072-.124-.08-.52-.035-.57.5-.57h2.086c.465 0 .416-.058.418.397v3.432l-.005-.004zm12.414.004v3.685c0 .123-.06.157-.181.168-.595.05-.595.052-.595-.548v-2.96c0-.283 0-.288-.28-.29h-1.509c-.106 0-.155.052-.153.157v3.462c0 .124-.056.179-.181.179h-.416c-.139 0-.192-.064-.181-.193v-7.185c0-.31 0-.314.318-.312.53 0 .458-.072.462.452v2.382c0 .282 0 .285.276.285h1.38c.28 0 .285 0 .285-.278v-2.639c-.01-.142.035-.21.197-.205.707.016.569-.094.572.536v3.305l.006-.002zm-51.765.002v3.613c.01.154-.043.233-.218.23-.686-.013-.554.065-.557-.52-.01-.965 0-1.929 0-2.893v-.221c0-.106-.047-.157-.154-.157h-1.642c-.107 0-.155.055-.154.158v3.464c0 .125-.06.157-.18.168-.594.05-.594.054-.594-.546v-6.86c0-.273 0-.279.284-.277.575 0 .481-.08.487.488v2.383c0 .241.009.248.252.248h1.444c.238 0 .244 0 .244-.251v-2.7c0-.12.048-.178.171-.178.74.01.6-.092.605.535.009 1.102 0 2.203 0 3.305l.012.01zm9.63-.011v-3.644c-.01-.13.043-.193.18-.188h2.566c.246 0 .253 0 .251.247 0 .618.07.51-.49.52h-1.444c-.277 0-.28 0-.282.287v1.785c0 .288 0 .288.309.29h.8c.903.014 1.405.517 1.41 1.41v1.716a1.35 1.35 0 01-.394 1.022 1.379 1.379 0 01-1.026.406H69.68c-.274 0-.278 0-.278-.289v-3.557l.004-.005zm2.522 1.59v-.892a.578.578 0 00-.167-.467.591.591 0 00-.47-.172c-.288-.01-.577 0-.866 0-.229 0-.238 0-.242.228v2.509c0 .27 0 .271.262.275.262.004.556 0 .832 0 .424-.013.642-.236.653-.66v-.826l-.002.006zm20.793-5.422c.36 0 .707.01 1.059 0 .164 0 .23.054.244.211.043.482.097.968.146 1.452.148 1.409.294 2.82.438 4.231.05.505.103 1.01.148 1.518.024.268.016.27-.24.277-.489.014-.496.014-.541-.465-.081-.692-.152-1.389-.226-2.083-.027-.256-.027-.257-.285-.261H92.31c-.23 0-.24 0-.265.245-.083.746-.159 1.494-.233 2.24-.032.32-.029.322-.36.324-.436 0-.443 0-.4-.441.138-1.368.282-2.737.424-4.107.07-.703.141-1.41.217-2.114.015-.146.022-.277-.168-.318-.076-.016-.09-.073-.1-.14-.077-.506-.028-.567.474-.567l.823-.002zm.162 4.107h.513c.213 0 .218-.016.216-.213v-.126c-.09-.904-.18-1.809-.272-2.712-.03-.284-.035-.284-.334-.288h-.289c-.22 0-.233.018-.256.236-.04.366-.078.734-.114 1.101-.063.599-.119 1.2-.18 1.797-.018.159.034.214.18.209h.541l-.005-.004zm-17.652-4.103h1.06c.156 0 .225.038.24.205.071.76.156 1.518.235 2.277.147 1.4.292 2.8.434 4.2.027.265.052.537.08.792.017.14-.014.22-.18.214-.67-.023-.554.12-.633-.557-.08-.677-.14-1.348-.211-2.021-.025-.223-.03-.229-.255-.232h-1.189c-.242 0-.247 0-.272.25-.073.703-.143 1.41-.21 2.116-.041.444-.038.446-.481.442h-.13c-.204-.01-.215-.017-.194-.225.134-1.293.27-2.588.406-3.885l.268-2.592c.012-.106.032-.216-.12-.25-.151-.034-.166-.134-.164-.263 0-.58-.029-.457.45-.468h.868l-.002-.003zm.171 4.11h.45c.297 0 .3-.012.272-.31-.083-.822-.153-1.645-.254-2.463-.083-.675.077-.557-.652-.567-.22 0-.222 0-.247.233-.061.557-.122 1.115-.18 1.672-.042.376-.078.757-.12 1.135-.03.288-.025.296.282.298h.447l.002.002zm-11.526-.275v3.682c0 .121-.055.178-.18.168a3.421 3.421 0 00-.384 0c-.18.012-.215-.075-.213-.23v-2.413c0-.121-.05-.178-.18-.17-.13.01-.279 0-.418 0-.447 0-.346-.016-.438.338-.18.714-.35 1.439-.542 2.155-.086.34-.021.314-.391.318a.565.565 0 01-.096 0c-.146-.016-.344.073-.424-.054-.1-.157-.032-.37-.032-.559 0-.064.052-.09.104-.101.16-.038.208-.152.242-.295.13-.555.267-1.11.412-1.662a.274.274 0 00-.147-.357 1.277 1.277 0 01-.624-1.147v-2.128a1.324 1.324 0 01.399-.99 1.352 1.352 0 011.003-.386h1.606c.278 0 .282 0 .282.28v3.556l.021-.005zm-.795-1.357v-1.459c0-.239 0-.242-.257-.246-.276 0-.554-.009-.832 0-.43.014-.651.232-.655.652v2.028c0 .425.22.643.65.657.289.01.576 0 .864 0 .224 0 .23 0 .231-.24v-1.392h-.001zm44.129 1.36v3.682c0 .122-.051.179-.172.179h-.417c-.139 0-.18-.063-.18-.193v-2.412c0-.148-.051-.213-.204-.206a3.514 3.514 0 01-.513 0c-.193-.02-.259.068-.297.238-.174.732-.354 1.462-.542 2.189-.112.432-.009.386-.496.384-.523 0-.457.089-.467-.48 0-.129.018-.23.162-.261.114-.023.148-.107.181-.205.144-.596.291-1.19.44-1.786a.208.208 0 00-.108-.264 1.355 1.355 0 01-.526-.542 1.336 1.336 0 01-.151-.736c.011-.656.02-1.315 0-1.965a1.373 1.373 0 01.902-1.356c.183-.068.379-.098.574-.086.512.018 1.025 0 1.539 0 .278 0 .282 0 .282.278v3.557l-.007-.014zm-.764-1.346v-1.428c0-.273 0-.275-.29-.278-.291-.004-.542 0-.802 0-.436.014-.651.225-.653.651v2.03c0 .429.213.641.646.656.289.01.578 0 .866 0 .224 0 .23 0 .231-.238v-1.394l.002.002zm-36.55-63.969a.141.141 0 01.046-.136 25.667 25.667 0 013.712-3.676c.471-.366.967-.7 1.485-.998.115-.068.193-.091.287.046.949 1.384 2.115 2.575 3.336 3.721.058.054.143.095.148.193-.792-.13-1.58-.278-2.37-.393-.928-.16-1.87-.22-2.81-.178a5.902 5.902 0 00-2.155.57c-.471.224-.924.487-1.38.74-.09.049-.167.14-.298.11v.001zm72.51 5.47a.792.792 0 01-.262.28 14.956 14.956 0 00-2.772 3.154 8.843 8.843 0 00-1.203 2.72c-.06.253-.072.239-.298.203-.886-.134-1.777-.26-2.665-.393-.181-.025-.181-.048-.127-.232.098-.28.219-.553.361-.814a8.757 8.757 0 012.48-2.837 11.535 11.535 0 014.331-2.057c.041-.01.083-.013.159-.023h-.004zm-55.12-1.094l-4.483-.659-4.535-.67-4.566-.672-1.048-.154c-.074-.012-.146-.021-.22-.036a.207.207 0 01-.18-.16c-.013-.09.088-.107.147-.14.861-.47 1.8-.781 2.774-.92 1.994-.306 3.946-.063 5.87.463a20.448 20.448 0 015.946 2.707.747.747 0 01.29.252l.004-.01zm-1.484-12.7a.387.387 0 01-.28-.082 10.448 10.448 0 01-2.81-2.084c-1.57-1.624-1.452-3.981-.463-5.524.041-.06.086-.12.126-.178a.14.14 0 01.097-.077.145.145 0 01.121.028c1.05.574 2.022 1.238 2.664 2.277.37.617.59 1.312.64 2.028a18.77 18.77 0 01-.023 2.348c-.01.34-.029.677-.045 1.014a.578.578 0 01-.022.241l-.005.01zm26.262 4.467a.437.437 0 01.011-.125c.492-1.25.916-2.508 1.465-3.726.881-1.94 2.378-3.13 4.511-3.533.578-.11 1.164-.165 1.736-.31.239-.058.471-.128.708-.194.095.855-1.244 3.56-2.377 4.787-1.624 1.762-3.705 2.659-6.045 3.101h-.009zM72.477 11.873c-.025-1.657-.155-3.287-.058-4.917a8.273 8.273 0 01.52-2.51c.541-1.391 1.487-2.459 2.673-3.344.122-.093.19-.077.287.034a5.243 5.243 0 011.319 3.074 6.507 6.507 0 01-.495 3.014 9.167 9.167 0 01-3.697 4.394c-.134.084-.278.155-.42.229a.422.422 0 01-.129.026zm39.713 26.991c.042-.057.054-.09.076-.103.79-.545 1.554-1.125 2.371-1.63a9.816 9.816 0 013.999-1.361 16.688 16.688 0 012.785-.114 8.583 8.583 0 012.697.507 3.57 3.57 0 011.347.837c.18.179.18.193-.033.316a50.207 50.207 0 01-4.872 2.605 1.094 1.094 0 01-.648.086c-1.521-.23-3.044-.45-4.566-.675l-3.149-.468h-.007zM55.04.498a.655.655 0 01.36.118 10.715 10.715 0 014.681 4.433 8.953 8.953 0 01.471 8.045 9.601 9.601 0 01-.763 1.513 2.93 2.93 0 01-.62-.416 10.142 10.142 0 01-1.248-1.236 19.199 19.199 0 01-1.624-2.164 8.292 8.292 0 01-1.229-3.512 21.566 21.566 0 01-.146-3.201c.02-1.134.056-2.266.087-3.392 0-.061-.018-.127.038-.179l-.008-.009zm49.228 9.858c-.243.874-.195 1.732-.166 2.587.043 1.239.076 2.478-.092 3.714a8.252 8.252 0 01-.525 2.024 5.38 5.38 0 01-1.023 1.64 16.159 16.159 0 01-3.534 2.877c-.183.11-.372.21-.566.299-.255.121-.26.117-.392-.125a7.304 7.304 0 01-.769-2.143 7.918 7.918 0 01.504-4.517 11.386 11.386 0 014.961-5.69c.352-.202.72-.375 1.1-.518a1.99 1.99 0 01.502-.148zM36.261 4.033c.993.627 2.093.818 3.163 1.107.29.079.576.165.858.261a5.594 5.594 0 013.122 2.596c.222.423.404.866.54 1.323.723 2.116 1.347 4.26 1.995 6.397l.312 1.013a.182.182 0 01-.18.026 17.323 17.323 0 01-3.79-1.28c-2.58-1.262-4.257-3.297-5.145-5.993a17.996 17.996 0 01-.776-3.75 33.068 33.068 0 01-.097-1.04c-.015-.2 0-.4 0-.654l-.002-.006zm39.883 14.67a.152.152 0 01.15.055 6.838 6.838 0 002.005 1.352c.386.178.77.367 1.16.535a18.016 18.016 0 014.925 3.294 30.16 30.16 0 016.992 9.565c.195.424.366.859.513 1.302a.305.305 0 01.03.2.585.585 0 01-.332-.013c-3.567-.66-6.8-2.062-9.627-4.328-2.212-1.774-3.892-3.947-4.894-6.606a14.904 14.904 0 01-.922-5.197v-.16zm17.172 14.773c-.056-.108-.08-.142-.094-.179a15.092 15.092 0 00-1.712-3.123c-.53-.771-1.083-1.532-1.6-2.305a13.072 13.072 0 01-1.787-3.606 12.355 12.355 0 01-.468-2.814c-.13-1.715.016-3.439.431-5.109a8.528 8.528 0 01.903-2.231c.36-.63.864-1.167 1.472-1.568.203-.127.212-.127.318.06 1.278 2.23 2.55 4.464 3.551 6.834a21.574 21.574 0 011.475 4.787c.36 2.163.274 4.285-.609 6.327a10.42 10.42 0 01-1.766 2.75c-.036.04-.062.087-.123.178l.01-.001zm39.448 11.405c.374.047.756.091 1.135.141l4.771.623c.266.034.529.077.794.111.089.013.136.052.132.141v4.323a.42.42 0 01-.049.29c-.671-.069-1.351-.135-2.031-.205-.746-.075-1.489-.151-2.235-.223-.263-.025-.268-.016-.27.245v3.558c0 .254 0 .254.269.273.597.048 1.196.091 1.792.14.294.023.299.026.297.325 0 1.417-.004 2.836-.014 4.256 0 .26 0 .26-.269.248-.61-.027-1.22-.059-1.83-.08-.263-.01-.269 0-.27.255 0 1.19-.004 2.377-.011 3.559 0 .264 0 .268.292.275l3.916.105h.162c.239.009.242.009.242.255v4.257c0 .253 0 .255-.308.255l-5.459.027h-.931c-.159 0-.242-.048-.224-.218v-.287l.054-22.303a.617.617 0 01.045-.357v.011zm8.077 23.082c.109-.458.213-.92.327-1.381.456-1.87.915-3.741 1.377-5.612.081-.33.079-.33-.255-.343-.256-.009-.514-.021-.77-.023-.15 0-.215-.068-.2-.216V46.347c0-.373 0-.368.375-.32l4.769.625c.331.041.659.082.986.127.236.032.236.034.243.282v20.49c0 .477.047.421-.429.425h-1.22c-.341 0-.341 0-.341-.357v-6.515c0-.129-.036-.195-.181-.198-.191 0-.384-.013-.577-.033-.162-.017-.224.052-.256.202-.112.536-.238 1.072-.361 1.607l-1.083 5c-.063.294-.063.294-.361.294h-1.734a.661.661 0 01-.309-.032v.02zm2.55-14.444v2.285c0 .418 0 .358.332.375.565.041 1.13.083 1.695.116.285.018.29.013.29-.26v-4.666c0-.262 0-.264-.263-.29-.596-.063-1.191-.12-1.787-.18-.261-.026-.269-.024-.27.242v2.38l.003-.002zM73.19 14.885c.018.536.032.995.05 1.457.036.88.069 1.759.11 2.636.065 1.344.18 2.678.569 3.983.153.53.353 1.045.595 1.54a.24.24 0 01-.061.358c-2.07 1.703-4.291 3.158-6.845 4.062-.362.128-.732.236-1.106.325-.242.057-.263.045-.263-.198a9.378 9.378 0 01.294-2.088A27.559 27.559 0 0168.6 21.4a36.245 36.245 0 014.755-7.522 17.089 17.089 0 013.743-3.409 25.325 25.325 0 003.067-2.346 13.842 13.842 0 003.205-4.055c.02-.035.041-.071.065-.107l.043-.023c.08.235.128.48.141.728.323 2.387.17 4.814-.45 7.142-.09.338-.028.405-.423.191-.132-.071-.27-.13-.397-.205a.181.181 0 00-.27.055 7.624 7.624 0 01-.362.452c-.34.436-.678.871-1.021 1.307a7.561 7.561 0 00-1.505 3.362c-.015.084 0 .179-.092.24-1.918-.843-3.909-1.515-5.912-2.31l.002-.014zm38.322 2.484c.19.533.324 1.085.398 1.646.295 2.143-.162 4.125-1.183 6.003a15.168 15.168 0 01-3.447 4.19 20.208 20.208 0 01-7.92 4.302 10.673 10.673 0 01-3.326.423h-.065c-.408-.015-.408-.015-.285-.384a19.56 19.56 0 011.388-3.137 28.403 28.403 0 017.36-8.749 20.979 20.979 0 013.314-2.05c.902-.468 1.804-.914 2.683-1.428a6.95 6.95 0 001.083-.816zM96.581 36.132a.641.641 0 01.39-.13 11.092 11.092 0 003.105-1.17c1.014-.566 2.03-1.133 3.005-1.769a29.869 29.869 0 016.565-3.294 25.224 25.224 0 014.834-1.112c1.281-.179 2.574-.293 3.842-.556a11.031 11.031 0 003.371-1.273 1.6 1.6 0 01.141-.076.295.295 0 01.085 0c-.033.103-.062.2-.096.296a13.853 13.853 0 01-2.093 3.735 19.733 19.733 0 01-5.562 4.926 13.222 13.222 0 01-4.27 1.586 30.16 30.16 0 01-4.363.503 8.129 8.129 0 01-1.561-.143c-1.684-.242-3.366-.494-5.053-.742-.307-.045-.617-.077-.92-.136-.52-.104-.958-.384-1.42-.645zm26.096 7.433l2.03.26 3.658.48c.647.085 1.295.178 1.941.251.13.016.199.06.192.193v.191c-.009 5.2-.02 10.4-.035 15.601 0 .495.071.45-.436.432-1.52-.057-3.038-.105-4.557-.157h-.162c-.105 0-.159.041-.157.148v.256l-.017 6.354v.16c0 .37.031.344-.346.344h-1.96c-.298 0-.301 0-.301-.293 0-1.209.014-2.416.02-3.623l.083-20.175a.763.763 0 01.048-.42l-.001-.002zm2.528 8.776h-.031v3.015c0 .258 0 .261.26.28.541.042 1.083.076 1.633.115l.8.055c.117.01.18-.032.18-.159v-.189c0-1.716.004-3.431.013-5.145v-.761c0-.164-.064-.216-.224-.232-.585-.052-1.17-.118-1.754-.179l-.702-.07c-.123-.014-.181.033-.181.158v.126l.006 2.986zM67.445 0a.839.839 0 01.311.205 5.38 5.38 0 011.227 1.497c.539.965.93 2.005 1.159 3.085.49 2.206.671 4.467.541 6.722a21.425 21.425 0 01-.438 3.559 15.116 15.116 0 01-1.603 4.106c-.638 1.152-1.375 2.244-2.064 3.367a17.914 17.914 0 00-1.927 4.037c-.05.152-.094.306-.145.456 0 .02-.023.032-.036.051-.103-.051-.139-.159-.193-.244a15.34 15.34 0 01-2.23-6.239 20.304 20.304 0 01.11-5.699c.453-2.98 1.39-5.822 2.499-8.616.82-2.059 1.738-4.077 2.66-6.09a.43.43 0 01.13-.197zm44.742 55.144l.07-12.582c0-.322-.078-.38.361-.322 1.705.232 3.414.445 5.121.666.944.122 1.886.248 2.832.372.272.035.276.032.276.309l-.017 3.59v1.175c0 .24 0 .243-.229.221l-4.405-.45c-.243-.024-.489-.051-.734-.073-.339-.032-.339-.03-.343.297 0 .944-.018 1.885-.025 2.828v1.144c0 .265 0 .27.263.29.628.05 1.263.094 1.888.142.202.017.404.045.608.05.159 0 .206.077.193.218v.127l-.018 4.67v.095c0 .282 0 .282-.285.268-.801-.037-1.603-.077-2.406-.112-.263-.013-.269 0-.27.257 0 1.344-.005 2.689-.013 4.035 0 .266 0 .273.294.28 1.294.034 2.59.063 3.884.093.438.013.877.023 1.315.041.222.01.231.016.229.243 0 1.599-.006 3.198-.02 4.798 0 .257-.009.262-.272.264l-8.094.043c-.258 0-.261 0-.259-.268 0-1.293.019-2.585.021-3.876v-8.833h.035zM34.594 15.762c.352-.014.706.008 1.053.068 2.473.24 4.9.827 7.206 1.74a25.624 25.624 0 016.627 4.014c1.371 1.122 2.656 2.336 3.952 3.54 1.093 1.015 2.196 2.017 3.385 2.924a17.788 17.788 0 004.522 2.564c.058.023.132.021.157.112a5.078 5.078 0 01-.96.482.495.495 0 01-.283 0l-3.746-.535-4.571-.675-4.539-.672c-.085-.012-.17-.025-.254-.032a3.82 3.82 0 01-1.312-.384 32.861 32.861 0 01-3.178-1.658 16.601 16.601 0 01-1.767-1.266 10.902 10.902 0 01-2.98-3.928c-.396-.87-.73-1.762-1.104-2.64a12.937 12.937 0 00-2.138-3.525.897.897 0 01-.07-.12v-.009zm12.144-9.736c.07.04.11.057.145.08 1.624 1.173 3.318 2.25 4.957 3.405 1.274.893 2.54 1.812 3.638 2.918 2.485 2.5 4.347 5.381 5.414 8.748.647 2.054 1.126 4.148 1.6 6.25.047.214.033.235-.196.246a7.254 7.254 0 01-2.191-.26 12.88 12.88 0 01-3.555-1.585 21.806 21.806 0 01-6.172-5.902 20.827 20.827 0 01-3.443-7.462 15.913 15.913 0 01-.227-6.276c0-.039.016-.082.032-.157l-.002-.005zm32.068 31.808l1.322.17c.793.103 1.588.212 2.384.308.15.02.21.07.202.218-.01.179-.012.357-.012.536-.033 3.506-.064 7.012-.092 10.518v.157c-.013.155.068.198.21.209.513.034 1.024.079 1.537.12l2.271.178c.055 0 .107 0 .161.013.126.014.18-.047.18-.165 0-.17.01-.339.011-.507l.092-10.264c0-.413 0-.42.406-.37 1.007.126 2.015.257 3.023.391.262.034.262.04.26.357-.022 2.403-.043 4.808-.063 7.213l-.121 13.534-.067 7.405c0 .332 0 .334-.327.335l-3.02.016h-.127c-.236-.002-.236-.002-.236-.23v-.254l.11-10.771c0-.477.022-.4-.38-.422-1.251-.07-2.504-.125-3.754-.178-.23-.01-.231-.01-.235.253-.016 1.111-.03 2.223-.045 3.336-.025 2.658-.05 5.316-.072 7.974 0 .357.02.335-.327.337h-3.34a.565.565 0 00-.096 0c-.18.023-.216-.063-.215-.22.01-.648 0-1.294.015-1.94l.262-25.036c.01-.977.025-1.95.041-2.925a.518.518 0 01.043-.3l-.001.004zm31.549 4.103c-.162.603-.312 1.175-.469 1.744-.939 3.421-1.881 6.842-2.826 10.263-.073.262-.073.54 0 .802 1.09 4.346 2.176 8.69 3.259 13.034a.502.502 0 01.04.305.682.682 0 01-.287.025c-.856 0-1.713.009-2.57 0-.338 0-.309.064-.404-.298-.903-3.346-1.698-6.714-2.566-10.067a1.363 1.363 0 01-.04-.153.211.211 0 00-.02-.093.217.217 0 00-.236-.125c-.181 0-.343 0-.513-.014-.106 0-.16.039-.157.148.004.109 0 .178 0 .255l-.063 10.042v.126c.018.161-.07.206-.211.198h-.163l-2.472.017c-.482 0-.42.025-.42-.4 0-.573.009-1.145.012-1.718l.053-8.422v-.221c.009-.143-.04-.222-.199-.213-.224.013-.48-.096-.66.02-.18.116-.154.378-.211.578-.954 3.362-1.908 6.724-2.86 10.088-.105.371-.084.302-.407.304h-3.084a.569.569 0 01-.283-.027.721.721 0 01.069-.338c1.335-4.642 2.672-9.284 4.011-13.926a.83.83 0 000-.464 74770.35 74770.35 0 01-3.55-13.357c-.028-.111-.055-.223-.09-.357.318-.052.608.04.903.073.775.089 1.55.2 2.324.3.298.037.301.035.377.328l2.73 10.515c.082.309.082.309.404.328.14.011.278.015.417.023.109 0 .157-.042.156-.148-.002-.105 0-.17 0-.255.024-3.303.046-6.608.066-9.915v-.125c-.018-.166.067-.201.211-.178.361.048.702.09 1.051.136.584.076 1.167.157 1.75.237.238.03.242.032.242.27 0 .908 0 1.82-.013 2.731l-.045 7.183c.003.053.003.106 0 .16a.165.165 0 00.037.147.169.169 0 00.144.054c.16.002.32.012.48.032.164.023.223-.043.265-.193.157-.605.328-1.205.496-1.808a6760.29 6760.29 0 002.137-7.748l.029-.09c.074-.242.074-.245.334-.213l1.653.223 1.165.152.004.025zM73.284 68.28H71.46c-.265 0-.27 0-.287-.256-.038-.666-.072-1.334-.106-2l-.244-4.886c-.013-.3-.02-.302-.337-.311-1.422-.038-2.846-.078-4.268-.114-.28 0-.278 0-.3.276l-.52 7.067c-.018.25-.018.254-.283.254-1.359 0-2.721.009-4.08.01-.26 0-.269 0-.249-.264.067-.95.14-1.901.215-2.856.075-.984.155-1.964.23-2.946l.304-3.928.276-3.707.36-4.82c.092-1.226.186-2.45.28-3.675.12-1.49.242-2.977.361-4.464.096-1.194.181-2.385.284-3.57.052-.676.103-1.352.162-2.027.022-.24.033-.25.27-.22.734.09 1.466.183 2.197.28l3.69.483 3.63.473c.19.023.38.068.572.075.19.007.241.112.249.283.016.497.043.993.07 1.491.102 2.095.205 4.19.309 6.283.074 1.504.142 3.005.216 4.507.097 1.989.196 3.978.296 5.967a2056.077 2056.077 0 00.516 9.775c.046.847.09 1.692.134 2.537.014.261 0 .265-.258.266h-1.863l-.003.016zm-2.77-14.447c-.074-1.364-.152-2.728-.22-4.088-.078-1.555-.147-3.109-.219-4.664-.022-.475-.043-.952-.061-1.428 0-.145-.038-.234-.213-.25a177.84 177.84 0 01-2.391-.245c-.152-.016-.211.027-.22.179-.02.38-.055.76-.085 1.139-.1 1.287-.2 2.574-.296 3.86-.081 1.109-.157 2.218-.235 3.326-.045.654-.086 1.309-.137 1.964-.01.143.02.229.18.224.042 0 .085.008.129.01l3.555.206c.218.01.225 0 .21-.236l.003.003zM3.167.875c.345.05.682.098 1.018.15.75.116 1.508.178 2.266.227 1.892.121 3.79.203 5.672.339 2.256.157 4.492.453 6.677 1.071a16.174 16.174 0 015.244 2.475c2.122 1.564 3.566 3.612 4.546 6.03.547 1.405.849 2.893.891 4.399.056 1.25.04 2.52.13 3.78.051.877.199 1.746.44 2.592.017.05.013.107.084.15.088-.064.052-.166.054-.247.014-.612.01-1.226.072-1.84a7.086 7.086 0 01.86-2.889 7.165 7.165 0 011.988-2.28c.043-.032.088-.056.131-.084a.08.08 0 01.018.095c-.386.737-.529 1.539-.622 2.351-.219 1.914-.15 3.828-.03 5.744.087 1.351.223 2.701.372 4.047.024.21.019.213-.202.179l-4.15-.612c-.224-.034-.233-.034-.264-.317a48.95 48.95 0 00-.277-2.172c-.361-2.405-.903-4.762-1.926-6.994-1.209-2.655-3-4.82-5.525-6.353a17.421 17.421 0 00-5.414-2.083c-.303-.066-.608-.116-.913-.179l-.026.014a.709.709 0 00.302.179 31.654 31.654 0 013.291 1.709c2.043 1.25 3.766 2.822 5.035 4.856a15.163 15.163 0 012.012 5.289c.056.301.101.607.14.91.023.193.023.193-.194.193-.374 0-.749 0-1.123-.016-2.224-.093-4.41-.395-6.514-1.152-2.644-.951-4.76-2.59-6.433-4.82a28.35 28.35 0 01-2.57-4.234c-.978-1.93-1.844-3.913-2.766-5.87a78.894 78.894 0 00-2.198-4.38.511.511 0 01-.096-.257zm38.085 49.814l.273-16.487c0-.339.014-.676.027-1.016.01-.21.02-.221.226-.194l2.035.268c1.219.16 2.438.32 3.658.478l3.658.479 3.66.476c.868.114 1.737.223 2.607.338.27.037.273.043.27.32l-.142 9.723-.077 5.622-.092 7.244c0 .386.06.386-.38.368l-4.556-.166-5.49-.2h-.126c-.28 0-.281 0-.287.276-.028 1.964-.052 3.92-.08 5.88-.019 1.334-.039 2.668-.06 4.001 0 .279 0 .28-.282.282l-4.816.016c-.305 0-.307 0-.303-.292a728594.438 728594.438 0 00.278-17.414v-.002zm5.454-4.938l-.056 3.303c0 .414 0 .826-.018 1.239 0 .148.052.216.202.216.087 0 .171 0 .256.014 1.175.075 2.346.155 3.523.229.556.038 1.11.07 1.665.098.212.012.212 0 .224-.204v-.094l.117-8.545c0-.358 0-.358-.36-.384-.554-.052-1.108-.113-1.66-.168l-3.512-.357c-.304-.029-.307-.022-.31.266a912.17 912.17 0 00-.073 4.381l.002.006zm99.192-32.064a.679.679 0 00-.361.12c-4.104 1.964-7.013 5.067-8.832 9.188a28.161 28.161 0 00-1.858 6.163 50.643 50.643 0 00-.722 5.925c-.152 2.2-.217 4.399-.253 6.606 0 .357 0 .367-.361.318a778.66 778.66 0 01-3.143-.458c-.251-.035-.248-.039-.231-.309a27.265 27.265 0 00-.273-5.952 75.122 75.122 0 00-2.396-10.393 37.959 37.959 0 00-2.626-6.576 14.914 14.914 0 00-1.844-2.785 7.19 7.19 0 00-1.263-1.175 1.412 1.412 0 00-.316-.179c1.615 3.289 2.791 6.737 3.836 10.229 1.045 3.492 1.906 7.028 2.346 10.648-.115.04-.169-.026-.229-.062a21.985 21.985 0 01-4.481-3.696c-.108-.118-.198-.203-.099-.405.958-1.895 1.029-3.86.453-5.87a1.144 1.144 0 00-.18-.445c-.998.714-2.142 1.024-3.348 1.142-.016-.098.067-.126.119-.178 1.07-.918 1.624-2.096 1.841-3.466.126-.828.155-1.666.24-2.5a8.371 8.371 0 01.289-1.544c.066-.223.056-.24-.19-.286a5.239 5.239 0 00-.767-.071 19.068 19.068 0 00-3.578.275.403.403 0 01-.213 0c-.022-.221-.053-.45-.065-.68a51.94 51.94 0 01-.051-4.703 54.18 54.18 0 00.033-2.095 5.016 5.016 0 00-.195-1.555.81.81 0 01.442-.009 23.68 23.68 0 014.114.824 15.41 15.41 0 014.82 2.33c2.355 1.747 3.79 4.074 4.427 6.9a17.25 17.25 0 01.352 4.834 27.122 27.122 0 01-.599 4.272 5.708 5.708 0 00.079 2.612c.187.707.419 1.401.695 2.079.011.028.023.059.069.055.045-.004.025-.066.023-.105a52.436 52.436 0 01-.018-4.416c.123-2.92.512-5.799 1.465-8.582.821-2.397 2.029-4.571 3.79-6.428 1.761-1.857 3.876-3.152 6.249-4.071a26.652 26.652 0 015.414-1.414 44.883 44.883 0 016.15-.479h.288c.017 0 .035.018.053.029.029.059-.015.098-.045.14-.783 1.07-1.264 2.276-1.664 3.522-.455 1.428-.809 2.896-1.218 4.342-.643 2.25-1.444 4.43-2.62 6.47a25.12 25.12 0 01-5.824 6.802 39.104 39.104 0 01-6.155 4.131c-.045.025-.092.052-.139.075-.092.045-.139 0-.161-.082a5.847 5.847 0 01-.128-.913 11.77 11.77 0 01.339-3.37 31.45 31.45 0 015.788-12.142 12.193 12.193 0 012.734-2.631l-.002-.006zM16.891 48.51c.041-2.171.094-5 .15-7.825l.203-10.331c0-.179-.054-.38.051-.495.105-.114.323-.009.485.01 1.21.15 2.419.313 3.628.47l3.66.48 3.627.47 3.66.493 3.626.47c.053.012.106.021.16.027.144 0 .18.082.17.207v.125c-.08 5.031-.162 10.063-.247 15.094l-.16 9.757c-.062 3.558-.125 7.117-.192 10.676 0 .303 0 .303-.326.305-3.331.01-6.661.022-9.99.034-2.837.008-5.674.02-8.51.037-.409 0-.389.058-.38-.37l.276-14.936c.026-1.347.058-2.69.102-4.693l.007-.005zm6.35 1.038l-.065 3.526a4335.21 4335.21 0 00-.124 6.861v.224c-.01.126.034.203.18.203h.256l2.151.05c1.36.032 2.718.066 4.077.095.28 0 .281 0 .287-.273.064-3.505.124-7.01.18-10.517l.11-6.003c.024-1.344.053-2.69.08-4.033 0-.314-.027-.28-.275-.305a86.551 86.551 0 01-1.66-.179l-3.479-.357c-.435-.044-.873-.086-1.308-.136-.157-.02-.222.032-.21.179a.831.831 0 010 .095l-.2 10.57zM0 40.989c.14-.034.193-.16.269-.26 3.781-4.82 7.56-9.64 11.334-14.461.394-.502.785-1.006 1.18-1.506a.784.784 0 01.21-.239c.083.052.043.134.047.2v48.591c0 .48 0 .488.5.472 2.547-.075 5.093-.15 7.64-.227 1.754-.053 3.51-.1 5.266-.152 2.6-.075 5.2-.151 7.801-.23l5.071-.146 8.025-.234 5.14-.148 7.97-.234 5.203-.15c2.63-.075 5.263-.153 7.896-.232l5.106-.147 7.992-.236 5.168-.146 7.931-.234 5.073-.146 8.054-.241 5.168-.147 7.897-.234c1.702-.05 3.405-.096 5.105-.148l8.027-.234 4.944-.144 4.784-.132a.65.65 0 01.309.02c0 .1-.083.124-.135.167-1.166.968-2.336 1.928-3.496 2.9a.83.83 0 01-.494.187c-.95.07-1.899.142-2.85.218l-3.777.29-2.818.215c-1.28.097-2.561.198-3.841.297l-3.65.276-3.81.293-3.681.282-3.777.293-3.681.279-3.779.29-2.815.217-3.842.296c-.94.072-1.879.14-2.819.213l-3.808.294c-1.227.094-2.454.187-3.683.279l-3.777.292-3.681.28-3.777.303-3.714.282c-1.249.094-2.497.19-3.746.289-.95.071-1.899.144-2.85.218L67 79.096l-3.681.278-3.768.299-3.61.275-3.874.298-3.602.278-3.872.298-3.618.277c-1.282.096-2.562.195-3.84.296l-3.651.276-3.81.294-3.648.277-3.81.294-3.681.28-3.777.292-3.683.273-3.777.293-3.651.278c-.778.06-1.555.125-2.337.179-.482.034-.406.053-.415-.386L.603 69.194C.54 66.378.5 63.562.446 60.744L.153 46.13c-.025-1.25-.016-2.5-.09-3.75A1.16 1.16 0 000 41.943v-.953z" fill="#000"/></g><defs><clipPath id="clip0"><path fill="#fff" d="M0 0h155v100H0z"/></clipPath></defs></svg>