<svg width="216" height="38" fill="none" xmlns="http://www.w3.org/2000/svg"><g opacity=".4" fill="#000"><path fill-rule="evenodd" clip-rule="evenodd" d="M10.224.025L0 28.556h9.154l1.07-3.762h9.315l1.11 3.762h9.306L19.736.025h-9.512zm4.677 8.605l3.009 10.216h-5.903L14.9 8.63zm31.503 4.393H42.52v-6.34h2.65c1.983 0 4.997.357 4.997 3.01 0 2.455-1.587 3.328-3.763 3.328v.002zm3.2 1.917l6.196 2.373c2.228-1.749 3.284-4.39 3.284-7.662 0-5.86-3.977-9.627-12.165-9.627H33.162v28.53h9.35v-8.871h4.714a21.716 21.716 0 002.378-.134V14.94z"/><path fill-rule="evenodd" clip-rule="evenodd" d="M50.855 16.752v17.115c.66.258 6.828 2.628 8.164 3.14V19.89c-.663-.256-6.825-2.626-8.164-3.138zM74.444.022l5.03 17.8L84.51.022H95.8v28.529h-8.4v-8.717a88.39 88.39 0 01.594-9.593h-.08l-5.19 18.308H76.23L71.035 10.24h-.078c.276 2.5.595 6.34.595 8.642v9.666h-8.398V.022h11.29zm41.286 18.819l-3.011-10.219-2.892 10.22h5.903zM117.554.022l10.229 28.529h-9.317l-1.109-3.765h-9.315l-1.068 3.765h-9.151L108.042.022h9.512zM139.761 21.9h1.982c4.358 0 6.735-2.303 6.735-7.691 0-5.945-1.951-7.528-6.935-7.528h-1.782V21.9zM130.407.021h12.526c9.188 0 14.899 4.282 14.899 13.67 0 10.743-5.986 14.874-15.14 14.874h-12.285V.022zm44.94 18.82l-3.014-10.219-2.894 10.22h5.908zM177.166.022l10.224 28.529h-9.312l-1.109-3.765h-9.315l-1.068 3.765h-9.154L167.654.022h9.512z"/><path d="M182.949 0v7.196l2.548 7.149h5.123V0h-7.671z"/><path fill-rule="evenodd" clip-rule="evenodd" d="M215.407 22.27h-11.558l4.804-3.363c4.201-2.96 6.484-5.323 6.481-9.804-.007-5.362-4.213-9.005-10.331-9.005-5.443 0-8.403 2.121-11.405 5.998l5.243 4.362c2.194-2.521 3.682-3.601 5.562-3.601 1.88 0 3.121 1.08 3.121 2.84 0 1.683-.961 3.044-3.601 5.043l-10.486 8.005v5.852h22.173l-.003-6.327z"/></g></svg>