<svg width="307" height="134" fill="none" xmlns="http://www.w3.org/2000/svg"><path d="M239.751 61.357s6.906-7.18 8.784-7.376c.598-.058.859.964.169 2.1-.169.31.032.705 1.167-.487 1.135-1.191 3.473-4.85.37-6.64-2.565-1.473-5.119-.68-5.119-.68s-2.505-4.227-9.333-.964c-4.896 2.342-6.91 2.864-11.285 3.038-5.262.201-15.387-1.838-27.961-15.118l-22.558-7.377s-24.006-12.182-34.256-25.117c-.397-.832 1.651 12.446 19.737 24.798.056.112-16.931-5.85-28.728-18.104-.279-.341 2.752 11.16 17.617 19.215-.247.063-11.981-2.797-20.917-9.688-.055-.053 2.561 10.22 20.25 14.816.114.053-10.635-1.874-19.962-5.788-.796-.625 5.12 7.885 18.372 10.442 0 0-3.324-.332-6.636-.908-2.619-.455-7.734-1.664-7.734-1.664s1.115 3.35 13.973 5.919l-10.069-1.265s.51 3.052 14.559 5.382c-.402.312-5.92-.315-10.156-1.792 0 0 1.024 3.184 10.809 6.076 1.792.51 4.009.879 6.565.932.114 0 6.373 6.556 9.385 7.635.91.337 1.166.018 1.534.255.344.218.152.453.658.823.511.37.859-.07 1.348.208.53.303.287.642.881.992.597.353 1.075-.183 1.53.103.457.284.214.846.845 1.183.627.339 1.18-.219 1.747.102.575.335.109.877.937 1.299.823.424 1.137-.031 1.764.272.598.29.141.897 1.051 1.352.905.455 1.421-.205 1.905.192.484.393.415 1.026 1.363 1.812.992.825 3.002 2.035 4.635 2.729 0 0-18.637 2.624-26.832 5.174-.07 1.374 1.467 3.124 4.439 4.369.609.267 3.767 1.535 6.596 1.677 0 .038-8.035 3.503-9.429 5.27.247.344 2.801 2.218 13.937.188 0 .036-6.614 4.2-7.908 6.185.087.172 6.431 2.653 13.694-1.46 0 .036-1.988 1.973-2.601 3.75-.027.093 4.753.08 8.137-2.826-.035.072-.718 3.37 4.027-.379 0 .065 1.956 2.02 9.092-7.707.941-1.34 1.907-2.753 2.743-4.61 2.94-.459 6.556-1.092 9.777-2.094.069.035 2.313.772 4.508.602 2.218-.165 1.385.498 3.511.877 1.591.281 2.003-.272 2.862-.192.797.074.884.562 2.336.725 1.311.152 1.777-.294 2.81-.051 1.207.281 2.226 1.218 7.747 1.823 4.959.544 8.227-.286 9.773-1.42-.036.039 8.608 1.304 9.924-1.452 0 0 8.9 1.027 8.588-1.29.479-.053 11.985 2.044 13.919-1.552.035-.036-6.692-1.018-6.143-1.228 1.189 0 15.618 2.488 18.804-1.885-1.325-.082-10.709-1.62-10.578-1.7.179-.116 17.484 2.146 20.446-3.717-.622-.056-13.901-.511-14.077-.835-.105-.145 15.614.779 16.578-5.254-.96.17-8.182.87-15.985.455.234-.348 15.108-1.401 16.591-8.51-.684-.013-7.423 5.324-29.35 3.905-2.579-.116-8.648-1.444-15.929.879-7.393 2.213-12.095 1.399-12.204 1.399-.118 0-4.347-.866-7.044 2.177z" fill="#949494"/><path d="M197.174 68.911c0 .002-29.278 4.376-35.935 6.509-.131.044-.349.106-.467.148-.014.23.217 1.076 1.105 1.808 2.258 1.955 7.79 3.843 11.036 3.446-.114.07-6.112 2.998-8.059 4.062-1.947 1.076-2.509 1.595-2.509 1.595s1.862 1.888 15.054-.446c-.443.227-8.43 5.776-8.845 6.657.06.237 6.93 2.635 14.969-2.914.078.01-1.636 1.634-2.977 3.36a17 17 0 00-.85 1.213c-.252.404-.277.553-.277.553h.085c.065 0 .16.009.256 0 1.128-.063 4.501-.497 7.91-3.424-.174.296-1.474 4.048 3.444-.022.078.132 1.252 1.85 6.762-4.892 5.394-6.751 5.039-8.528 5.039-8.528l-5.741-9.125z" fill="#949494"/><path d="M198.067 69.57c-.004 0-26.437 5.222-31.278 6.956-.091.044 4.449 3.13 11.163 2.828-2.13 1.308-9.748 5.125-10.589 6.062.393.245 9.165-.443 14.651-1.531-2.18 1.959-6.292 5.306-7.974 7.274.1-.072 4.944.183 12.481-4.467-1.102 2.93-4.252 6.508-4.252 6.508s4.555-1.596 7.676-5.125c-.152.252-2.834 6.194 3.062.297-.005.304.153 3.148 5.656-4.317 4.282-6.2 2.615-8.04 2.615-8.04l-3.211-6.444zm76.198-7.829s23.752-1.477 29.382-8.005c-.002 0-1.822 8.117-29.382 8.005z" fill="#949494"/><path d="M237.702 60.51c-4.223 4.333-27.97 14.28-29.726 15.654l3.657.49c1.046.744 3.054 1.035 3.913 1.084.85.047 1.009.071 1.339.042l1.106-.085c.484-.044.749.003 1.063.213.805.54 1.151.719 2.148.808.602.054 1.061-.046 1.467-.149.531-.14.948-.273 1.361-.063 1.233.651 2.452.774 3.806.531.439-.082.818-.085 1.233.107 1.495.696 3.231 1.121 4.848 1.425.888.165 1.919.353 3.275.446 1.347.099 2.052.078 4.231-.042 2.179-.116 4.129-.912 3.785-1.064-5.403-.53-7.115-2.015-6.422-1.85 13.114 3.249 16.941 1.061 16.352.744-6.728-1.445-8.17-2.496-7.931-2.594 11.01 3.052 17.355 1.98 16.628 1.467-5.8-1.54-11.865-4.488-11.865-4.488 15.683 5.038 22.294 4.208 24.708 3.382.95-.321 1.256-.622 1.212-.595-15.01-2.122-17.564-4.666-17.564-4.765 17.698 4.476 25.375 3.504 28.429 2.531 1.285-.415 1.742-.83 1.786-.83-19.203-2.724-19.463-3.886-19.753-3.998 25.799 5.01 29.875-1.444 29.726-1.446-14.247-.205-22.59-1.933-24.007-2.17 24.76 2.397 26.58-3.721 26.58-3.721-6.871.959-18.08.342-25.325-.107-7.528-.562-10.279-.41-20.817.979-19.857 2.704-19.243-1.936-19.243-1.936z" fill="#949494"/><path d="M237.766 60.978c-1.535 1.613-23.164 10.391-27.26 13.59l14.842 2.617c9.141 4.003 18.223 3.242 17.542 2.956-6.832-1.057-8.92-4.274-7.91-3.828 11.981 3.708 19.105 2.987 18.563 2.701-8.871-1.747-8.287-4.11-8.548-4.232 5.673 2.41 16.466 3.161 15.799 2.68-10.43-2.93-10.823-5.403-10.823-5.403 16.246 4.344 22.246 4.165 23.879 3.977.296-.03.444-.078.489-.085-16.012-2.287-17.479-6.334-17.479-6.423 17.388 4.092 26.472 3.807 29.492 3.53.763-.073 1.124-.127 1.149-.127-19.427-1.771-20.271-5.368-20.541-5.466 17.214 3.209 29.697.536 29.556.532-20.363-.26-25.156-3.713-25.431-3.829 19.674 1.964 27.855-1.574 27.855-1.574-3.589.797-21.362-.811-28.025-1.233-6.944-.511-6.107-.253-15.82 1.02-14.421 1.402-17.329-1.403-17.329-1.403z" fill="#949494"/><path d="M270.788 68.899s22.442 2.345 29.734-1.433c0 0-3.533 6.395-29.734 1.433zM260.319 71.2s21.881 4.172 30.236 1.706c-.158 0-4.24 5.005-30.236-1.707zm-8.353 1.98s18.197 5.032 25.913 2.78c.002 0-3.96 4.378-25.913-2.78zm24.53-7.878s23.64 2.704 26.593-3.726c-.002.002-5.487 4.378-26.593 3.726zM140.72 4.722c-.002-.003 5.606 16.24 26.005 25.905-1.128-.366-21.943-5.579-35.148-19.716.056.116 7.302 15.529 23.666 19.567-.968-.17-14.703-1.342-26.813-10.209.348.32 5.223 11.338 26.579 14.4 0 0-9.926 1.154-25.92-5.573.301.216 9.25 9.643 24.942 9.656 0 0-9.102 1.198-21.114-2.19-.353.251 8.852 5.598 21.433 5.487.143.013-4.144 1.29-17.648-.979-.558.038 7.268 4.539 19.222 4.722.142.013-5.469 2.207-14.885-.957-.383.167 7.544 5.748 16.649 5.721l1.553 1.447s6.255 6.534 8.76 6.253c.388-.045.881.126.999.51.079.241.168.388.404.51.192.103.383.07.575.043.196-.031.407-.071.659.043.553.25.405.64.701.893.324.288.787.297 1.191.212.68-.142.908.482 1.127.915.21.41.724.522 1.382.32.362-.117.786.067.978.446.156.312.142.716.426.957.296.254.752.305 1.127.234.278-.05.665-.047.893.128.292.218.321.637.489.914.169.281.552.733 1.828.532.754-.103 1.011.6 1.276 1.19.357.822 2.029 1.82 2.573 2.17.979.63 3.205 1.736 3.955 2l1.871-.256h.043s4.509 1.683-4.083 8.678c1.486 2.544 29.81 2.361 46.078-11.655 1.32-1.138 2.826-2.764 4.231-4.063.022-.205.369-10.305-1.574-14.803 0 0-17.736 11.3-38.231-12.336-.415-.24-1.759-.091-3.423.043-2.748.22-6.323.434-7.804-1.021 0 0-34.294-16.282-44.972-30.138z" fill="#949494"/><path d="M227.793 62.318l-6.527 1.149c-7.118 8.661-28.758 13.304-30.322 13.612 1.517.084 1.191.638 1.191.638.388 1.352-.149 1.808-.149 1.808 2.953-.005 4.704-1.256 5.38-1.66.165.924.085 2.021.085 2.021 25.221-1.89 35.998-13.782 35.998-13.782l-3.253 1.403c-.709.326-.042-.17-.042-.17l2.062-2.105-2.913.808 1.829-1.723-5.912 1.298 2.573-3.297z" fill="#949494"/><path d="M244.979 49.44s-2.373-5.488-11.619-.28c.04 0 1.595-.686 2.021-.326.04-.076-1.637.25-4.597 2.405 0 0 .758-.228.876 0 .04-.04-3.259 2.115-9.288 1.894 0-.042.513.449 3.098.594.031 0-2.387 1.022-6.312.339-.027 0 .156.883 2.377 1.338 0-.035-2.366.665-4.287.62 0 .056.489.652 3.154.793.036 0-1.015.881-3.355 1.533 0 0 1.399.401 5.381-.652.031 0-1.852 1.274-4.923 2.751 0 .027 1.65.23 4.954-.397 0 .031-.489.74-2.561 1.758.027 0 1.765.058 3.926-.54 0-.026-.767 1.111-2.902 2.414.056-.03 1.704.027 6.513-1.137.027 0-2.021 2.695-2.761 3.378.06-.085 2.449-.422 4.47-1.022.792-.197 1.901-.594.85.339-1.06.937-1.111 1.107-1.111 1.107s1.878-.424 2.588-.737c.031 0-1.508 1.875-2.327 2.352.078.031 2.44-.509 3.69-1.245.031 0 .196 1.245.827 1.673-.027 0 3.355-4.792 6.09-7.037 1.76-2.07 5.824-5.901 6.138-6.636.906-1.789-.74-4.881-.91-5.279z" fill="#949494"/><path d="M238.439 49.954s-.219 1.318 2.496.807c0 0-2.074.884-2.94-.468 0 0-.776-.047-1.537.183-.002 0 .984-.429 1.981-.522zm.069-.241s.906-.656 2.55-.065c.127.044.096.098.227.15.065.022.161.026.223.037.174.036.339.047.513.056.17.014.31.01.476-.009.136-.022.292-.102.283-.254-.005-.232-.196-.406-.388-.509-.252-.134-.518-.102-.518-.102s.192.111.283.234c.141.196.052.417-.814.118-.002.002-2.569-1.035-2.835.344z" fill="#949494"/><path d="M241.415 50.016c0 .384-.553.692-1.238.692-.676 0-1.234-.308-1.234-.692 0-.384.558-.692 1.234-.692.685 0 1.238.308 1.238.692z" fill="#949494"/><path d="M241.058 49.97c0 .28-.37.51-.823.51-.453 0-.823-.23-.823-.51 0-.282.37-.512.823-.512.453 0 .823.23.823.511z" fill="#949494"/><path d="M240.679 49.967c0 .152-.197.277-.444.277-.248 0-.449-.125-.449-.277 0-.152.201-.277.449-.277.247 0 .444.125.444.277zm-.339-.607s.319.442.713.562c.393.12.005-.5.005-.5l-.718-.062z" fill="#949494"/><path d="M236.291 47.644c-1.046.424-2.066.915-3.085 1.4-1.28.608-3.306 1.15-3.502 1.209.051-.02 2.248-.357 3.955-1.14.448-.21.914-.393 1.367-.58.823-.34 1.655-.661 2.501-.938 1.517-.5 3.468-.53 4.974.34.941.537 1.202 1.325 1.211 1.405l.005.047c.348-.243.968-.43 1.258-.469-.101-.084-.078-.102-.179-.183-.8-1.048-1.938-1.811-3.245-1.999-1.176-.156-2.409-.029-3.542.308-.576.174-1.156.37-1.718.6z" fill="#949494"/><path opacity=".55" d="M240.615 53.747c-.002 0-2.013 1.342-5.018 2.616 1.53-.409 3.177.11 2.488.893-.431.482-3.132 1.49-3.913 1.829 2.579-.576 2.263.378.17 1.255-.977.535-4.613 1.689-5.167 1.872-.031.022.546-.072 1.212-.17 1.011-.148 2.238-.302 1.808-.043-1.385.83-3.496 1.91-6.166 3.084 0 0 2.666-.353 5.613-1.446.497-.192.104.316-.34.83-.444.508-.963 1.011-.702.829 2.088-.349 2.389-.776 2.403-.702-.589.772-1.666 1.921-2.233 2.403.484-.13 1.594-.512 3.02-1.212-.11.259-.486 1.309-.149 1.786.064.094 1.376-2.281 3.232-4.02 1.329-1.325 2.609-2.663 4.827-4.828 1.777-1.566 3.554-3.48 5.698-4.828-.051-.129-1.196-.022-2.53.085-1.896.152-4.179.311-4.253-.233z" fill="#949494"/><path d="M246.824 48.578c-1.553.002-2.97.395-3.253.638-.632.533-.633 2.552-1.382 3.34-.75.78-2.943.314-3.445 1.19-1.093 2.051 3.21 1.414 6.4.575 1.486-.33.319 1 .319 1l.532-.426c.192-.14.382-.272.574-.404.366-.243.739-.489 1.127-.68a2.32 2.32 0 01.701-.235c.141-.02.426-.092.553-.02 1.267.64.058 2.275.107 2.36.997-.74 3.421-3.882 1.509-6.02-.892-1.008-2.368-1.318-3.742-1.318z" fill="#949494"/><path d="M247.568 52.81c-.508.005-1.004.132-1.488.235-.763.165-1.527.322-2.297.425-.531.07-1.078.145-1.616.149-.535 0-1.111.007-1.637.128-.161.033-.834.175-.468.425.252.165.712.112 1 .085.392-.04.77-.133 1.169-.191.288-.04.584-.075.872-.128.323-.067.629-.131.957-.191.548-.114 1.105-.212 1.658-.32.964-.178 1.972-.318 2.913.043.362.14.766.207.893.872.032-.23.014-.658-.361-1.042-.406-.428-1.066-.49-1.595-.49zm-2.245-3.117c.16.127.027.557-.279.84-.301.282-.689.407-.859.282-.165-.118-.078-.527.223-.808.306-.28.741-.428.915-.314z" fill="#949494"/><path d="M245.296 49.632c.17.12.065.451-.239.732-.296.277-.684.406-.858.281-.165-.12-.061-.45.243-.727.301-.281.68-.413.854-.286zm.261-.553s3.607-.933 4.604 1.74c.045.05-.647-1.624-4.604-1.74zm58.104 4.646c0 .007-6.278 3.255-15.31 3.658-.484.018-.968.044-1.446.064-2.253.103-4.494.162-6.74.17-2.523.01-4.994-.131-7.613-.361-1.206-.098-2.42-.276-3.636-.298a28.958 28.958 0 00-5.167.34c-1.764.282-3.44.825-5.166 1.255-3.52.882-7.366 1.671-11.015 1.234-5.695-.683-7.357 1.744-7.357 1.744 1.495.567 3.113.871 5.252 1.02 1.055.081 4.516.137 8.484-.233 2.84-.259 4.929-.746 7.06-1.127 1.362-.24 2.489-.367 3.869-.532 1.147-.147 2.53-.178 3.679-.149 1.343.034 3.783.307 6.507.425 2.078.085 4.656-.057 6.804-.191 1.595-.098 6.147-.81 7.506-1.042.374-.058 12.812-2.494 14.289-5.977z" fill="#949494"/><path d="M240.19 61.527s1.66-2.425 7.355-1.74c3.642.437 7.501-.34 11.021-1.223 1.724-.424 3.393-.977 5.151-1.258a29.304 29.304 0 015.175-.337c1.224.026 2.427.182 3.647.29 2.614.223 5.066.374 7.597.365 2.253-.015 4.502-.075 6.743-.183.489-.02.969-.046 1.455-.062-.027.915-2.095 1.13-2.757 1.24-1.363.226-2.971.26-4.575.286-2.079.047-4.16.08-6.244-.009-2.025-.084-4.051-.321-6.078-.374-1.156-.032-2.309 0-3.447.142-1.385.17-2.748.426-4.117.67-2.122.379-4.096 1.062-6.935 1.325-2.84.268-4.736.268-6.871-.036-2.114-.305-4.657-.346-7.12.904zm-69.914-28.815c-1.18.004-2.281.154-3.296.489-1.202.395-2.475 1.093-3.338 2.19-.959 1.219-1.71 3.133-1.744 5.467v.319c.023 1.637.397 3.47 1.276 5.402 1.084 2.36 3.315 5.108 6.422 7.997a50.05 50.05 0 005.805 4.637c1.372.948 3.52 1.947 5.167 2.956 0 0 24.18-4.167 33.277-2.467 3.098.584 3.232 1.85 3.232 1.85s.227-1.542-2.361-4.04c-1.708-1.66-4.591-4.03-8.037-6.211-2.679-1.687-4.886-3.435-8.08-5.445-.37-.232-17.335-13.144-28.323-13.144z" fill="#949494"/><path d="M145.419 11.06c0 .17 7.883 12.383 25.92 20.78 0 .055-12.736.009-32.702-13.102.055.116 8.625 9.506 22.836 12.804-.082-.005-.371.035-.85.064-2.574.174-10.857.336-23.815-5.169.118.056 5.075 5.442 24.368 8.338.051-.018-.66.26-2.106.531-3.267.616-10.238 1.23-20.327-1.488.114.062 5.632 3.539 21.327 4.445 0 .056-6.188 2.637-17.734 1.276.214.036 5.739 1.973 17.798 2.084.109 0-5.023 2.157-14.289 1.702.232.23 8.498 2.056 14.927 1.829.051.053-3.993 3.25-11.334 2.51 0 .062 4.833 2.033 10.292 1.574.118.111 6.121 7.567 9.632 7.21.526 0 .82.284 1.021.66.223.41.478.556 1.063.573.109.005.21.01.297 0 .406-.017.643-.044.957.532.339.607.338.7 1.255.723.881.038 1.054.37 1.254.702.344.571.652.862 1.361.808.741 0 1.126.234 1.382.702.261.469 1.126 1.566 2.616 1.021 0 0-16.773-10.293-18.138-19.142-.457-3.253-.24-10.469 8.399-9.826 8.653.642 20.12 7.896 20.838 8.422.04.043-9.994-10.251-9.994-10.251s-17.28-3.473-36.254-20.312z" fill="#949494"/><path d="M172.041 33.328s21.236 16.263 17.627 36.774c0 0 15.982-1.738 16.203-11.464v-.382c-.06-2.727-1.325-6.06-4.465-10.124.002 0-17.288-13.284-29.365-14.804z" fill="#949494"/><path d="M152.939 1.188s-6.295 6.051 22.828 28.827c9.786 7.566 28.593 23.303 40.874 23.152 2.811-.15 3.917-.933-.227-2.348-3.886-1.325-14.102-6.319-19.3-14.864-.796-1.738-4.7-2.802-10.878-6.926.002.002-25.256-14.978-33.297-27.841z" fill="#949494"/><path d="M153.032 2.34c-.034.02-.026 1.628.489 3.105.937 2.695 4.081 8.154 12.843 15.569C178.197 31.023 191.1 40.918 197.77 45.09c6.669 4.175 14.055 6.777 17.776 7.083 2.326-.005-1.829-1.49-1.829-1.49s-5.438-1.661-13.693-8.145c-.545-.437-1.659-1.536-3.062-2.978-.924-.964-1.713-2.45-5.337-4.785-2.358-1.513-3.296-2.159-5.848-3.935-3.99-2.776-27.651-18.432-31.555-26.246-.261-.45-1.103-1.692-1.19-2.254zm85.776 51.321c-.248.248-.328.537-.319.851.009.656 1.021.791 2.105.745 1.398-.063 2.977-.553 2.977-.553-5.494.847-4.763-1.043-4.763-1.043zm-41.485 24.481c-6.377 3.14-7.357.383-7.357.383s-.565.842-.404 1.808c.022.107-.055 2.136 3.891 1.127 1.16-.299 1.276-.262 2.679-.808 1.56-.62 1.191-2.51 1.191-2.51z" fill="#949494"/><path d="M191.263 77.227c-.176 0-.368.056-.595.192-1.051.82-4.62 1.753-4.678 1.744.022-.413-.967-.518-2.02.234-1.321.977.85 1.616.85 1.616.279 1.62 3.206.56 3.636.34.663-.345 1.936-.893 2.786-1.467 1.303-1.089.914-2.063.914-2.063s-.306-.596-.893-.596z" fill="#949494"/><path d="M197.447 77.179c-2.55 1.812-4.941 1.635-4.992 1.696.096-.099.14-.389.165-.518a1.355 1.355 0 00-.005-.5c-.183-1.008-1.316-.95-2.047-.665-.311.12-.605.29-.882.473-1.197.792-3.807 1.111-3.843 1.091-.022-.734-1.53.08-1.49.043-1.064-.38-.06-1.455-.06-1.455-2.697.611-1.151 2.265-1.151 2.251-.344.38.243.886.301.853.136.903 1.307 1.013 1.267 1.013.462.874 1.896.865 2.657.604.584-.191 2.025-.807 2.148-.825.7 1.111 2.87.732 3.602.591 1.189-.237 2.362-.493 3.442-1.064 1.798-.962 1.093-3.387.888-3.588zm-2.684 3.755c-.261.058-.954-.116-1.041-.66.022 0-.467.495.196.87-.013.042-.993.245-1.486.281-.078.038-.928-.071-.872-.716-.018-.02-.575.299-.069.792 0 0-1.416.214-1.724-.792.018-.058-.993.38-1.051.397-.058.018-.622.027-.622-.335 0 .022-.402.326 0 .6 0 0-2.126.826-2.18-.131-.022-.022 2.762-.55 5.325-2.365-.018-.023-1.628.87-2.449 1.057-.161.043-1.002-.15-.984-.698 0-.054-.727.361.232.96l-.484.187-.511.156s-.883-.034-.992-.71c-.023 0-.623.527.292.942 0 0-1.646.69-2.423-.469-.283-.432.284-.932.759-1.12.475-.192 1.146-.312 1.046.197.044-.018 3.299-.634 4.796-1.517.932-.554 2.134.182.832 1.923-.036.04 2.482.444 5.768-1.388 0 .018.562 1.859-2.358 2.54zm-23.548 36.171h23.334c.252-9.278-5.659-16.039-14.316-16.039-9.476 0-15.907 6.413-15.907 15.235 0 8.827 6.458 15.579 17.618 15.614 5.525.018 8.992-1.869 11.642-3.57l.004-5.437s-5.795 3.222-11.459 3.034c-4.965-.167-10.789-2.179-10.916-8.837zm8.949-10.619c4.138 0 7.669 3.568 7.669 5.688h-16.295c0-2.392 3.223-5.688 8.626-5.688zM94.916 89.602v-.187H84.178v.187c1.33.79 1.664 3.053 1.737 5.337v30.185c-.064 2.356-.388 4.77-1.737 5.542v.187h10.738v-.187c-1.354-.812-1.673-3.231-1.738-5.574V95.227c.065-2.362.384-4.808 1.738-5.625zm54.96 19.394c4.187-.834 9.371-3.286 9.371-9.694 0-6.014-4.967-9.914-14.965-9.914l-3.843.027H129.7v.187c1.33.79 1.66 3.053 1.738 5.34v30.186c-.069 2.354-.388 4.768-1.738 5.538v.187h10.739v-.004l6.029-.014c9.206 0 15.911-3.342 15.911-11.812 0-8.3-8.543-9.973-12.503-10.027zm-11.171-13.684c.009-.259.023-.517.036-.783 1.015-.056 1.943-.16 2.971-.16 7.703 0 10.134 1.851 10.134 5.653 0 5.319-5.728 6.489-11.354 6.489-.553 0-.676 0-1.787-.094V95.312zm6.195 30.195c-2.374 0-3.922-.111-6.195-.477v-13.013a22.02 22.02 0 012.483-.149c7.294 0 13.431.732 13.431 7.158.002 3.889-2.369 6.481-9.719 6.481zm70.066-23.722l-.009.192c1.002.785.444 3.021-.401 5.288l-5.925 14.619-8.133-20.099h-8.922v.192c1.65.79 2.893 3.052 3.89 5.341l7.209 17.81c1.948 4.507 7.442 5.725 7.442 5.725h.323l11.767-29.068h-7.241zm-89.013 23.305l.013-13.606c-.078-2.187-.388-4.436-1.55-6.091-1.999-2.95-6.016-4.324-9.525-4.324-3.959 0-5.65.187-8.57 2.713l-.031.044.004-2.017h-9.04v.195c1.325.785 1.66 3.045 1.733 5.332v17.792c-.07 2.354-.384 4.768-1.733 5.542v.183h10.731v-.183c-1.343-.816-1.664-3.23-1.724-5.578l.018-13.369c.214-3.039 1.842-5.962 5.851-5.962 4.958 0 6.491 2.544 6.553 8.657v10.71c-.064 2.354-.383 4.768-1.733 5.542v.183h10.736v-.183c-1.349-.818-1.671-3.233-1.733-5.58zm-59.587-16.094c4.196-.834 9.38-3.286 9.38-9.694 0-6.014-4.968-9.914-14.97-9.914l-3.843.027H46.197v.187c1.33.79 1.655 3.053 1.724 5.34v11.834c-4.196.13-8.046.643-11.546 1.428l-7.61-18.787h-9.42l.008.188c1.006.79.422 3.052-.426 5.339L6.703 125.13c-1.023 2.354-2.317 4.768-3.981 5.538v.188h8.931c.132-.237 2.737-4.659 8.684-9.171 3.007-2.276 6.852-4.543 11.693-6.261l3.935 9.706c.883 2.354 1.537 4.768.506 5.538l-.004.188h9.078l-6.975-17.241a56.62 56.62 0 019.353-1.082v12.597c-.056 2.354-.383 4.768-1.724 5.538v.188h10.736v-.005l6.025-.013c9.22 0 15.915-3.343 15.915-11.812 0-8.303-8.538-9.976-12.509-10.03zm-48.989 7.716l7.589-18.734 4.905 12.107c-5.057 1.825-9.197 4.201-12.494 6.627zm37.825-21.4c.004-.259.013-.517.035-.783 1.015-.056 1.948-.16 2.967-.16 7.707 0 10.138 1.851 10.138 5.653 0 5.326-5.732 6.489-11.349 6.489-.553 0-.68 0-1.791-.094V95.312zm6.194 30.195c-2.37 0-3.921-.111-6.194-.477v-13.013a22.092 22.092 0 012.487-.149c7.296 0 13.43.732 13.43 7.158 0 3.889-2.373 6.481-9.723 6.481z" fill="#949494"/><path d="M189.831 80.29s.141.231.937-.103c0-.014-.658.022-.805-.397 0-.012-.319.307-.132.5zm48.938-18.103s5.503 2.874 23.056-.32c0 0 3.607-.684 7.785-.46 0 0 11.468 1.084 21.073-1.973 0 0-10.326 1.932-18.568 1.294 0 0-5.637-.808-10.29.257 0 0-15.518 3.07-22.15.33l-.906.872zM153.022 2.348s7.66 13.35 41.86 32.572c.776.397 1.516.928 1.969 1.686.531.889.993 1.792 1.604 2.631 1.011 1.397 2.191 2.689 3.411 3.896a38.38 38.38 0 004.434 3.726c1.006.716 2.436 1.513 3.52 2.108-.078 0-7.584-3.003-14.938-11.399-1.504-1.617-6.92-4.81-7.21-4.993-.198-.134-32.516-21.157-34.65-30.227z" fill="#949494"/></svg>