<svg width="137" height="136" fill="none" xmlns="http://www.w3.org/2000/svg"><g opacity=".4" fill-rule="evenodd" clip-rule="evenodd" fill="#000"><path d="M135.961 66.856v-2.73h-.175c-.087 0-.196-.022-.174-.153.065-.219.24-.306.174-.656-.043-2.402-.261-4.652-.785-6.552-.349-.066-.065-.787-.153-1.136-.13-2.097-.85-3.626-1.112-5.613h-.152v-.48h-.153v-.656h-.175v-.48h-.152v-.656h-.153c-.022-.197.022-.459-.174-.48-.415-.132-.218-.852-.48-1.136.043-.131-.066-.153-.153-.175v-.633c-.523-1.726-1.199-3.299-1.919-4.806-.044-.109 0-.327-.153-.327h-.152c-.066-.197-.218-.284-.153-.634 0-.546-.218-.851-.48-1.136-.436.11.109-.764-.327-.633-.196-.065-.327-.197-.327-.48v-.153c-.044-.131 0-.328-.153-.328-.065-.306-.065-.699-.48-.655-.043-.197.022-.459-.174-.48-.218-.066-.305-.241-.654-.175v-.328c.196-.022.174-.24.174-.48a59.838 59.838 0 00-3.031-4.806c0-.48-.415-.546-.48-.96.022-.612-.305-.853-.785-.962v.153c.283.197.632.328.654.808-.109 0-.196-.022-.174-.153-.088-.24-.24-.415-.48-.48v-.175c-.218-.044-.131-.393-.153-.633-.174 0-.196-.131-.305-.153.065-.7-.284-1.005-.807-1.136.087.437.676.415.654.96-.218 0-.152-.283-.327-.305a.752.752 0 00-.48-.48v-.175c-.218-.371-.545-.612-.785-.961-.043-.24-.262-.284-.305-.48.436.196.632.655.959.96-2.05-3.058-4.492-5.722-7.393-7.95.022.044.044.087.044.131 0-.087-.044-.131-.087-.153-.066-.066-.153-.11-.219-.175 0 .066.044.088.066.11-.044-.022-.066-.044-.066-.11h-.305c-.894-1.965-2.77-2.883-4.492-3.997v.175c.414-.022.501.24.654.48.196.219.785.066.807.481v.153c-.306-.022-.545-.087-.655-.328-.13-.021-.174-.13-.152-.306-.218-.152-.48-.262-.654-.48-.153 0-.175-.131-.306-.175a.803.803 0 00-.48-.48v-.153h-.305c-.305-.328-.916-.371-1.112-.808-.044-.131-.131-.175-.327-.175v-.153c-.327 0-.197-.437-.633-.306-.043-.48-.85-.24-.959-.655-.197-.328-.524-.546-.96-.633 0-.197-.283-.132-.305-.306-.175-.044-.458.022-.48-.175v-.153c-.131-.043-.305 0-.305-.175-.218.022-.349-.065-.48-.152-.131-.044-.327 0-.327-.175-.066-.197-.197-.328-.48-.328-.371.066-.611-.043-.654-.306-.218-.327-.72-.37-1.135-.48-.021-.197-.043-.371-.305-.328 0-.218-.283-.153-.327-.327h-.632c-.088-.022-.197-.022-.175-.153-.349-.437-.894-.7-1.592-.808-.109-.197-.349-.284-.654-.306-.11-.219-.35-.306-.633-.328-.676-.437-1.592-.655-2.399-.96-.043-.22-.392-.154-.654-.154-.153-.393-.654-.437-1.112-.48-.044-.131-.131-.175-.327-.153h-.327c-.175-.022-.458.022-.48-.175v-.153h-.48c-.044-.13-.174-.153-.174-.327-.502.087-.546-.284-1.113-.153-.043-.197-.261-.175-.48-.175-.021-.175-.261-.175-.48-.153-.196.022-.392.044-.326.306-.153-.284-.59-.568-.48.153-.044.13-.131.174-.327.153v-.94c-.24-.021-.611.066-.633-.174V2.16c-.261-.022-.61.065-.654-.175h-.633v-.153h-1.112c-.087 0-.174-.022-.153-.153h-.305c-.261.044-.283-.174-.48-.174v-.153h-1.112v-.153h-.48v-.175h-1.766c-.131.022-.153-.065-.153-.175V.697H77.71V.522c-1.07.13-1.658-.262-2.727-.175h-.785V.194c-1.287 0-2.988-.437-4.166 0h-.305c-.174-.371-1.003-.065-1.44-.175v.175h-2.246V.02h-1.766c-.066.35-.785.066-1.112.175v.153h-.48c.065-.262-.873-.262-.807 0-.327.153-.284.699-.785.655V.348h-.807v.175c-.022.175-.284.13-.48.175h-1.766C57.666.784 56.882.5 56.75.849h.632c-.13.372-.894.066-1.287.175V.85c-.109.219-.61.022-.654.328v.153h-.327v.153h-.632v.175H53.02v.152c0 .153-.196.132-.327.153v.175h-1.44v.175c0 .087-.02.196-.152.175h-.654c-.11.196-.327.305-.633.327h-.96v.153c-.043.131-.13.197-.326.175h-.306c-.218-.022-.457-.044-.48.153-.48-.11-.457.284-.959.153-.022.109-.022.196-.174.174v.153c-.24.088-.83-.175-.807.175-.175-.022-.284.044-.306.153h-.327c-.109.218-.61.022-.654.306-.13.043-.305 0-.305.174-.022.088-.022.175-.153.153h-.654v-.153c-.61-.043-.829.35-1.287.48v.176c-.044.174-.305.109-.305.327h.152c.153.568-.632.219-.96.306 0-.197.284-.131.328-.306v-.153c-.61.175-1.156.437-1.592.787h.305v.174c-.392-.021-.676.088-.807.328-.087.044-.283.022-.283.175-.066.196-.197.327-.48.306h-.305c-2.923.96-6.216 2.948-8.484 5.132h.174c-.043.131-.13.175-.305.153v.175h-.174c-.328.044-.306.437-.633.48-.13.044-.305 0-.305.175h-.175c-.065.372-.501.372-.654.634-.262.218-.502.458-.785.633-.327.066-.305.437-.633.48-.13.044-.305 0-.327.154 0 .284-.13.415-.305.48-.13.044-.327 0-.327.153-.044.218-.35.175-.48.306.066.502-.414.458-.654.655.174.524-.218.524-.633.48 0 .153-.13.197-.174.306-.196.066-.262.284-.48.328-.174-.022-.283.044-.305.175v.153c.13.043.196.13.152.305h-.632v.175c-.153.066-.284.131-.327.306-.262.218-1.069.743-.785.96v.176c0 .153-.197.109-.306.153-.261-.044-.283.152-.48.152h-.152c-.022.197-.044.394-.327.306v.175c-.044.328-.436.306-.48.633-.305.066-.022.743-.632.48v.329h-.175c-.218.458-.741.655-.96 1.114h-.174c-.044.13 0 .327-.153.327-.021.087-.021.197-.174.175-.37-.066.087.72-.48.48v.153c0 .175.13.197.153.306 0 .153-.197.131-.327.175h-.327c-.437.175-.524.633-.807.96-.219.176-.197.547-.48.656-.153.328-.284.677-.633.786-.261 0-.087.437-.327.48v.481c.044-.065.087-.13.131-.174-.044.065-.087.109-.13.174h-.306c-.175.044-.24.175-.305.328-.197.48-.698.677-.786 1.267-.545.35-.458 1.376-1.112 1.616.044.197.218.306.153.634-.284-.022-.502.022-.633.153-.196.284-.545.415-.48.96-.043.175-.174.24-.305.306.044.372-.043.612-.327.634-.174.24-.458.393-.48.808-.043.131 0 .306-.152.328.043.37-.044.59-.306.633-.24.35-.305.874-.654 1.114h-.153c.11.699-.523.655-.48 1.289-.043.13 0 .305-.152.327-.284.153-.349.503-.327.961-.175.022-.175.262-.153.48-.545.197-.305 1.18-.807 1.442-.022.24.066.59-.152.634-.48-.175-.284.35-.328.633.131.502-.545.197-.305.808.022.393-.087.656-.327.808-.327.918-.829 1.617-.96 2.73v.656H3.69c.022.218.022.437-.175.48-.174.044-.174.263-.174.481h-.175v.655c-.022.175.044.437-.152.48-.088.241.196.83-.175.809-.022.197.022.437-.174.48-.35.022-.066.678-.153.962v.174c.022.393-.087.656-.327.808v.808c.13.022.174.153.327.153v.175c.065.328-.218.306-.48.328h-.174v.153c-.088.24.174.83-.153.808-.087.284.196.96-.153.983-.218.043-.13.393-.152.633h.152c-.087.219.175.83-.152.808-.022.24.065.59-.175.634h-.152c.109.786-.153 1.245-.153 1.922h.153v.808H.92v.961c-.087.284.196.94-.175.961-.174.022-.13.306-.152.48v.656c.152 0 .196.284 0 .306v1.114h.152v.96c-.13.458.219.415.175.808H.745c-.392.502-.065 1.66 0 2.25-.021.24.066.59-.152.633v.633h.152c.48.131-.087.525 0 .808v1.442H.92v1.463c.087.35-.196 1.049.153 1.136.37.131.065.896.152 1.267a6.436 6.436 0 00.327 2.25c.11 0 .197.022.153.153v1.441c.218.066.13.415.153.634h.327v.96c.043.241-.066.59.174.656.131-.022.153.066.153.175v.48c.13.044.174.131.153.328v.306c.087 0 .196.022.174.153v1.114c.11 0 .196.021.175.152h.326v.656c.349-.044.065.568.174.786.087 0 .196.022.175.175v.808h.152c.088 0 .197.022.175.153v.48c.022.197-.022.437.174.48v.481c.676-.24.022.83.48.808-.13.437.218.415.153.787h.174c.087 0 .196.022.175.153v.633c0 .11.021.197.152.153-.021.393.088.633.306.786v.328c.218.196.065.786.48.808-.022.393.087.677.327.808.021.306.109.546.305.655.044.197-.022.46.153.481a3 3 0 00.654 1.289c.065.415.218.742.48.96.174.569.349 1.158.807 1.442-.022.284.13.415.305.481.24.131.349.393.305.808.197.065.327.196.327.48.284.306.502-.218.633.328-.11.044-.175.131-.153.306 0 .48.153.808.48.961.174.153.327.306.48.459v.655h.152c.022.087.022.196.175.153.218.043.262.262.48.327v.459c.327.066.305.437.48.655v.306c.196 0 .218.197.48.153.217.197.24.612.48.808.217.044.173.35.326.481.218.153.327.436.48.655-.022.284.13.415.305.48.48 1.529 1.527 2.534 2.726 3.364 0-.153-.13-.196-.152-.306h.305v.459c.153 0 .196.153.327.175.044.218.262.284.306.48h-.153c-.327-.043-.305-.437-.654-.48 2.988 3.363 6.063 6.64 9.923 9.151.087.022.196.022.152.153h.328c.218.066.261.284.48.328.305.175.544.415.806.633.916.787 1.92 1.486 3.032 2.097.043.109.13.175.305.153.218.066.305.24.654.175-.24.568.545.087.48.48.13.241.24.503.654.481.044.131.131.175.327.153.11.306.415.437.786.458.305.328 1.09.197 1.112.809h.305c.414-.088.633-.284.654.305.437.35.982.612 1.593.809.108.218.348.305.632.327.763.459 1.57.874 2.552 1.114.13.219.414.35.806.328.153 0 .175.131.306.153.305.043.327-.219.48-.328.392.131.48.59.806.808.044.131.131.175.328.153.196.219.545.306.96.328.043.196.261.174.48.153.304.043.348-.197.653-.153v.153c-.152-.044-.152.065-.174.153.022.196.262.174.48.152.283 0 .501.044.632.153.415-.022.676.088.785.328v.153c.24.022.59-.066.633.175h1.112v.305h.808c.196-.022.283.022.305.153a32.063 32.063 0 006.237 1.289c.131-.044.306 0 .328-.175v-.153c.305-.043.327.219.48.328h.327v.153c8.832 1.594 19.366.458 27.02-1.442v-.153h.48v-.153h.655v-.152h.48c-.175-.481.37-.306.632-.328.196-.022.458.022.48-.153.414-.044.763-.109.96-.328.414-.021.763-.087.96-.305.043-.131.13-.197.326-.153.218-.044.066-.481.306-.481.065.131.13.284.327.306.196-.022.458.044.48-.153.13-.044.305 0 .305-.153.567-.022.916-.262 1.287-.48.13-.044.305 0 .327-.153 2.246-.568 3.729-1.922 5.91-2.578v-.152c.305-.022.545-.11.632-.328.524-.219.895-.59 1.44-.808.414-.022.545-.306.785-.481.283 0 .414-.131.48-.327.043-.131.131-.175.327-.153.065-.262.523-.131.327-.656.24.197.414.197.632 0 .24-.458 1.091-.283 1.287-.808.415-.022.567-.305.785-.48.087-.022.197-.044.153-.175.131-.044.305 0 .327-.153.022-.262-.022-.568.305-.48.437.109.328-.328.655-.328.196-.044.24-.284.479-.306.131-.043.306 0 .306-.153.043-.174.174-.262.305-.327.175-.219.436-.328.654-.503v.175c4.929-3.385 9.073-7.557 12.475-12.494-.305.219-.393.678-.785.809.065-.372.545-.306.48-.809.523-.283.676-.939 1.112-1.288.414-.24.676-.612.807-1.114.153-.219.262-.481.48-.634.567-.524.85-1.288 1.286-1.922-.087-.502.197-.655.48-.808.044-.043.066-.087.109-.131.567-.633.938-1.463 1.331-2.293v-.634h.305c.632-.742 1.003-1.769 1.439-2.73v-.328c-.065-.262.131-.305.327-.305.131-.044.175-.131.153-.306.414-.983.96-1.835 1.265-2.883-.022-.415-.044-.787.327-.808.524-1.093 1.003-2.206 1.287-3.517.044-.306-.175-.35-.153-.633h.48v-.328c.196-.022.175-.262.175-.48h.152v-.634h.153c-.109-.502.283-.48.174-.961h.153v-.655c.218-.066.131-.415.153-.656h.152v-.48h.153c1.199-5.373 2.006-11.117 2.072-17.626-.24.021-.218-.197-.218-.437zm-7.023 28.853c.284-.066.306.131.327.328-.218-.022-.392-.066-.327-.328zm-2.922 7.754v-.066.066zm0-.109c0-.022 0-.044-.022-.066.022.044.022.066.022.066zm-.044-.131c0-.022-.022-.044-.022-.066 0 .044.022.044.022.066zm-.043-.132c-.022 0-.022-.021-.022-.043 0 .022 0 .043.022.043zm-1.963-1.616c-.131-.044-.196-.131-.175-.306.109-.284.371-.087.327.153.044.131-.043.131-.152.153zm2.246-8.496c-.196.022-.283-.044-.327-.153.022-.24.414-.175.327.153zm-6.39-60.568v-.655c.502-.088.72.13.633.633h-.175c-.153.022-.305.022-.458.022zm2.225-3.997h-.48c-.393-.066-.109-.743.327-.48v.174c.153-.022.131.175.153.306zm.807 5.92h-.306v-.329c.175.022.371.066.306.328zm3.511 6.901v-.328h.305c.044.132.175.175.175.328 0 .131-.197.11-.306.153h-.174v-.153zm1.766 54.3v-.154c.327-.087.393.306.153.328-.131.022-.153-.066-.153-.175zm1.767-8.803c0-.153.196-.131.305-.175v.634c-.283.043-.371-.132-.305-.46zm.305-3.997h-.152c-.153-.022-.131-.219-.153-.328.196.022.371.044.305.328zm.175-35.58h-.306c.022-.197.044-.394.306-.306v.305zm-.96 3.057v.306h-.327c.022-.197.044-.371.327-.306zm.96 0h-.153v-.328h.632c.197.066.328.197.328.481-.24.044-.262.284-.48.328-.284-.066-.306.13-.327.327h-.153c-.087-.393.283-.371.153-.808zm2.224 7.994c-.043.11-.131.197-.305.153-.066-.24.196-.415.305-.153zm-.632 14.11h.327c-.022.197-.044.371-.327.306v-.306zm2.246 2.556c-.131.087-.262.174-.48.153v-.48h.153c.196.02.371.043.327.327zm-.327-6.728c.022-.196.065-.393.327-.327h.153c-.088.196-.197.327-.48.327zm1.592-1.616h-.654c-.153-.393.719-.524.654-.328v.328zM131.49 49.23c.414 0 .196.131.153.328-.022.197-.284.131-.48.175 0-.284.131-.437.327-.503zm-2.072 34.445v.306h-.327v-.306h.327zm-.96 11.38v-.306c.197.022.371.043.306.306h-.306zm.96-5.439c-.611.131-.218-.764.153-.655v.327c-.131.044-.175.153-.153.328zM124.925 33.7h.48v.48h-.48v-.48zm-5.277-9.786a5.98 5.98 0 00-1.113-1.114c.567.175.938.547 1.113 1.114zm-5.583 1.617c-.415.022-.502-.24-.633-.48-.022-.088-.022-.175-.174-.154a23.503 23.503 0 01-2.552-2.555v-.175h.153a4.49 4.49 0 001.112 1.114c.087.24.262.393.48.48.131.263.349.612.632.328v-.174h.48c.131-.022.153.065.174.174-.043.284.153.808-.305.634 0 .109.022.196.153.174v.153c-.044.372.458.175.48.48zm.959-5.133v.328h-.305c-.72.021-.153-.546.305-.328zm-1.439 0h-.48v-.48c.414-.088.567.065.48.48zm4.143 5.133h.306v.306c-.175-.022-.349-.044-.306-.306zm0-.655c-.021.196-.065.37-.327.305.022-.174.066-.35.327-.306zm.328 2.883c-.197-.022-.131-.284-.153-.48v-.154c.545-.13.611.612.153.634zm.327-5.614v.503c-.131-.044-.175-.153-.153-.328-.283-.524-.85-.764-1.112-1.289v-.174c.48.393.894.808 1.265 1.288zm-3.991-3.822c.218.044.261.262.48.328a11.274 11.274 0 011.766 1.769h-.153c-.632-.393-.959-1.049-1.592-1.442v-.153h-.327c-.022-.24-.109-.371-.174-.502zm-2.726-2.556c.283.153.501.35.654.634v.175c-.371-.11-.436-.547-.807-.634-.087 0-.196-.022-.153-.153.088-.022.197-.022.306-.022zm-.96 3.342v.306c-.087.131-.174.262-.174.48-.131-.021-.153-.152-.328-.152-.13-.153-.174-.372-.152-.656.218.022.436.022.654.022zm-1.614-3.997c.589-.109.698.24.633.808-.589.11-.698-.262-.633-.808zm-2.399.655c.044-.13.131-.196.305-.174.633.087-.327.655-.305.174zm-3.838-3.385h-.327c-.022-.175.043-.284.174-.328.153 0 .109.197.153.328zm1.439-.328h.327c.197.459-.523.459-.327 0zm.633 4.02v-.307h.327v.306h-.327zm-2.857-6.422c.283-.022.37.153.305.48-.196 0-.218-.218-.48-.153.044-.109 0-.305.175-.327zm-4.493-.634c.087.131.174.262.174.48h-.174c-.109-.108-.676-.502 0-.48zm1.614 3.845v.48c-.48.24-.48-.699 0-.48zm.785-1.923v-.48h.48v.48h-.48zm-7.677-4.324c.175 0 .197-.131.327-.175.24.48-.436.764-.327.175zm-3.031-.961c.022-.197.043-.372.327-.328v.328h-.327zm-27.196-4.15c-.174-.022-.174-.262-.174-.48.065-.547.676.458.174.48zm7.197 2.38h.327c-.043.131 0 .306-.174.328h-.175c.022-.11.022-.218.022-.328zm7.044-.305h-.48c-.087-.415.066-.568.48-.48v.48zm-.152-1.77h-.306v-.327c.175.022.35.044.306.327zm2.704 4.15h-.48c-.218-.436.72-.436.48 0zm2.399-3.494c-.196-.022-.37-.044-.305-.328.196.022.37.044.305.328zm1.767 3.494v.328h-.306c.022-.197.044-.371.306-.328zM68.157 2.466h.305v.327h-.305v-.327zm-8.964.48h-.305c.044-.284-.174-.808.305-.655v.655zm-16.77 3.67v.327h-.328c.022-.196.044-.393.327-.327zm3.99-1.922c-.043-.284.895-.284.633.152h-.306c-.043-.109-.13-.174-.327-.152zm.48 1.922c-.065-.284.131-.306.306-.328v.175c0 .153-.197.13-.306.153zm.48-.808c.109-.372.48.349.785.327-.065.131-.13.284-.327.306-.393.065-.393-.306-.458-.633zm-7.677 2.73c.131.043.197.13.153.306-.327.109-.37-.284-.153-.306zm-10.075 5.766h-.153v-.328c.262-.043.436.219.152.328zm-.48 1.616h.327v.306h-.327v-.306zm4.165-4.324c.022-.24.415-.175.327.152-.196.022-.305-.043-.327-.152zm-8.33 9.282c.196.022.37.066.326.328-.196-.022-.37-.065-.327-.328zm1.613-.808v.328h-.327c.022-.197.043-.371.327-.328zm-.48 1.748c-.043-.372.458-.175.48-.459 0-.153.196-.131.327-.175-.218.284-.349.634-.807.634zm0-5.898c-.043.131.066.153.153.153.065.35-.218.306-.48.328v-.328c.131-.044.153-.153.327-.153zm-.96 6.728h.175v-.503h.48v.175c-.37.502-.785.917-1.287 1.289-.13-.022-.152.065-.152.174a4.493 4.493 0 01-1.113 1.114c-.13-.043-.152.066-.152.153a2.05 2.05 0 01-.807.808h-.175c.044-.327.436-.305.48-.633.327-.197.61-.459.807-.808.305-.262.741-.437.785-.961.327-.262.829-.372.96-.808zm-13.281 16.01c-.044.371-.698.087-.807 0-.022-.503.894-.066.633-.808.218.065.13.393.174.655h-.654c.065.218.414.13.654.153zM6.11 56.284c0-.153.197-.13.328-.175.043.284-.218.46-.328.175zM2.12 75.833h-.153c.13-.459-.218-.415-.175-.808.306.021.546.109.655.327v.48h-.328zm4.623-29.16c-.022-.174.044-.283.174-.327.131.044.175.153.175.328h-.35zM5.15 83.369v-.174c.196.021.37.043.327.305-.13 0-.327.022-.327-.13zm-1.44-1.616h-.305v-.328h.305v.328zm1.44-1.77c-.196 0-.37-.043-.305-.305h.305v.306zm-1.592-5.744a.786.786 0 01.48-.153v.48c-.328.045-.502-.043-.48-.327zm.785-8.343c-.196-.022-.37-.044-.305-.306.196.022.37.044.305.306zm-1.265.808c.022-.197.044-.371.327-.306.044.24-.152.284-.327.306zm0 2.555c.284-.065.305.131.327.306h-.174c-.131.044-.153-.065-.175-.153.022-.043.022-.087.022-.153zm.48-7.688h-.327v-.306c.283-.065.305.11.327.306zm.785 10.419c-.044-.284.61-.568.48 0-.175.021-.35.283-.48 0zm.327-10.725c-.022.197-.283.131-.48.153v-.48h.153c.283-.066.305.13.327.327zM2.75 75.528c.612-.044 1.026 0 .48.306-.217 0-.457.022-.48-.175v-.131zm3.032 5.766h.327c.153.765-.85.284-.327 0zm-.327-.327c.022-.415.24-.634.654-.656.088.525-.152.721-.654.656zm.175-30.754v.306h-.175c-.13.044-.152-.066-.152-.175.043-.109.152-.175.327-.13zm-.96 38.29h.48v.458h-.48V88.5zm5.28-46.635v-.306h.305v.305H9.95zm-1.112 4.15v.327c-.328.066-.502-.043-.48-.327h.48zm6.542-17.605h-.48v-.48h.48v.48zm-1.766.961h-.153c-.153 0-.13-.197-.174-.306.218 0 .392.022.327.306zm-.633 5.592c-.065-.35.218-.306.48-.328v.48c-.218.022-.349-.065-.48-.152zm1.92-3.495c.196 0 .37.043.327.306-.284.065-.306-.131-.328-.306zm3.053-6.902h-.48v-.48h.48v.48zm.305 3.997v-.175c.284-.065.305.131.327.306-.196.065-.283-.022-.327-.131zm1.767-6.75h.152v.481h-.305c-.022-.196-.044-.437.153-.48zm2.399.175h.305v.328h-.305v-.328zm.806 0h.306c.676.175-.567.677-.306 0zm-.806 1.29h-.175c-.349.02-.502-.132-.48-.482.437-.043.807-.043.655.481zm-1.113-.962v.328h-.327c.022-.197.044-.372.327-.328zm-.48.48c.24.46-.72.46-.48 0h.48zm-.152-.655h-.153c.022-.174-.043-.284-.174-.327.043-.11.13-.197.327-.153v.48zm-3.38 8.344c-.284-.044-.371-.284-.306-.655.48-.153.284.371.305.655zm-.48-2.403h-.48c-.24-.458.72-.458.48 0zm-1.113-1.594v.328h-.327c-.087 0-.174-.022-.152-.153.021-.219.261-.197.48-.175zm-1.81 1.55c-.022.044-.022.088-.043.132a.454.454 0 00.043-.131zm-.283.525c-.088.065-.175.13-.284.196.131-.065.218-.109.284-.196zm-2.225 4.805c-.196-.022-.37-.044-.327-.328.196.022.37.066.327.328zm-3.031 8.977c.196.022.37.044.327.328h-.327v-.328zM3.079 52.921v.48c-.349.022-.502-.131-.48-.48h.48zM1.792 77.602h-.305v-.306c.174 0 .37.022.305.306zm.96 6.072c.174.022.174.24.174.48-.196-.065-.327-.218-.327-.48h.153zm1.112-4.303c.196.022.37.044.327.328-.261.044-.305-.153-.327-.328zm3.533 18.085c-.13-.043-.174-.13-.174-.306.261-.065.436.219.174.306zm4.318-.48a.68.68 0 01.175-.48c.196-.023.283.043.305.152.022.306-.174.393-.48.328zm7.197 9.938h-.654c.022-.197.044-.371.327-.306.044.175.327.109.327.306zm6.543 10.571c-.022.197-.044.372-.327.328.044-.197.065-.371.327-.328zm-8.942-10.418c.022-.197-.043-.459.175-.481.283.109.022.284 0 .481h-.175zm2.705 2.752c-.022-.284.109-.437.305-.503.196.022.37.044.327.328-.13.109-.349.175-.632.175zm-.306 3.516c.284-.021.371.175.327.481h-.174c-.196-.022-.175-.262-.153-.481zm1.44-4.98a1.527 1.527 0 00-.655-.633v-.175c-.043-.327-.436-.306-.48-.633.393.131.502.568.786.808.283.153.501.371.654.633v.153c-.13-.022-.153-.153-.305-.153zm-5.453-3.363h.48v.48h-.48v-.48zm.655-1.442v.306h-.327v-.306h.327zm-.327 6.727c.218 0 .152.284.327.306.065.153.13.284.305.328v.153c-.262-.197-.632-.306-.632-.787zm.806 1.114c.59-.043.677.415.807.809-.349-.175-.61-.459-.806-.809zm2.705 3.211v-.175c.37.131.414.546.785.656v.153c.284-.066.305.109.327.327a2.277 2.277 0 01-1.112-.961zm1.134 1.114h.153c.523.284.763.852 1.286 1.136v.153c.087.022.197.022.153.153-.066.393.742-.088.48.48-.916-.393-1.418-1.223-2.072-1.922zm3.031 2.883v-.153c.328.044.306.437.633.481.109.022.196.022.174.153v.153c-.48.022-.61-.328-.807-.634zm2.4 1.922c.152 0 .196.131.305.153.043.197.174.24.327.328.48.087.545.633.96.786-.655-.262-1.178-.699-1.593-1.267zm4.95-1.114c-.196-.021-.37-.065-.327-.327.262-.044.283.153.48.153.043.174-.044.174-.153.174zm-2.225-3.189a.68.68 0 00-.174-.48c.48 0 .589.371.807.655-.218-.065-.305-.24-.633-.175zm5.104 8.169c.283-.065.305.131.327.306-.196 0-.37-.022-.327-.306zm1.766 1.77c-.065-.284.131-.306.327-.328-.021.197-.065.371-.327.328zm1.287-1.136c.13-.022.153.065.153.175.021.174-.044.283-.153.305-.284-.109-.044-.284 0-.48zm3.664 1.769h.48v.459h-.48v-.459zm1.766 0v-.153c.197-.044.284.044.328.153.763.415-1.113.415-.328 0zm1.767-.328v-.153c.24.088.829-.174.807.153h-.807zm6.87 3.866h-.48c-.24-.48.72-.48.48 0zm-.807-2.096c.13.043.174.131.174.305-.087.612-.654-.327-.174-.305zm12.474 5.132v.481h-.48v-.481h.48zm-8.483-1.922c-.306.066-.502-.043-.48-.305h.48v.305zm-1.265-.327c-.284.065-.305-.131-.327-.328h.174c.11.044.175.153.153.328zm30.227 2.249c.044-.131.13-.196.327-.174.131-.022.153.065.153.174-.066.262-.218-.043-.48 0zm1.745-.174c-.066.196-.197.327-.48.327-.066-.349.24-.306.48-.327zm-.458-1.748v-.305h.305v.305h-.305zm2.53-1.463v.48c-.197 0-.153-.284-.306-.305v-.153c.11-.022.218-.022.306-.022zm-9.902.48v.503h-.152c-.131-.044-.153-.175-.306-.175-.043-.197.044-.284.153-.328h.305zm11.036-2.708c-.48.066-.982.087-1.134.481-.328-.35-.458.087-.96 0-.044.196-.24.174-.48.152v.306c-.022.197-.283.153-.48.175v-.175c-.48 0-1.046-.087-.96.481h-.304c-.524-.088-.807.043-.96.327h-.153c-.065-.371-.785-.065-1.112-.174-.11.131-.24.436 0 .48v.306h-.153c-.327.065-.414-.109-.654-.153v-.153c-.13-.044-.153-.153-.305-.153h-.807v.153c-.197.044-.436-.044-.48.153h-.48v.153h-.959c-1.592-.044-2.748.349-4.319.306v.174h-.632c-.436.088-1.265-.196-1.44.153h-.479v-.153h-.96c-.043.219-.392.153-.654.153h-3.991v-.153H63.38v-.174h-1.308c-.022-.219-.392-.153-.632-.153H60c.022-.153-.065-.153-.174-.175-.24-.044-.589.066-.654-.153h-.96c-.218.022-.458.044-.48-.153-.022-.349-.676-.065-.96-.153h-.327v-.152c-.043-.197-.697-.568-.785-.175v.175h-.48c-.13.021-.152-.066-.174-.175-.022-.197-.284-.131-.48-.175v-.153h-1.134v-.153h.654c-.021-.349-.676-.065-.96-.174-.239-.066-.828.196-.806-.153-.175.043-.284-.044-.327-.153h-.633c-.261-.022-.61.065-.632-.153-.022-.175-.284-.131-.48-.153h-.327c-.262.044-.284-.153-.48-.175-.153.044-.153-.065-.174-.153v-.174h-.807v-.153h.48c-.218-.241-.611-.35-1.113-.306v.153h-.174c-.218.022-.458.043-.48-.153-.305-.044-.523-.109-.632-.306-.022-.196-.284-.153-.48-.153-.197-.24-.545-.306-.96-.327-.022-.175-.305-.131-.48-.153-.043-.284-.283-.372-.632-.328v.175c-.24-.088-.414-.24-.654-.306v-.175c-.022-.174-.306-.131-.48-.153 0-.174-.196-.131-.305-.174h-.48c.043-.153-.066-.153-.153-.175v-.175h-.654v-.306c-.567-.065-1.003-.284-1.287-.633-.632.197-.327-.524-.96-.328-.043-.284-.283-.371-.654-.305-.13-.066-.283-.153-.305-.328-.11-.306-.436-.437-.785-.481.305-.327-.306-.655-.807-.655-.327.066-.414-.087-.633-.153-.261.066-.283-.153-.48-.174v-.153c-.065-.131-.152-.284-.326-.306-.044-.546-.546-.655-.96-.808v.153c.24.087.392.24.48.48-.197-.24-.611-.262-.807-.48-.131.043-.153-.066-.175-.153-.196-.066-.24-.284-.48-.306h-.174v-.175c-.523 0-.37-.677-.96-.633-.501-.197-.698-.699-1.286-.808-.087-.241-.24-.415-.48-.481h-.175v-.328c-1.417-1.463-2.966-2.773-4.645-3.997.305.306.763.525.96.94.152.284.589.284.654.655-.327 0-.196-.437-.654-.306-.197-.349-.458-.59-.807-.808-.131.044-.153-.066-.153-.153-.13.022-.152-.065-.152-.175v-.153c-.524-.284-.764-.851-1.287-1.114-.066-.152-.153-.283-.327-.305-.415-.546-.895-1.049-1.44-1.442-.043-.328-.436-.306-.48-.655-.283-.524-.85-.765-1.112-1.289h.153c.436.306.807.677 1.112 1.136 0 .262.13.415.327.459 1.156.917 2.028 2.118 3.206 3.036-2.18-2.075-4.035-4.5-6.237-6.553-.066-.153-.153-.306-.327-.306-.131.022-.153-.065-.175-.174-.305-.022-.109-.525-.48-.481-.087-.328-.327-.524-.48-.808v-.306c-.414-.524-.48-1.332-1.286-1.441v.174c.13-.043.152.044.174.153h-.305c-.393-.109.022-.983-.327-1.114 0-.284-.11-.437-.306-.48 0-.284-.13-.415-.327-.503.044-.415-.218-.568-.414-.808a1.134 1.134 0 01-.305-.48v-.328h-.48c-.044.197-.175.262-.327.328-.197-.022-.175-.24-.175-.459v-.48c.153.087.59.37.48-.175-.174-.044-.109-.306-.327-.328-.284-.131-.545-.284-.48-.786-.741-1.704-1.614-3.276-2.399-4.98-.13-.415-.152-.917-.48-1.114-.087-.284-.087-.677-.327-.786.044-.197-.043-.306-.152-.328-.197-1.027-.59-1.857-.96-2.73-.48-.066-.174-.874-.632-.94-.044-.262.152-.283.174-.502v-.633H8.27c.109-.503-.284-.459-.175-.961h-.174a13.832 13.832 0 00-.807-3.211v-.48H6.96c-.37-.219-.676-.306-.174-.634v-.48c-.873-5.155-1.418-11.14-.96-17.147v-.305c.349-.787.087-2.14.48-2.883v-1.442c.087-.24-.197-.83.152-.808v.175c.262-.765.415-1.617.48-2.556h.153v-.808h.174v-1.267c-.021-.284.197-.328.175-.655h.174c.218-.044.131-.393.153-.655h.153v-.48h.174v-.656h.175v-.48c-.088-.525.109-.743.174-1.137h.153c.174-.021.13-.283.152-.48.218-.197.306-.546.327-.961.175-.022.131-.284.153-.48h.153c.109-.59-.284-.678-.153-1.29.066-.13.153-.283.327-.327h.48v-.48h.153c-.066-.394.283-.35.174-.809.59-1.55 1.461-2.817 1.92-4.477.283.065.305-.131.327-.306.261-.218.414-.546.48-.96.13-.46.392-.787.654-1.137h.152c-.065-.35.11-.437.153-.633-.044-.131.065-.153.153-.153v-.48c.021-.24-.066-.612.152-.656h.633v-.175c.698-1.31 1.657-2.402 2.399-3.69.196-.066.327-.197.327-.481.065-.197.283-.262.305-.48v-.154c.131.022.153-.065.175-.153.196-.065.327-.218.327-.48h.152c.328-.306.458-.83.785-1.136.197-.066.328-.197.328-.48h.152c-.021-.132.066-.153.153-.153v-.175c.414-.131.523-.546.807-.808.109-.437.72-.328.785-.808.175 0 .196-.131.327-.175-.327.371-.523.852-1.112.96v.329c-.262.305-.436.742-.96.786-.261.764-.894 1.136-1.286 1.769a139.9 139.9 0 0110.272-10.397c-.066.044-.131.11-.197.153-.196-.022-.283.044-.305.153-.196.35-.458.612-.807.808h-.327c-.022-.13.065-.153.153-.175.392-.262.72-.567.96-.96.544.065.479-.481.784-.656.567.262.087-.546.48-.48.175.021.284-.044.305-.175.502.065.437-.437.807-.48.218-.023.262-.24.48-.306.284 0 .415-.11.48-.328.153-.218.414-.306.632-.48.284 0 .415-.132.48-.328a1.46 1.46 0 00.96-.634c.283 0 .414-.13.48-.327.501-.197 1.003-.393 1.286-.808.371-.044.698-.153.807-.46.197.023.284-.043.327-.174.415-.022.567-.306.785-.48.48-.11.916-.24 1.135-.634.305-.022.545-.109.632-.327.175.021.284-.022.327-.153a140.64 140.64 0 017.35-3.211c.196.022.283-.044.327-.153v-.175c.37 0 .458-.262.96-.153.218.022.436.022.48-.152h.48v-.503c.152 0 .13-.196.174-.327.37-.066-.088.72.48.48.5.022.763-.196 1.133-.306v-.327h.48v.174c.502.088.567-.284 1.112-.174V7.14h.655c6.107-1.53 14.198-2.053 21.263-1.595.371-.065.153-.699.655-.633v.633c1.308.7 3.446.612 5.103.961.24.088.829-.196.807.153 1.003.394 2.159.612 3.358.809v.174h.48v.175h.654v.153c.48-.11.459.284.96.153v.175h.633v.174c.48-.13.458.262.96.153.195.219.544.306.959.306.283.306.741.437 1.287.48.457-.13.414.219.806.175v.153c1.004.393 1.789.983 2.88 1.289.305.218.697.371 1.133.48 1.265.765 2.683 1.355 3.991 2.075.284.415.785.612 1.287.808.523.328 1.156.546 1.592.961.131.394.654.415.96.634.065.196.218.328.479.328.219.174.48.283.633.48.131.131.436.087.48.306.131.24.24.524.654.48.196.066.24.284.48.328h.152v.175c.109.262.786-.044.633.48.305 0 .196.437.632.306.197.328.458.612.807.808h.153c.196.328.458.59.785.787h.175v.174c.218.153.305.437.632.48v.176c.349-.044.502.13.48.458-.197-.044-.24-.284-.48-.306-.284-.196-.632-.327-.632-.808h-.328a1.416 1.416 0 01-.632-.655c-.022-.131-.175-.131-.284-.153a353.529 353.529 0 017.634 7.536v-.022c.021-.197-.044-.284-.153-.328-.502-.35-.916-.786-1.287-1.289h.153c.567.328.872.961 1.439 1.289 0 .262.131.415.306.48v.154c0 .152.196.13.327.174.196.35.436.634.632.961h.305c-.043-.153.066-.175.175-.175h.632c.262-.109.262.765 0 .656v-.459h-.152c-.044.175-.546.808-.48.153h-.175c-.043.131 0 .306-.152.306 0-.088-.022-.197-.153-.153.414.546.654 1.267 1.287 1.594-.131-.371-1.047-.764-.48-1.288v.48c.022.437.763.197.632.808.175.197.262.48.48.656h.48c.436.13-.48.35 0 .633.131-.022.153.066.175.175a.75.75 0 00.479.48c-.109.503.437.306.306.808.131-.043.152.066.174.153 0 .284.131.415.305.48.022.416.306.547.48.809.218.153.306.437.48.655.175.022.131.284.153.48.501-.087.523.328.48.809-.044.393.239.502.479.655-.021.393.088.655.327.808h.153c.087.131.175.262.175.48.021.307.109.547.305.656.153.066.283.153.327.306v.48h.633v.175c-.197.022-.371.066-.328.328.24.044.066.48.328.48v.459c.283-.022.37.175.327.48h-.175c-.065.547.284.678.48.962v-.153h.174c.219.043.131.393.153.633 0 .284.131.415.327.48.153 0 .131.197.153.328.153.066.283.131.327.306.065.218-.196.83.153.786-.022.503.523.459.327 1.136.196.022.131.306.152.48v.154c-.065.327.11.436.175.633h.153c.349-.044.065.568.152.786-.043.131.066.153.175.153.218.044.131.415.174.655.218.044.131.394.153.656v.48h.153v.655h.152v.306h.153c.371.066.022.852.327.961v.48c.349-.043.065.569.153.787v.633h.174c-.043.175.044.284.153.328-.022.218-.044.459.152.48v.328c-.021.175.044.284.175.306v.634c.174.196.174.567.153.96h.152v1.289c.109 1.398.284 2.709.48 3.997.196.022.131.284.175.48v.656h-.175v1.442c.436-.131-.109.742.327.633v.655h-.152v.787h.152v.327h-.152v2.075h.152v.984h-.152v1.113h-.175v.808c-.022.24.065.59-.153.656v1.288h.153v.153c-.131.044-.153.153-.305.153v1.289c-.087.327.196 1.048-.153 1.114h-.153v1.288c-.021.262.066.612-.152.656h-.175v1.747h-.152v.633c-.284.088.021.765-.328.808v.808h-.152c-.044.132 0 .306-.153.306v.961c.066.503-.501.372-.305.961h-.153c.196.634-.523.328-.305.961-.022.263.065.612-.175.634.022.24.022.459-.174.48-.022.24.065.612-.153.634.022.196-.043.284-.152.327-.437.547-.524 1.398-.786 2.075-.196.044-.152.306-.174.503-.044.262.284.415 0 .459-.174.043-.109.327-.305.327-.262.262-.48.59-.48 1.114-.654 1.332-1.112 2.861-1.919 3.997-.153 0-.131.197-.175.306-.196.284-.545.437-.48.96-.305.11-.436.438-.479.81-.393.895-1.047 1.528-1.44 2.402-.131-.044-.152.065-.174.153-.262.436-.611.786-.807 1.288-.153.219-.153.59-.48.656-.022.283.196.349.175.633-.437.022-.328-.262-.633 0-.153 0-.131.197-.174.328v.655c-.284-.044-.502.022-.633.153-.218.153-.305.437-.48.633.022.175-.043.306-.152.328-.153.284-.393.458-.48.786h-.153c-.043.328-.436.306-.48.655-.065.481-.436.634-.807.808v.306h-.152c-.436.306-.654.852-1.112 1.136v.306h-.153c-.393.633-1.047.961-1.439 1.616-.371-.065.087.721-.458.481a2.139 2.139 0 00-.807.786c-.175.044-.24.197-.306.306-.48.218-.654.742-1.134.961-.61-.022-.414.764-.959.808-.153.065-.284.131-.328.306-.13.065-.283.131-.305.306-.174-.022-.283.043-.305.174.043.131-.066.153-.153.153.044.131-.065.153-.152.153a1.664 1.664 0 00-.655.633c-.436-.109-.305.306-.632.306v.481h-.654c.043.153-.066.153-.153.175.043.131-.066.152-.153.152-.327.044-.305.437-.632.481h-.327c-1.832 1.027-3.795 1.966-5.126 3.516h-.152v.153a.679.679 0 00-.48.175h-.153v.153c-.043.284-.283.349-.632.306v-.153c-2.465.808-4.45 2.053-6.717 3.036h.48c.13.437-.742-.109-.633.306-.13.043-.305 0-.327.153h-.48v.174c-.72-.24-1.003.066-1.592.306h.785c.044.131-.065.153-.152.175.065.437-.873-.131-.785.306H88.7c-.044.131-.175.153-.175.327-.13.088-.261.175-.48.153.022-.175-.043-.284-.152-.306-.087.35-.35.306-.545.328zm33.913-17.932h-.48c-.088-.153-.371-.612.174-.503 0 .263.393.131.306.503zm-13.282 10.549c0-.152.196-.131.305-.152v.305h-.305v-.153zm12.147-11.379v.502c-.458.219-.458-.721 0-.502zm1.135.175c-.677-.328.61-.896.305 0h-.305zm-22.246 19.068h-.305v-.328h.305v.328zm-3.031-3.386c.13-.022.153.066.174.175-.043.131-.13.196-.327.175.022-.132 0-.35.153-.35zm.48.35v.305h-.153c-.13.044-.153-.065-.153-.153.022-.131.131-.174.306-.152zm-3.511.48c-.197.131-.437.218-.807.153.043-.328.72-.044.807-.306v.153zm7.196-3.538c-.152 0-.196.131-.305.153.284-.415.611-.765 1.287-.809-.196.372-.807.306-.982.656zm2.857-.656h-.305v-.305c.196.021.371.065.305.305zm.328-1.594c-.088.022-.197.044-.153.153-.349-.044.174-.546.48-.459v.153c-.197-.044-.284.044-.327.153zm-14.874 8.671h.174c-.349.328-.065.612.48.481-.043.218-.414.131-.632.153-.175-.022-.131-.284-.153-.481-.044-.131.044-.153.13-.153zm1.134 1.114h.48c.24.459-.72.459-.48 0zm3.991-.48h.48v.174c-.022.197-.066.372-.306.306-.196-.022-.152-.306-.174-.48zm7.197-6.247v-.481c.458-.24.458.721 0 .481zm2.726 1.747h-.305v-.306h.305v.306zm6.543-3.211c-.044-.24.152-.262.152-.458h.502c-.174.218-.436.305-.654.458zm3.685-2.883c-.13.044-.305 0-.305.175a3.364 3.364 0 01-.959.961c-.131.044-.306.022-.328.175-.152.284-.37.502-.654.633h-.305v-.153h.152c.328-.196.611-.458.807-.808h.175a4.492 4.492 0 001.112-1.114h.327c.044-.24.262-.284.306-.48h.152c.131-.066.284-.131.306-.306.283-.524.85-.743 1.112-1.289.174-.153.305-.306.48-.48a6.023 6.023 0 001.286-1.289c.175-.153.327-.306.48-.48h.153c.022-.088.022-.197.152-.175.131-.022.153-.153.328-.153a75.885 75.885 0 01-4.777 4.783zm6.87-7.208a1.417 1.417 0 01-.632.656c-.131.043-.196.131-.175.305a3.35 3.35 0 01-.959.961v-.152c.174-.415.654-.546.807-.961v-.153c.327-.197.61-.459.807-.808.021-.088.021-.197.152-.153v.305zm1.112-2.883c.022-.196.044-.371.328-.306.065.263-.109.284-.328.306zm4.166-5.591zm.131.589c0 .044-.022.066-.044.088.044-.022.044-.066.044-.088zm2.115-6.203c.044-.13.131-.174.306-.153.61.088-.327.634-.306.153zm1.767-6.072h-.327v-.327h.327v.327z"/><path d="M113.476 24.177h-.218c-.022.13.021.196.109.218.109 0 .087-.131.109-.218zM21.442 69.171h-.218v.874c.305-.044.196-.546.218-.874zm21.809 1.31h.218v-.218h-.218v.218zm-13.958 2.403h-.436v.655h.436v-.655zm80.911 3.276v1.093h.655V76.16h-.655zm7.197 1.966h.873v-.437h-.873v.437zm-.872-49.581c-.349-.371-.742-.743-1.091-1.092.219.502.72.72 1.091 1.092zm-9.16-9.392c.131.371.349.655.611.852 0 0 .022 0 .043.022-.218-.306-.436-.59-.654-.874zm-25.08 109.843h.153c.414 0 .916.131.937-.415-.13.459-.981-.066-1.09.415zm-1.091.459h.917c0-.219.152-.262.174-.437-.11.437-1.003-.066-1.09.437zm-16.574 1.092v.109c.305-.044.501.022.654.109-.022-.24-.327-.24-.654-.218zM29.511 19.022a1.91 1.91 0 01-.218.13c.371-.152.72-.283 1.09-.436-.414.044-.479.24-.872.306zm93.343 27.87v.219c.261-.153 1.243-.721.719-.874-.327.131-.567.35-.719.655zM109.79 25.269h.196c-.261-.415-.414-.961-1.09-.852v.218c.567-.109.741.262.894.634zm-3.14-2.337c.37.021.349.13.719.152-.261-.109-.414-.24-1.09-.218.043.044.152.066.371.066zm3.816 24.178c.131 0 .218-.021.24-.109.044-.021.087-.043.153-.065-.022-.11-.044-.197-.175-.153a.275.275 0 01.022.131c0-.044 0-.087-.022-.131-.196.022-.283-.044-.327-.175v-.502c-.196-.066-.327-.197-.327-.48.065-.394-.283-.35-.174-.809h-.153c-.196-.24-.196-.655-.48-.808a2.866 2.866 0 01-.632-1.289c0-.24-.088-.35-.175-.502h-.959v.153h-2.727c-.152 0-.196.131-.327.175-.196 0-.218-.219-.479-.175h-.633v-.153h-.807v.153h.153c.065.262-.873.262-.807 0v-.153h-.654v.153h-1.614v-.153h-1.92v.153h-1.94c-.044-.218-.415-.131-.633-.153v.153h-.327v-.153c-.24.022-.589-.066-.633.153h-.327c.022-.131-.065-.153-.174-.153h-.96v.153h-.958c.043-.131-.066-.153-.153-.153H90.25v.153h-.327c-.24-.48-.37-.131-.96-.328v.175h-.632v.153h-.327v-.153c-.48.11-1.374-.218-1.592.153h-1.615v-.153h-.633v.153h-1.286v-.153h-4.013v.153h-4.798v-.153c-1.592.11-3.642-.218-4.972.153h-.938c-.676-.218-1.243.459-1.592 0h-2.246v-.153h-1.113v.153h-.96v-.153h-.806v.153h-1.265v-.153H59.04c-.087.022-.197.022-.153.153h-.327c-.742-.371-2.18-.044-3.206-.153v.153h-.48v-.153h-.807v.153h-3.86c0 .218-.436.218-.48 0h-.654c-.022.197-.043.371-.305.328-.11 0-.197-.022-.175-.175-.283-.088-.937.196-.96-.175v-.153h-.632v.153h-.305v-.153h-1.592v.153H43.49c-.022.197.044.459-.153.48-.196.022-.218.219-.48.175v-.174c0-.197.197-.219.175-.48H42.4c-.066-.372-.786-.067-1.135-.154v.153h-.96v-.153H37.1v.153c-.502-.175-.392.262-.654.328-.044-.131 0-.328-.153-.328h-.305c-.284-.087-.938.197-.96-.153h-1.44v.153H32.15v-.153h-2.246v.153h-.959v-.153H27.81c0 .153-.13.197-.152.328-.24.13-.24.524-.327.808v.502h-.327c-.066.219-.24.306-.175.656-.24.13-.349.393-.327.808-.044.13-.13.196-.327.174.043.634-.371.809-.327 1.464-.153 0-.197.13-.328.153 11.145.153 25.539.415 36.88-.044.24 0 .457-.022.675-.022h.022c.197-.022.415-.022.59-.044h.065c.196 0 .348-.021.523-.021h.065c.218-.022.415-.022.567-.044h.328c0 .153.196.131.327.153h.807v.153h16.487c.022-.197.196-.219.175-.48.501-.132.196.545.806.327v.153h2.727v-.328c0-.153.283-.196.305 0v.328h4.013v-.48c.13.043.305 0 .327.152v.328c4.863 0 8.767-.022 13.609 0v-.153c0-.218.436-.218.479 0v.153c1.658-.153 3.861.327 5.169-.11zm-.24-.021h-.174.174zm-4.34-3.386h.633c.022.284-.175.372-.48.328-.153-.022-.109-.218-.153-.328zm-5.779 2.425h.327v.327h-.327v-.327zm-4.165-.153V45.8h.48v.328c-.175-.044-.459.022-.48-.153zm-6.565-.175c.044.262-.218.437-.327.175.044-.131.153-.197.327-.175zm.48-3.407c.065.262-.873.262-.807 0h.807zM69.989 44.51c.196.022.37.044.327.328-.13-.044-.327 0-.327-.175v-.153zm7.524.48h.153c-.022.197-.044.372-.306.329-.022-.197.044-.306.153-.328zm-1.745.656c-.087-.327.306-.371.306-.153-.022.11-.131.175-.306.153zm-2.246 0c-.066-.35.109-.437.153-.655.13-.022.152.066.174.175-.022.24 0 .546-.327.48zm5.605-2.752h.327c.654.175-.567.677-.327 0zm2.573 1.77h-.152v-.306h.305c.022.174-.044.283-.153.305zm-18.276.807c-.043-.152.066-.152.153-.174.284-.022.414.13.48.327.022.197.262.175.48.153-.022.372-.676.066-.96.175h-.153v-.175h.48c-.065-.175-.196-.306-.48-.306zm-7.85-.327v.327c-.262-.021-.611.066-.655-.174.196.022.283-.044.327-.153h.327zm.152-.306h.48v.655c-.24-.153-.611-.153-.48-.655zm.349 2.25h-.655.655zm5.277-1.617c0 .219.284.153.328.328-.022.197-.306.131-.48.175-.044-.24-.044-.459.152-.503zm-12.518-.96h.306v.327h-.306v-.328zm0 1.943v.328c-.24 0-.458.022-.48-.175.044-.174.24-.174.48-.153zm-8.33-1.31v-.328c.196.022.37.044.305.328h-.306zm2.725-.306v.48c-.458.24-.458-.72 0-.48zm2.574 1.944v-.328h.327v.328h-.327zm-12.017-1.791v.502h-.326c-.066-.35.022-.524.327-.502zm-4.972-1.944c-.022.197-.044.371-.306.306 0-.175.022-.35.306-.306zm26.28 4.04h-.96.96zm33.476 0c-.196-.218-.087-.502.175-.654.109.043.327.021.327.174-.044.219-.262.262-.328.48h-.174zm2.42-2.096c.023-.197.044-.371.328-.328.044.284-.153.306-.327.328zM32.129 96.255c.152.066.283.153.414.218.065-.153-.044-.218-.414-.218zm.436.24c.109.153.261.284.436.415-.153-.153-.284-.306-.436-.437v.022zM66.15 66.594c0 .087.022.196.11.174h.108v-.655c-.174 0-.065.459-.218.48zm37.948 30.469v-.153c-.131.24-.284.459-.436.656.174-.153.327-.328.436-.503zm8.723 10.266c-.109.044-.174.131-.152.327-.197.35-.458.634-.807.83-.087 0-.196.044-.175.175a46.186 46.186 0 01-3.489 3.67c-.131.043-.305 0-.327.174-.196.35-.458.612-.785.83-.567-.021-.524.568-.96.656-.371.24-.611.589-.959.83 4.012-2.796 7.327-6.291 10.032-10.485-.48.678-1.113 1.18-1.44 2.01a2.534 2.534 0 01-.938.983zm-12.06-44.361c.022-1.944-.327-4.085.109-5.395 0 0 0-.022.022-.022.022-.087.044-.153.087-.24h7.045v-4.937h-.328v.175h-.654v-.175h-2.77v.175h-.632v-.175h-2.77v.175h-.327c.022-.35-.567-.065-.807-.175h-2.442v.175h-1.287v.634c-.131-.044-.153.065-.175.153v.633h.175v.961c.022.197.283.371 0 .48v.328c-.087.328.196 1.049-.175 1.114v.328h.502c.13.48-.436.284-.327.786v.328c-.37.065-.066.786-.175 1.114h.175v.327h-.175v1.114h.175c.153 0 .13.197.152.328.044.13-.065.153-.152.175h-.175v1.114h.175v2.249h-.175v1.114h.175v.459h-.175v3.997h.175v4.805h-.175c.11.35-.196 1.048.175 1.114v.48c-.37.175-.066 1.005-.175 1.442h.175v2.075c.022.24.414.11.327.48-.044.175-.174.24-.327.306h-.175v1.77h12.192v-4.784c.021-.35-.567-.087-.807-.174v.174h.327c-.022.175-.262.175-.48.153h-.327v-.153c-.066-.218-.415-.153-.654-.174-.131-.044-.153.065-.153.174h-.327c-.175 0-.196.131-.327.153.065-.284-.894-.284-.807 0-.197-.022-.458.022-.502-.153V77.8c-.392.087-1.178-.197-1.287.174h-1.134c-.24-.043-.588.044-.654-.174v-7.514h5.692V65.35h-1.941c-.131-.044-.152.065-.152.174h-.48c-.022-.35-.676-.065-.982-.174v-.175h-2.115v-7.58c-.502 1.29-.131 3.43-.153 5.374zm4.166-6.138h-.327v-.327h.327v.327zm-1.287-.48c-.436.196-.436-.525 0-.306v.306zm0 21.885c.109.35-.174 1.005-.174.306.043-.11 0-.284.174-.306zm.807 3.495c-.022.197-.066.371-.327.328.043-.131 0-.328.152-.328h.175zm-7.48-9.392v.306h-.328v-.306h.328zm3.075-5.92h.152v.307h-.327c.066-.131.022-.306.175-.306zm-1.287 3.496c.283-.044.414.174 0 .174-.284.044-.415-.196 0-.174zm1.614-1.9c.327-.044.501.043.479.327-.239-.022-.545.022-.479-.328zm-2.596-3.211h-.501v-.328c.261.022.567 0 .501.328zm-.501 14.066v-.306c.218.022.392.044.327.306h-.327zm-.633-11.817h-.327v-.327c.284-.066.306.13.327.327zm4.122-3.931z"/><path d="M71.123 65.087v-.153c.262-.066.262.873 0 .808v-.153c-.218.044-.131.393-.153.633h-.152v.153c.021.262-.066.612.152.656v.786c.284.044.785-.153.633.327-.436.022-.327-.262-.633 0v4.849h-.152v1.136h.152v.633h-.152c.109.656-.197 1.704.152 2.076v.48c-.087.284.458.677 0 .808v1.9c-.218.066-.13.394-.152.634h.152v1.136h-.152v1.135c1.57-.611 3.75.83 4.754 0 1.134-.96-.48-3.997.153-5.766v-7.077c-.131.044-.306.022-.328.175-.109-.044-.305 0-.305-.175 0-.087.022-.174.153-.152.196 0 .218-.219.458-.175-.197-5.177.327-11.161-.197-16.229 0-.087-.021-.175-.021-.24-.044-.284-.044-.568-.088-.852-.24.022-.61-.087-.632.175.065.262-.872.262-.785 0-.436-.284-1.941-.284-2.377 0 .261.742-.807.568-.633 0-.174-.437-.85-.022-.632.48 0 .175.13.197.152.328.131.044.197.131.153.306h-.48c-.087.24.175.83-.152.808-.088.022-.175.022-.153.175v.48c-.218.11-.022.634-.305.655-.044.24.043.59-.153.634-.022.196.022.459-.153.48-.349.022-.065.678-.152.961-.284.022-.11.547-.306.634v.633h-.152v.175c-.044.131 0 .306-.153.328-.022.24.065.59-.153.633-.022.197.044.459-.152.48-.11.328.196 1.049-.153 1.114 0 .175-.13.197-.153.328v1.114h-.305v.48c-.065.197-.196.328-.48.328v.48c-.087.285.197.94-.152.984 0 .087-.022.196-.153.153-.087.283.196.939-.153.96 0 .088-.022.197-.152.175-.175.612.567.568.152.961-.152 0-.196-.109-.327-.153v-.174c-.218.065-.13.415-.153.655-.043.131-.13.197-.327.175v-.48c.153 0 .131-.197.153-.329v-.96c.109-2.774.218-5.57.153-8.497-.131.022-.153-.066-.153-.153.218-.371-.414-.611 0-.633h.153v-4.827h-.96v.174h-.807v-.174h-1.265v.349c-.153 0-.13.197-.153.306h-.48v-.153c.262.066.284-.131.306-.328h-1.243c-.349-.065-.305.219-.327.48-.022.241-.022.46.152.481.393.022.044.525-.152.48h-.153v.81h.153c.261-.11.261.764 0 .654h-.153v2.25c.262-.11.262.743 0 .655v.961h.153v2.731h-.153c.022.262-.065.611.153.633v1.288c-.37.743-.044 2.207-.153 3.211h.153v.634h-.153v2.25c-.043.153.044.153.153.174v.306c-.131-.044-.153.066-.153.153.11.917-.218 2.228.153 2.883v.633c-.175.044-.175.24-.153.481h.153c-.087.284.196.94-.153.961v.633c.131.044.175.132.153.306h-.153v1.442h.153v.939h-.153v.655h.153c.218 0 .196.437 0 .48v1.442h-.153v1.31c1.461-.196 3.62.307 4.798-.196.044 0 .066-.022.11-.043.065-.022.13-.044.152-.088.196-.524-.524-.13-.327-.655h.48c.24-.568-.546-.087-.48-.48h.632c.218-.066.131-.416.153-.634h.153v-.48h.152c-.044-.808.37-1.136.327-1.922h.153v-.481h.153c-.11-.59.261-.677.152-1.289h.153v-.48h.153c-.11-.59.261-.7.152-1.289v-.306a.84.84 0 01-.152-.48v-.153h.152c.153 0 .175-.131.306-.175.218-.043.13-.393.152-.633h.153v-1.136h.153c.349-.218.13-1.027.48-1.267v-.655c.021-.197-.022-.459.152-.48.218-.044.13-.394.153-.656h.152v-.48h.153c.044-.852.262-1.551.327-2.425.044-.11 0-.306.153-.328.043-.13 0-.305.153-.327.37-.153.087-.808.523-.371zm-.807-.328v-.48h.327c-.022.24.022.546-.327.48zm-8.222 8.671h.48c.218.459-.72.459-.48 0zm.153-4.172h.327c.022.197-.044.284-.153.328h-.152c-.022-.131-.022-.218-.022-.328zm2.224.634v.327h-.327v-.327h.327zm0-1.77v-.327h.305v.328h-.305zm-2.224-1.921c.218.021.152.415-.153.327-.044-.197.022-.284.153-.328zm1.744 5.613c-.436.218-.436-.502 0-.306v.306zm-.96 5.788c.132.044.306 0 .328.153v.175h-.327v-.328zm-1.111 1.594c.109 0 .196.022.152.175v.153c-.262.066-.283-.131-.305-.306a.371.371 0 01.152-.022zm.48-22.628c.13.044.174.131.152.328h-.327c0-.197.044-.284.174-.328zm-1.113 8.519c.196.021.37.043.327.327-.043.131-.13.197-.327.175v-.502zm6.346 5.438h-.305v-.306h.305v.306zm.633-5.133v.328h-.305c-.066-.284.109-.306.305-.328zm.48-1.266h-.153c-.044-.306.218-.328.305-.481.197-.022.284.044.328.175-.022.24-.459.065-.48.306zm2.377 6.574v-.328c.262.022.61-.065.632.175 0 .087-.021.197-.152.153h-.48zm1.745-9.48c-.197-.021-.371-.043-.328-.327.197.022.371.065.328.328zm.785 7.558c.043.917-.785-.328 0-.175v.175zm-2.857-4.98c.196.022.458-.022.48.175.065.284-.72.218-.48-.175zm.785 2.883v.175c-.196-.022-.37-.066-.305-.328.109.022.305 0 .305.153zm3.86-11.358c0 .044 0 .066.022.11 0-.022-.022-.066-.022-.11zm-.044-2.402c-.043-.11-.087-.24-.152-.35.043.11.109.218.152.35zm-4.121 7.491c-.35.066-.437-.109-.633-.174 0-.437.676-.284.633.174zM119.8 32.258h.655v-.437h-.655v.437zM18.236 47.11v-.152h.175c-.088-.503.283-.568.174-1.114.436.022.458-.393.48-.787.545-.174.349-1.135.785-1.441.11-.022.175-.131.153-.306 0-.218.065-.35.152-.48h.153c.131-.044.175-.131.175-.328-.022-.699.741-.634.785-1.267.305-.218.545-.524.632-.96.415-1.027 1.309-1.552 1.767-2.556.305-.46.61-.896.96-1.29a.95.95 0 01.326-.48h32.125v-.174c.174-.044.109-.328.327-.328.13.022.175.131.153.328v.174h12.474v-.174h.633v.174h19.977v-.327c.13.043.305 0 .327.175v.174h20.609c.262.372.851.415.807 1.114.088 0 .175.022.153.153.436.197.458.808.785 1.114.087.437.305.743.654.961h.153c0 .284.109.393.327.48.022.132.153.153.153.306h.174v.306c-.022.284.131.415.306.48v.154c.523-.153.218.524.479.633 0 .087.022.175.153.153.48-.153.284.35.305.633.044.131.131.197.328.175.021.24-.066.59.174.633.262.48.284 1.202.785 1.442 0 .546.218.852.48 1.114 0 .284.131.415.305.48.24.044.153.394.153.634.153.044.283.065.458.11-.175-.045-.305-.066-.458-.11 0 .175.131.175.153.306 1.221-.175 3.118.284 4.056-.175h.109V47c.044-.043.109-.065.153-.087.065-.328.436-.306.48-.633v-.306c0-.546-.219-.852-.48-1.114-.044-.131 0-.306-.153-.306-.131-.044-.305 0-.305-.175.131-.043.174-.13.152-.327-.043-.131 0-.306-.152-.328-.044-.131-.022-.306-.175-.306-.022-.284-.109-.546-.327-.633-.698-1.223-1.396-2.446-2.072-3.67-.022-.414-.283-.567-.479-.808-.131-.611-.24-1.245-.807-1.441-.284-.153-.262-.59-.633-.634-.043-.13 0-.327-.174-.327-.197-.066-.327-.219-.306-.48-.043-.503-.436-.612-.632-.962.043-.35-.131-.524-.48-.48.196-.634-.458-.394-.48-.809-.152-.633-.218-1.376-.959-1.42.087.438.676.394.632.962-.087 0-.196-.022-.153-.153-.152-.284-.348-.502-.654-.634v-.174c-.065-.131-.131-.284-.305-.306v-.175h-.305c-.611 0-.633-.546-1.44-.327v.152h-1.941v-.152h-.632v.152h-1.767v-.152h-.152c-.284.087-.938-.197-.96.152h-.305c.043-.349-.567-.087-.807-.152v.152h-1.113v-.152h-.654v.152h-.938v-.152h-3.206v.152h.153c-.043.219-.414.131-.632.175V31.1h-1.113c.044.109-.065.174-.196.174.175 0 .37 0 .524-.022-.807.11-1.941-.152-3.14-.196.85.044 1.657.175 2.333.218-.11-.022-.175-.087-.153-.174-.087-.022-.196-.022-.174-.153h-3.36v.152c.197-.021.394-.043.59-.043-.197.022-.393.022-.59.044H90.01c.11-.263-.763-.263-.654 0h-.48c.022-.35-.567-.088-.807-.153v.152h-.305v-.152h-.96v.152h-1.766v-.152h-1.592v.152H81.7v-.152h-1.134v.152H79.15v-.152h-.633v.152c-.24.481-.61-.196-1.112 0h-1.767c-.37-.37-1.417-.065-2.072-.152v.152h-.305c.131-.611-.763-.196-1.134-.327 0 .175.13.196.175.328h.48c.152.567-1.047.37-.96 0-.022-.35-.676-.066-.96-.153-.13-.044-.196-.131-.174-.306v-.808h.174V25.53c.436-.153 1.505.327 1.44-.328.13.022.152.175.327.175 9.007.371 18.712.065 27.981.175 0-.175.283-.197.327 0h8.789c-.044-.131 0-.328-.153-.328a1.214 1.214 0 01-.48-.306c-.523-.48-1.33-.699-1.766-1.267.043-.152-.066-.152-.153-.174-.327-.044-.305-.437-.632-.48-.48-.372-1.004-.722-1.44-1.115-.043-.24-.262-.284-.305-.48-.24-.612-.938-.787-1.44-1.114v.174c-.501.088-.654-.196-.806-.48-.24-.393-.633-.655-1.135-.808a3.192 3.192 0 01-.959-.634c-.196-.327-.524-.546-.96-.633-1.156-.415-1.853-1.332-3.031-1.747-.066-.328-.72-.044-.654-.48h-.48c-.044-.132-.175-.176-.175-.329h-.48c0-.109-.021-.196-.152-.174-.37.043-.61-.044-.633-.328-.109-.197-.349-.284-.654-.306v-.153h-.632c-.11 0-.197-.021-.175-.174-.043-.131-.13-.175-.327-.175 0-.284-.436-.088-.48-.328h-.632c-.175-.022-.24-.174-.327-.327v-.153h-.633v-.175c-.218-.066-.305-.218-.654-.153v-.175h-.785c-.087 0-.175-.021-.153-.152h-.654c-.044-.132-.153-.153-.153-.328-.043-.175-.24-.175-.48-.153v-.175c-.436 0-.937.088-.96-.306.154.131.372.175.655.175-.24-.262-.632-.35-1.134-.327h-.938v-.175c-.436-.175-.676-.35-1.134-.175 0-.087-.022-.175-.153-.153v-.175h-.785v-.152h-.327c-.24-.022-.589.065-.632-.175h-.153v-.153c-.589.11-.698-.284-1.287-.153h-.327c-.218 0-.458.022-.48-.175v-.153c-.283-.087-.937.197-.96-.174-.239-.066-.828.196-.806-.153-.916.13-1.33-.262-2.224-.175h-.655c-.24.044-.283-.131-.48-.153h-1.134v-.175c-.85-.021-1.439-.262-2.399-.152h-.654c-.24.021-.589-.066-.632.152h-.328c-.043-.13-.174-.152-.174-.305h-3.206v-.175c-.305-.044-.349.175-.632.175.043.13.13.174.327.153-.022.174-.306.13-.48.152-.262-.043-.284.175-.48.175-.13.044-.153-.065-.174-.175h-1.899v.175c-.065.197-.414.131-.654.153V9.17h-.632v.153c-.458-.131-.415.24-.807.175-.218 0-.35.087-.48.153h-.807c-.393.043-.763.087-.938.327h-.501c-.393-.065-.35.284-.785.175 0-.153-.197-.131-.328-.175v-.153c-.305.022-.523.11-.654.328v.153c.305.044.349-.175.654-.153.022.284-.152.371-.48.306h-.174v-.153c-.218.087-.829-.197-.785.153-.022.284-.545.087-.633.327h-.654v.175c-.24.022-.589-.065-.632.153h-1.135v-.153c-.087.284-.763-.022-.784.328h.632v.175c0 .349-.676.065-.938.174-.174.022-.458-.043-.48.175-.414.022-.763.087-.96.306h-.479c-.61-.066-1.003.065-1.112.48h.174v.153c.022.35-.567.066-.807.175-.48-.131-.196.546-.807.328 0 .087-.021.174-.174.152-.13.132-.349.175-.633.175v-.327c-1.875.83-3.947 1.485-5.43 2.708h.327c0 .153-.196.131-.327.153v.153c-.24.087-.414.24-.632.327-.676.394-1.527.612-2.072 1.114-.066.197-.197.328-.48.306v-.175c.044-.13.175-.152.175-.305-1.33.655-2.378 1.572-3.512 2.402.305-.13.59-.284.96-.327-.044.218-.35.174-.48.327v.153h-.175c-.523.437-1.155.765-1.592 1.289h-.327c-.043.218-.261.262-.327.48-.218.044-.262.262-.48.306-.13.044-.305.022-.327.175-.043.175-.174.262-.327.328v.174c-.13.022-.305 0-.305.153-.131.044-.153.153-.306.153-.13.044-.305 0-.327.175H29.6c.043.306-.218.306-.327.458v.175h-.153c-.262.219-.502.459-.785.634-.327.043-.305.436-.654.48-.131.044-.306 0-.328.153-.174.044-.24.175-.305.328h5.758v-.175h.632c.13-.022.305 0 .327-.175.131.022.175.175.327.175v.175h5.91c.022-.088.022-.197.175-.175h.48v.175c1.854-.11 4.165.218 5.757-.175h.48v.175h12.802c0-.306.13-.35.305-.175h1.941v.175h3.839c.196.021.13.284.174.48v2.38c-.043.132 0 .328-.174.328v.787h.174v.962c.175.022.175.24.175.48h-.175c-.48.088-1.374-.196-1.592.153h-1.287v-.153h-.96v.153h-1.592c-.065.197-.196.328-.479.328-.044-.131 0-.328-.153-.328h-.654c-.218-.021-.349.066-.48.175h-.328v-.175h-.807v-.153h-1.112v.153h-.305c-.306-.043-.35.175-.655.175-.196-.022-.218-.197-.48-.175h-.96v-.153h-.631v.153h-4.013c.021-.35-.567-.087-.807-.153v.153c-.545-.218-1.025.459-1.265 0v-.153h-2.247v.153h-.632v-.153h-.807v.153h-.305v-.153h-1.287v.153H40.83c-.021.197-.043.372-.305.328v-.328h-.48v-.153h-3.358v.153h-.306v-.153H34.31v.153c-.261.393-1.112.066-1.439 0h-1.287v-.153h-.632v.153h-1.44v-.153H26.96v.153h-.654v-.153h-.786v.153h-.654v-.153h-2.093v.153c-.11-.043-.131.066-.131.175a.804.804 0 00-.48.48h-.175c.066.306-.043.503-.327.481-.174.022-.174.262-.152.48-.415.022-.633.24-.655.634 0 .153-.13.175-.152.328a4.968 4.968 0 00-.48.48c-.022.393-.305.568-.48.787-.109.436-.61.458-.632.96-.262 0-.088.437-.328.481h-.152c-.022.262.022.546-.327.48v.175c.109.634-.61.459-.48 1.114-.415.066-.458.503-.633.787-.087.196-.174.37-.327.48.044.371-.043.59-.305.633-.632.874-.938 2.032-1.614 2.884-.392.13-.218.852-.48 1.114-.043.262.153.262.175.48-.022.175-.262.175-.48.153-.022.306-.109.546-.327.633v.306c.022.197-.044.284-.153.328-.109.022-.196.022-.174.153v.174h-.153c-.044.219-.218.306-.174.634-.11 0-.175.022-.153.153 1.33.284 3.838.284 5.212.022zm98.969-5.744h.48c.24.459-.698.459-.48 0zm1.679 5.7c.131.023.284.045.415.045-.153-.022-.284-.022-.415-.044zm.458.045c1.004.043 2.181-.066 3.184-.022-1.003-.044-2.18.087-3.184.022zm2.181-3.19v.154c.044.305-.218.305-.327.48-.676.022-.043-.764.327-.633zm-.785-1.113h-.48c.044-.197-.021-.459.153-.48h.327v.48zm-1.766-4.958c-.218-.153-.306-.415-.48-.634.24.153.501.24.48.634zm-3.512.786c.131-.044.306 0 .306-.153h.305c.371.59-.785.72-.611.153zM17.124 42.96h.153c.021.196-.044.284-.153.305h-.174c0-.174.043-.283.174-.305zm3.991-2.403v-.306c.13.044.305 0 .327.153-.043.131-.13.175-.327.153zm13.107-7.164c.175-.022.284.044.306.153-.022.13-.153.175-.153.327-.175.022-.284-.043-.327-.153v-.327h.174zm7.851.459c-.283.065-.305-.132-.327-.328.197.022.371.065.327.328zm.96.502c-.196-.022-.37-.044-.305-.328.174 0 .349.044.305.328zm-5.932.459h.327v.153c.044.13.175.174.175.327v.175c-.524.196-.916-.48-.502-.655zm1.767.48v-.327h.327v.327h-.328zm-.328-3.342c.022-.196.044-.393.328-.306.065.263-.131.284-.328.306zM35.814 33.7c-.196-.022-.37-.044-.305-.328.196.022.37.066.305.328zm-11.013-.153c-.044-.197-.262-.328.152-.328.284-.065.306.131.306.328H24.8zm.96 1.114c-.023-.35.13-.503.48-.48.021.349-.154.502-.48.48zm-2.094 1.288c.174 0 .196.284 0 .328-.153-.022-.197-.306 0-.328zm-.153-2.73c-.174 0-.196.131-.327.175h-.175c.066-.197.218-.328.48-.306.022.022.022.066.022.131zm42.2 1.922c.11-.59.676.372 0 .153v-.153zm.654-9.894c.328-.044.415.109.633.175-.044.284-.284.37-.633.327v-.502zm4.799-3.975c.13-.022.152.043.152.152-.022.175-.262.175-.48.175.022-.218.044-.393.328-.327zm-1.44 1.092h-.48c-.087-.393.066-.568.48-.48v.48zm-.96 0h-.327v-.328c.197.044.393.066.328.328zM58.06 34.988v-.306h.48c0 .175-.13.197-.174.306h-.306zm-3.206-.808c-.043.131-.152.175-.152.328h-.327c-.066-.35.24-.306.48-.328zm13.587 1.442v-.328c.306-.022.393.175.328.48-.131-.021-.153-.152-.328-.152zm6.085-3.976h.632v.153h-.632c-.174-.043-.087-.174 0-.152zm.153 1.42c-.066-.284.13-.306.305-.327 0 .196-.022.393-.305.327zm16.465 1.922h.328c.196.437-.524.437-.328 0zm4.166-2.075h-.174c-.11-.764.283-.764.174 0zm4.798 1.114h.153c.043.175-.044.284-.153.328-.13-.044-.175-.131-.153-.328h.153zm.48.787c.087.327-.306.393-.327.153.043-.11.152-.175.327-.153zm-1.44-.962c-.152 0-.13-.196-.152-.327h.48c-.022.218-.066.393-.328.328zm8.31-.305c-.24-.044-.11-.35 0-.48h.305c.065.305-.196.305-.305.48zm.327 1.594h-.306c.022-.196.044-.371.306-.327v.327zm.959-2.402c.066.262-.131.305-.305.327 0-.196.044-.371.305-.327zm-8.636-.634h.305v.328h-.305v-.328zm-4.558-1.004h-.436.436zm-5.692 3.56c-.044.13 0 .306-.153.306h-.327v-.459c.283-.066.305.13.48.153zm-7.328-1.267c.022-.197.044-.393.327-.306.044.24-.153.284-.327.306zm-6.892-8.78h.328v.327c-.197-.044-.371-.066-.328-.328zm2.88-2.862c.02.284-.154.371-.48.306-.044-.175.043-.284.152-.306h.327zm.326 2.228c-.022.24.022.546-.327.48-.349.066-.305-.24-.305-.48h.632zm-5.91.153v.328c-.175.021-.284-.044-.305-.153.022-.153.109-.197.305-.175zm23.183-3.189h-.305c.021-.197-.022-.459.152-.48h.153v.48zm-1.44-.655h-.305c.022-.24-.022-.546.306-.48.196.043.196.48 0 .48zm-.152-.634h-.327v-.306c.196.022.37.044.327.306zm4.296 5.592h-.152c-.131-.022-.175-.131-.153-.306.174 0 .37.022.305.306zm-1.286-.961h-.306c-.109-.437.306-.328.306-.634.414.022.065.525 0 .634zm-5.758-10.048c.022.284-.153.372-.48.328v-.328h.48zm-.633 2.403h-.152v-.633h.152v.633zm-1.112 0h.305v.328h-.305v-.328zm-4.47-2.883h.48c.065.35-.24.306-.48.328-.262.065-.306-.132-.306-.328h.305zm-.655.961c-.044.131-.13.175-.305.153-.131.044-.153-.066-.153-.153 0-.153.196-.131.305-.153.131-.044.153.044.153.153zm-2.072-2.708c0 .24.022.458-.152.48h-.175c-.044-.327.044-.524.327-.48zm-13.892-1.748c-.436.044-.698-.065-.632-.48.392-.044.654.043.632.48zm-1.461 2.381c.065.284-.131.306-.327.328.022-.197.065-.393.327-.328zm-.785-3.189h-.175v-.328h.327c-.043.132 0 .328-.152.328zm4.798 2.075h.305v.328c-.196-.022-.37-.066-.305-.328zm5.583 1.747v.153c-.022.197-.044.372-.306.328-.065-.328.022-.502.306-.48zm-1.44-.786h.655v.153c-.371-.044-.59.044-.655.328-.196-.044-.196-.48 0-.48zm3.686-2.228c.087 0 .196.022.175.153h-.633v.48c-.24-.021-.153-.393-.174-.633h.632zm-15.026-.808v.328c-.197-.022-.371-.044-.306-.328h.306zm-2.88 3.036v.306c0 .11-.02.196-.152.175h-.152c-.066-.328.021-.503.305-.48zm-6.716-.633c0-.175.196-.131.305-.175-.022.197-.044.371-.305.306v-.131zm.152 1.42c0 .152-.196.109-.305.152v-.305c.175-.022.262.043.305.152zm-5.757 0c-.044.109 0 .305-.153.327-.305.066-.24-.742.153-.48v.152zm-1.287 0c.196-.022.284.043.327.152-.043.131-.13.197-.327.175v-.328zm-3.358 2.883h.152c.153 0 .131.174.175.305-.044.131-.175.153-.175.328-.13-.044-.305 0-.305-.175a.77.77 0 01.153-.458zm-1.113-1.442v.153h-.327c-.13.087-.262.175-.48.175.153-.24.415-.35.807-.328zm14.874 7.645h-.48v-.48h.48v.48zm-2.552-1.267v.48h-.48v-.48h.48zm-2.878 1.594h-.153c-.153 0-.13-.196-.153-.327.175.021.35.065.306.327zm.48 1.442v.328h-.328c.022-.197.044-.394.327-.328zm-4.166-1.922c.414.065.022.633-.305.48 0-.24-.022-.546.305-.48zm-.785-.94c-.197-.021-.371-.043-.327-.327h.174c.131 0 .11.197.153.328zm-2.574 1.9v-.305h.327v.306h-.327zm-7.022-1.9c.458-.24.741.437.152.328 0-.262-.457-.196-.152-.327zm-.982.481c-.13.044-.152-.065-.152-.153.043-.13.13-.196.305-.175.044.175-.022.284-.153.328zm-1.417 3.32c-.131-.044-.175-.131-.153-.306h.48c.022.175-.044.284-.153.306h-.174zm4.623-5.723v.481c-.283 0-.414-.131-.48-.328v-.152h.48zm-1.112-.808v-.152c.175-.022.284.043.305.152-.021.219-.305.175-.305 0zm1.112-1.747v.175c-.022.174-.261.174-.48.153-.196-.022-.13-.284-.174-.48.349-.066.436.108.654.152zm-.632 1.114h.327v.328h-.327v-.328zm-2.879.808h.48c.24.437-.72.437-.48 0zm-2.246.459c.152-.262.305-.546.807-.48 0 .087-.022.174-.175.152-.152.219-.414.306-.632.48v-.152zm-1.745 4.172c-.065-.306.72-.24.48.152-.262.022-.284-.152-.48-.152zm17.425 1.572c.197.022.371.044.328.306-.219 0-.393-.022-.328-.306zm8.79-4.15h-.328c-.196-.48-.545.175-.96 0-.392-.065-.348.284-.806.175-.044-.24-.393-.153-.633-.175v-.153h-2.573v.153H53.26c0-.087-.021-.174-.174-.153h-.785v.153h-2.879v-.153h-1.92v.153h-1.439v-.153h-1.919v.153h-.48c.044-.327-.567-.065-.785-.153h-.174v-.633h.785c1.614-.743 3.271-1.42 4.798-2.228.392.022.676-.087.785-.328 1.374-.24 2.268-.917 3.686-1.113v-.153h.654v-.153h.305v-.175c0-.153.197-.131.328-.175h1.112v-.327h.632c.59.021 1.003-.175 1.44-.328v-.175c-.022-.13.065-.153.174-.153a.79.79 0 01.48.153c.981.022 1.57-.35 2.552-.306v-.152h.327v-.175h1.134c.392-.11 1.156.196 1.286-.175.044-.284.284-.371.655-.328v.328c.48-.11 1.374.197 1.592-.175.065-.13.13-.284.305-.305.13.043.305 0 .327.152h.829v.175h4.318c.72.306.218-.633.785-.48v.653c2.225 0 3.991.481 6.085.634.174.022.283-.043.305-.153.131.131.436.088.48.306.349.24.894.284 1.44.328.261.022.61-.088.632.175v.152c.589-.109.698.284 1.287.175.261.022.61-.087.654.175v.175h.48v.153h.654v.152h.48c1.09.503 2.333.852 3.511 1.29.392-.023.785-.023.807.305v.175c.458-.131.414.24.785.174.11.197.349.306.654.328v.175c.59-.11.61.35 1.113.327.261.372.872.415 1.286.634h.48c0 .175.13.196.153.327 0 .153.196.132.327.153h.327c.087.131.174.262.153.48 0 .154-.197.132-.306.154H91.71c-.021-.35-.676-.066-.96-.153v.153h-.632v-.153H87.24c-.088 0-.197.022-.153.153h-4.318c-.022-.35-.676-.066-.96-.153v.153h-.96v-.153c-.48.11-1.373-.197-1.613.153-.218.48-.61-.219-1.112 0v-.153h-.807v.153h-1.113v-.153h-.632v.153H71.93v-.153c-.24.087-.829-.175-.785.153h-.328c-.283-.372-1.22-.066-1.744-.153v.153h-.327v-.153H66.02v.153H64.1v-.153c-.436.11-1.264-.197-1.439.153h-.327c-.327-.372-1.33-.066-1.92-.153v.153c-.326-.066-.544-.066-.763-.066zm1.439 1.136c-.066-.328.109-.415.152-.633.197-.022.371-.284.48 0-.218.196 0 .83-.632.633zm-9.596 10.68v.306h-.48v-.48c.218 0 .458 0 .48.175zm-1.745-.48c-.24-.284-.153-.371.306-.327.065.284-.131.305-.306.327zm-1.44 0h-.326c-.131.022-.153-.065-.175-.153 0-.174.196-.13.327-.174.153.021.131.218.175.327zm-11.842-.458c-.043.109-.13.174-.305.152v-.305c.11.021.306-.022.306.152zm-6.542.939h.152c.131.022.175.13.153.306h-.48c-.021-.175.044-.284.175-.306zm-7.699-.153c.24.459-.436.742-.327.175.044-.153.153-.197.327-.175zM41.07 57.31v-4.783c-.174-.37-1.025-.043-1.461-.174h-.327c-.131.087-.262.174-.48.174v-.174h-1.134c.13.262-.763.262-.654 0-.698.109-1.832-.197-2.269.174h-.327c-.567.066-.785.24-1.286 0h-4.057c-.261 1.005-.261 3.146 0 4.15v.328c-.37.218-.065 1.114-.152 1.594h.152v.787h-.152v3.669h.152v4.609c-.087.524.044.808.327.96-.349-.086-.305.22-.327.482h-.152v2.708h.152v2.097c-.043.13 0 .305-.152.305-.175.656.261 1.53 0 1.748v.48c.196.066.327.197.327.48.043.132-.066.154-.175.154h-.152v2.228c-.044.13.065.153.152.153v.327c-.13-.043-.152.066-.152.153v.961h.152v1.769h12.016v-4.783c-.02-.197-.239-.175-.479-.175h-1.461c-.044.175-.262.175-.502.175-.13-.48-.523.087-.807 0v-.175h-1.46v.175h-.328v-.175h-2.115c-.306-.043-.088-.546-.328-.633.044-.131.131-.175.328-.153.109-2.184-.218-4.805.174-6.706h.153c1.744-.087 3.446.066 5.517 0v-4.936h-1.33c-.044.131 0 .306-.153.328-.196-.044-.174-.262-.174-.48h-4.21v-7.842c2.4.022 4.777.022 7.154.022zm-5.016 11.664V68.8c.741-.088.741.306 0 .174zm1.287 0h.174v.328h-.327c.022-.131 0-.306.153-.328zm-1.134 9.917h.327v.327h-.327v-.327zm1.614 1.769c-.24 0-.458.022-.48-.175-.153 0-.131-.197-.175-.306.044-.153.131-.196.327-.174.131-.022.153.065.153.174h.175v.48zm-8.593-25.096c.196.021.392.043.327.305-.196 0-.37-.043-.327-.306zm3.73-1.114v.174h-.48c-.132-.043-.328 0-.328-.175.044-.196.916-.611.807 0zm-2.596 6.88c-.044.13 0 .306-.153.306-.196.043-.283-.044-.327-.153.022-.197.262-.175.48-.153zm1.134 5.11c0 .154-.196.132-.327.154-.044-.262.218-.437.327-.153zm-.153-5.11c-.021-.197-.196-.219-.152-.48.196-.569 1.068.305.48.48h-.328zm-1.46 7.644c.043-.13.13-.196.326-.174.131.043.153.174.327.174-.043.46-.501.306-.654 0zM32.476 58.6c.153 0 .131.197.175.328h-.502c.022-.197.044-.371.327-.328zm.153 6.88v.328h-.327v-.305h.087c.087-.022.175-.022.24-.022zm-2.748 1.748h-.152V66.9h.327c-.044.132-.022.328-.175.328zm2.922 7.514c0 .153-.196.13-.327.153h-.174c-.044-.197.48-.547.502-.153zm.175-9.654c-.022 0-.022 0 0 0zm.13 0h-.043.044zM31.824 54.93c-.13.044-.153-.066-.174-.175.021-.174-.022-.458.174-.458 0 .218.087.35.175.458.13.044.196.131.152.328-.196.022-.283-.022-.327-.153zm1.134 10.55c.022-.197.044-.393.327-.328v.328h-.327zm-3.555 10.527h.328c-.022.263.087.612-.175.634-.24-.022-.153-.371-.153-.634zm5.016 4.478c.175 0 .197.284 0 .328-.152 0-.13-.197-.152-.328h.152zm.175-1.594c.043.152-.066.152-.175.174-.196-.022-.392-.043-.327-.327.24-.022.458-.044.502.153zm0-23.961c.13.044.196.131.174.328-.349.087-.414-.328-.174-.328zm-.829.48c-.13-.043-.196-.13-.174-.327.109-.59.676.35.174.328zm-3.73-2.074c-.195-.022-.392-.044-.326-.328h.327v.328zm8.92 25.708v.305c-.327.066-.501-.043-.501-.305h.502zM34.267 67.86c.043.414-.218.524-.655.48-.152-.524.219-.524.655-.48zm59.777 53.295c.305-.022.545-.109.632-.328.415-.065.742-.218.96-.48.414-.066.742-.219.96-.481v-.153c.13-.087.261-.175.48-.153.13-.043.305 0 .305-.174.13-.044.327 0 .327-.153.632-.131.981-.503 1.44-.808-.262-.809.784-.306.959-.656.85-.065 1.287-.524 1.766-.961 0-.175.131-.196.153-.327.567.043.436-.634.96-.656a7.888 7.888 0 011.286-.961c.284 0 .415-.131.48-.327.022-.241-.022-.546.327-.481.371.59.393-1.026.807-.459.284-.152.502-.349.633-.655h.174c.393-.24.698-.568.96-.961.283 0 .414-.131.48-.306.13-.065.283-.131.327-.327a18.222 18.222 0 002.246-2.25h-.327v-.153c.043-.131.131-.196.327-.175.218.066.262.197.48 0v-.152c.131.043.152-.066.152-.153.131-.066.284-.131.306-.306.283-.197.632-.35.654-.808a4.492 4.492 0 001.112-1.114v-.175c.284-.131.502-.349.633-.612v-.174c.283-.153.501-.372.632-.656.545-.699 1.025-1.441 1.592-2.075a.958.958 0 01.327-.48c0-.087-.021-.197-.152-.175-.066-.284.131-.306.305-.327.153 0 .196-.131.305-.175.589-1.114 1.396-2.01 1.92-3.19.523.132.218-.523.479-.654.066-.197.153-.372.306-.48.196-.241.458-.394.479-.809.175-.306.393-.568.48-.961.327-.11.109-.743.48-.808.262-.219.414-.568.48-.961.458-1.245 1.221-2.206 1.592-3.517 0-.284.044-.502.174-.655h.175c.196-.044.174-.262.153-.48.392-.35.458-1.049.632-1.617.24-.197.305-.546.327-.96.175-.023.175-.241.153-.482-.044-.109-.131-.196-.306-.152v-.328c.633.24.328-.415.633-.48.262-.372.414-.874.48-1.442h.174v-.634h.175v-.48c.021-.24-.066-.59.152-.655.24-.284.306-.765.327-1.289v-.459c-.043-.218-.261-.327.153-.327.24-.393.305-.983.327-1.595h-.959v.153c-.327-.087-1.047.197-1.134-.153-.022-8.715 0-16.665 0-25.511h-1.898v-.175h-1.592v.175h-1.439v.327h-.175c.088.481-.196 1.377.175 1.595v.328c-.371.851-.066 2.424-.175 3.538h.175v.306h-.175v2.075h.175v2.249h-.175v.962h.175v.633h-.175v.808h.175v.808h-.175v.808h.175v4.5h-.175v1.31c-.043.131.066.153.175.153v.983h-.175c.088.219-.174.808.175.808v2.228h-.175v1.136h-1.592v.153c-.043.11-.131.196-.305.153-.349-.044-.065.568-.153.808h-.174v-.48c-.044-.132 0-.306-.153-.306v-.153h-1.745c-.087-.022-.196-.022-.152-.153-.197-7.317.24-15.792 0-23.59-.022-.59.458-2.686-.96-1.922h-3.009v-.174h-.786v1.944h-.174v.633h.174v1.136h-.174v1.441h.174v1.114c.153 0 .109.197.153.328-.044.197-.218.306-.153.633v.788h-.174c-.109.48.174.59.174.96-.218.044-.152.394-.174.634.174-.044.283.022.327.153-.022.197.044.459-.153.48v1.115h-.174v.96c-.022.132.065.153.174.153v2.096h-.174v1.114h.174c.088 0 .175.022.153.175.044.197-.044.284-.153.306-.196.022-.152.284-.174.48v4.347h.174v2.097h-.174v.939h.174v.808h-.174v.808h.174c.262.371-.174 1.42 0 2.25h-.174v.633h.174v1.114h-.174c.087.131-.109.546 0 .655.981.94 4.296.022 6.499 0h.48c.327.022.632.066.872.175v-.175h.633v.175c.501.153 1.635-.35 1.592.306v.655c0 .088-.022.197-.153.153-.218.197-.305.568-.327.961.043.459-.044.83-.305.961-.371.655-.633 1.42-.807 2.25-.175.306-.328.655-.48.961-.349.35-.458.94-.654 1.441-.044.132 0 .328-.153.328 0 .284-.044.503-.175.655-.414-.065.153.896-.479.634-.131.044-.175.13-.153.306.044.37-.044.59-.305.633-.044.131 0 .306-.153.328-.218.043-.174.35-.327.48-.262.219-.415.568-.48.961-.087 0-.196.022-.153.153-.196.524.524.131.306.634h-.611c-.087.196-.174.37-.327.502-.175.24-.458.393-.48.786-.349.568-.611 1.202-1.134 1.595-.131.458.218.437.175.808-.284 0-.502-.044-.655-.175-.152.502-.414.896-.807 1.114-.218.262-.458.502-.632.808-.131.044-.196.131-.153.306-.087.022-.196.044-.174.175-.197.065-.327.218-.306.502v.153a.837.837 0 00-.501.481h-.153c.066.262-.131.305-.327.305-.087.022-.196.044-.153.175v.153c-.043.131-.152.175-.152.328a.75.75 0 00-.48.48c-.371.109-.436.524-.807.633v.306h-.153a10.139 10.139 0 01-1.592 1.617v.174c-.196 0-.218.197-.48.153h-.152v.153a4.51 4.51 0 01-1.112 1.114c-.284 0-.415.131-.48.306v.655c-.48-.109-.458.284-.96.153v.175c-.24.043-.283.24-.48.327-.021.088-.021.175-.174.153-.327.066-.305.437-.633.481-.327.065-.305.437-.654.48v.459h-.959c-3.97 2.512-8.222 4.696-12.628 6.749.044.197.175.087.305 0 .066.306-.043.502-.305.459-.196 0-.218-.197-.48-.153-.196.044-.458-.044-.48.153-.414.022-.763.087-.959.327-.196.022-.458-.043-.48.153-.458-.131-.414.219-.807.153v.175c.022.349-.567.065-.785.153-.458-.131-.414.218-.807.153v.174c-.72-.131-.96.219-1.592.153 0 .11-.022.197-.153.175v.153h-1.286v.153h-.807v.153c-.022.371-.676.065-.96.175-.283-.022-.327.196-.654.152-.13.044-.305 0-.305.153h-1.287V99.881h-.48c-.065-.262.131-.306.306-.306V98.33v.59h.152v-5.57c0-.022.022-.044.022-.066.044-.109.065-.218.087-.305.022-.044.022-.088.044-.153-.022.065-.022.109-.044.153H94.59c.807 0 1.832-.088 2.857-.153h-.174.217c.24.022.48.022.698.022h.109c.261 0 .523-.022.785-.022h.174c.044 0 .088-.022.153-.044.458.022.872.066 1.221.175-.196-.131-.501-.219-.85-.219.349 0 .654.088.85.219.044.022.066.065.088.087l.065.066c-.022-.044-.044-.066-.065-.066 0 .088-.11.306-.175.24-.022.197-.196.219-.174.481.043.35-.131.502-.48.48-.087.24-.24.415-.48.481-.044.131 0 .306-.153.306-.022.196-.196.218-.174.48.065.328-.044.503-.305.503-.153 0-.197-.153-.306-.175-.065.459-.545.524-.807.808v.153c-.48.218-.654.743-1.112.961h-.153c0 .219-.283.153-.327.328v.153c-.305.065-.13.611-.632.458-.153.219-.153.612-.48.656h-.327a.95.95 0 00-.48.327c-.196.524.523.11.327.634H94v-.153c-1.003.131-1.243 1.004-2.072 1.288v-.174c-1.548.218-2.137 1.397-3.51 1.769.043.131.13.196.305.153.087-.437.763-.284 1.112-.459-.044.218-.35.197-.48.306-.327-.066-.436.109-.632.153-.066.218-.415.131-.655.174v-.174c.371-1.922.066-4.543.153-6.728h-2.552v-.153h-.654v.153h-.305v-.153h-1.134c-.044.219-.35.175-.48.306.087.48-.196 1.376.153 1.595v4.172h-.153v.786c.48.109-.153.349 0 .655h.153v.481c-.262 1.398-.262 3.909 0 5.307.24.022.152.372.174.634v.327c0 .088-.022.197-.174.153h-.153c.043.24-.066.59.153.634h.174v-.153c1.985-.612 3.664-1.573 5.605-2.25v-.153c.414-.065.741-.218.96-.48.588-.088.785-.612 1.439-.634.283-.153.262-.59.785-.48 1.047-.765 2.225-1.398 3.206-2.25a15.775 15.775 0 011.92-1.442c-.066.372-.502.372-.633.634 2.748-1.791 5.212-3.866 7.066-6.553-.109.11-.218.219-.371.306-.109.044-.174.131-.153.306a48.872 48.872 0 01-3.51 3.538c-.132.044-.306 0-.306.175-.197.328-.48.59-.807.808h-.327v-.153h.174c.393-.262.698-.59.96-.961h.153a.802.802 0 00.479-.48 18.3 18.3 0 002.247-2.25h.152c.175-.044.24-.175.327-.328v-.174c.349-.132.393-.568.633-.809h.174c-.043-.306.218-.306.306-.48.261 0 .087-.437.305-.48v.327c.109-.153.218-.306.327-.48h-.174c-.044-.437.632-.132.479-.656.24-.13.502-.24.48-.633.218-.153.502-.24.48-.656.044-.13 0-.305.153-.305-.044.13.065.13.152.153.197-.066.327-.219.327-.481a.954.954 0 01.328-.48c.152-.219.261-.481.479-.656.306-.415.502-.895.807-1.288.306-.11.436-.437.48-.809.545-.677.982-1.463 1.44-2.227.152 0 .174-.153.305-.175v-.459h-.633v.153h-2.551v-.153c-.24.087-.829-.196-.807.153h-.306c-.218-.35-1.112-.066-1.613-.153v.153h-1.418v-.153h-2.879v.153c-.24.087-.829-.197-.807.175h-.327c.044-.131-.065-.153-.153-.175v-.153h-2.878v.481c-.371.065-.61-.044-.633-.328v-.153h-.785v.153h-3.533v-.153h-.785v.153H87.61c-.065-.218-.414-.131-.654-.153v.153h-.305v-.153h-.785v.153h-.96v-.153h-.632c.021.35-.567.066-.807.153h-1.571v-.153h-.632v.153h-.327v-.153H78.21v.153h-1.94v-.153h-.96v.153h-.654v-.153H71.93v.153h-.633c-.218 0-.152.284-.305.328h-.153v3.691h.153v.328h-.153v1.441h.153v3.953h-.153v.809h.153v1.135c-.196.502.24.393.305.633-.043.175-.305.109-.305.328h-.153v1.113h.153v1.115c-.13-.021-.153.066-.153.175v1.114c.153 0 .197.284 0 .328v2.883h.153c.196.022.37.044.305.327h-.48v.634c.131.044.197.131.153.306v2.555c-.174.459-.174.677 0 1.136h-.153c-.109.48.153.568.153.961v2.097h-.153v1.288h.153c.087 0 .196.022.153.153.109.11.414.787-.153.634h-.153c.088.59-.196 1.616.153 1.944v.961h-.153v.655c-.043.131.066.153.153.153v.306c-.13-.022-.153.065-.153.174.11.743-.196 1.923.153 2.403v.481c-.37.436-.065 1.572-.153 2.249 1.09.022 1.854-.284 3.032-.153-.044-.349.567-.087.807-.174.698.109.894-.284 1.592-.153v-.306c.218 0 .349.087.48.153.327-.087 1.047.196 1.112-.153.022-.197.24-.197.48-.175h.48c2.224-.109 3.86-.83 5.91-1.114v-.174h.48v-.153h.632v-.153c2.595-.721 5.081-1.551 7.197-2.73.436.174.741-.044 1.025-.306zm24.949-42.199v-.306h.328c.174.044.13.284.174.48-.24 0-.48.023-.502-.174zm1.113.328c-.589-.11.37-.7.152 0h-.152zm1.134-22.3h-.48v-.481c.349-.044.502.13.48.48zm1.439 19.089c.196.022.393.066.327.306-.218 0-.392-.022-.327-.306zm0 1.922c-.022-.197.044-.306.175-.328.13.044.196.132.152.328h-.327zm.96-4.325v.328c-.197-.022-.371-.066-.327-.328h.327zm-1.919-10.593c-.219.022-.458.022-.48-.153-.088-.437.065-.59.48-.48.261-.131.261.742 0 .633zm-.328 7.055v.306h-.327c-.043-.24.131-.284.327-.306zm-.152 2.25c.283.043.37.284.305.633h-.48c-.065-.328.109-.415.175-.633zm1.286 12.668v-.328c.197.022.371.044.306.328h-.306zm1.44-5.94v.48c-.349.065-.305-.219-.305-.48h.305zm-2.879-18.763v.175c-.196-.022-.393-.044-.327-.328.174-.044.283.022.327.153zm1.919 23.262v-.481h.48v.48h-.48zm-2.246-28.723h.327v.328c-.196-.022-.393-.044-.327-.328zm-.175 23.437v-.153h.48c.066.175-.458.546-.48.153zm-1.264 11.86c-.022.196-.044.371-.328.306-.065-.24.131-.284.328-.306zm1.766-12.821v-.175c.022-.218.414-.153.327.175h-.327zm2.879 3.691c-.131.044-.153-.066-.175-.153-.043-.262.218-.437.327-.153.022.175-.043.262-.152.306zm-3.86-14.612h.327v.305c-.196 0-.371-.043-.327-.305zm-6.543-10.266v.328h-.327c.022-.197.043-.372.327-.328zm-1.287 5.308v-.48h.48v.48h-.48zm2.726 16.032h-.305c-.218-.437.349-1.027.305-.328v.328zm.153-17.976h-.327v-.328h.327v.328zm-.153-2.25c-.414.066-.676-.066-.632-.459.414-.065.676.044.632.459zm-2.878 1.289c-.197-.022-.371-.044-.328-.306.197-.022.284.044.328.153v.153zm.458 22.934v-.306c.043-.131.13-.197.305-.153v.459h-.305zm2.573-3.19h.153v.46c-.393.261-.458-.547-.153-.46zm-3.686-16.053v.48h-.479c-.022-.349.13-.502.479-.48zm4.646 19.723c.261-.065.305.131.327.328-.262.044-.284-.153-.48-.153-.044-.131.065-.153.153-.175zm-4.319-29.334c.284-.021.371.175.328.481h-.48c.022-.218-.044-.48.152-.48zm-.392 29.946c-.262-.044-.502-.066-.72-.11.218.044.48.066.72.11zm.196 0c.196.022.393.043.611.065-.218-.022-.393-.043-.611-.065zm.763.065c1.483.066 3.141-.065 4.624-.022-1.483-.043-3.141.066-4.624.022zm-5.365 26.604h-.479c-.24-.459.719-.459.479 0zm3.992-6.247c-.066.197-.197.349-.48.306v-.153c.218 0 .218-.197.48-.153zm-2.072 4.478c-.088-.022-.175-.022-.153-.153v-.153c.174-.044.284.043.327.153-.022.109-.043.196-.174.153zm-1.287.502h-.153c-.109-.743.262-.743.153 0zm-3.686 2.73c-.131-.044-.305 0-.305-.153.044-.131.131-.196.305-.153v.306zm-.654 3.276c0-.021-.022-.043-.022-.043s.022.022.022.043zm-.393-.589c-.043-.044-.043-.088-.065-.131l.065.131zm.437.611l.065.066a4.015 4.015 0 01-.065-.066zm.174.11c-.022 0-.044 0-.065-.022 0 .022.043.022.065.022zm.022 0c.043 0 .065-.022.109-.066-.044.044-.066.066-.109.066zm13.87-15.923c-.261.043-.283-.153-.479-.153 0-.197-.197-.219-.153-.48.087-.306.654.261.632.633zm-1.919 3.363h-.632c-.153-.611.763-.611.632 0zm-1.592.634c.196.437-.523.437-.327 0 .022-.197.305-.153.327 0zm-23.205 1.114c-.349.043-.523-.131-.48-.459h.48v.459zm-1.613 1.616h-.306v-.306h.306v.306zm-2.88.502c-.021.197-.043.372-.304.306-.066-.284.108-.306.305-.306zm-2.071-5.482c-.022.197-.066.393-.305.328 0-.197.043-.393.305-.328zm2.552 8.999h-.175v-.481h.305v.328c.066.109-.021.131-.13.153zm4.165-2.403c-.022-.24-.022-.458.153-.502.13.044.196.153.174.328-.022.153-.196.131-.327.174zm9.749 10.899c.174-.305.196-.764.807-.633-.218.262-.328.612-.807.633zm-3.664-3.691c-.24.131-.24.524-.633.481.131-.241.218-.503.633-.481zm-2.552 1.616c-.152.306.48.525 0 .656-.523.196-.13-.524-.632-.328.087-.24.305-.306.632-.328zm-3.686 1.748v.153c-.152.131-.37.174-.632.153 0-.284.523-.066.632-.306zm-4.318 2.905c.197.044.153.306 0 .306h-.48v-.306c.022-.219.458-.219.48 0zm-9.77 2.402h.305v.328c-.13-.044-.305-.022-.305-.175v-.153zm5.43.787h-.152c-.022-.197.043-.284.152-.306.218.044.175.306 0 .306zm-.458.808c-.043-.197.044-.284.153-.328h.807v.175c-.262 0-.61-.087-.654.153h-.306zm2.552-1.267c-.196-.044-.37-.065-.305-.328.24-.065.283.11.305.328zm-5.605-.983v.328h-.305c-.066-.262.109-.306.305-.328zm-1.44-.175c.437-.043.699.066.655.481-.284.022-.502-.044-.654-.175v-.306zm-4.645-12.974c-.261.066-.283-.153-.48-.153-.043-.327.742-.24.48.153zm.328-8.037c-.175-.328.261-.765.327-.306v.306h-.328zm-.48 1.463c-.153 0-.131-.197-.153-.328.174-.502.763.328.153.328zm.152 10.746h.306v.306h-.306v-.306zm.807-1.922v.306h-.305v-.306h.305zm.306-2.403v-.152c0-.153.283-.197.327 0 .022.131-.066.152-.153.152h-.174zm-.153 11.227c.022-.196.065-.371.327-.327v.174c-.044.11-.13.175-.327.153zm-1.592-24.55v.48h-.305c-.066-.305.021-.502.305-.48zm1.44 28.067h-.153c.021-.241-.044-.546.305-.459v.306c-.13-.044-.153.065-.153.153zm1.439-22.279c.043-.131.13-.197.327-.153.043.24-.218.415-.327.153zm.152-6.116c.022-.218.415-.174.328.153-.175.044-.284-.022-.328-.153zm-2.072-.633c.197.065.328.196.328.459-.284.043-.393-.132-.328-.46zm-.806 30.164c-.306.065-.502-.044-.48-.306h.152c.284-.066.328.109.328.306zm.48-4.98c.043-.131 0-.306.152-.306h.174v.306h-.327zm.152 6.246c.196.022.393.066.327.328-.196-.022-.37-.044-.327-.328zm1.941-2.555h.305v.327h-.305v-.327zm1.09-28.22c-.065 1.201.022 2.49.044 3.473-.022-.983-.13-2.272-.044-3.473zm0 0l.066-.72a4.03 4.03 0 00-.066.72zm.066-.742c.044-.219.065-.437.13-.656a3.172 3.172 0 00-.13.656zm6.346-3.757h-.305v-.306h.305v.306zm-.305 1.42h-.48c.044-.197-.022-.46.175-.46 0 .088.021.197.152.154.153 0 .11.196.153.305zm-3.838.327c-.044.218-.393.153-.633.153-.022-.218.066-.35.153-.48.305-.044.48.043.48.327zm16.422.808h-.11.11zm.698-3.844h-.328v-.306c.197 0 .371.022.328.306zm-.807 1.747c.043.153-.066.153-.153.175h-.153c.022-.197.044-.393.306-.328v.153zm-1.767 0c.066.284-.218.437-.327.175.022-.153.218-.131.327-.175zm8.309 2.578v-.066.066zm.327-4.806c-.087-.327.306-.393.328-.174-.044.13-.131.196-.328.174zm-1.744 4.303c.13-.022.24-.043.349-.043-.11 0-.24.022-.35.043zm1.396.415c0-.043-.022-.065-.044-.087a.166.166 0 01.044.087zm-.088.328c0 .022-.022.044-.043.044.021 0 .021 0 .043-.044zm.109-.219c0 .022 0 .044-.021.066.021-.022.021-.044.021-.066zm-.043.11c-.022.022-.022.043-.044.065.022-.022.044-.043.044-.065zm-.197.218l-.043.044c.022-.022.043-.022.043-.044zm-6.63 8.475v-.153c0-.175.197-.131.306-.175 0 .219-.022.393-.305.328zm.982-2.403h.327v.306h-.327v-.306zm-1.614 3.691c.218.044.022.284-.153.306-.24 0-.174-.393.153-.306zm3.838-.48c-.261-.022-.61.087-.654-.153v-.48h.327c.284.021.371.262.327.633zm.306.48v-.327c.37.065.61-.044.807-.175-.11.328-.415.437-.807.502zm2.093-2.249v-.306h.306c.065.262-.11.284-.306.306zm8.484-10.091c-.044.109-.131.196-.327.153h-.153c-.022-.131-.152-.153-.152-.328.043-.371.698-.087.632.175zm-1.766-.503v.656h-.153v-.656h.153zm-10.709 1.442v.48h-.48v-.48h.48zm-3.38-3.364c-.022.197-.044.372-.305.306-.066-.262.13-.284.305-.306zm0 2.73v.306c-.349.044-.502-.13-.48-.458a.74.74 0 01.48.153zm-1.745-2.402h-.48c-.065.35.24.306.48.328-.043.218-.414.13-.654.152v-.655c.262.022.633-.065.654.175zm-7.044.808c.284-.065.305.131.327.328-.262.065-.283-.153-.48-.153-.043-.153.066-.175.153-.175zm-5.43-.175c-.197-.021-.371-.065-.328-.305.197 0 .371.043.328.305zm8.156 32.414v-.175h.48c.044.218-.458.568-.48.175zm2.552.655h-.306v-.328h.306v.328zm-.306-3.538c-.196-.437.524-.437.306 0h-.306z"/><path d="M88.614 80.136c-.153-.044-.153.065-.175.153v2.402h4.776c.371-7.535.066-15.792.175-23.59h-.175c-.13-.043-.174-.13-.153-.327.066-.218.197-.262 0-.459.524-1.507.284-3.778.328-5.744-.218 0-.458.022-.48-.175h-.96v.175h-1.265v-.175H89.4v.175h-.48c-.284-.022-.37.175-.305.48v.328c-.371.328-.066 1.333-.175 1.922h.175v1.922c-.371.415-.066 1.53-.175 2.228h.175v1.136h-.175c.087.24-.174.83.175.808v.306h-.175c-.044.59.022 1.048.175 1.442-.044.196.021.458-.175.48.087.328-.196 1.048.175 1.114v.306c-.044.24-.393.153-.633.153-.043.13-.13.175-.305.175v-.175c-.546.087-1.483-.197-1.745.175h-.327c.065-.263-.873-.263-.807 0h-.305c-.022-.263-.393-.175-.698-.153 0 0-.022 0-.022-.022a.945.945 0 01-.153-.131c-.043-.044-.065-.066-.087-.131.022-1.944.044-3.888-.153-5.636 0-.174-.13-.196-.174-.327.044-.11.13-.197.327-.175v-5.111c.589-2.01-1.81-1.07-3.031-1.267v.175h-1.615c-.044-.262-.35-.11-.48 0v1.114c-.022.13.065.153.153.175v2.053h-.153v5.744h.153v1.136c-.066.328.109.415.174.633.48.284.175.59.153 1.114.043.153-.066.153-.153.175v1.747h-.327v1.748c.174 0 .196.262 0 .305v.634h.153c.021.175-.022.459.174.48.022.219.022.46-.174.481-.175.044-.131.284-.153.48.13.044.196.132.153.306h-.153v1.748c0 .087.022.196.153.153v2.402h-.153v1.748h.153v.938c-.371.109-.066.895-.153 1.267h.153v2.074h-.153v1.442c1.178-.11 2.77.197 3.664-.175h.174v.175h.48v-.175c.284.022.502-.043.633-.153.392-3.865-.088-8.605.327-12.428h4.776c.24.044.153.394.174.634v.633c.022.175-.043.284-.174.306v.633h.174v.808c.197.219.066.24 0 .481v1.42h-.174v1.441h.174v.328h-.174v2.556h.174v.305c-.022.219-.022.415-.022.656zm.632-21.536c.13.043.175.13.153.327-.197-.022-.371-.044-.306-.328h.153zm3.337-3.19c.022-.196.043-.37.327-.327.065.284-.131.328-.327.328zm-.96 24.55c-.196.023-.37.285-.48 0 0-.086.044-.174.153-.152.283.044.305-.131.305-.328.262-.043.284.153.48.175.044.284-.13.371-.458.306zm.48-12.427v-.306c.065-.393.632-.022.48.306h-.48zm-1.745-6.53h.327v.48c-.305.021-.37-.175-.327-.48zm.633-.481v.48h-.153c0-.197-.196-.218-.153-.48h.306zm.48 2.227h.48v.306h-.48v-.306zm-.96 7.34h.327v.305h-.327v-.306zm-.327 3.975v.327h-.306c.022-.196.044-.393.306-.328zm-.48-1.29c.305 0 .349.132.174.329h-.327c-.022-.197.044-.263.153-.328zm2.094-4.76h-.306v-.481h.48v.153c-.043.13-.174.153-.174.327zm-1.92-1.29h-.327v-.305h.153c.13.022.196.13.174.306zm.96 12.45c.327-.196.763.24.327.306h-.327v-.305zm0-24.091c.153 0 .13.197.153.328-.066.196-.197.327-.48.327-.044-.371.044-.611.327-.655zm-2.399 11.816h-.153c-.174 0-.196-.284 0-.327.153 0 .11.196.153.327zm-.48 2.228h.153v.328h-.305c.043-.153 0-.328.152-.328zm-1.592-1.9v.459h-.48c-.021-.35.131-.503.48-.459zm-3.511-10.375v-.327h.175c.218.021.152.415-.175.327zm-1.418.153h.306c-.022.24.022.546-.306.48v-.48zm-.48-.786c.153 0 .197-.131.306-.153 0 .218-.066.35-.153.48 0 .153-.196.131-.327.153-.044-.262.153-.284.175-.48zm-.48-2.556h-.304v-.306h.305v.306zm2.814 6.487a.597.597 0 00-.13-.262.504.504 0 01.13.262zm-4.1-2.664c-.065-.328.24-.306.48-.306.022.262-.153.371-.48.306zm4.885 7.775a1.082 1.082 0 01-.283-.109.855.855 0 00.283.11zm-.567-.393c-.545-.808-.065-2.62-.087-3.953 0 1.332-.458 3.167.087 3.953zm-.13-4.39a.787.787 0 01-.044-.24c0 .065.022.153.043.24zm.021.393c0-.087-.022-.197-.022-.284.022.087.022.175.022.284zm-3.882-6.902v.48c-.283.022-.37-.152-.327-.48h.327zM58.8 82.691h-.086.087c.087 0 .152.022.218.044v-.088c.065-.021.109-.043.174-.065h-.174c-.218-.917-.545-1.726-.981-2.425-.022-.174.043-.458-.153-.48h-.153c.044-.306-.174-.35-.152-.655-.24-.044-.153-.372-.175-.634-.087-.306-.087-.677-.327-.808-.044-.874-.633-1.201-.654-2.075h-.153v-.328h-.981v-.152h.654v-.328c-.022-.197.043-.459-.153-.48-.087-.284-.087-.656-.327-.809v-.48h-.174c-.088.022-.197.044-.175.175-.349-.022-.065-.678-.153-.962-.61-1.703-1.177-3.429-1.962-4.98-.262.044-.262-.982 0-.96.85-1.835 1.679-3.692 2.442-5.636v-.48c-.065-.284.131-.306.327-.328.131-.044.197-.131.153-.328.393-.152.153-.917.48-1.114.24-.13.24-.524.327-.808.044-.13 0-.305.174-.327 0-.284-.043-.503-.174-.655.022-.197.305-.132.48-.175.13-.044.196-.131.174-.328 0-.175-.13-.197-.174-.328.043-.13.13-.196.327-.152.262-.284.48-.59.48-1.136.261-.131.349-.415.327-.808.218-.088.305-.35.327-.656v-.305c0-.153-.196-.131-.327-.175h-.654c-.655-.219-.502.35-.982.327v-.174c-.065-.153-.13-.284-.327-.328h-1.636c-.392.11-1.177-.196-1.308.175v.175h-.153c.087.502-.502.37-.327.96-.24.852-.72 1.42-.981 2.25-.022.24.065.59-.153.656-.022.087-.022.196-.175.153-.021.196.022.458-.174.48.044.371-.044.59-.327.633-.131.044-.196.132-.175.328h-.152v.808c-.458-.109.109.765-.327.634 0 .218-.088.35-.153.48h-.175v.48c0 .175-.13.197-.174.328h-.153v.656h-.152c0 .087-.022.196-.175.153.087.611-.065 1.004-.501 1.135.021.393.043.765-.328.808-.021.11-.021.197-.174.175-.349.022-.065-.568-.153-.808v-10.44c-.24-.263-.85-.153-1.308-.175v.175h-.327v-.175h-1.963v.175h-.327v-.175h-.982c0 .109-.022.196-.152.175v.174h.152v.306c0 .219.284.153.328.328-.197-.022-.284.043-.328.175v.633c.066.371.328.655 0 .96h-.152v.481c.218.044.13.394.152.634h-.152v.655h.152v1.442h-.152c.087.218-.197.83.152.808v.48c-.196.022-.13.284-.152.48.13.045.196.132.152.329-.48.13.088.524 0 .808h-.152c.087.24-.197.83.152.808v.306h-.152v.96h.152v3.233h-.152c.152.459-.328 1.507.327 1.442h.174c0 .218-.087.35-.174.48h-.175v.634h-.152v1.136h.152v.808h-.152v1.114c.13.043.152.152.327.152v-.152c.13.043.196.13.174.327v.153c0 .088-.021.197-.174.153-.044.131 0 .306-.175.328v.808h-.152v1.616h.152v1.442h-.152v1.463h.152v.328h-.152v1.135h.152v1.114h-.152c.109.481-.218 1.377.152 1.617v.327h.982c1.2-.502 3.227.678 3.925 0 .655-.655-.458-2.118 0-3.232h-.174c-.131-.044-.196-.131-.153-.306h.327v-7.077h-.501c-.197-.524.523-.13.327-.633h.174v-2.272h.153c.196.022.175.24.175.48v.481c.174 0 .196.131.327.175.218 0 .152.284.327.328.109.153.458.24.174.327-.261.044-.109.35 0 .48.371.066 0 .853.327.962.044.13 0 .306.153.306v.48c.044.131 0 .328.174.328.197.043.175.262.175.48.153 0 .196.131.327.153v.328c.13.196.218.437.175.808.021.197-.022.459.152.48.044.131 0 .306.175.328.022.197-.022.459.152.48.044.132 0 .328.153.328h.175v.634c0 .284.13.436.327.502.021.197-.022.459.174.48.262.219.349.634.327 1.115.197.021.175.24.153.48.349.022.349.415.327.808-.044.59.305.765.327 1.289h.153v.153c1.069.458 3.969.502 5.365.087zm-5.495-19.417c-.044.24-.393.152-.654.152-.066-.262.13-.305.327-.327.022.153.13.218.327.175zm-.829 13.04c.044-.132.131-.197.327-.175.786.152-.24.851-.327.174zM54.92 53.16c-.066-.284.13-.306.327-.328.13.044.196.131.174.328h-.501zm-3.424 11.904c-.022-.197.043-.284.174-.328.131.044.197.131.175.328h-.35zm.327 8.67c.218.023.174.416-.175.329 0-.197.044-.284.175-.328zm2.115 2.25c.066.328-.109.438-.174.634-.48.153-.284-.371-.327-.633h.501zm-4.732-7.71c.044-.13.153-.196.327-.174v.48c-.196-.022-.37-.044-.327-.306zm8.2 14.329c-.022-.066-.044-.11-.044-.197 0 .088.022.153.044.197zm.044.022c.022.021.043.065.087.065-.044 0-.066-.044-.087-.065zm.283.13c-.043 0-.087 0-.109-.021 0 0 .044.022.11.022zm.066.022h.152-.152zm.567-.043c.065 0 .13-.022.196-.022-.066 0-.13.022-.196.022zm-.328.022h.219c-.066-.022-.153 0-.218 0zm-1.33-3.56c.153 0 .131.196.175.327h-.328c-.021-.197.044-.306.153-.328zm.502-24.595c.022-.218.414-.174.327.153h-.327v-.153zm-4.733 1.923c.197-.022.284.043.327.152v.48h-.327v-.632zm-1.788 7.557c-.131-.044-.196-.131-.175-.328v-.175c.415-.218.48.568.175.503zM43.84 57.18h.654v.153h-.654v-.153zm4.078 19.133h-.327v-.327h.327v.327zm-1.81-12.537c-.262.044-.436-.218-.174-.328h.327c.043.175-.022.284-.153.328zm0-.655c-.48.24-.48-.721 0-.48.218.043.218.48 0 .48zm-1.134 8.343c-.022.197-.044.394-.327.328-.066-.262.13-.284.327-.328zm2.443 9.174c-.175-.044-.393-.262-.175-.306.284-.065.305.11.327.306h-.152zm.501-14.634h.327v.328c-.48.24-1.068-.328-.327-.328zm-1.308-9.13c.021-.197.043-.371.327-.328.436.044 0 .503-.327.328z"/><path d="M66.456 87.78c-.066-.043-.262.044-.327 0v.175h-3.861c-.109-.371-.894-.066-1.286-.175v.175h-.633v-.175h-2.246v.175h-.807v-.175c-.218.088-.829-.196-.807.175h-.327c-.044-.218-.393-.131-.633-.175v.175H52.17c-.915-.371-2.507-.066-3.685-.175v.175h-.48v-.175H47.2v.175h-2.094v-.175H42.38c-.131-.043-.153.066-.153.175h.153v.459c.043.153-.066.153-.153.174h-.48c-.196-.043-.174-.262-.174-.502h.174v.306c.59.153.175-.677.48-.808-.153 0-.196.13-.327.174 0 .11-.022.197-.153.175-.109-.371-.894-.065-1.287-.175v.175h-.327v-.175c-.48.11-1.374-.196-1.613.175 0 .197-.459.197-.48 0-.764-.371-2.203-.065-3.228-.175v.175h-.96v-.175h-.327c-.283.088-.938-.196-.96.175h-.326c-.393-.218-1.113-.13-1.462 0h-.327c.022-.153-.065-.153-.174-.175h-.48v.175h-.633v-.175h-.98v.175h-.328v-.175h-.633c.044.284-.174.809.328.634.196 0 .152.284.327.328.196.043.174.262.152.48v.306c.175.196.153.59.48.633-.043.415.24.503.48.634.218.109.305.35.327.655.044.11 0 .306.175.306.174.35.763.306.632.96-.022.285.13.416.327.481.087.656.742.765.807 1.42.218.59.436 1.18 1.112 1.289v-.153c.175 0 .197.13.328.153.283-.066.305.13.327.327v.328c.043.328.436.306.48.633h-.153a1.27 1.27 0 01-.327-.24c2.071 2.84 4.558 5.242 7.567 7.142.284.131.458.394.807.481.197.328.524.546.96.655.196.437.72.568 1.134.786.065.219.196.328.48.328.022.197.262.175.48.175h.152c0 .153.197.109.327.153 0 .174.131.196.153.305.676.503 1.396.962 2.246 1.289v.153c.458-.044.502.371.982.306.436.371.981.633 1.614.808.13.218.392.349.806.328.044.109.131.174.328.153.043.24.392.152.632.174.545.634 1.592.765 2.42 1.114.023.197.263.175.48.153-.108-2.184.219-4.805-.152-6.727v-.328c.37-1.704.044-4.106.153-6.072h-.327c0-.218.065-.35.152-.48h.153v-.962c-.022-.174-.284-.13-.48-.152v.153h-3.053v-.153h-.633v.153h-.632v-.153h-.327c0 .087-.022.174-.153.153v1.441h.153v1.442c.676.218 0 .524 0 .961v1.441h-.153c.087.284-.196.939.153.961.065.328-.022.503-.327.481.087-.35-.306-.219-.328-.481h-.327c-.24-.196-.654-.196-.806-.48-.11-.306-.437-.437-.807-.481-.48-.568-1.287-.852-1.92-1.288-.218-.328-.85-.219-.981-.656-.044-.131 0-.327-.174-.327-2.181-2.36-4.864-4.216-6.74-6.88h-.174c.11.37.524.436.633.808.043.13 0 .305.174.305.48.35.916.787 1.287 1.267h-.327c-.306 0-.11-.524-.48-.48-.088 0-.197-.022-.153-.153a1.476 1.476 0 00-.632-.634c.065-.546-.48-.48-.655-.808v-.48c.197-.219.611-.371.807-.153v.153c8.157-.022 16.27 0 24.1.327v5.133h.174v.634h-.175c.087.393-.196 1.179.175 1.288v.634c.196.022.37.043.327.306h-.327v.655h-.175v1.288h.175v1.595h-.175v1.594h.175v1.791h.174v.459c.196.044.175.262.153.481h-.327v.655h-.175v1.289h.175v1.9c-.262-.109-.262.764 0 .655v.306c-.306.939.087 1.878-.175 3.036h.175v2.708c-.088.437.196 1.267-.175 1.442h-1.112v-.153c-.196.022-.458-.044-.48.153h-.327c0-.153-.13-.197-.175-.328H58.06c-.13-.043-.305 0-.327-.153v-.153H56.62c-.087 0-.196-.021-.175-.152-.24-.088-.828.174-.806-.175.109-.437-.764.131-.655-.306h-.96c-.087 0-.196-.044-.174-.153v-.153h-.96c-.087 0-.196-.022-.152-.175v-.152c-.502-.088-1.047-.131-1.44-.306-.021-.197-.261-.175-.48-.175v-.153c-.566-.022-1.111-.087-1.286-.48h-.807c-.13-.044-.153-.153-.327-.153-.262.043-.284-.153-.48-.153v-.175c-.152-.371-.916-.131-1.112-.48-.044-.131-.131-.197-.327-.153h-.48c-.175-.044-.24-.175-.327-.328-.131-.044-.327 0-.327-.153v-.153c-.524.131-.502-.24-.807-.305-.502.065-.371-.503-.96-.306-.065-.219-.196-.328-.48-.328-.24-.175-.392-.459-.806-.48-.11-.219-.35-.306-.633-.328h-.175c-.174-.022-.24-.175-.327-.306-.043-.131-.13-.196-.327-.175 0-.152-.13-.174-.152-.305-.284-.503-.938-.656-1.614-.808-.371-.175-.698-.372-.96-.634-.72-.175-1.069-.743-1.614-1.136-.174-.022-.24-.174-.327-.305-.043-.132-.13-.175-.327-.153-.327 0-.196-.437-.632-.306v-.153c-.35.044-.502-.131-.48-.481.24.088.392.241.48.481h.174c-.589-1.027-1.592-1.616-2.573-2.25.458.59 1.374.765 1.613 1.617-.152 0-.196-.132-.327-.175.11-.59-.567-.415-.807-.655-.043-.437-.763-.197-.632-.809-.393-.065-.349.284-.807.175a.78.78 0 01.175-.502c0-.153-.131-.197-.175-.306h-.48v-.153c-.13-.044-.152-.153-.327-.153-.044-.218-.262-.284-.327-.459v-.502h.174c-1.744-1.725-3.315-3.647-4.972-5.439v.175c.24.088.392.24.48.481v.306h-.153c0-.284-.13-.415-.327-.481v-.153c-.327.066-.305-.218-.327-.48-.044-.175-.175-.241-.327-.306a7.917 7.917 0 01-.96-1.289 3.108 3.108 0 00-.96-1.42c0-.087-.021-.196-.152-.153-.175 0-.196-.13-.327-.152.021-.284-.044-.503-.153-.634-.262-.59-.523-1.201-.96-1.616-.065-.371-.174-.699-.48-.808-.61-.896-.937-2.075-1.613-2.883-.24-.044-.153-.394-.153-.656-.044-.109 0-.305-.152-.305-.11-.437-.262-.809-.48-1.114-.022-.197-.044-.372-.327-.306v-.153c-.044-.24.043-.612-.175-.655 0-.088-.022-.197-.174-.175-.24-.044-.153-.393-.175-.633.066-.394-.283-.35-.152-.809h-.175c-.044-.13 0-.305-.174-.305h-.655c-.087-.022-.196-.044-.152-.175-.197 0-.197-.437 0-.48.327.065.501-.044.48-.306-.022-.197.021-.46-.153-.481.043-.633-.371-.808-.327-1.442h-.175v-.633h-.152v-.48h-.175a9.532 9.532 0 00-.632-2.556H15.4v-.655c-.24-2.097-.785-3.91-.807-6.247h-.327v-.48h.175c-.197-5.22.043-10.244.96-14.766h5.146c0-.153.13-.174.153-.305.152 0 .196.13.327.174.13.044.327 0 .327.153v2.577h.153v2.403h-.153V64.3h.153v.306h-.153c.087.328-.196 1.048.153 1.136.37.043.37.437 0 .48h-.153v.656h.153v.808h-.153v.808h.153v1.594c-.218.044-.131.415-.153.656v.655h.153v1.114h-.153v1.114h.153v.983c-.371.37-.066 1.441-.153 2.075h.153v1.747h-.153v.633h.153v.656h-.153v1.288h.153v.306h-.153c-.284.764-.175 1.18.153 1.442.937.655 3.685-.219 4.82.174.37-.284.065-1.223.152-1.769h-.654c-.284-.044-.371-.284-.327-.655h.632v.175h.327v-5.614h-.152c-.197-.24-.197-.415 0-.633h.152V52.637c-1.068-.328-2.704-.088-4.013-.175v.175h-.327v-.175h-.96v.175h-1.133c.043-.131-.066-.153-.153-.175h-3.206v.175h-.807c-.13-.022-.153.065-.153.174h-.327c0-.153-.196-.13-.327-.174h-.632c-.022-.197-.284-.131-.48-.175-.807.11-2.028-.197-2.574.175-.087.24.197.808-.174.808v.175h-.153c-.218.043-.13.415-.174.633v.48c0 .11-.022.197-.153.153-.349-.022-.065.568-.174.808v.786h-.175v.809h-.174v.153c.37.262.37.393 0 .655.043.131-.066.153-.153.153v.961c0 .11-.022.197-.153.175v.961c-.021.109-.021.196-.152.175v-.634h-.175c0 .284-.043.48-.174.634h.174v.655h.175v.327c-.11 0-.197.022-.175.153v.634h.175c0 .327.436.196.327.655h-.153c-.152 0-.13-.197-.152-.328-.131.022-.175.153-.328.153v1.289h-.152v.633h.152v.328h-.152v1.442c.022.174-.044.305-.153.327v.808h.153v.961H9.12v1.77c.131.043.153.153.327.153v.786h-.152v1.114h.152v.633c.131.044.197.131.175.328v.48h-.175c.087.284-.196.94.175.961h.174c.022.503-.109 1.18.153 1.442v1.267h.152c.35.065.066.786.153 1.114v1.441c.35-.022.087.568.175.808h.174c.044.131 0 .306.175.306v.634h.152c.35-.044.066.567.175.808.24.043.152.393.152.633v.48h.175v.656c.262.022.087.437.327.48.022.197-.022.46.175.481.021.415.087.764.327.961.021.415.087.764.327.961-.044.568.283.764.327 1.267h.153c.021.197-.022.459.174.48.065.372.196.656.327.962h.153v.174c.087 0 .196.022.174.153.24.044.153.393.153.633.043.132 0 .328.174.328-.043.35.044.59.327.634.044.13 0 .327.153.327.066.524.284.83.545 1.092.197.044.262.175.328.306v.328c0 .262.13.415.327.48.458-.065-.131.874.327.808.196.044.24.175.327.306v.328c0 .087.022.175.153.153h.174c.196.022.175.262.153.502-.022.393.087.677.327.808h.174c.35 1.245 1.047 2.163 1.767 3.036.087.765.37 1.333.96 1.617-.11-.372-.546-.437-.655-.809v-.305c.087.021.197.021.153.152.043.328.436.306.48.634h.152v.328c.066.174.175.349.328.48.087 0 .196.044.152.175.37.59.982.939 1.287 1.594.13.044.327 0 .327.153v.481c.37-.044.174.458.48.48.152.852.676 1.354 1.287 1.769-.044-.218-.262-.284-.328-.458h.175c.24.065.392.24.48.458-.24.066.021.131 0 .306 2.42 2.861 5.06 5.526 8.352 7.536.328 0 .197.436.633.305.218.153.48.263.654.481.37.306.764.633 1.112.961h.48v.328c.197 0 .218.196.48.153 1.33.808 2.53 1.747 4.013 2.402.545-.065.676.262.96.481.24.174.654.196.806.48.11.219.35.306.633.306.196-.022.458.044.48-.153h.174c.131-.022.153.066.175.153v.328c.13.043.327 0 .327.152.043.132.13.197.327.153.109.219.349.306.632.306.742.371 1.462.808 2.421.961.262.306.742.437 1.287.459.567.437 1.396.633 2.246.808h.654c.262-.065.306.109.328.306h.174c.022.175.262.153.48.153v.153c1.025 0 1.548.48 2.573.48.24.022.59-.065.633.175.589.306 1.374.437 2.246.48h.48c.196.022.458-.043.48.153.021.35.676.066.96.175h.653c.043-.131 0-.306.152-.306.044.131 0 .306.153.306.109 0 .196.022.174.153.066.349.785.065 1.134.153h.96v.153c1.221.109 2.443.218 3.686.327.305-8.889.174-19.636.174-29.661-.087-2.14.61-8.41-.414-9.436zm-12.693 15.224c.044.219.262.328-.153.306-.13-.044-.196-.131-.152-.306h.305zm.174 4.172c.022-.087.022-.197.175-.153.13.044.196.131.174.306-.152-.022-.349 0-.349-.153zm-4.514.153c-.218.022-.458.043-.48-.153.022-.197.044-.393.327-.306h.153v.459zm-29.224-51.59c-.196-.044-.174-.328 0-.328h.327v.327H20.2zm-.96-2.556c0-.11.022-.197.175-.175.13.044.196.131.153.328-.131-.044-.328-.022-.328-.153zm4.34 4.63v.306c-.087.131-.174.262-.174.48h-.153c-.043.132-.174.153-.174.328h-.328v-.807c.523.131.327-.415.828-.306zm1.92 7.055h.327v.306h-.327v-.306zm-.807 1.267c0 .153-.284.197-.328 0 .022-.153.306-.197.328 0zm-.48 7.863c.022-.415.632-.415.654 0-.043.131-.13.197-.327.153-.13 0-.153-.153-.327-.153zm.654-2.075h-.174v-.48c.196.043.458-.044.48.174 0 .175-.044.372-.306.306zm-2.093-10.266c.196.459-.524.459-.328 0h.328zm3.053-3.67h-.327v-.327c.196.022.392.044.327.328zM22.14 64.54v-.152c.262-.59.872.415 0 .152zm2.246-9.457c-.283-.044-.807.175-.654-.328h.654v.328zm-2.573 23.72c.087-.611.654.35.174.328-.174 0-.13-.197-.174-.328zm-3.38-26.276c.24.46-.72.46-.48 0h.48zm22.964 65.068v.327c-.13-.022-.327 0-.327-.153v-.174h.327zm-5.605-3.845c-.327.066-.501-.022-.48-.305h.48v.305zm-.654-2.249c-.262.065-.305-.11-.327-.306.196.022.393.044.327.306zm-3.206-.787v-.153c.327-.065.502.044.48.306-.196-.022-.458.022-.48-.153zm.48 1.77c-.087-.415.066-.59.48-.481v.655h-.175c-.174 0-.261-.065-.305-.174zm-3.86-8.672a12.335 12.335 0 011.919 1.922v.153c-.436-.175-.545-.633-.96-.808v-.153c-.065-.153-.13-.284-.327-.306h-.174c-.196-.349-.458-.589-.807-.808-.13-.742-.85-.852-1.112-1.441-.044-.175-.175-.262-.328-.306v-.175c.655.59 1.2 1.289 1.789 1.922zm-.96.481c0-.153.284-.197.327 0 0 .153-.283.196-.327 0zm-2.399-2.883h.175c.218.043.174.415-.175.327v-.327zm-.981-1.442h.327v.328h-.327v-.328zm-.96-.808v-.328h.327v.328h-.327zM17.8 89.55v-.306h.327v.305H17.8zm1.614 5.285v-.174c.327-.066.305.24.327.48-.174-.044-.305-.131-.327-.306zm.785-.458v.152h-.305c-.087-.349.305-.393.305-.152zm0 3.189c0-.197-.196-.219-.153-.481h.48a.68.68 0 01-.174.48h-.153zM13.307 57.18h-.48c-.24-.459.698-.459.48 0zm1.592.48h-.327v-.327h.328v.327zm-2.398-1.441c.13.043.196.153.174.327-.349.066-.393-.306-.175-.327zm.152 1.594c.284.044.37.284.327.634h-.48c-.065-.328.11-.415.153-.634zm.48 11.38c-.044.13 0 .306-.153.327h-.152v-.327h.305zm.327 8.016v-.306h.327v.306h-.327zm.807-1.442c-.196-.022-.393-.065-.327-.306.109-.305.283-.043.48 0-.022.132-.153.153-.153.306zm1.112 12.647c-.065-.328.24-.306.48-.306.13.044.153.175.327.175v.327c-.24-.109-.829.175-.807-.196zm.327 2.577h.48c0 .175.131.197.175.328-.197 0-.218.196-.48.153-.196-.022-.153-.284-.175-.481zm3.708 5.766c.022-.262-.022-.546.327-.48h.175v.327c-.175.088-.284.175-.502.153zm2.224 4.806c.022-.197.044-.372.328-.306-.022.196.021.437-.175.48-.109.022-.13-.065-.153-.174zm1.614 4.018c.218.044.262.263.48.306v.306c-.218-.131-.502-.218-.48-.612zm1.44 1.923h.174c.415.174.545.655.96.808.043.174.327.109.327.305v.153c-.698-.174-1.003-.786-1.461-1.266zm1.46 1.441h.175c.371.109.436.524.807.655.066.131.131.284.327.328.197.328.458.59.807.786v.328a14.751 14.751 0 01-2.115-2.097zm6.74 5.766c-.829-.24-1.09-1.048-1.92-1.288a1.665 1.665 0 01-.654-.634.802.802 0 01-.48-.48c.24.065.415.218.655.306.152.284.349.502.632.633h.175c.152.284.349.502.632.655h.175c.13.284.349.503.632.634h.175c-.022.065-.022.131-.022.174zm4.972-1.266c.197.021.458-.022.48.174v.153c-.218.219-.502.109-.48-.327zm2.247 4.958c.196.022.392.043.327.305h-.327v-.305zm4.187 0h-.327v-.328h.327v.328zm2.093 2.228c.219.065.022.283-.174.327h-.174c.043-.196.065-.371.349-.327zm2.88 2.271v-.328h.326c-.021.263.022.547-.327.481v-.153zm1.919-.83h-.328c.022-.196.044-.371.328-.306v.306zm7.24 2.577h.327v.306c-.218 0-.392-.022-.327-.306zm.48-1.922h-.153c-.13-.742.262-.742.153 0zm.48.481c.065.284-.131.306-.328.328-.436-.066 0-.503.328-.328zm5.474-28.526h.327v.328h-.327v-.328zm.96 8.824c-.153 0-.132.197-.175.306h-.175c-.043-.087-.392-.611 0-.655.655 0 .742.066.35.349zm-.328 13.608v-.306h.175c.196 0 .152.393-.175.306zm-.96-16.338h-.48v-.48h.48v.48zm-.98 10.091c.152 0 .13.197.174.306-.218.022-.458.044-.48-.153.022-.109.13-.175.305-.153zm2.267 8.497v.327h-.327c.022-.196.044-.393.327-.327zm0-23.874h-.654c-.436-.218.807-.895.654 0zm-1.94-4.652h-.328v-.306c.218 0 .393.022.327.306zm-.328 2.228h-.48c-.218-.459.72-.459.48 0zm.327 3.538c-.327.044-.501-.043-.48-.327.044-.11.131-.197.328-.153.196.022.13.284.152.48zm.982-4.499c-.24.24-.83 0-.807-.48h.807v.48zm-1.614-1.922c-.022.196-.044.371-.327.306-.153 0-.131-.197-.175-.306h.502zm-4.493 0c.022-.219.415-.175.327.153-.13-.022-.327.022-.327-.153zm1.287.808c.262-.066.305.131.327.328h-.174c-.262.043-.437-.219-.153-.328zm-1.614-.633h-.174c-.044-.415-.066-.809.48-.634.021.306-.437.197-.306.634zm-4.493.305h.48v.328c-.327.044-.501-.022-.48-.328zm-7.545 0c.021-.196.043-.37.327-.305-.022.174-.066.37-.328.305zm-8.353 1.617c-.284.065-.306-.131-.327-.306.196-.022.37.022.327.306zm-3.86 1.441v-.306c.196.022.37.044.327.306h-.328zm-1.287.328c-.044-.153.065-.153.152-.153h.328c.065.328-.218.284-.48.306v-.153zm.48.961c-.131-.044-.328 0-.328-.153.044-.197.262-.175.48-.175v.328h-.152zm6.259 2.403c0 .153-.284.196-.327 0 0-.153.196-.132.327-.153v.153zm-2.552-.962c-.283.066-.305-.13-.327-.305.196 0 .37.022.327.305zm-2.9-7.84h.479c.524.174-.152.436-.48.305v-.306zm-1.44-.35c.196.611-.523.611-.327 0h.327zm2.094 10.746v-.306c-.524-.065-.698-.48-.96-.808v-.153c.327.044.327.437.655.48.087.023.196.023.152.154.131.043.196.13.175.305.087.022.196.044.174.153.087.24.24.393.48.503v.153c.13-.022.153.065.174.174-.545-.022-.654-.371-.85-.655zm3.838 3.691c-.501-.349-.916-.808-1.286-1.288-.044-.11-.131-.175-.328-.153a7.41 7.41 0 01-1.44-1.42h.175c.567.328.851.939 1.44 1.267h.174c.35.502.785.917 1.287 1.289.175.043.24.174.327.327-.13-.022-.24-.022-.349-.022zm1.134.634c.327.065.306.437.633.502.087 0 .196.022.174.153-.48-.022-.61-.371-.807-.655zm3.86-3.364c-.327-.044-.327-.437-.632-.459h-.175v-.153c.459-.021.59.35.807.612zm-3.38-3.058c.044.131.13.197.327.175.327.197.589.459.807.808.044.219.262.262.327.48h-.632c0-.087.022-.196.152-.152v-.328h-.152a.865.865 0 00-.48-.48v-.153c-.72.13-.654-.525-.981-.809v-.174c.261.153.48.371.632.633zm20.086-4.15c-.196-.458.523-.458.327 0h-.327zm-8.375 28.373v.153h-.48c-.021-.24-.021-.437.153-.481.218.022.393.044.327.328zm5.3 4.478c.022-.197.044-.394.327-.306.066.262-.13.284-.327.306z"/></g></svg>