<svg width="104" height="130" fill="none" xmlns="http://www.w3.org/2000/svg"><g opacity=".4" fill="#000"><path d="M37.992 20.799c-.54-1.457-1.064-1.577-1.904-2.67 2.546.724 8.62.225 10.642-.473-.091-.06-.254-.24-.31-.145-.056.095-.24-.11-.326-.13-1.61-.404-1.569-.17-3.173-.22-4.827-.159-12.7-3.033-17.14-4.988-2.022-.854-4.329-2.156-6.304-2.85 1.181 2.3 6.019 5.933 8.656 7.06-.086.055-.198.05-.254.165-.056.115-.22.115-.3.13a5.27 5.27 0 01-1.33.13c5.031 6.121 6.895 2.494 11.743 3.991z"/><path d="M14.975 27.628a35.374 35.374 0 00-4.104 7.262c1.642-.643 2.694-1.476 4.476-1.621-1.455 4.01-2.462 6.946-2.834 11.854 1.832-1.581-.07-.627 4.687-4.371.584 2.98.59 4.416 1.607 6.925 2.069 5.13 7.3 10.304 12.014 12.768v-4.462c1.047.708 1.646 1.476 2.955 2.309 1.188.763 1.954.878 3.021 1.746-.07.055-.144.103-.221.146l-.735.416c-2.256 1.14-1.25.191-2.206 1.466l4.688 1.004c1.093.502.579.28 1.007.627-1.48.677-3.379 1.215-4.844 1.927l6.642 1.978c9.375 3.462 1.58 6.288 1.062 6.734 1.657.638 7.135.593 8.912 0-.503 2.184-1.314 1.551-2.402 3.122 1.445-.17 2.991-1.174 4.391-1.676 4.804-1.777 9.396-1.696 13.031-4.868 2.805-2.444 1.863-2.7 2.044-3.483.167-.698 1.783-2.68 2.317-3.548 2.135-3.478.74-3.93 4.078-4.894l1.833-.15c1.098 2.374-3.087 4.562-4.074 6.123 9.32-.347 11.97-7.704 14.91-9.536a7.723 7.723 0 002.588-2.258c5.413-7.147-1.27-11.388-2.045-12.963-.84-1.697.267-1.677-1.314-3.559-1.58-1.882-.921-.3-1.163-3.317-.378-4.657-4.41-7.207-8.897-10.193.947-4.015 1.36-4.065 0-8.532-4.335.211-4.955.216-8.56-1.204-7.341-2.86-12.553-7.915-23.585-8.186-12.95-.316-11.294 3.012-18.368 1.31C18.061 4.647 14.536 1.2 11.279 0c0 4.18 1.928 9.034 3.308 12.115l4.643 7.152c1.077 1.33.578.08 1.41 2.233-1.934 2.314-2.18 1.22-5.665 6.128zm50.432 39.707a46.27 46.27 0 01-10.79-1.42c-3.696-.903-4.225-2.318-5.841-5.069.378-.26.07-.12.81-.371 0 0 .877-.23.942-.24 5.272-1.005 4.587-.337 10.398-3.845-.76 3.232-4.164 6.022-5.922 8.336 1.808-.176 1.612-.377 2.805.416 1.007.402-.715.03 2.427.06 2.16 0-.755.026 1.254.317 2.26.326 7.049-3.122 8.842-4.261-.328 1.776-3.011 6.077-4.925 6.077zM51.978 49.053c3.072.948 4.532 4.933 5.695 8.14-2.185.406-2.855 1.069-6.913 1.62a17.35 17.35 0 00-2.8-6.524c-2.26-3.01-3.61-3.432-5.745-2.007.096-1.596.76-3.237 2.437-3.237 5.433 0 6.923 4.813 8.928 8.532.136.273.295.535.473.783l.367.502c-.02-3.338-1.148-5.672-2.442-7.81zm7.93 14.423c0 2.008-.503-.697-.503 1.004l-1.707-1.601c1.133-.783.605-.833 2.014-1.22 0 .437.197 1.767.197 1.817zm3.404-.196c-1.067-1.315-3.02-2.905-2.17-4.617.685-1.385 2.332-3.729 2.05-5.746-.71 1.004-2.81 2.69-4.295 3.061-.438-2.8-1.662-5.149-1.627-8.532 2.045-.692 2.936-.893 4.87 0 5.72 2.615 3.463 7.94 1.228 13.39 3.021-.16 5.458-2.81 7.729-1.636-2.135 1.255-4.93 3.87-7.784 4.08zm13.903-1.22c.674-1.871 2.13-3.126 2.442-5.675a2.96 2.96 0 01-1.32.562c-.971.095-1.304.07-1.359 0a42.6 42.6 0 01-1.803.642c-.941-.466-.196 0-.78-.823a1.753 1.753 0 01-.302-.542.566.566 0 00-.141-.286c-.871.381-2.2.823-2.936 1.16l-.317-1.852c-2.22 2.288-2.8 2.198-5.166 3.839.72-2.575 1.51-3.744 1.51-7.167 9.648 5.385 9.295 2.098 12.775 3.102 1.324.381 1.48 1.169 3.902 1.36-1.213 2.865-3.867 4.346-6.505 5.68zM83.2 32.48c-.156.503.096 4.222-3.141 2.405.558-1.456-.212-.221 1.465-1.375 1.052-.723.342-.653 1.676-1.03zM71.938 17.019c3.72.241 3.872-.622 2.412 5.28-2.231-1.506-4.975-3.945-6.45-6.022 1.38.16 2.537.647 4.038.742zm-46.364 2.008a6.254 6.254 0 01-2.25-1.004c-3.641-2.344-7.166-8.717-7.972-12.742 4.467 2.373 14.235 6.97 21.012 5.932-.685-.322-1.082-.422-1.727-.788L33.162 9.27c4.532-1.64 11.42-2.097 17.024-1.003 5.317 1.054 15.307 6.524 18.363 10.092 2.976 3.463 5.886 5.937 9.743 8.944 4.25 3.317 4.386 2.218 2.986 4.727-2.563-.03-1.259-.095-2.85-1.214 0 2.594.197 3.01 1.032 4.873 3.56 1.069 4.668-1.777 4.653 2.419a4.07 4.07 0 01-2.014-.803c.579 1.34 6.475 6.469 7.32 9.37 0 0 1.22 0-.03 2.414-1.117 2.138-2.9 4.014-5.649 4.06 1.32-.894 5.353-2.51 5.68-6.474-2.684-.06-5.34-.57-7.855-1.506-6.677-2.454-2.341-2.846-8.373-10.303-2.72-3.358-.202-3.84-3.314-6.073 0 3.087-1.248 3.714-3.76 2.188-4.417-2.675-3.314-7.417-13.329-7.417 1.052 1.42 2.014 1.003 3.253 2.84-2.679-.502-4.19-.25-6.617.402.103.05.211.09.323.115 2.145.632 3.429.306 5.77 1.862l-2.321.457 1.415.637c3.524 1.275 6.515 4.783 6.646 4.567.045-.08.186.16.272.246-2.17-.276-3.071-.763-4.788-1.004l1.309.868c3.353 1.802 6.5 1.506 9.521 1.28 2.74-.19 6.611 3.674 7.311 5.697-7.673-2.56-2.23-2.224-9.48-1.757.22.211.49.366.785.452.11.045.503.165.604.205 8.464 2.51 8.645 3.865 13.917 11.353-2.93 2.81-8.791.863-11.641-.648-6.611-3.513-8.233-9.897-10.186-12.546-1.808-2.48-10.77-4.015-16.335-.146 1.511 0 3.248-.753 5.036-.974a14.604 14.604 0 015.08.367c3.862.808 6.546 1.837 6.621 4.943-6.243-2.278-9.566-2.886-15.15.527-2.961 1.807-8.777 6.419-9.673 9.43 1.264-.833.911-1.21 2.442-1.62.665 3.186 4.028 3.196 6.631 4.747 6.763 4.015-.428 12.697 21.45 12.697-1.435 3.287-7.965 2.053-10.468 4.452-.408-.537-.413.2-.11-1.621-1.723.386-3.697.838-5.75 1.164l2.013-2.379c-3.086-1.922-.775.401-3.892-2.936-1.219-1.3-2.417-1.505-4.38-2.143l2.658-.597c-1.51-2.273-3.122-1.952-5.237-3.192 2.69-.13 2.9.03 5.237.502C40.523 52.897 30 60.59 30 46.252c-1.596 1.154-2.462 4.703-1.637 7.297-2.3-.903-4.758-4.215-5.911-6.7-1.752-3.829-1.42-5.982-1.44-10.83l-3.233.893c2.11-5.766 4.25-5.4 5.469-7.708-2.866 0-3.288.306-5.469.813 3.752-7.277 7.553-7.599 9.527-9.21.67-.547.1.106.65-.722l-2.382-1.06zm41.46 13.455c-1.058 1.912-4.1.938-5.54.226-2.164-1.125-2.789-2.48-1.278-4.602 1.153.572 1.606 1.385 3.066 2.449 1.28.913 2.095 1.566 3.752 1.902v.025zM41.802 53.353a3.654 3.654 0 01-.83-1.003 5.304 5.304 0 01-.343-.934c-.594-2.168-.09-4.2 1.43-5.43-.901 4.371-.931 2.404-.257 7.367z"/><path d="M41.8 39.338c.62-.274.344-.196.627-.609l-1.435.556c.506.1.301.277.807.053zm60.156 55.693c-1.414-4.053-3.667-6.607-6.759-7.662a13.256 13.256 0 00-6.409 8.015 11.713 11.713 0 014.322-8.456 6.753 6.753 0 00-.853-.06 10.575 10.575 0 00-7.754 3.025 10.197 10.197 0 00-3.24 7.652c0 2.961 1.24 5.855 3.68 8.698 1.06 1.23 3.382 3.33 6.934 6.318 2.205 1.855 3.489 3.32 3.882 4.369a3.078 3.078 0 01-.353 2.88 2.94 2.94 0 01-2.528 1.435c-2.396.047-4.25-1.757-5.585-5.458l-7.233 2.168c1.313 5.214 3.933 8.613 7.858 10.197 1.815-.592 3.512-1.755 5.105-3.472 1.593-1.717 2.689-3.609 3.15-5.545-.411 4.113-2.33 7.353-5.758 9.719a11.7 11.7 0 002.258.151c3.53-.118 6.442-1.589 8.739-4.412 2.413-2.976 3.138-6.363 2.177-10.163-.386-1.516-1.398-3.136-3.061-4.853a63.55 63.55 0 00-5.041-4.463c-2.276-1.872-3.849-3.264-4.706-4.205-1.37-1.526-2.016-2.897-2.016-4.113a2.655 2.655 0 01.77-1.876 2.719 2.719 0 011.737-.88 2.914 2.914 0 012.016.55 4.528 4.528 0 011.553 2.327c.551-.081 2.912-.71 7.081-1.886h.034zm-40.3 12.64h2.881a4.309 4.309 0 003.15-1.294A4.259 4.259 0 0069 103.238v-4.234a4.455 4.455 0 00-4.463-4.443h-2.88v13.11zm15.047-4.433c0 2.716-1 5.36-3.001 7.932-1.936 2.527-4.226 4.207-6.87 5.041a15.076 15.076 0 006.299-2.575c.16-.117.336-.248.473-.379a11.675 11.675 0 011.563 4.433l1.526 11.315h-7.632l-1.556-10.815a4.05 4.05 0 00-1.466-2.352 4.243 4.243 0 00-2.709-.931h-1.68v14.115h-7.696V86.868h8.113A13.444 13.444 0 0166.21 90.9c1.313 1.844 2.105 3.6 2.376 5.266a14.653 14.653 0 00-3.842-9.29 12.143 12.143 0 0111.958 12.137v4.224zm-35.147 6.779V97.77c0-.964-.37-2.137-1.092-3.532a11.682 11.682 0 00-6.655-5.935c.652.36 1.597 1.173 2.85 2.437a10.373 10.373 0 012.497 3.942 2.559 2.559 0 00-.793-.121 3.103 3.103 0 00-2.285.944 3.064 3.064 0 00-.944 2.265v12.247h6.422zm-3.21-23.15a10.495 10.495 0 017.703 3.2 10.418 10.418 0 013.2 7.703v31.235h-7.693V117.71H30.213l4.904 1.112v10.173h-7.693V97.77a10.442 10.442 0 013.21-7.703 10.508 10.508 0 017.712-3.2zM14.223 97.862a3.248 3.248 0 00-3.26-3.3H8.819L7.703 87.48v14.986h3.253c.432.003.86-.08 1.258-.244a3.253 3.253 0 001.77-1.785c.16-.401.24-.83.232-1.261l.007-1.314zM0 94.04l7.703-7.172h4.113a9.605 9.605 0 017.082 2.947 9.611 9.611 0 012.937 7.058v2.352a10.486 10.486 0 01-2.558 6.991 10.454 10.454 0 013.381 6.879 10.65 10.65 0 01-2.759 4.584c-1.411 1.416-2.928 2.153-4.55 2.209h-1.096a3.644 3.644 0 00.763-2.269v-3.73a3.7 3.7 0 00-3.724-3.721h-3.59v11.195l4.646.03c2.901 0 5.054-.402 6.459-1.206 1.936-1.092 3.24-3.157 3.912-6.198v4.114a10.921 10.921 0 01-10.903 10.902H0V94.04z"/></g></svg>