<svg width="255" height="44" fill="none" xmlns="http://www.w3.org/2000/svg"><path d="M21.094 23.375c.187.467.455.758.805.875.35.093.898.163 1.645.21.187 0 .292.047.315.14.047.07.07.152.07.245s-.058.338-.175.735c-.093.397-.187.968-.28 1.715-.047.303-.082.63-.105.98 0 .373-.012.712-.035 1.015-.023.327-.07.595-.14.805-.047.21-.14.315-.28.315-.117 0-.187-.152-.21-.455a32.654 32.654 0 00-.105-1.085 8.603 8.603 0 00-.175-1.295c-.07-.42-.222-.758-.455-1.015-.257-.28-.642-.443-1.155-.49a14.03 14.03 0 00-1.33-.07H3.874c-.887 0-1.552.222-1.995.665a4.82 4.82 0 00-.945 1.54 7.224 7.224 0 00-.35 1.505c-.047.467-.14.7-.28.7-.117 0-.198-.175-.245-.525a19.012 19.012 0 01-.035-1.295c0-.467.023-.957.07-1.47.07-.49.105-1.097.105-1.82 0-.233.023-.432.07-.595.047-.187.198-.28.455-.28.117 0 .233.012.35.035h.385a.804.804 0 00.455-.14c.14-.117.268-.245.385-.385.117-.163.222-.327.315-.49.093-.163.163-.303.21-.42 1.213-3.103 2.427-6.183 3.64-9.24a859.53 859.53 0 003.675-9.31l1.365-3.5c.14-.373.315-.56.525-.56.187 0 .35.187.49.56l8.575 22.4zm-3.605-.42l-2.87-7.84-2.87-7.84c-.21-.513-.385-.77-.525-.77-.117 0-.268.233-.455.7L4.96 22.43c-.233.63-.35 1.108-.35 1.435 0 .21.058.362.175.455.117.093.35.14.7.14h11.62c.443 0 .665-.152.665-.455 0-.257-.093-.607-.28-1.05zm14.713-21.42c0-.093.058-.152.175-.175a2.19 2.19 0 01.42-.035c.373 0 .816.035 1.33.105.513.047 1.201.07 2.065.07.56 0 1.073-.035 1.54-.105.49-.07 1.026-.105 1.61-.105.093 0 .21.012.35.035.163.023.245.093.245.21 0 .117-.117.198-.35.245-.234.023-.514.117-.84.28-.467.21-.77.537-.91.98-.117.42-.175 1.073-.175 1.96v15.26c.023.187.093.28.21.28.07 0 .163-.047.28-.14l.35-.35 14.56-17.92c.63-.77 1.12-1.155 1.47-1.155.186 0 .291.14.315.42.046.257.07.63.07 1.12v1.61c0 .397-.012.782-.035 1.155v14.7c.023.91.046 1.692.07 2.345.046.63.116 1.155.21 1.575.093.397.221.747.385 1.05.093.187.268.327.525.42.256.07.513.128.77.175.28.047.513.093.7.14.21.023.315.082.315.175 0 .117-.082.187-.245.21-.164.047-.374.07-.63.07-.187 0-.444-.012-.77-.035-.304 0-.63-.012-.98-.035l-.98-.07h-.77c-.887 0-1.587.023-2.1.07-.514.047-1.004.07-1.47.07a2.39 2.39 0 01-.385-.035c-.14-.023-.21-.093-.21-.21 0-.093.105-.152.315-.175.233-.023.408-.058.525-.105a1.5 1.5 0 00.84-.56c.233-.28.396-.618.49-1.015.116-.397.186-.828.21-1.295.046-.49.07-.98.07-1.47V7.835c0-.187-.012-.373-.035-.56 0-.21-.047-.315-.14-.315-.21 0-.409.128-.595.385a7.84 7.84 0 01-.63.84L36.752 24.88a9.31 9.31 0 01-.49.595c-.187.21-.374.397-.56.56a2.903 2.903 0 01-.49.455c-.14.14-.245.21-.315.21-.164 0-.269-.128-.315-.385a13.182 13.182 0 01-.035-1.155V4.51c0-.257-.012-.513-.035-.77a3.766 3.766 0 00-.14-.77c-.047-.257-.117-.432-.21-.525-.21-.21-.432-.35-.665-.42a2.558 2.558 0 00-.665-.175 6.56 6.56 0 01-.455-.07c-.117-.023-.175-.105-.175-.245zM85.96 19.98c0 1.12-.245 2.077-.735 2.87a5.952 5.952 0 01-1.89 1.925 8.429 8.429 0 01-2.695 1.12c-.98.233-1.972.35-2.975.35a19.99 19.99 0 01-2.52-.14c-.7-.07-1.47-.105-2.31-.105h-.875a14.46 14.46 0 01-1.015.035c-.35.023-.7.035-1.05.035-.327.023-.607.035-.84.035a3.22 3.22 0 01-.456-.035c-.163 0-.245-.047-.245-.14 0-.117.106-.198.316-.245.233-.047.501-.105.805-.175.303-.07.595-.152.875-.245a1.08 1.08 0 00.595-.56c.093-.187.163-.513.21-.98.07-.467.116-.992.14-1.575.046-.583.07-1.178.07-1.785.023-.607.035-1.143.035-1.61V4.685c0-.537-.035-.98-.106-1.33-.046-.373-.163-.677-.35-.91-.116-.14-.291-.245-.525-.315a6.769 6.769 0 00-.734-.175 14.18 14.18 0 00-.63-.175c-.164-.047-.246-.105-.246-.175 0-.117.094-.187.28-.21.21-.047.374-.07.49-.07.397 0 .887.035 1.47.105.607.047 1.202.07 1.785.07h.876c.35-.023.7-.035 1.05-.035.373-.023.734-.035 1.084-.035.374-.023.7-.035.98-.035.84 0 1.657.14 2.45.42.817.257 1.54.642 2.17 1.155a5.608 5.608 0 011.54 1.855c.397.723.596 1.54.596 2.45 0 .863-.094 1.598-.28 2.205-.187.607-.432 1.12-.736 1.54-.28.42-.594.77-.944 1.05-.35.257-.7.478-1.05.665a6.266 6.266 0 01-.455.21c-.094.047-.14.093-.14.14 0 .047.081.105.245.175.163.047.361.105.594.175.584.21 1.179.49 1.786.84.63.35 1.19.793 1.68 1.33.49.513.886 1.132 1.19 1.855.326.723.49 1.563.49 2.52zM80.815 8.5c0-.84-.152-1.61-.456-2.31a6.031 6.031 0 00-1.19-1.855 5.384 5.384 0 00-1.644-1.19c-.607-.303-1.214-.455-1.82-.455-.49 0-.805.058-.945.175-.14.093-.21.455-.21 1.085v7.84c0 .397.151.642.454.735.304.093.759.14 1.365.14h.876a5.77 5.77 0 001.47-.175 2.42 2.42 0 001.12-.63c.326-.327.571-.758.735-1.295.163-.537.245-1.225.245-2.065zm1.995 12.075c0-1.073-.199-2.018-.596-2.835a6.107 6.107 0 00-1.61-2.065 6.842 6.842 0 00-2.38-1.26 9.362 9.362 0 00-2.835-.42c-.326 0-.548.035-.664.105-.117.047-.175.198-.175.455v6.09c0 1.12.046 1.995.14 2.625.116.63.291 1.097.525 1.4.256.303.571.49.944.56.374.07.84.105 1.4.105a8.07 8.07 0 001.82-.21 5.441 5.441 0 001.715-.77 3.985 3.985 0 001.226-1.47c.326-.607.49-1.377.49-2.31zm13.191-19.04c0-.093.059-.152.175-.175.117-.023.257-.035.42-.035.374 0 .817.035 1.33.105.514.047 1.202.07 2.066.07.559 0 1.073-.035 1.539-.105.49-.07 1.027-.105 1.61-.105.094 0 .21.012.35.035.164.023.245.093.245.21 0 .117-.116.198-.35.245-.233.023-.513.117-.84.28-.466.21-.77.537-.91.98-.116.42-.175 1.073-.175 1.96v15.26c.024.187.094.28.21.28.07 0 .164-.047.28-.14l.35-.35 14.56-17.92c.63-.77 1.12-1.155 1.47-1.155.187 0 .292.14.315.42.047.257.07.63.07 1.12v1.61c0 .397-.011.782-.035 1.155v14.7c.024.91.047 1.692.07 2.345.047.63.117 1.155.21 1.575.094.397.222.747.385 1.05.094.187.269.327.525.42.257.07.514.128.77.175.28.047.514.093.7.14.21.023.315.082.315.175 0 .117-.081.187-.245.21-.163.047-.373.07-.63.07-.186 0-.443-.012-.77-.035-.303 0-.63-.012-.98-.035l-.98-.07h-.77c-.886 0-1.586.023-2.1.07-.513.047-1.003.07-1.47.07a2.4 2.4 0 01-.385-.035c-.14-.023-.21-.093-.21-.21 0-.093.105-.152.315-.175.234-.023.409-.058.525-.105a1.5 1.5 0 00.84-.56c.234-.28.397-.618.49-1.015a5.53 5.53 0 00.21-1.295c.047-.49.07-.98.07-1.47V7.835c0-.187-.011-.373-.035-.56 0-.21-.046-.315-.14-.315-.21 0-.408.128-.595.385a7.76 7.76 0 01-.63.84L100.551 24.88c-.14.187-.303.385-.49.595a6.16 6.16 0 01-.56.56 2.903 2.903 0 01-.49.455c-.14.14-.245.21-.314.21-.164 0-.269-.128-.316-.385a13.182 13.182 0 01-.034-1.155V4.51c0-.257-.012-.513-.035-.77a3.766 3.766 0 00-.14-.77c-.047-.257-.117-.432-.21-.525-.21-.21-.432-.35-.666-.42a2.558 2.558 0 00-.665-.175 6.56 6.56 0 01-.454-.07C96.06 1.757 96 1.675 96 1.535zm51.518 18.095c0 1.143-.245 2.147-.735 3.01-.466.863-1.143 1.587-2.03 2.17-.863.583-1.901 1.015-3.115 1.295-1.213.303-2.555.455-4.025.455-.746 0-1.598-.093-2.555-.28a34.352 34.352 0 01-2.625-.56c-.14-.023-.256-.175-.35-.455a8.691 8.691 0 01-.175-.945 18.782 18.782 0 01-.035-1.155V22.08c0-.14.012-.268.035-.385.047-.117.129-.175.245-.175.094 0 .175.058.245.175.07.093.129.21.175.35.047.117.082.245.105.385.024.117.047.198.07.245.21.467.502.863.875 1.19.397.327.84.607 1.33.84.49.233.992.408 1.505.525a8.99 8.99 0 001.54.14c2.287 0 3.92-.455 4.9-1.365.98-.91 1.47-2.158 1.47-3.745 0-1.003-.163-1.925-.49-2.765a5.432 5.432 0 00-1.435-2.17c-.63-.607-1.435-1.085-2.415-1.435-.98-.35-2.146-.525-3.5-.525h-.805a.624.624 0 01-.28-.07c-.093-.07-.14-.187-.14-.35 0-.233.164-.385.49-.455.35-.07.77-.117 1.26-.14.514-.047 1.05-.105 1.61-.175a4.362 4.362 0 001.505-.455c.817-.42 1.447-.98 1.89-1.68.444-.723.665-1.692.665-2.905 0-.793-.14-1.493-.42-2.1a4.386 4.386 0 00-1.155-1.575 4.648 4.648 0 00-1.61-.945 4.855 4.855 0 00-1.82-.35c-.933 0-1.738.21-2.415.63a5.653 5.653 0 00-1.645 1.505c-.14.21-.245.432-.315.665-.07.21-.128.408-.175.595a3.473 3.473 0 01-.14.455c-.023.117-.081.175-.175.175-.21 0-.315-.128-.315-.385 0-.443.024-.898.07-1.365.047-.467.07-.91.07-1.33a2.7 2.7 0 00-.035-.455v-.49c0-.14.082-.21.245-.21.07 0 .14.012.21.035.094.023.175.035.245.035.234 0 .502-.058.805-.175.327-.117.7-.233 1.12-.35.42-.14.899-.268 1.435-.385a9.304 9.304 0 011.89-.175c.887 0 1.75.14 2.59.42a7.36 7.36 0 012.24 1.19 5.813 5.813 0 011.61 1.855c.42.723.63 1.528.63 2.415 0 .817-.163 1.54-.49 2.17a6.194 6.194 0 01-1.19 1.575 6.982 6.982 0 01-1.47 1.085c-.513.28-.945.49-1.295.63-.023 0-.058.023-.105.07-.046.023-.07.058-.07.105 0 .093.047.14.14.14.56.093 1.202.303 1.925.63a7.898 7.898 0 012.1 1.365c.654.56 1.202 1.26 1.645 2.1.444.84.665 1.82.665 2.94zm10.368-18.095c0-.093.059-.152.175-.175.117-.023.257-.035.42-.035.374 0 .817.035 1.33.105.514.047 1.202.07 2.065.07.56 0 1.074-.035 1.54-.105.49-.07 1.027-.105 1.61-.105.094 0 .21.012.35.035.164.023.245.093.245.21 0 .117-.116.198-.35.245-.233.023-.513.117-.84.28-.466.21-.77.537-.91.98-.116.42-.175 1.073-.175 1.96v15.26c.024.187.094.28.21.28.07 0 .164-.047.28-.14l.35-.35 14.56-17.92c.63-.77 1.12-1.155 1.47-1.155.187 0 .292.14.315.42.047.257.07.63.07 1.12v1.61c0 .397-.011.782-.035 1.155v14.7c.024.91.047 1.692.07 2.345.047.63.117 1.155.21 1.575.094.397.222.747.385 1.05.094.187.269.327.525.42.257.07.514.128.77.175.28.047.514.093.7.14.21.023.315.082.315.175 0 .117-.081.187-.245.21-.163.047-.373.07-.63.07-.186 0-.443-.012-.77-.035-.303 0-.63-.012-.98-.035l-.98-.07h-.77c-.886 0-1.586.023-2.1.07-.513.047-1.003.07-1.47.07a2.4 2.4 0 01-.385-.035c-.14-.023-.21-.093-.21-.21 0-.093.105-.152.315-.175.234-.023.409-.058.525-.105a1.5 1.5 0 00.84-.56c.234-.28.397-.618.49-1.015a5.53 5.53 0 00.21-1.295c.047-.49.07-.98.07-1.47V7.835c0-.187-.011-.373-.035-.56 0-.21-.046-.315-.14-.315-.21 0-.408.128-.595.385a7.76 7.76 0 01-.63.84L162.437 24.88c-.14.187-.303.385-.49.595a6.16 6.16 0 01-.56.56 2.865 2.865 0 01-.49.455c-.14.14-.245.21-.315.21-.163 0-.268-.128-.315-.385a13.305 13.305 0 01-.035-1.155V4.51c0-.257-.011-.513-.035-.77a3.745 3.745 0 00-.14-.77c-.046-.257-.116-.432-.21-.525-.21-.21-.431-.35-.665-.42a2.555 2.555 0 00-.665-.175 6.658 6.658 0 01-.455-.07c-.116-.023-.175-.105-.175-.245zm59.864 11.725c0 1.773-.245 3.465-.735 5.075-.466 1.61-1.201 3.022-2.205 4.235-1.003 1.213-2.275 2.182-3.815 2.905-1.54.723-3.36 1.085-5.46 1.085-1.796 0-3.465-.303-5.005-.91a12.314 12.314 0 01-3.99-2.555c-1.143-1.12-2.041-2.45-2.695-3.99-.63-1.563-.945-3.278-.945-5.145 0-1.843.292-3.558.875-5.145.584-1.61 1.412-2.987 2.485-4.13a11.443 11.443 0 013.815-2.73c1.494-.677 3.15-1.015 4.97-1.015 1.89 0 3.617.338 5.18 1.015 1.564.653 2.894 1.552 3.99 2.695a11.713 11.713 0 012.59 3.92c.63 1.493.945 3.057.945 4.69zm-3.395 2.205c0-1.563-.186-3.138-.56-4.725-.373-1.587-.956-3.01-1.75-4.27a9.843 9.843 0 00-3.01-3.115c-1.19-.793-2.601-1.19-4.235-1.19-1.54 0-2.846.315-3.92.945a8.13 8.13 0 00-2.59 2.45 10.37 10.37 0 00-1.47 3.395 15.4 15.4 0 00-.455 3.675c0 1.657.21 3.255.63 4.795.444 1.517 1.085 2.87 1.925 4.06a10.2 10.2 0 003.08 2.835c1.214.7 2.59 1.05 4.13 1.05 1.354 0 2.544-.268 3.57-.805a7.773 7.773 0 002.555-2.205 9.921 9.921 0 001.575-3.185c.35-1.19.525-2.427.525-3.71zm36.768 5.46c0 1.307.059 2.287.175 2.94.117.653.42 1.143.91 1.47.117.07.28.128.49.175l.63.07c.21.023.397.058.56.105.164.047.245.117.245.21 0 .093-.046.152-.14.175a.618.618 0 01-.28.07c-.163 0-.408-.012-.735-.035-.326 0-.7-.012-1.12-.035l-1.225-.07h-1.12c-.886 0-1.715.023-2.485.07-.746.047-1.283.07-1.61.07a.624.624 0 01-.28-.07c-.093-.023-.14-.082-.14-.175 0-.093.082-.163.245-.21a3.37 3.37 0 01.56-.105l.63-.07a1.67 1.67 0 00.49-.175c.49-.327.782-.817.875-1.47.117-.653.175-1.633.175-2.94V14.66c0-.257-.046-.408-.14-.455-.093-.07-.268-.105-.525-.105h-13.16c-.256 0-.431.035-.525.105-.07.047-.105.198-.105.455v6.265c0 1.307.047 2.287.14 2.94.117.653.42 1.143.91 1.47.117.07.28.128.49.175l.63.07c.21.023.397.058.56.105.164.047.245.117.245.21 0 .093-.046.152-.14.175a.618.618 0 01-.28.07c-.163 0-.408-.012-.735-.035-.326 0-.7-.012-1.12-.035l-1.225-.07h-1.12c-.886 0-1.715.023-2.485.07-.746.047-1.283.07-1.61.07a.624.624 0 01-.28-.07c-.093-.023-.14-.082-.14-.175 0-.093.082-.163.245-.21a3.37 3.37 0 01.56-.105l.63-.07a1.67 1.67 0 00.49-.175c.49-.327.794-.817.91-1.47.117-.653.175-1.633.175-2.94V4.685a5.91 5.91 0 00-.175-1.505c-.093-.467-.315-.793-.665-.98a2.3 2.3 0 00-.525-.175 6.405 6.405 0 00-.595-.105 11.172 11.172 0 01-.455-.14c-.116-.047-.175-.105-.175-.175 0-.093.07-.163.21-.21.14-.047.292-.07.455-.07.14 0 .35.012.63.035.304.023.619.047.945.07.327 0 .654.012.98.035.35.023.63.035.84.035.234 0 .514-.012.84-.035l.98-.07c.327-.047.642-.082.945-.105.304-.023.549-.035.735-.035.21 0 .385.023.525.07.164.047.245.128.245.245 0 .07-.07.128-.21.175-.14.047-.315.093-.525.14a6.464 6.464 0 00-.595.105 1.698 1.698 0 00-.455.175c-.396.257-.63.595-.7 1.015-.07.42-.105.968-.105 1.645v7c0 .257.024.42.07.49.07.07.245.105.525.105h13.23c.304 0 .479-.023.525-.07.07-.07.105-.245.105-.525V4.72c0-.56-.035-1.073-.105-1.54-.046-.467-.233-.793-.56-.98a1.557 1.557 0 00-.56-.21 5.91 5.91 0 00-.63-.105 6.317 6.317 0 00-.49-.105c-.14-.047-.21-.105-.21-.175 0-.093.07-.163.21-.21.14-.047.292-.07.455-.07.14 0 .35.012.63.035.304.023.619.047.945.07.327 0 .654.012.98.035.35.023.63.035.84.035.234 0 .514-.012.84-.035l.98-.07c.327-.047.642-.082.945-.105.304-.023.549-.035.735-.035.21 0 .385.023.525.07.164.047.245.128.245.245 0 .07-.081.128-.245.175-.14.047-.315.093-.525.14a6.464 6.464 0 00-.595.105c-.21.047-.373.105-.49.175-.373.257-.595.595-.665 1.015-.07.42-.105.968-.105 1.645v16.1zM46.763 42.945c0 .037-.048.062-.143.077-.096.022-.22.033-.374.033-.177 0-.33-.004-.463-.011a8.489 8.489 0 00-.462-.011 2.75 2.75 0 00-.22.011 2.702 2.702 0 01-.22.011.3.3 0 01-.197-.088 3.722 3.722 0 00-.143-.154l-3.377-3.366a5.161 5.161 0 00-.199-.187c-.066-.073-.11-.11-.132-.11-.029 0-.047.018-.054.055v2.717c0 .132.014.282.043.451a.58.58 0 00.22.374.69.69 0 00.166.077l.187.044a.492.492 0 01.164.044c.052.015.078.037.078.066 0 .03-.019.048-.056.055a.358.358 0 01-.088.011c-.087 0-.165-.004-.23-.011-.066 0-.14-.004-.22-.011a12.261 12.261 0 00-.286-.022h-.418c-.206 0-.43.007-.672.022-.242.015-.465.022-.67.022a.555.555 0 01-.11-.011c-.03-.007-.044-.03-.044-.066 0-.03.029-.051.087-.066.066-.015.144-.03.231-.044a1.82 1.82 0 00.264-.066.467.467 0 00.21-.165c.044-.066.08-.224.11-.473a9.07 9.07 0 00.044-1.001v-4.917c0-.161-.011-.29-.034-.385a.397.397 0 00-.099-.231.395.395 0 00-.197-.132 1.803 1.803 0 00-.33-.077c-.096-.015-.143-.044-.143-.088 0-.037.04-.059.12-.066a1.613 1.613 0 01.385 0l.188.022a3.5 3.5 0 01.252.011c.096.007.217.011.364.011.066 0 .142-.004.23-.011a255.429 255.429 0 00.562-.044c.095-.007.175-.011.241-.011.03 0 .07.004.121.011.06.007.089.026.089.055 0 .03-.019.051-.055.066a6.896 6.896 0 01-.143.055c-.052.015-.11.037-.177.066a.447.447 0 00-.175.11.878.878 0 00-.11.132.554.554 0 00-.056.176c-.014.073-.025.18-.033.319-.007.14-.01.33-.01.572v1.914c.007.037.021.055.043.055.06 0 .147-.055.264-.165.118-.117.272-.268.462-.451l1.716-1.617c.044-.044.103-.099.176-.165a3.37 3.37 0 00.232-.231c.073-.08.135-.161.187-.242a.386.386 0 00.087-.22c0-.073-.025-.125-.076-.154a.383.383 0 00-.154-.077 1.67 1.67 0 00-.166-.033c-.043-.015-.066-.033-.066-.055 0-.037.026-.059.078-.066a.606.606 0 01.132-.022c.124 0 .249.007.373.022.125.007.25.011.374.011h.495c.14-.007.257-.015.352-.022.103-.007.188-.011.254-.011.073-.007.139-.011.197-.011.096 0 .144.022.144.066 0 .044-.037.073-.11.088a1.329 1.329 0 00-.298.088c-.132.051-.297.14-.495.264a4.14 4.14 0 00-.648.495l-2.453 2.266-.066.066a.106.106 0 000 .154l.054.055 3.092 3.047c.066.066.15.147.252.242a10.04 10.04 0 00.672.539c.11.08.205.136.285.165a.45.45 0 00.144.033.89.89 0 01.198.022.992.992 0 01.175.033c.052.015.078.037.078.066zm18.642-3.949a5.45 5.45 0 01-.231 1.595c-.147.506-.378.95-.693 1.331a3.41 3.41 0 01-1.2.913c-.483.227-1.055.341-1.715.341a4.253 4.253 0 01-1.573-.286 3.864 3.864 0 01-1.254-.803 3.824 3.824 0 01-.847-1.254 4.287 4.287 0 01-.297-1.617c0-.58.091-1.118.275-1.617.183-.506.443-.939.78-1.298a3.596 3.596 0 011.2-.858c.47-.213.99-.319 1.562-.319.594 0 1.136.106 1.628.319.491.205.91.488 1.254.847.352.352.623.763.814 1.232.198.47.297.96.297 1.474zm-1.067.693c0-.491-.059-.986-.176-1.485a4.384 4.384 0 00-.55-1.342 3.099 3.099 0 00-.946-.979c-.374-.25-.818-.374-1.331-.374-.484 0-.895.099-1.232.297a2.55 2.55 0 00-.814.77 3.25 3.25 0 00-.462 1.067 4.832 4.832 0 00-.143 1.155c0 .52.066 1.023.198 1.507.14.477.34.902.605 1.276.264.367.586.664.968.891.381.22.814.33 1.298.33.425 0 .8-.084 1.122-.253.322-.176.59-.407.803-.693.22-.293.385-.627.495-1.001a4.11 4.11 0 00.165-1.166zm20.355 1.716c0 .41.019.719.055.924.037.205.132.36.286.462.037.022.088.04.154.055l.198.022c.066.007.125.018.176.033.052.015.077.037.077.066 0 .03-.014.048-.044.055a.195.195 0 01-.088.022c-.051 0-.128-.004-.23-.011-.103 0-.22-.004-.353-.011L84.54 43h-.352c-.278 0-.539.007-.78.022a9.19 9.19 0 01-.507.022.195.195 0 01-.088-.022c-.029-.007-.044-.026-.044-.055 0-.03.026-.051.077-.066a1.09 1.09 0 01.176-.033l.198-.022a.526.526 0 00.154-.055.633.633 0 00.275-.462 5.66 5.66 0 00.055-.924v-1.969c0-.08-.014-.128-.044-.143-.029-.022-.084-.033-.165-.033h-4.136c-.08 0-.135.011-.165.033-.022.015-.033.062-.033.143v1.969c0 .41.015.719.044.924.037.205.132.36.286.462.037.022.088.04.154.055l.198.022c.066.007.125.018.176.033.052.015.077.037.077.066 0 .03-.014.048-.044.055a.195.195 0 01-.088.022c-.051 0-.128-.004-.23-.011-.103 0-.22-.004-.353-.011L78.995 43h-.352c-.278 0-.539.007-.78.022a9.19 9.19 0 01-.507.022.195.195 0 01-.088-.022c-.029-.007-.044-.026-.044-.055 0-.03.026-.051.077-.066a1.09 1.09 0 01.176-.033l.198-.022a.526.526 0 00.154-.055.668.668 0 00.286-.462 5.66 5.66 0 00.055-.924v-5.104c0-.176-.018-.334-.055-.473-.029-.147-.099-.25-.209-.308a.724.724 0 00-.165-.055 2.07 2.07 0 00-.187-.033 3.28 3.28 0 01-.143-.044c-.036-.015-.055-.033-.055-.055 0-.03.022-.051.066-.066a.451.451 0 01.143-.022c.044 0 .11.004.198.011l.297.022c.103 0 .206.004.308.011.11.007.198.011.264.011.074 0 .162-.004.264-.011l.308-.022a4.679 4.679 0 01.528-.044.53.53 0 01.165.022c.052.015.077.04.077.077 0 .022-.022.04-.066.055-.044.015-.099.03-.165.044a2.063 2.063 0 00-.187.033.461.461 0 00-.363.374 3.264 3.264 0 00-.033.517v2.2c0 .08.008.132.022.154.022.022.077.033.165.033h4.158c.096 0 .15-.007.165-.022.022-.022.033-.077.033-.165v-2.233c0-.176-.01-.337-.033-.484-.014-.147-.073-.25-.176-.308a.492.492 0 00-.176-.066 1.892 1.892 0 00-.198-.033 2.077 2.077 0 00-.154-.033c-.044-.015-.066-.033-.066-.055 0-.03.022-.051.066-.066a.451.451 0 01.143-.022c.044 0 .11.004.198.011l.297.022c.103 0 .206.004.308.011.11.007.198.011.264.011.074 0 .162-.004.264-.011l.308-.022a4.679 4.679 0 01.528-.044.53.53 0 01.165.022c.052.015.077.04.077.077 0 .022-.025.04-.077.055-.044.015-.099.03-.165.044a2.063 2.063 0 00-.187.033.528.528 0 00-.154.055.47.47 0 00-.209.319 3.264 3.264 0 00-.033.517v5.06zm19.52.594a4.697 4.697 0 01-.066.33l-.055.308c-.015.103-.103.187-.264.253a3.067 3.067 0 01-.605.165 6.208 6.208 0 01-.792.088c-.279.022-.546.033-.803.033-.557 0-1.085-.08-1.584-.242a3.569 3.569 0 01-1.309-.748 3.595 3.595 0 01-.891-1.276c-.22-.52-.33-1.133-.33-1.837 0-.594.099-1.133.297-1.617.198-.491.47-.91.814-1.254a3.655 3.655 0 011.221-.792c.469-.19.972-.286 1.507-.286.44 0 .818.022 1.133.066.315.037.59.084.825.143l.407.121c.147.037.257.055.33.055.044 0 .073-.007.088-.022.015-.022.04-.033.077-.033.022 0 .033.018.033.055.007.03.011.051.011.066 0 .08-.007.169-.022.264s-.022.18-.022.253c0 .095.004.205.011.33.015.117.022.235.022.352a.843.843 0 01-.022.187c-.007.066-.029.099-.066.099a.118.118 0 01-.088-.033.37.37 0 01-.033-.11 1.17 1.17 0 00-.033-.143.544.544 0 00-.055-.176c-.154-.308-.451-.565-.891-.77-.433-.205-1.005-.308-1.716-.308-.462 0-.865.084-1.21.253-.337.169-.62.4-.847.693a2.962 2.962 0 00-.506 1.034c-.11.389-.165.803-.165 1.243 0 .609.08 1.162.242 1.661.161.499.389.928.682 1.287.293.352.645.627 1.056.825.418.198.88.297 1.386.297.286 0 .572-.044.858-.132.286-.095.546-.224.781-.385a.79.79 0 00.253-.264c.066-.11.117-.213.154-.308.044-.095.077-.176.099-.242.029-.066.055-.099.077-.099.044 0 .07.03.077.088.007.059.011.099.011.121a.762.762 0 01-.033.176c-.015.08-.029.158-.044.231zm19.302.979c0 .037-.022.055-.066.055a.51.51 0 01-.099.011c-.169 0-.371-.007-.605-.022a8.075 8.075 0 00-1.188 0 7.458 7.458 0 01-.572.022 1.26 1.26 0 01-.121-.011c-.052 0-.077-.015-.077-.044 0-.051.033-.08.099-.088.066-.015.139-.03.22-.044a.733.733 0 00.231-.099c.066-.051.099-.136.099-.253a1.88 1.88 0 00-.066-.473 5.17 5.17 0 00-.176-.539l-.407-1.056c-.03-.08-.059-.132-.088-.154-.022-.022-.085-.033-.187-.033h-2.332c-.11 0-.176.007-.198.022-.022.015-.048.059-.077.132l-.517 1.353a3.95 3.95 0 00-.11.33c-.037.125-.055.25-.055.374a.6.6 0 00.033.209.243.243 0 00.132.11c.102.037.205.066.308.088.11.015.165.04.165.077 0 .044-.019.07-.055.077a.413.413 0 01-.099.011 3.51 3.51 0 01-.363-.022 11.463 11.463 0 00-1.023 0c-.14.015-.275.022-.407.022a.677.677 0 01-.11-.011c-.052-.007-.077-.033-.077-.077s.04-.07.121-.077a.957.957 0 00.198-.055.977.977 0 00.462-.429c.102-.19.216-.44.341-.748l2.266-5.621c.095-.227.168-.41.22-.55.058-.147.106-.26.143-.341.036-.08.062-.132.077-.154.022-.03.044-.044.066-.044.051 0 .106.08.165.242l2.684 6.853c.036.103.091.224.165.363.073.14.139.238.198.297a.51.51 0 00.176.11l.231.066c.073.022.135.044.187.066.058.015.088.033.088.055zm-3.014-3.245c0-.03-.048-.169-.143-.418l-.836-2.178a1.207 1.207 0 00-.121-.253c-.022-.037-.041-.055-.055-.055-.022 0-.048.022-.077.066a2.937 2.937 0 00-.099.242l-.902 2.321a1.34 1.34 0 00-.088.275c0 .037.047.055.143.055h1.958c.146 0 .22-.018.22-.055zm13.906 3.245c0-.022.022-.037.066-.044.037-.007.07-.015.099-.022a.568.568 0 00.319-.121c.103-.073.195-.161.275-.264a1.72 1.72 0 00.209-.341c.066-.125.121-.25.165-.374l2.64-6.743c.037-.088.081-.132.132-.132.044 0 .085.044.121.132l2.64 6.853c.103.279.213.495.33.649.125.154.316.253.572.297.03.007.07.018.121.033.052.015.077.04.077.077s-.025.055-.077.055a.885.885 0 01-.121.011 6.76 6.76 0 01-.55-.022 6.406 6.406 0 00-.506-.022h-.385c-.102.007-.194.015-.275.022-.08.007-.154.011-.22.011a1.776 1.776 0 01-.198.011.47.47 0 01-.088-.011c-.036 0-.055-.015-.055-.044 0-.03.022-.051.066-.066.052-.015.107-.033.165-.055a.522.522 0 00.154-.088c.052-.044.077-.106.077-.187a.788.788 0 00-.033-.198 2.976 2.976 0 00-.088-.286 3.225 3.225 0 00-.11-.319 4.374 4.374 0 00-.121-.341l-1.584-4.18c-.073-.205-.128-.308-.165-.308-.051 0-.117.11-.198.33l-1.76 4.686a6.142 6.142 0 00-.099.308 1.223 1.223 0 00-.033.275c0 .088.03.154.088.198a.822.822 0 00.198.088c.074.022.14.04.198.055.059.015.088.033.088.055 0 .051-.044.077-.132.077a7.05 7.05 0 01-.528-.022 13.677 13.677 0 00-.484-.011 3.6 3.6 0 00-.396.022 2.14 2.14 0 01-.374.033c-.029 0-.073-.004-.132-.011-.058-.007-.088-.03-.088-.066zm24.59-7.645c0 .059-.014.147-.044.264-.029.11-.051.209-.066.297l-.022.22a3.711 3.711 0 01-.022.176c-.007.051-.025.077-.055.077-.044 0-.066-.037-.066-.11 0-.073-.014-.128-.044-.165a.595.595 0 00-.286-.176 1.34 1.34 0 00-.484-.077h-1.463c-.08 0-.132.048-.154.143-.014.088-.022.25-.022.484v4.213c0 .477.004.858.011 1.144.008.279.037.495.088.649.052.154.129.26.231.319.11.051.261.08.451.088.037 0 .074.007.11.022.037.007.055.03.055.066 0 .037-.029.059-.088.066a1.152 1.152 0 01-.165.011c-.102 0-.19-.004-.264-.011a2.43 2.43 0 01-.22-.011 11.306 11.306 0 00-.253-.022h-.704l-.396.022a6.677 6.677 0 01-.374.011 4.547 4.547 0 01-.264.011.324.324 0 01-.077-.011c-.029-.007-.044-.026-.044-.055 0-.044.037-.073.11-.088.074-.015.154-.03.242-.044.096-.022.187-.051.275-.088a.297.297 0 00.176-.176.626.626 0 00.044-.187c.015-.073.026-.172.033-.297a4.1 4.1 0 00.022-.473c.008-.19.011-.429.011-.715v-4.576c0-.213-.011-.348-.033-.407-.014-.059-.073-.088-.176-.088h-1.892c-.132 0-.231.026-.297.077a.585.585 0 00-.154.176 1.026 1.026 0 00-.066.165c-.014.051-.036.077-.066.077-.036 0-.058-.015-.066-.044a.644.644 0 01-.011-.121c0-.022.008-.062.022-.121.015-.059.03-.121.044-.187a2.21 2.21 0 00.055-.22l.055-.187c.015-.066.026-.132.033-.198.008-.073.037-.11.088-.11.052 0 .099.011.143.033.052.022.11.04.176.055.125.015.268.03.429.044.169.015.334.022.495.022h3.982l.352-.022a4.53 4.53 0 01.297-.011c.088-.007.158-.011.209-.011.066 0 .099.026.099.077zm11.835-.022c0-.03.019-.048.055-.055a.69.69 0 01.132-.011c.118 0 .257.011.418.033.162.015.378.022.649.022.176 0 .338-.011.484-.033.154-.022.323-.033.506-.033.03 0 .066.004.11.011.052.007.077.03.077.066 0 .037-.036.062-.11.077a.798.798 0 00-.264.088.496.496 0 00-.286.308 2.539 2.539 0 00-.055.616v4.796c.008.059.03.088.066.088.022 0 .052-.015.088-.044l.11-.11 4.576-5.632c.198-.242.352-.363.462-.363.059 0 .092.044.099.132.015.08.022.198.022.352v.506c0 .125-.003.246-.011.363v4.62l.022.737c.015.198.037.363.066.495.03.125.07.235.121.33.03.059.085.103.165.132.081.022.162.04.242.055.088.015.162.03.22.044.066.007.099.026.099.055 0 .037-.025.059-.077.066a.733.733 0 01-.198.022c-.058 0-.139-.004-.242-.011a4.61 4.61 0 01-.308-.011l-.308-.022h-.242a7.58 7.58 0 00-.66.022 5.087 5.087 0 01-.462.022.74.74 0 01-.121-.011c-.044-.007-.066-.03-.066-.066 0-.03.033-.048.099-.055a.628.628 0 00.165-.033.472.472 0 00.264-.176.75.75 0 00.154-.319c.037-.125.059-.26.066-.407.015-.154.022-.308.022-.462v-4.224a1.3 1.3 0 00-.011-.176c0-.066-.014-.099-.044-.099-.066 0-.128.04-.187.121-.051.08-.117.169-.198.264l-4.279 5.247a2.814 2.814 0 01-.33.363.873.873 0 01-.154.143c-.044.044-.077.066-.099.066-.051 0-.084-.04-.099-.121a4.277 4.277 0 01-.011-.363v-6.49c0-.08-.003-.161-.011-.242a1.163 1.163 0 00-.044-.242c-.014-.08-.036-.136-.066-.165a.498.498 0 00-.209-.132.805.805 0 00-.209-.055 2.096 2.096 0 01-.143-.022c-.036-.007-.055-.033-.055-.077zm27.643 6.094c0 .41.018.719.055.924.036.205.132.36.286.462a.53.53 0 00.154.055l.198.022c.066.007.124.018.176.033.051.015.077.037.077.066 0 .03-.015.048-.044.055a.198.198 0 01-.088.022c-.052 0-.129-.004-.231-.011-.103 0-.22-.004-.352-.011l-.385-.022h-.352a13 13 0 00-.781.022 9.224 9.224 0 01-.506.022.192.192 0 01-.088-.022c-.03-.007-.044-.026-.044-.055 0-.03.025-.051.077-.066.051-.015.11-.026.176-.033l.198-.022a.53.53 0 00.154-.055.635.635 0 00.275-.462c.036-.205.055-.513.055-.924v-1.969c0-.08-.015-.128-.044-.143-.03-.022-.085-.033-.165-.033h-4.136c-.081 0-.136.011-.165.033-.022.015-.033.062-.033.143v1.969c0 .41.014.719.044.924.036.205.132.36.286.462a.53.53 0 00.154.055l.198.022c.066.007.124.018.176.033.051.015.077.037.077.066 0 .03-.015.048-.044.055a.198.198 0 01-.088.022c-.052 0-.129-.004-.231-.011-.103 0-.22-.004-.352-.011l-.385-.022h-.352a13 13 0 00-.781.022 9.224 9.224 0 01-.506.022.192.192 0 01-.088-.022c-.03-.007-.044-.026-.044-.055 0-.03.025-.051.077-.066.051-.015.11-.026.176-.033l.198-.022a.53.53 0 00.154-.055.669.669 0 00.286-.462c.036-.205.055-.513.055-.924v-5.104a1.89 1.89 0 00-.055-.473c-.03-.147-.099-.25-.209-.308a.724.724 0 00-.165-.055 2.107 2.107 0 00-.187-.033 3.044 3.044 0 01-.143-.044c-.037-.015-.055-.033-.055-.055 0-.03.022-.051.066-.066a.449.449 0 01.143-.022c.044 0 .11.004.198.011l.297.022c.102 0 .205.004.308.011.11.007.198.011.264.011.073 0 .161-.004.264-.011l.308-.022a4.584 4.584 0 01.528-.044.53.53 0 01.165.022c.051.015.077.04.077.077 0 .022-.022.04-.066.055-.044.015-.099.03-.165.044a2.045 2.045 0 00-.187.033.46.46 0 00-.363.374 3.264 3.264 0 00-.033.517v2.2c0 .08.007.132.022.154.022.022.077.033.165.033h4.158c.095 0 .15-.007.165-.022.022-.022.033-.077.033-.165v-2.233c0-.176-.011-.337-.033-.484-.015-.147-.074-.25-.176-.308a.494.494 0 00-.176-.066 1.892 1.892 0 00-.198-.033 2.11 2.11 0 00-.154-.033c-.044-.015-.066-.033-.066-.055 0-.03.022-.051.066-.066a.449.449 0 01.143-.022c.044 0 .11.004.198.011l.297.022c.102 0 .205.004.308.011.11.007.198.011.264.011.073 0 .161-.004.264-.011l.308-.022a4.584 4.584 0 01.528-.044.53.53 0 01.165.022c.051.015.077.04.077.077 0 .022-.026.04-.077.055-.044.015-.099.03-.165.044a2.045 2.045 0 00-.187.033.521.521 0 00-.154.055.467.467 0 00-.209.319 3.264 3.264 0 00-.033.517v5.06zm15.4-5.687c-.169 0-.268.051-.297.154a3.056 3.056 0 00-.033.55v4.994c0 .235.004.429.011.583.007.147.022.271.044.374a.73.73 0 00.099.253.693.693 0 00.187.165.39.39 0 00.143.055c.073.007.143.018.209.033.066.007.125.018.176.033.051.007.077.026.077.055 0 .03-.015.048-.044.055a.195.195 0 01-.088.022c-.073 0-.165-.004-.275-.011-.11 0-.227-.004-.352-.011l-.363-.022h-.319c-.279 0-.532.007-.759.022a8.69 8.69 0 01-.517.022c-.11 0-.165-.03-.165-.088 0-.015.018-.03.055-.044a.212.212 0 01.11-.033c.139-.007.26-.033.363-.077a.538.538 0 00.242-.198c.059-.095.103-.22.132-.374a3.23 3.23 0 00.044-.583V37.17c0-.44-.007-.781-.022-1.023-.007-.25-.04-.418-.099-.506a.36.36 0 00-.176-.121.852.852 0 00-.231-.077 4.27 4.27 0 00-.198-.055c-.059-.015-.088-.033-.088-.055 0-.037.018-.059.055-.066a.386.386 0 01.121-.022c.051 0 .121.004.209.011l.297.022c.11 0 .22.004.33.011.11.007.209.011.297.011.367 0 .722-.004 1.067-.011.345-.007.66-.015.946-.022.286-.015.532-.026.737-.033.213-.007.367-.011.462-.011.044 0 .07.011.077.033a.177.177 0 01.022.099c0 .22.007.396.022.528.022.125.033.25.033.374 0 .125-.029.187-.088.187-.037 0-.059-.033-.066-.099a.728.728 0 00-.033-.209 1.179 1.179 0 00-.077-.165.343.343 0 00-.165-.132 1.402 1.402 0 00-.374-.088 5.373 5.373 0 00-.682-.033h-1.056z" fill="#949494"/></svg>