<svg width="186" height="76" fill="none" xmlns="http://www.w3.org/2000/svg"><g opacity=".4" clip-path="url(#clip0)" fill="#000"><path d="M31.002 21.07h-5.168v10.54h5.168V21.07zm0-10.532h-5.168v5.269h5.168v-5.27zm-20.666 0h15.498v-5.27H5.168V0H0v5.269h5.168v31.609h20.666v-5.27H10.336V21.072h15.498V15.8H10.336v-5.263zM87.84 5.269H72.335v5.269h15.503v-5.27zm-15.505 5.269h-5.167v21.07h5.167v-21.07zM87.84 31.609H72.335v5.269h15.503v-5.27zm5.162-21.071h-5.168v21.07h5.168v-21.07zm25.835-5.269h-5.168v5.269h-5.167v5.264h-5.168V5.269h-5.168v31.609h5.168V21.07h10.335v5.269h5.168v-5.27h-5.168v-5.268h5.168v-5.264H124v-5.27h-5.163zm5.168 21.071h-5.168v10.538h5.168V26.34zm30.997 5.269h-20.666V21.07h15.498V15.8h-15.498v-5.263h20.666v-5.27h-25.834v31.61h25.834v-5.27zM25.84 70.731H10.336V76H25.84v-5.269zm0-26.34H10.336v5.27H25.84v-5.27zM10.336 49.66H5.168v21.071h5.168v-21.07zm5.163 10.533h10.336v10.538h5.168V54.929H15.499v5.264zM41.333 49.66h15.504v-5.269H36.165V76h5.168V65.462h15.504V76H62V65.462h-5.163v-5.269H41.333V49.66z"/><path d="M62.005 49.66h-5.168v10.538h5.168V49.66zm0-39.122h-5.168v10.538h5.168V10.538z"/><path d="M41.333 10.538h15.504v-5.27H36.165v31.61h5.168V26.34h15.504v10.538H62V26.34h-5.163v-5.27H41.333V10.539zm124 10.532V10.539h15.504v-5.27h-20.671v31.61h5.167V26.34h15.504v10.538H186V26.34h-5.163v-5.27h-15.504z"/><path d="M186.005 10.538h-5.168v10.538h5.168V10.538zM72.335 49.66h-5.167v21.071h5.167v-21.07zM87.84 70.731H72.335V76h15.503v-5.269zm5.162-21.071h-5.168v21.071h5.168v-21.07z"/><path d="M87.84 44.391H72.335v5.27h15.503v-5.27zm30.993 26.34h-15.499V76h15.499v-5.269zm-15.499-26.34h-5.168v26.34h5.168v-26.34zm20.671 0h-5.168v26.34h5.168v-26.34zm30.997 5.269h-5.168v10.533h-15.498V49.66h15.498v-5.269h-20.666V76h5.168V65.462h15.498v-5.244h5.168V49.66zm5.168 21.071h-5.168V76h5.168v-5.269z"/></g><defs><clipPath id="clip0"><path fill="#fff" d="M0 0h186v76H0z"/></clipPath></defs></svg>