<svg width="215" height="104" fill="none" xmlns="http://www.w3.org/2000/svg"><path d="M148.543 7.476h4.746c.128-.128.257-.256.257-.384 0 0 .128-1.28.128-1.409 0-.128-.128-.256-.257-.256-.256-.256-.641-.256-.769 0l-.385.769c-.257.384-.513.512-1.026.512 0 0-.257 0-.257-.384V1.2s0-.256.385-.256c.128 0 .257-.257.257-.385 0 0 0-.384-.513-.384h-2.823.129s-.385-.128-.385.256c0 0 0 .384.385.384l.256.129V5.94s.129.512-.385.512c-.256 0-.384.256-.256.384-.128.128-.257.64.513.64zM180.355.945s.257 0 .257.64c0 0 .128 4.995 0 5.123-.128.128-.257.256-.513.256-.129 0-.257.128-.257.256s.257.256.385.256h4.105c.385 0 .898-.128 1.283-.256.769-.256 1.282-1.024 1.154-1.92a.974.974 0 00-.257-.641c-.256-.513-.769-.769-1.282-.897l-.129-.128c.257-.128 1.155-.384 1.283-1.409 0 0 .385-1.793-2.309-1.92-1.411-.129-2.822-.129-4.105.127-.128 0-.128.128-.128.256.128-.128.128.128.513.257zm2.822 2.049V1.329l.129-.384s.256-.129.513.128c.256.128.385.384.385.512V2.61c-.129.384-.385.64-.642.64-.128.128-.385 0-.385-.256zm0 3.458V4.53l.129-.385s.256-.128.641.129a.704.704 0 01.385.64c.128.384.128.768 0 1.153-.128.384-.385.64-.77.768-.128 0-.385-.128-.385-.384 0 .128 0 .128 0 0zM48.616 7.476c1.925-.128 3.464-1.793 3.336-3.714 0-2.049-1.54-3.586-3.592-3.714-2.053 0-3.592 1.665-3.464 3.714v.384c.129 1.922 1.796 3.459 3.72 3.33zM48.36.945c.641 0 1.154 1.28 1.154 2.817 0 1.537-.513 2.818-1.154 2.818-.642 0-1.026-1.28-1.026-2.818 0-1.537.513-2.817 1.026-2.817zM28.477 7.476h4.105c.385 0 .898-.128 1.283-.256.77-.256 1.282-1.024 1.154-1.92a.978.978 0 00-.256-.641c-.257-.513-.77-.769-1.283-1.025l-.128-.128c.256-.128 1.154-.384 1.282-1.409 0 0 .385-1.793-2.309-1.92a20.613 20.613 0 00-3.976 0c-.128.127-.128.255-.128.383 0 0 0 .128.256.256 0 0 .257 0 .257.64 0 0 .128 4.996 0 5.124-.129.128-.257.256-.513.256-.129 0-.257.128-.257.384.128.128.257.256.513.256zM31.3 2.994V1.329l.128-.384s.257-.129.514.128c.256.128.384.384.384.512V2.61c-.128.384-.384.64-.641.64-.257.128-.385 0-.385-.256zm0 1.537l.128-.385s.257-.128.642.129c.256.128.385.384.513.64.128.384.128.768 0 1.153-.128.384-.513.64-.898.768-.257 0-.385 0-.385-.256V4.53zm35.916 56.354s-.384-.64.129-1.025c.256-.128.513-.128.641 0 .385.256.513.64.641 1.025 0 0 0 .768.642.768 0 0 .513 0 .513-.64v-1.025s0-.768-1.54-1.153h-.256c-.641-.128-1.283 0-1.796.385a1.312 1.312 0 00-.641.768c-.257.512-.385 1.025-.257 1.537 0 0 0 .769 1.283 2.05l1.54 1.536s.512.769.128 1.28c-.129.129-.257.257-.514.257-.384 0-.897-.256-1.154-.64-.128-.257-.257-.64-.257-.897v-.128c-.128-.128-.256-.256-.384-.256h-.129c-.256 0-.385.128-.513.384v1.537c0 .256.129.64.385.769.513.256 1.154.384 1.796.384.641 0 1.283-.128 1.668-.513.384-.256.64-.768.77-1.28.127-.897 0-1.665-.514-2.434-.77-.896-1.54-1.793-2.18-2.69zm-3.976 4.226c-.257 0-.385.128-.513.384 0 0-.129.256-.257.64-.128.257-.385.513-.641.513 0 0-.513 0-.513-.512V63.83s0-.64.513-.384c0 0 .256.128.385.769 0 .256.128.384.384.384 0 0 .385.128.385-.256v-2.306s0-.512-.385-.384c0 0-.256 0-.384.64v.129c-.129.256-.514.384-.77.256 0 0-.128 0-.128-.384v-2.05c0-.128.128-.256.256-.256 0 0 .898-.128 1.026.512 0 .129.129.257.257.385s.128.128.257.128h.256c.257 0 .513-.256.513-.513v-1.152c0-.256-.256-.513-.641-.513h-3.977a.98.98 0 00-.641.257c-.128.256 0 .512.256.512.257 0 .385.128.385.384v5.892s0 .384-.256.512c-.129 0-.257.128-.385.256 0 0-.128.64.256.64h4.618s.385 0 .385-.384v-1.537a.98.98 0 00-.641-.256zm12.7-6.148h-4.106c-.256-.128-.641.129-.641.385 0 .512 0 1.024.128 1.409 0 .128.128.256.257.256.128 0 .385 0 .513-.128l.385-.64s.384-.513.384.255v5.764c0 .256-.128.384-.384.384-.257.128-.385.256-.385.512v.129c0 .256.256.384.513.384h2.822c.257 0 .385-.257.257-.513 0 0 0-.256-.514-.512-.128-.128-.256-.256-.256-.384v-5.507s.128-.769.385-.385l.385.769s.64.384.77-.512v-.769c.127-.128.127-.897-.514-.897zm110.444-17.674l-3.72-8.71s-.128-.256 0-.64c.898-.64 1.668-1.28 2.438-2.177 1.924-2.434 2.18-5.764.769-8.581 0 0-1.283-3.97-8.594-4.483l-11.032.128h-.257c-.769.256-1.154 1.153-.897 2.05.256.896 1.539 1.152 1.539 1.152.77.256.641 2.562.641 2.562l.129 19.851c.128.64-.898 1.153-.898 1.153-.77.128-1.283.769-1.283 1.537 0 .769.769 1.409 1.539 1.409h8.979c1.54 0 1.283-1.28 1.283-1.28 0-.641-.256-1.154-.769-1.41-.642-.128-1.027-.768-.898-1.409l-.257-7.684c0-1.28.77 0 .77 0l4.489 10.758c.642 1.025 1.283 1.025 1.283 1.025l5.644.128c2.566-.768 1.155-2.562 1.155-2.562-.898-.512-2.053-2.817-2.053-2.817zM178.688 27.2c-.129 1.281-1.026 2.434-2.309 2.818h-.128c-.514 0-1.027-.256-1.027-.768v-.385l.129-7.172s0-1.409.384-1.665c0 0 .642-.512 1.668.256.77.64 1.283 1.537 1.283 2.562a24.739 24.739 0 010 4.354zm11.416 5.38a1.282 1.282 0 100-2.562 1.282 1.282 0 100 2.562zm-27.707 0a1.281 1.281 0 10.001-2.563 1.281 1.281 0 00-.001 2.563zm-131.867 0a1.282 1.282 0 10.002-2.564 1.282 1.282 0 00-.002 2.564zm27.322 0a1.282 1.282 0 10.002-2.564 1.282 1.282 0 00-.002 2.564zm26.04 46.62c-.256 1.537.257 3.073 1.155 4.354.513-1.024 1.41-1.793 2.437-2.305.385-2.177.256-4.099.513-6.916.513 2.049.898 4.226.898 6.404 4.233-1.665 11.416-.385 13.982 3.458.256-1.41.898-4.227 1.668-5.123-1.54-1.025-1.925-5.892-2.309-7.813l-2.053-.513L98.9 76.51c-.256 1.025-1.154 1.537-2.18 1.409-1.026-.256-1.54-1.153-1.411-2.177l1.282-5.764-5.9-1.28c-1.411-.129-2.053 1.152-2.822 1.92-1.796 1.922-3.464 4.099-5.003 6.148-1.54 2.562-2.052 7.3 1.411 8.197-.898-1.665-1.154-3.842-.385-5.763zm21.294-16.778l-1.155 5.123c.257-.257.642-.385 1.027-.64 3.078-1.538 2.95-.129 3.591-3.587.129-.768-7.311-2.561-9.364-3.074v.897a40.262 40.262 0 00-1.154 5.379c-.513 1.921 3.335 1.921 4.618 2.177.128-.256.385-.384.513-.512h-.128c.384-2.05.897-3.842 1.282-5.892.257 0 .513 0 .77.129zm-3.079 7.94c0-.256.129-.512.129-.768l.128-.256-11.93-2.69c.257.769.77 1.28 1.54 1.409l10.133 2.305z" fill="#949494"/><path d="M100.953 58.707c-4.105-.896-7.697-.896-8.466.128l-.129.129c5.516.128 11.032 1.408 16.035 3.586v-.128c-.129-1.41-3.335-2.818-7.44-3.715z" fill="#949494"/><path d="M90.562 61.781a10.655 10.655 0 00-.384 2.818c0 .512.256 1.921 1.026 1.537l5.26 1.152 1.667-7.3c-1.411-.256-5.773-1.153-6.799-.128-.513.512-.641 1.28-.77 1.921zm31.043 8.069c-.128-1.153-.769-2.177-1.667-2.946-5.773.256-11.417 1.537-16.676 3.843v.256l1.283 6.147 16.932-4.098c.385-.897.385-2.05.128-3.202z" fill="#949494"/><path d="M110.702 66.264c-3.977.896-7.055 2.433-7.312 3.586v.128a43.082 43.082 0 0115.521-3.714l-.128-.128c-.77-.897-4.105-.769-8.081.128zm11.801 11.014c-.385-1.024-.898-1.665-1.924-1.408l-14.495 3.586c-1.283.512-1.283 1.921-1.539 2.946-.642 2.433-1.155 4.867-1.412 7.428-.384 3.458 1.796 7.557 4.747 6.532-2.053-1.28-3.464-3.458-3.464-5.892.513 1.793 1.668 3.33 3.079 4.355a24.83 24.83 0 01.77-8.71c.384 4.355-.257 13.32 4.746 15.114-2.053-.128-3.72-1.537-4.362-3.458l-.128-.384.257 1.024c.898 4.483 5.002 4.995 8.338 4.611 1.539-.128 3.078-.384 4.617-.897 0 0 2.694-.896 3.464-1.28 1.411-.641 2.565-1.793 3.078-3.202.257-1.153.385-2.434.257-3.715v-.384c-.257-2.561-.898-5.123-1.924-7.428-.641-1.665-3.207-6.532-4.105-8.838zm-26.04-1.152c-.128.256-.128.512-.128.896.128.256.385.384.641.513h.257c.898-1.921 1.54-3.97 2.052-6.148 0-.256.129-.512.129-.64-.642 0-.385.64-.642 1.024-.641 1.537-1.41 2.946-2.309 4.355zm8.338 1.28c.385.257.257.64 1.155.64 2.822-.255 5.515-.64 8.337-1.28 2.438-.512 5.516-1.537 6.799-3.33-2.052.897-4.233 1.537-6.414 1.793-.513.128-1.796.385-2.309.513-2.437.512-5.131 1.536-7.568 1.664zm-2.95 12.168c.128-1.025.385-2.434.641-3.842-.385-.513-.77-1.025-1.283-1.537-2.437-2.05-4.361-3.074-7.44-3.074-2.18.128-4.233.768-6.029 2.049-2.693 1.665-3.463 5.251-1.795 7.94-.898-.64-1.54-1.536-1.54-2.689-.256 3.33 2.95 6.916 5.26 7.94.897.385 1.795.641 2.693.77.898.127 1.924.256 2.822.256 2.694 0 5.388.128 7.697-2.306h.128c-.256-.512-.513-1.024-.641-1.537-.513-1.409-.642-2.69-.513-3.97zM87.997 32.58a1.282 1.282 0 10.002-2.564 1.282 1.282 0 00-.002 2.564zm49.899 0a1.282 1.282 0 100-2.562 1.282 1.282 0 100 2.562zm-59.52 32.787c-.385.128-.641.384-.77.897-.128.256 0 .64.257.896.257.257.642.385.898.385.385-.129.77-.385.898-.769s0-.64-.257-1.025c-.256-.384-.64-.512-1.026-.384zm22.705-7.941l.77.129.385.128 3.078-13.577-1.796 13.833 1.283.384 2.694-20.62 2.822 27.536c.385-.128.898-.256 1.283-.256l-1.54-14.6 2.438 14.344 1.282-.256-5.387-32.276c.513-.512.641-1.28.128-1.793-.257-.256-.513-.384-.898-.512-.77 0-1.283.64-1.154 1.28 0 .385.128.641.384.897l-5.772 25.36zM27.964 39.752c0-1.28-.256-2.434-.77-3.586-.897-2.178-2.565-3.586-5.772-5.251l-.128-.128a.39.39 0 010-.513c1.282-.896 4.874-1.921 5.13-7.3 0 0 1.412-8.966-9.235-10.246 0 0-15.008-1.025-16.548.384-.384.384-.641 1.024-.513 1.665 0 0 0 .768 1.668 1.537 0 0 1.283 0 1.283 3.202 0 0 .384 25.743-.129 26.768a7.474 7.474 0 01-1.924 1.409C.385 48.077 0 48.717 0 49.358c.128.768.77 1.409 1.54 1.409 1.667.128 5.9.256 16.675 0 1.796 0 3.464-.385 5.003-1.281 2.309-1.281 5.003-4.099 4.746-9.734zM12.571 27.585l.128-8.838s0-1.665.513-2.049c0 0 .77-.768 2.181.384.898.769 1.283 1.793 1.411 2.946a18.899 18.899 0 010 5.38c-.256 1.536-1.283 2.945-2.822 3.457h-.128c-.642.128-1.155-.384-1.283-1.024v-.256zm4.874 15.625c-.256 1.793-1.41 3.33-3.078 3.97-.128 0-.257 0-.257.128-.641.129-1.282-.384-1.41-1.152V35.653s-.129-1.92.512-2.305c0 0 .898-.896 2.566.384 1.026.769 1.667 2.05 1.796 3.33.128 2.05.128 4.099-.129 6.148zm37.585-1.921l-3.592-8.71s-.256-.256 0-.64c.898-.64 1.668-1.409 2.438-2.177 1.924-2.434 2.18-5.764.77-8.581 0 0-1.283-3.97-8.595-4.483l-11.032.128h-.128c-.77.256-1.155 1.153-.898 2.05.128.896 1.54 1.152 1.54 1.152.769.256.64 2.562.64 2.562l.129 19.851c0 .64-.898 1.153-.898 1.153-.77.128-1.411.769-1.411 1.537 0 .769.77 1.409 1.54 1.409h8.979c1.539 0 1.282-1.28 1.282-1.28 0-.641-.256-1.154-.77-1.41-.64-.128-1.026-.768-.897-1.409l-.129-7.684c0-1.28.77 0 .77 0l4.49 10.758c.641 1.025 1.282 1.025 1.282 1.025l5.645.128c2.309-.896 1.154-2.562 1.154-2.562-1.026-.512-2.309-2.817-2.309-2.817zM47.334 27.2c-.129 1.281-1.027 2.434-2.31 2.818h-.128c-.513 0-1.026-.256-1.026-.768v-.385l.13-7.172s0-1.409.384-1.665c0 0 .642-.64 1.796.256a3.152 3.152 0 011.155 2.434c.256 1.537.256 3.073 0 4.482zm25.013 18.828c6.03 0 10.904-6.404 10.904-14.217 0-7.813-4.875-14.216-10.904-14.216S61.572 23.998 61.572 31.81s4.875 14.217 10.775 14.217zm.129-25.231c1.796 0 3.335 4.866 3.335 11.014S74.4 42.826 72.476 42.826 69.14 37.959 69.14 31.81c0-6.148 1.539-11.014 3.335-11.014zm17.189 4.098c.641.128 1.282 0 1.667-.512 0 0 .77-1.281 1.155-2.05 0 0 1.026-1.665 1.282.64l-.128 18.316c0 .64-.513 1.152-1.154 1.28-.642.257-1.155.897-1.155 1.537 0 0-.256 1.41 1.54 1.538h8.722a1.327 1.327 0 001.026-1.538s.129-1.024-1.411-1.665c-.513-.256-.898-.896-.769-1.408l.256-17.803s.129-2.433 1.283-1.153c.257.897.77 1.793 1.283 2.562 0 0 2.052 1.409 2.437-1.409v-2.433s.128-2.434-2.181-2.562H90.434s-1.796-.256-2.052 1.409c-.128 1.537 0 3.074.385 4.61.128.257.385.641.898.641zm44.383 19.852c.256-1.537-1.411-1.793-1.411-1.793-.385-.256-.642-.64-.642-1.025V23.102c-.128-1.28.642-1.665.642-1.665 1.283-.384 1.411-.769 1.411-1.537v-.384c0-1.153-1.924-1.153-1.924-1.153h-6.671c-.769-.128-1.539.128-1.924.768-.128.257-.128.385-.128.64 0 1.282.77 1.538.77 1.538.769.256 1.282 1.024 1.154 1.921v5.763c.128 1.025-.128 1.281-.385 1.41h-4.105c-.128-.129-.513-.385-.384-1.41v-5.891c-.129-.769.384-1.665 1.154-1.921 0 0 .77-.256.77-1.537 0-.256 0-.512-.129-.64-.384-.641-1.154-.897-1.924-.769h-6.67s-1.924 0-1.924 1.153v.384c0 .768.128 1.28 1.411 1.537 0 0 .77.384.641 1.665V41.8c0 .384-.128.897-.513 1.025 0 0-1.539.256-1.411 1.793.128.512.513.768 1.026.896 0 0 8.595.257 9.236-.384.128-.128.128-.256.128-.256.257-.769 0-1.537-.769-1.793-.513 0-.898-.384-1.026-.897V34.63c-.129-.64.256-1.281.898-1.409h3.463c.641.128 1.026.768.898 1.409v7.428c-.128.513-.513.897-1.026.897-.77.256-1.155 1.024-.898 1.793 0 .128.128.256.256.384.513.64 9.236.384 9.236.384.128 0 .642-.256.77-.768zm23.218-27.281h-13.597c-.77-.128-1.668.129-2.181.897-.385.768-.128 1.665.641 2.05.642 0 1.155.64 1.155 1.28l-.129 19.852s.129 1.153-.769 1.537c-.513.128-.898.384-1.155.896 0 0-.513 1.922 1.026 2.178h15.522s1.411 0 1.411-1.281v-5.251c-.128-.769-.898-1.281-1.668-1.153-.769 0-1.539.512-1.796 1.28l-.769 2.05c-.385.897-1.283 1.665-2.309 1.793 0 0-1.796 0-1.924-1.537v-7.94s-.129-2.05 1.796-1.281c0 0 1.026.512 1.411 2.561 0 0 .256 1.281 1.282 1.41 0 0 1.411.255 1.411-1.026V27.97s.129-1.665-1.411-1.41c0 0-.769 0-1.539 2.178v.128c-.385 1.025-1.539 1.41-2.566 1.025 0 0-.384-.128-.384-1.28l.128-6.533v-.256c0-.384.385-.768.77-.768 0 0 2.95-.385 3.591 1.92.129.513.385.897.77 1.282.257.256.513.384.898.384h.641c1.026 0 1.796-.769 1.668-1.793v-3.714c-.128-1.153-1.026-1.794-1.924-1.666zm54.902 14.857s-9.621-9.093-10.262-11.27c0 0-1.668-2.818.384-4.355 1.027-.384 2.181-.384 3.079.256 1.539 1.153 2.565 2.818 2.95 4.739 0 0 0 3.202 2.566 3.202 0 0 2.565.256 2.565-2.946v-4.226s0-3.586-6.798-4.867c-.513-.128-.898-.256-1.283-.256-2.694-.385-5.388.128-7.697 1.537a6.971 6.971 0 00-2.95 2.817s-1.667 1.921-1.154 6.66c0 0-.257 3.586 5.644 9.222l.256.256c2.438 2.177 4.618 4.483 6.542 7.044 0 0 2.438 3.33.513 5.892-.513.64-1.411 1.152-2.18 1.024-1.924.128-3.72-.896-4.746-2.561-.77-1.281-1.155-2.69-1.155-4.227l-.128-.64c-.385-.64-1.026-1.153-1.796-1.153 0 0-2.309-.64-2.566 1.537v6.148c-.256 1.409.514 2.69 1.796 3.33 0 0 2.181 1.409 8.21 1.537 2.694.128 5.387-.769 7.696-2.434 1.796-1.409 2.951-3.33 3.336-5.507-.257-.128 1.026-6.66-2.822-10.759zM61.957 7.348h1.668c.128 0 .256 0 .385-.128.128-.128.256-.256.128-.384 0 0 0-.128-.385-.256 0 0-.385 0-.257-.256l.77-1.153s.128-.128.257 0l.513 1.025s.128.384 0 .384c-.129 0-.129.128-.257.128 0 0-.128 0-.128.384 0 .128.128.384.385.384h2.95s.257 0 .257-.256c0-.128 0-.384-.257-.384-.128 0-.257-.128-.385-.256l-1.796-3.074v-.384l.898-1.409s.385-.768.77-.768c0 0 .385 0 .385-.257 0-.256-.129-.384-.385-.512h-1.668s-.385 0-.513.256c0 0-.128.384.257.513l.256.128s.129 0 0 .256l-.385.768-.513-.896s-.256-.385 0-.385a.276.276 0 00.257-.256V.432c0-.256-.128-.384-.385-.384h-2.694c-.256.128-.385.256-.256.512 0 .128.128.385.256.385l.385.384 1.54 2.561s.128.256 0 .256l-1.412 1.922-.384.384c-.129.128-.257.128-.385.128 0 0-.257.128-.257.384.128.256.257.384.385.384zm16.804.128h2.694s.385 0 .385-.256c0 0 .128-.512-.257-.512 0 0-.256 0-.256-.384V1.2s0-.256.385-.256c.128 0 .256-.257.256-.385 0 0 0-.384-.513-.384h-2.822.128s-.385-.128-.385.256c0 0 0 .384.385.384 0 0 .257 0 .257.129V5.94s.128.512-.385.512c-.128 0-.257.256-.257.384-.256.128-.256.64.385.64zM91.974.945s.384 0 .384.384v5.123s0 .128-.256.128c0 0-.385 0-.385.384 0 .256.128.384.385.384h1.54l.512-.128s.128-.128.128-.384c0 0 0-.256-.64-.256 0 0-.257-.128-.257-.384v-3.33s0-.385.256-.128l3.207 4.226c.128.128.128.256.257.256 0 0 .128.128.64.128 0 0 .257 0 .257-.384V1.073s0-.128.514-.257c0 0 .128 0 .128-.384a.276.276 0 00-.257-.256h-2.18s-.257 0-.129.512c0 0 0 .257.642.257 0 0 .256 0 .256.256v2.305s0 .384-.385-.128L94.796.945s-.514-.769-.77-.769h-2.309c-.128.128-.128.256 0 .384-.128 0-.128.385.257.385zm17.958 5.891c.77.384 1.668.64 2.566.64 1.795 0 2.052-.384 2.052-.384.257-.128.257-.768.257-.768V4.915c0-.256.128-.512.384-.512.129-.128.257-.385.257-.513 0-.384-.641-.256-.641-.256h-2.823c-.256 0-.256.384-.256.384 0 .128.128.257.256.257.642 0 .514.512.514.512v1.665c0 .256-.514.128-.514.128-.513 0-.769-.384-.897-.897-.129-.768-.129-1.665-.129-2.433 0-1.793.642-2.305.642-2.305.384-.257.769-.257 1.282-.129.513.257.513.64.513.64 0 .513.129.641.129.641.128.128.256.256.513.256.513 0 .513-.512.513-.512v-.64c-.128-1.025-1.796-1.153-1.796-1.153-.898-.128-1.796 0-2.694.384-1.924 1.153-1.539 3.843-1.539 3.843 0 1.152.513 2.049 1.411 2.561zm25.912.512s2.052-.128 2.052-.896V5.299c0-.128 0-.384-.256-.384 0 0-.77-.256-.898.256-.129.384-.257.64-.385 1.025 0 0-.128.384-.898.384a1.39 1.39 0 01-1.026-1.025c-.385-1.409-.257-2.817.256-4.098.257-.384.77-.64 1.155-.512 0 0 .769 0 1.026 1.152 0 0 .128.384.641.256.129 0 .385-.128.385-.384V.945s-.128-.385-1.026-.769c-1.026-.256-2.181-.128-3.207.384-.641.385-1.154.897-1.411 1.537 0 0-.77 2.69.77 4.227-.257.128.385 1.024 2.822 1.024zM164.193.816c.256 0 .256.129.256.257v4.61c0 .897.77 1.537 1.539 1.665 0 0 2.694.257 3.207-.512.257-.256.513-.64.513-1.025V1.073s0-.128.514-.128c.128-.129.256-.257.256-.513 0-.128-.256-.256-.385-.256h-1.667s-.257 0-.257.384c.128.128.257.256.385.256h.128c.128 0 .257.257.257.385 0 0 0 4.226-.128 4.61-.129.513-.514.769-1.027.769-.513 0-.898-.384-1.026-.897V1.33s-.128-.513.257-.513c0 0 .256 0 .256-.512 0 0 0-.256-.385-.256h-2.822c-.256 0-.256.256-.256.512 0 0 0 .256.385.256zm-28.349 64.039s-.385-.128-.642.512c-.128.257-.384.513-.769.513h-1.411s.769-1.025 1.026-1.41c.256-.383.513-.64.641-.896.642-.896 1.54-2.69.642-3.842 0 0-1.411-1.793-3.849.128 0 0-.769.64-.128 1.153.257.128.641.128.77-.128 0 0 1.026-.897 1.667 0 0 0 .642 1.024-.641 2.817l-1.796 2.178s-.513.384-.385.896c0 0-.128.64.642.64h2.822s.769 0 1.026-.512l.513-1.537c.257 0 .513-.512-.128-.512zm4.361-6.02c-1.411 0-2.565 1.922-2.565 4.355 0 2.434 1.154 4.355 2.565 4.355s2.566-1.921 2.566-4.355c0-2.433-1.155-4.355-2.566-4.355zm-.128 7.813c-.257 0-.642-1.537-.642-3.458 0-1.921.257-3.458.642-3.458s.641 1.537.641 3.458c0 1.921-.385 3.458-.641 3.458zm7.055-.128s-.385 0-.385-.512v-6.916s0-.257-.641-.257a.707.707 0 00-.642.385c-.128.384-.384.64-.641.896-.257.128-.513.256-.77.256-.256.128-.384.385-.256.64 0 0 .128.385.769.257 0 0 .257-.128.257.128v4.61c0 .257-.257.513-.513.385-.128 0-.385.256-.385.384v.128c0 .256.257.385.513.385h3.079c.256-.129.256-.385.256-.64 0 .127 0-.129-.641-.129zm6.157-7.685c-.256-.128-.513-.128-.641.129-.257.256-1.924.128-1.924.128-.513-.128-.642.256-.642.256l-.898 3.074c0 .256.257.64.513.64 2.694.897 2.181 2.305 2.181 2.305-.128 1.153-1.026 1.025-1.026 1.025-.385 0-.77-.128-1.026-.384-.385-.257-.77.256-.77.256-.641.64 0 .896 0 .896.898.385 1.924.257 2.822-.256 1.155-.768 1.668-2.177 1.283-3.458-.513-1.665-2.566-2.177-2.566-2.177-.256 0 0-.384 0-.384.129-.256.385-.256.385-.256h1.026c.77 0 .898-.385.898-.385l.513-.896c.129-.384-.128-.513-.128-.513zm32.839 3.971h-22.449c-.513 0-1.026.384-1.026 1.024s.385 1.025 1.026 1.025h22.449c.513 0 1.026-.384 1.026-1.025 0-.64-.513-1.024-1.026-1.024zm-138.025 0H25.655c-.513 0-1.026.384-1.026 1.024s.385 1.025 1.026 1.025h22.448c.513 0 1.026-.384 1.026-1.025 0-.64-.513-1.024-1.026-1.024z" fill="#949494"/></svg>