<svg width="226" height="69" fill="none" xmlns="http://www.w3.org/2000/svg"><g clip-path="url(#clip0)" fill="#949494"><path d="M.453 38.29a25.473 25.473 0 0110.59-3.394c4.43-.43 8.9-.203 13.265.674l2.888-4.798c.78-1.301 1.435-2.352 1.982-3.27.351-.594.745-1.163 1.178-1.7.347-.382.77-.686 1.24-.894a4.773 4.773 0 011.827-.431 6.07 6.07 0 012.17.305 7.1 7.1 0 012.34 1.31c.316.269.58.593.78.956.212.409.37.844.469 1.294.139.59.23 1.19.273 1.795.055.69.11 1.505.172 2.454.062.949.187 2.242.288 3.614a83.93 83.93 0 00.508 4.704c.755.328 1.43.814 1.982 1.427.374.39.588.909.6 1.45 0 .565-.374.84-1.092.84a4.02 4.02 0 01-.967-.18c.123.922.327 1.832.608 2.72.16.459.356.904.585 1.332.447.338.858.722 1.226 1.145.32.33.524.757.577 1.215a.685.685 0 010 .275.786.786 0 01-.18.329.985.985 0 01-.46.25c-.3.068-.612.068-.913 0a13.084 13.084 0 01-3.121-.893 8.856 8.856 0 01-2.341-1.505 7.253 7.253 0 01-1.194-1.42 8.587 8.587 0 01-.78-1.489 8.78 8.78 0 01-.43-1.505c-.094-.494-.18-.988-.25-1.474l-.07-.486c0-.157-.062-.314-.094-.455L34 41.701a55.07 55.07 0 00-4.885-1.45c-1.524 2.88-2.856 5.276-3.995 7.189a33.106 33.106 0 01-3.27 4.547 10.893 10.893 0 01-2.606 2.266 5.334 5.334 0 01-2.786.784 8.05 8.05 0 01-2.411-.47 20.239 20.239 0 01-2.95-1.255 4.787 4.787 0 01-1.81-1.45 1.66 1.66 0 01-.375-1.2c.093-.478.476-.784 1.147-.784a4.339 4.339 0 012.208.565 2.77 2.77 0 00.523-.134c.447-.19.859-.455 1.218-.784a20.71 20.71 0 002.013-2.014 42.878 42.878 0 002.957-3.803 93.016 93.016 0 001.561-2.266 64.23 64.23 0 001.56-2.414 34.177 34.177 0 00-9.168.345 22.354 22.354 0 00-7.593 2.806 1.462 1.462 0 01-.921.157 4.748 4.748 0 01-1.233-.313 6.347 6.347 0 01-1.28-.651 6.771 6.771 0 01-1.077-.84 2.527 2.527 0 01-.78-1.3.858.858 0 01.406-.941zm33.196-7.008l-2.957 5.848c.499.173.998.33 1.482.47.484.142.991.314 1.514.51 0-1.019-.047-2.054-.039-3.136.008-1.082 0-2.1 0-3.089v-.603zM48.78 47.48a7.65 7.65 0 01-.374.783c-.18.18-.419.286-.671.298a3.79 3.79 0 01-1.108 0 4.9 4.9 0 01-1.195-.321 2.551 2.551 0 01-.952-.651 1.739 1.739 0 01-.28-1.074v-1.937c0-.752.124-1.568.226-2.414.101-.847.218-1.678.351-2.454.133-.776.25-1.459.375-2.054.076-.423.175-.842.296-1.255.122-.367.383-.67.726-.847a3.202 3.202 0 011.21-.4c.43-.062.87-.046 1.295.048a1.91 1.91 0 011.022.588c.194.298.31.64.336.995.074.559.108 1.122.101 1.686.332-.768.756-1.492 1.264-2.156a3.38 3.38 0 011.717-1.223 4.664 4.664 0 011.506-.196c.533.011 1.06.109 1.56.29.508.202.972.5 1.366.878.43.395.764.883.976 1.427.092.326.118.667.078 1.004a8.345 8.345 0 01-.226 1.356c-.117.486-.25.98-.398 1.474a26.66 26.66 0 00-.383 1.38 7.427 7.427 0 00-.195 1.09c0 .305 0 .478.11.525.109.047.405 0 .694-.212.318-.276.61-.58.874-.91.289-.368.57-.784.835-1.144.197-.298.377-.607.539-.925a.658.658 0 01.499-.4c.23-.056.472-.042.694.04.217.082.4.233.523.43a.865.865 0 01.086.784 11.286 11.286 0 01-2.13 4.273 5.734 5.734 0 01-2.732 1.874 4.103 4.103 0 01-2.77-.157 4.688 4.688 0 01-2.122-1.764 2.226 2.226 0 01-.406-1.254 4.418 4.418 0 01.187-1.341c.128-.456.285-.904.468-1.34.188-.455.336-.87.453-1.255.111-.334.169-.683.172-1.035a.936.936 0 00-.476-.784c-.188-.117-.398-.055-.633.204a6.276 6.276 0 00-.78 1.05c-.293.506-.553 1.03-.78 1.569a41.62 41.62 0 00-.687 1.748c-.21.572-.382 1.074-.53 1.52-.149.448-.258.785-.32.965l-.063.141c-.083.368-.193.73-.328 1.082z"/><path d="M67.158 36.99c.209.427.277.91.195 1.38a8.955 8.955 0 01-.398 1.74 55.3 55.3 0 01-.624 1.81 12.85 12.85 0 00-.484 1.623 2.047 2.047 0 000 1.16c.117.306.421.455.897.455.476.003.938-.163 1.303-.47a5.928 5.928 0 001.077-1.129c.318-.417.6-.86.843-1.325.234-.447.421-.784.554-1.105a.667.667 0 01.539-.494.95.95 0 01.718.18c.24.192.42.451.515.745a1.78 1.78 0 01-.047 1.2c-.216.66-.477 1.304-.78 1.928a7.493 7.493 0 01-1.444 2.015 7.02 7.02 0 01-2.263 1.505 6.628 6.628 0 01-3.192.431 4.132 4.132 0 01-2.396-.87 4.702 4.702 0 01-1.38-1.85 7.085 7.085 0 01-.508-2.43 10.6 10.6 0 01.234-2.635c.173-.83.435-1.64.78-2.414a6.926 6.926 0 011.202-1.858 1.94 1.94 0 01.999-.447 5.544 5.544 0 011.405-.079c.473.034.939.14 1.38.314.356.096.665.316.875.62zm-2.2-6.688c.487.18.938.445 1.334.784.489.38.924.827 1.295 1.325.323.424.535.922.617 1.45a1.197 1.197 0 01-.625 1.2 2.488 2.488 0 01-1.638.384 4.83 4.83 0 01-1.78-.55 6.145 6.145 0 01-1.56-1.214 4.792 4.792 0 01-1.038-1.568 2.363 2.363 0 01-.211-1.364 1.005 1.005 0 01.616-.69 2.692 2.692 0 011.241-.157 7.685 7.685 0 011.748.4z"/><path d="M72.683 30.082a2.998 2.998 0 011.381-.666 8.548 8.548 0 011.85-.259 4.608 4.608 0 011.56.22c.453.156.656.392.609.705-.055.392-.125.957-.227 1.694a122.44 122.44 0 01-.374 2.5c-.148.933-.32 1.937-.5 3.003-.179 1.066-.382 2.117-.577 3.136a38.315 38.315 0 001.92-2.038l1.607-1.835c.484-.522.913-.97 1.288-1.34.244-.267.545-.474.882-.604a3.257 3.257 0 011.022 0c.402.06.795.167 1.17.322.393.161.76.378 1.093.642.325.241.579.566.734.941a.984.984 0 01-.164.91 7.364 7.364 0 01-.898 1.207c-.412.434-.853.84-1.319 1.215-.491.4-.96.784-1.42 1.09-.46.306-.85.604-1.178.784a6.036 6.036 0 01-.578.368c-.093.047 0 .29.235.722.289.487.626.944 1.006 1.364.4.457.863.855 1.374 1.184a1.277 1.277 0 001.31.18 4.49 4.49 0 001.117-.839 10.17 10.17 0 001.014-1.2c.32-.438.6-.87.85-1.293.25-.423.445-.784.601-1.066a.847.847 0 01.617-.494.98.98 0 01.718.165c.236.154.415.383.507.65.117.306.117.643 0 .949a41.73 41.73 0 00-.78 2.07 11.053 11.053 0 01-1.14 2.195 6.178 6.178 0 01-1.763 1.725c-.815.49-1.76.72-2.708.658a4.388 4.388 0 01-2.263-.69 13.322 13.322 0 01-2.146-1.638 19.394 19.394 0 01-1.857-1.96 48.789 48.789 0 01-1.32-1.74 77.435 77.435 0 01-.655 3.065 13.07 13.07 0 01-.546 1.834 1.162 1.162 0 01-.78.69c-.419.12-.853.175-1.288.165a4.572 4.572 0 01-1.35-.259 2.51 2.51 0 01-1.014-.596 1.74 1.74 0 01-.188-1.003c0-.541 0-1.223.063-2.047.062-.823.14-1.74.25-2.76.109-1.018.25-2.053.39-3.135.14-1.082.304-2.093.476-3.136.171-1.043.35-1.937.515-2.744.164-.808.328-1.498.484-2.054.066-.342.199-.667.39-.957z"/><path d="M94.939 34.59a6.101 6.101 0 013.059.635 9.228 9.228 0 012.77 2.015c.148-.337.296-.65.445-.925.12-.247.293-.463.507-.635a2.334 2.334 0 011.272-.604 5.057 5.057 0 011.561 0c.496.08.972.262 1.396.533.399.236.715.589.906 1.012.122.345.138.72.046 1.074-.105.488-.246.967-.421 1.434a30.47 30.47 0 01-.648 1.569 32.315 32.315 0 00-.624 1.49c-.155.384-.283.78-.382 1.183-.071.321 0 .549.14.666a1.11 1.11 0 001.093.15 3.48 3.48 0 001.162-.785 9.152 9.152 0 001.023-1.16c.263-.352.481-.737.647-1.145.102-.274.303-.5.562-.635a.707.707 0 01.664 0c.243.127.437.331.554.58.165.33.232.7.195 1.067a4.729 4.729 0 01-.312 1.113 8.88 8.88 0 01-.718 1.395c-.309.503-.653.983-1.03 1.435-.381.46-.802.885-1.257 1.27a6.72 6.72 0 01-1.358.91 2.54 2.54 0 01-1.389.274 7.13 7.13 0 01-2.809-.839 5.248 5.248 0 01-1.912-1.709 13.659 13.659 0 01-1.841 1.623 7.721 7.721 0 01-2.139 1.105 5.11 5.11 0 01-2.34.18 4.992 4.992 0 01-2.459-1.167 9.302 9.302 0 01-2.185-2.564 7.945 7.945 0 01-.983-2.799 6.837 6.837 0 01.148-2.736 6.281 6.281 0 011.24-2.352 7.363 7.363 0 012.248-1.756 8.117 8.117 0 013.169-.902zm4.682 7.229c.011-.233.042-.463.093-.69a3.425 3.425 0 000-.949 2.51 2.51 0 00-.312-.996 2 2 0 00-.99-.784 2.067 2.067 0 00-1.515-.148 3.117 3.117 0 00-1.31.783 4.93 4.93 0 00-.976 1.38 4.853 4.853 0 00-.484 1.615 3.67 3.67 0 00.133 1.53 1.788 1.788 0 00.944 1.05 1.36 1.36 0 001.085.133 3.53 3.53 0 001.131-.604 7.536 7.536 0 001.132-1.074c.335-.415.694-.839 1.045-1.246h.024zm20.055-.839a6.397 6.397 0 01-1.342-.996c-.45-.42-.86-.883-1.225-1.38a8.622 8.622 0 01-.945-1.615 4.837 4.837 0 01-.421-1.654 3.938 3.938 0 011.171-2.964 12.058 12.058 0 013.691-2.579 30.467 30.467 0 015.759-2.015 48.01 48.01 0 017.39-1.215 42.454 42.454 0 012.505-.11 26.27 26.27 0 013.816.235c1.529.204 3.038.54 4.51 1.004a17.192 17.192 0 014.526 2.14 15.99 15.99 0 011.826 1.412c.65.583 1.24 1.229 1.764 1.928a8.845 8.845 0 011.194 2.235c.267.756.3 1.576.093 2.352a5.84 5.84 0 01-1.139 2.132 10.756 10.756 0 01-1.998 1.827 17.08 17.08 0 01-2.575 1.529c-.928.46-1.885.86-2.864 1.2.859.407 1.795.877 2.833 1.395l3.145 1.638 3.191 1.639c1.054.533 2.022.988 2.911 1.38.742.317 1.5.595 2.271.83a14.25 14.25 0 002.411.55 6.675 6.675 0 002.029 0 1.34 1.34 0 001.163-.918c.164-.407.585-.564 1.272-.455a7.59 7.59 0 012.536 1.075 9.757 9.757 0 012.341 1.865c.515.62.703 1.137.539 1.568a2.893 2.893 0 01-1.561 1.725 6.669 6.669 0 01-2.786.526 14.582 14.582 0 01-2.801-.29 22.83 22.83 0 01-3.067-.785 32.778 32.778 0 01-3.122-1.215 29.269 29.269 0 01-2.879-1.49 78.37 78.37 0 00-2.887-1.567c-1.257-.651-2.599-1.388-4.043-2.125a248.94 248.94 0 00-4.362-2.18 91.525 91.525 0 00-3.808-1.764 29.9 29.9 0 01-2.747.33 4.17 4.17 0 01-1.522-.33 8.767 8.767 0 01-1.615-.83 38.263 38.263 0 00-.624 3.23 31.83 31.83 0 00-.305 4.217.781.781 0 01-.374.721 1.811 1.811 0 01-.944.22 4.144 4.144 0 01-.999-.125 10.837 10.837 0 01-1.015-.306 6.058 6.058 0 01-1.912-1.23 2.212 2.212 0 01-.78-1.38 33.484 33.484 0 01-.148-5.355c.089-1.639.279-3.27.569-4.885.251-1.41.598-2.8 1.038-4.163a17.467 17.467 0 011.327-3.136 19.027 19.027 0 00-2.919 1.2l-1.217.69c-.609.337-1.264.72-1.974 1.136-.659.4-1.286.85-1.873 1.349a4.407 4.407 0 00-1.194 1.49 1.568 1.568 0 00.117 1.568l.234.439-.164.29a.78.78 0 01-.78.4 2.715 2.715 0 01-1.241-.408zm17.621-9.62c-.718.102-1.483.227-2.287.384-.804.157-1.607.337-2.419.526a8.335 8.335 0 011.732.454c.553.22 1.088.482 1.6.784a3.762 3.762 0 011.42 1.278c.21.316.299.698.25 1.074a45.533 45.533 0 01-.679 2.54 75.066 75.066 0 01-.718 2.22l.718.25a42.618 42.618 0 003.957-1.05 20.046 20.046 0 003.386-1.404 9.787 9.787 0 002.404-1.803 3.415 3.415 0 001.006-2.14 2.57 2.57 0 00-.085-.886 2.031 2.031 0 00-.781-1.074 5.043 5.043 0 00-.889-.541 7.013 7.013 0 00-1.702-.612 15.89 15.89 0 00-2.801-.29 25.709 25.709 0 00-4.112.29z"/><path d="M161.628 34.59a9.594 9.594 0 012.224.126c.8.124 1.584.332 2.341.619.703.26 1.365.62 1.967 1.066a3.347 3.347 0 011.459 3.058 2.921 2.921 0 01-.687 1.701 5.644 5.644 0 01-2.114 1.505 13.133 13.133 0 01-4.012.965c.165.435.4.84.695 1.2.266.329.625.57 1.03.69a4.661 4.661 0 002.606.234 5.07 5.07 0 002.084-1.011 8.473 8.473 0 001.561-1.725c.421-.605.804-1.236 1.147-1.89a1.025 1.025 0 01.648-.603 1.15 1.15 0 01.827.055c.272.139.488.369.608.65.15.376.15.794 0 1.169a9.246 9.246 0 01-3.035 4.641 8.812 8.812 0 01-2.809 1.568 8.487 8.487 0 01-3.684.33 9.439 9.439 0 01-1.795-.44 7.983 7.983 0 01-1.95-.98 9.893 9.893 0 01-1.858-1.63 9.333 9.333 0 01-1.521-2.4 7.022 7.022 0 010-5.738 5.971 5.971 0 011.701-2.14 4.504 4.504 0 012.567-1.02zm2.092 3.34a1.48 1.48 0 00-.656.416c-.2.229-.354.495-.453.784a4.31 4.31 0 00-.226 1.066c0 .4-.039.784 0 1.215a5.054 5.054 0 002.271-1.011c.441-.332.766-.796.929-1.325a.967.967 0 00-.32-1.02 1.754 1.754 0 00-1.545-.125z"/><path d="M170.79 34.81c.257-.15.569-.306.928-.479.359-.172.781-.337 1.241-.51.149-.535.336-1.06.562-1.567.141-.364.359-.693.64-.964a8.388 8.388 0 012.341-1.631 1.6 1.6 0 011.865.51c.14.218.19.482.14.736-.035.471-.098.94-.187 1.404a19.656 19.656 0 012.084-.345c.417-.08.848-.048 1.248.094.523.286.944.73 1.202 1.27.135.294.196.617.179.94-.033.364-.203.7-.476.941a1.668 1.668 0 01-.694.385 9.04 9.04 0 01-1.178.29 36.183 36.183 0 01-3.169.423 68.271 68.271 0 00-.523 2.752c-.148.861-.244 1.73-.288 2.603-.042.71-.014 1.421.086 2.124a1.842 1.842 0 00.624 1.27 1.732 1.732 0 001.678.416 3.305 3.305 0 001.428-1.02 7.384 7.384 0 001.1-1.7c.26-.525.49-1.064.687-1.615.14-.44.366-.69.671-.784a1.08 1.08 0 01.882.211c.289.22.513.516.647.855a1.441 1.441 0 010 1.129c-.132.415-.335.933-.601 1.568a21.814 21.814 0 01-.913 1.89 11.38 11.38 0 01-1.17 1.732 3.03 3.03 0 01-1.303.98 9.214 9.214 0 01-1.748.306 7.616 7.616 0 01-2.17-.126 7.788 7.788 0 01-2.185-.784 4.555 4.555 0 01-1.717-1.646 4.468 4.468 0 01-.616-1.749 15.884 15.884 0 01-.211-2.414c0-.886 0-1.811.086-2.8.086-.987.187-1.928.328-2.845l-1.022.11a.776.776 0 01-.679-.15.948.948 0 01-.312-.54 1.24 1.24 0 01.054-.69c.081-.242.244-.447.461-.58z"/><path d="M189.144 34.59a6.102 6.102 0 013.059.635 9.225 9.225 0 012.77 2.015c.148-.337.296-.65.445-.925.123-.245.296-.461.507-.635a2.334 2.334 0 011.272-.604 5.057 5.057 0 011.561 0c.496.08.972.262 1.397.533.398.236.714.589.905 1.012.122.345.138.72.047 1.074a10.34 10.34 0 01-.422 1.434 30.47 30.47 0 01-.648 1.569 33.465 33.465 0 00-.624 1.49c-.155.384-.283.78-.382 1.183-.07.321 0 .549.14.666a1.11 1.11 0 001.093.15c.436-.18.832-.447 1.163-.785a9.223 9.223 0 001.022-1.16c.262-.354.482-.739.655-1.145.096-.273.291-.5.547-.635a.72.72 0 01.671 0c.243.127.437.331.554.58.165.33.233.7.195 1.067a4.729 4.729 0 01-.312 1.113 8.848 8.848 0 01-.71 1.395c-.314.501-.661.98-1.038 1.435-.381.46-.802.885-1.257 1.27a6.72 6.72 0 01-1.358.91 2.54 2.54 0 01-1.389.274 7.13 7.13 0 01-2.809-.839 5.248 5.248 0 01-1.912-1.709 13.654 13.654 0 01-1.841 1.623 7.626 7.626 0 01-2.139 1.105 5.11 5.11 0 01-2.341.18 4.99 4.99 0 01-2.434-1.199 9.282 9.282 0 01-2.185-2.563 7.936 7.936 0 01-1.007-2.768 6.7 6.7 0 01.148-2.736 6.297 6.297 0 011.241-2.352 7.368 7.368 0 012.247-1.756 8.116 8.116 0 013.169-.902zm4.682 7.229c.015-.232.046-.463.093-.69a3.39 3.39 0 00.039-.949 2.5 2.5 0 00-.312-.996 1.998 1.998 0 00-.991-.784 2.043 2.043 0 00-1.506-.148 3.122 3.122 0 00-1.319.783 4.944 4.944 0 00-.983 1.365 5.046 5.046 0 00-.484 1.615 3.661 3.661 0 00.133 1.529 1.816 1.816 0 00.897 1.066 1.36 1.36 0 001.085.133c.411-.13.794-.335 1.132-.604a7.59 7.59 0 001.139-1.074 79.18 79.18 0 011.053-1.246h.024z"/><path d="M209.769 36.99c.208.427.277.91.195 1.38a9.024 9.024 0 01-.398 1.74 54.009 54.009 0 01-.625 1.81c-.2.529-.362 1.071-.483 1.623a2.045 2.045 0 000 1.16c.117.307.413.455.897.455.489.011.966-.156 1.342-.47a6.18 6.18 0 001.077-1.129c.317-.417.599-.86.843-1.325.234-.447.421-.784.546-1.105a.687.687 0 01.546-.494.964.964 0 01.718.18c.241.192.42.451.515.745a1.78 1.78 0 01-.046 1.2c-.216.66-.477 1.304-.781 1.928a7.472 7.472 0 01-1.444 2.015 7.01 7.01 0 01-2.263 1.505 6.624 6.624 0 01-3.191.431 4.117 4.117 0 01-2.396-.87 4.707 4.707 0 01-1.381-1.85 7.061 7.061 0 01-.507-2.43c-.033-.885.046-1.77.234-2.635a11.38 11.38 0 01.78-2.414 6.944 6.944 0 011.202-1.858c.283-.243.63-.399.999-.447.471-.086.951-.11 1.428-.07.473.033.939.138 1.381.313.331.107.616.322.812.611zm-2.193-6.688a4.4 4.4 0 011.334.784 6.63 6.63 0 011.288 1.325c.328.422.543.921.624 1.45a1.216 1.216 0 01-.624 1.2 2.496 2.496 0 01-1.639.384 4.824 4.824 0 01-1.779-.55 6.154 6.154 0 01-1.561-1.214 4.833 4.833 0 01-1.046-1.568 2.373 2.373 0 01-.203-1.364 1 1 0 01.617-.69 2.703 2.703 0 011.264-.126 7.69 7.69 0 011.725.369z"/><path d="M215.075 30.082a1.88 1.88 0 01.968-.54c.49-.152 1-.232 1.514-.236a5.47 5.47 0 011.56.165c.41.072.781.289 1.046.611.125.291.163.613.109.925 0 .478-.101 1.05-.211 1.725a52.266 52.266 0 01-.413 2.274c-.172.83-.32 1.685-.476 2.54-.156.854-.297 1.709-.429 2.548a22.635 22.635 0 00-.258 2.352 9.23 9.23 0 00.063 1.85c.031.423.217.82.522 1.113a.97.97 0 00.991.063c.473-.2.902-.49 1.265-.854a8.749 8.749 0 001.279-1.568c.419-.612.782-1.26 1.085-1.937a1.477 1.477 0 01.71-.878.943.943 0 01.835 0c.291.184.513.46.632.784.158.424.186.886.078 1.325a7.925 7.925 0 01-.632 1.74c-.316.653-.684 1.28-1.1 1.874a15.09 15.09 0 01-1.311 1.568c-.339.385-.75.7-1.21.925a7.166 7.166 0 01-2.216.431 7.612 7.612 0 01-2.2-.25 6.34 6.34 0 01-1.897-.769 4.009 4.009 0 01-1.295-1.395 7.549 7.549 0 01-.78-2.423 19.953 19.953 0 01-.235-3.136c0-1.113.071-2.25.188-3.418.117-1.168.273-2.242.468-3.246.164-.884.377-1.758.64-2.618a5.3 5.3 0 01.71-1.545zM77.037 13.203l1.608-1.278a5.29 5.29 0 01.593-.408c.194-.12.408-.202.632-.243a1.2 1.2 0 01.624 0c.234.093.437.25.585.455.188.217.288.496.281.784a1.471 1.471 0 01-.265.784c.15-.083.31-.146.476-.189.158-.027.319-.027.476 0 .158.025.31.08.445.165.142.091.269.205.374.337.168.195.274.435.305.69.026.226-.003.455-.086.667a2.004 2.004 0 01-.359.619c-.154.192-.33.365-.523.517l-1.764 1.404-3.402-4.304zm2.341.972l.687-.549a.927.927 0 00.195-.196.786.786 0 00.133-.227.73.73 0 000-.26.566.566 0 00-.125-.258.5.5 0 00-.234-.18.577.577 0 00-.258 0 .856.856 0 00-.257.094 1.436 1.436 0 00-.242.157l-.648.51.75.909zm1.413 1.787l.85-.682a.964.964 0 00.203-.196.667.667 0 00.164-.525.66.66 0 00-.133-.282.484.484 0 00-.273-.188.669.669 0 00-.304 0 1.289 1.289 0 00-.304.133 2.09 2.09 0 00-.258.18l-.718.572.773.988zm4.705-4.986L82.11 9.337l1.287-.784 2.052 1.16v-2.43l1.226-.744-.133 3.779 1.21 2.007-1.038.635-1.218-1.984zm8.928-7.84l.944-.33 4.042 4.43-1.287.447-.828-.94-2.013.697-.055 1.255-1.256.439.453-5.998zm.96 1.364l-.079 1.835 1.272-.44L95.383 4.5zm10.745.988a4.518 4.518 0 01-1.022.604 5.776 5.776 0 01-1.14.337 3.5 3.5 0 01-1.209 0 2.843 2.843 0 01-1.022-.4 2.543 2.543 0 01-.781-.784 3.102 3.102 0 01-.437-1.145 3.145 3.145 0 010-1.215c.073-.364.222-.71.437-1.011.207-.3.472-.553.781-.745.35-.203.733-.344 1.131-.416.403-.08.816-.104 1.225-.07a2.38 2.38 0 011.054.36l-.671 1.075a1.676 1.676 0 00-.617-.275 1.91 1.91 0 00-.78 0c-.236.04-.462.129-.664.259a1.624 1.624 0 00-.46.462c-.118.19-.197.4-.234.62a2.08 2.08 0 00.25 1.403c.113.189.262.354.437.486.181.126.385.217.601.267.234.047.475.047.71 0a2.579 2.579 0 001.077-.478l-.164-.886-.976.18-.203-1.098 2.115-.4.562 2.87zM110.163.04h.999l2.591 5.417-1.381.031-.515-1.152-2.131.078-.413 1.192-1.335.047 2.185-5.614zm.523 1.567l-.601 1.74 1.343-.054-.742-1.686zM116.219.07l1.202.11-.367 4.375 2.232.204-.102 1.113-3.433-.313.468-5.488zm9.926 5.018a2.73 2.73 0 01-.343.847 1.954 1.954 0 01-.578.611 2.058 2.058 0 01-.78.306c-.338.046-.682.03-1.014-.047a2.668 2.668 0 01-.945-.392 1.943 1.943 0 01-.882-1.403 2.645 2.645 0 01.047-.917l.695-3.309 1.186.267-.718 3.261a1.24 1.24 0 000 .478c.021.149.068.292.141.424.075.124.176.23.296.313.123.092.264.157.414.188a1.1 1.1 0 00.452 0 1.02 1.02 0 00.39-.172 1.05 1.05 0 00.305-.314 1.42 1.42 0 00.187-.447l.71-3.261 1.186.259-.749 3.308zm5.876-.18a.894.894 0 00-.281-.4 1.456 1.456 0 00-.686-.314 1.127 1.127 0 00-.281 0 .433.433 0 00-.242.095.39.39 0 00-.164.219.426.426 0 00.039.423c.106.141.229.268.367.377l.507.384c.185.124.348.278.484.455.139.171.237.372.288.588.048.264.019.536-.085.784a1.82 1.82 0 01-.43.697c-.181.17-.397.298-.632.377a2.12 2.12 0 01-.741.086 2.968 2.968 0 01-.78-.18 2.758 2.758 0 01-.874-.486 2.423 2.423 0 01-.625-.784l1.132-.596c.058.195.162.372.304.517.144.145.317.257.507.33.097.032.196.056.297.07.096.012.193.012.289 0a.516.516 0 00.242-.102.456.456 0 00.156-.22.465.465 0 00-.047-.43 1.707 1.707 0 00-.367-.393c-.156-.133-.328-.266-.507-.407a2.822 2.822 0 01-.5-.463 1.577 1.577 0 01-.288-.588 1.256 1.256 0 01.07-.784 1.639 1.639 0 011.053-1.043c.252-.084.517-.116.781-.094.267.017.529.072.78.165.28.104.543.25.781.431.242.181.442.414.585.682l-1.132.604zm3.762 3.622l-.414-3.763 1.342.69.11 2.352 2.028-1.278 1.272.65-3.261 1.882-1.077 2.109-1.085-.549 1.085-2.093zm7.436.674l.828.565-1.101 5.911-1.131-.784.257-1.239-1.763-1.2-1.03.714-1.101-.784 5.041-3.183zm-.515 1.568l-1.506 1.043 1.108.784.398-1.827zM62.78 64.782a1.217 1.217 0 00-.437-.337 1.468 1.468 0 00-.6-.118 1.492 1.492 0 00-.633.134c-.193.085-.366.21-.507.368a2.04 2.04 0 00-.336.565 2.236 2.236 0 000 1.426c.08.202.19.39.328.557.136.16.307.286.5.369.189.092.398.137.608.133a1.32 1.32 0 001.132-.588l1.006.784a2.14 2.14 0 01-.882.729 2.86 2.86 0 01-1.108.227 3.38 3.38 0 01-1.178-.196 2.817 2.817 0 01-.944-.627 2.675 2.675 0 01-.617-.917 3.402 3.402 0 010-2.4 2.605 2.605 0 011.561-1.497 3.377 3.377 0 011.178-.203c.165 0 .33.016.492.047a2.329 2.329 0 01.96.384c.155.105.292.234.406.384l-.93.776zm2.973 1.325a3.1 3.1 0 01.219-1.2 2.61 2.61 0 011.56-1.497 3.55 3.55 0 012.342 0c.348.128.666.325.936.58.266.26.476.572.616.917a3.402 3.402 0 010 2.4 2.786 2.786 0 01-.585.901 2.86 2.86 0 01-.936.58 3.69 3.69 0 01-2.341 0 2.814 2.814 0 01-.976-.58 2.784 2.784 0 01-.616-.917 3.147 3.147 0 01-.219-1.184zm1.257 0c-.003.243.037.484.117.713.078.208.198.397.35.557.15.163.334.289.54.369.221.094.46.14.702.133.238.006.475-.039.694-.133.206-.083.392-.208.546-.369.148-.162.265-.351.344-.556a2.236 2.236 0 000-1.427 1.884 1.884 0 00-.344-.565 1.64 1.64 0 00-.546-.368 1.774 1.774 0 00-.694-.134 1.82 1.82 0 00-.703.134 1.56 1.56 0 00-.538.368 1.76 1.76 0 00-.351.565c-.08.229-.12.47-.117.713zm7.038-2.76h1.826l1.265 3.599 1.272-3.599h1.826v5.488h-1.21v-4.202l-1.444 4.226h-.92l-1.39-4.226v4.226h-1.225v-5.512zm8.865 0h1.834l1.264 3.599 1.272-3.599h1.819v5.488h-1.21v-4.202l-1.444 4.226h-.92l-1.39-4.226v4.226h-1.21l-.015-5.512zm8.92 0h3.722v1.122h-2.513v1.027h2.341v1.144h-2.34v1.098h2.652v1.12h-3.862v-5.51zm6.383 0h2.123c.262.001.524.03.78.087.235.048.46.138.663.266.19.132.343.31.445.518.116.244.175.513.172.784.013.354-.095.702-.304.987a1.36 1.36 0 01-.882.518l1.389 2.352h-1.444l-1.131-2.219h-.601v2.203h-1.21v-5.496zm1.21 2.282h1.061c.112-.007.223-.03.328-.07a.62.62 0 00.242-.181.59.59 0 00.101-.353.605.605 0 00-.086-.337.553.553 0 00-.218-.188.87.87 0 00-.305-.094 2.4 2.4 0 00-.335 0h-.78l-.008 1.223zm8.95-.847a1.149 1.149 0 00-.437-.337 1.443 1.443 0 00-.6-.118c-.218 0-.433.045-.633.134-.19.085-.361.21-.499.368a1.88 1.88 0 00-.336.565 2.247 2.247 0 000 1.426c.074.205.185.394.328.557.135.158.303.284.492.369a1.468 1.468 0 001.272 0 1.3 1.3 0 00.468-.432l1.007.784a2.046 2.046 0 01-.882.73 2.851 2.851 0 01-1.1.227 3.402 3.402 0 01-1.187-.196 2.87 2.87 0 01-.92-.65 2.682 2.682 0 01-.617-.918 3.406 3.406 0 010-2.4 2.61 2.61 0 011.553-1.497c.38-.138.782-.207 1.186-.203.163 0 .325.016.484.047.348.05.679.182.968.384.153.107.29.236.405.384l-.952.776zm3.262-1.435h1.202v5.488h-1.202v-5.488zm5.666 0h.999l2.387 5.488h-1.365l-.476-1.16h-2.131l-.444 1.184h-1.335l2.365-5.512zm.46 1.568l-.663 1.725h1.342l-.679-1.725zm5.072-1.568h1.241v4.39h2.24v1.122h-3.449l-.032-5.512zm9.513 0h2.123c.262.001.524.03.78.087.233.046.456.137.655.266.19.134.346.311.453.518.113.245.169.513.164.784.013.354-.095.702-.304.987a1.319 1.319 0 01-.882.517l1.397 2.353h-1.452l-1.131-2.219h-.593v2.203h-1.21v-5.496zm1.21 2.282h1.053c.112-.005.223-.03.328-.07a.65.65 0 00.25-.181.593.593 0 00.093-.353.557.557 0 00-.086-.337.465.465 0 00-.218-.188.882.882 0 00-.297-.094h-1.116l-.007 1.223zm5.407-2.282h3.731v1.122h-2.521v1.027h2.38v1.144h-2.38v1.098h2.63v1.12h-3.902l.062-5.51zm7.453 1.074h-1.561v-1.074h4.339v1.074h-1.561v4.438h-1.201l-.016-4.438zm6.024-1.074h1.007l2.38 5.488h-1.319l-.476-1.16h-2.13l-.515 1.184h-1.335l2.388-5.512zm.469 1.568l-.664 1.725h1.335l-.671-1.725zm5.009-1.568h1.21v5.488h-1.21v-5.488zm3.902 0h1.21v4.39h2.239v1.122h-3.449v-5.512z"/></g><defs><clipPath id="clip0"><path fill="#fff" d="M0 0h226v69H0z"/></clipPath></defs></svg>