<svg width="164" height="121" fill="none" xmlns="http://www.w3.org/2000/svg"><path d="M81.177 0L40.564 83.775l1.774 8.64 6.624-4.044 10.652-23.998 21.572 19.332 20.494-19.332 12.019 23.994 6.349 3.497 1.093-8.09L81.177 0zm0 70.543L64.812 55.735l16.365-34.552 16.815 34.552-16.815 14.808zM66.894 21.407l-11.378 2.656 3.353 13.892-5.5 11.35-6.866-31.412 25.74-7.52-5.35 11.034zm28.661 0l11.376 2.656-3.353 13.892 5.501 11.35 6.866-31.412-25.738-7.52 5.348 11.034zm-85.312 82.385h-4.65L0 120.518l4.028.069.82-2.595h5.873c.136 0 1.025 2.536 1.025 2.536h3.96l-5.463-16.736zm-4.292 10.763l1.912-6.444 1.911 6.444H5.951zm20.612-.274s2.868-.686 2.868-4.798c0-5.142-4.506-5.622-4.506-5.622h-7.649v16.726H21.1v-5.483h1.502l4.363 5.483h4.37l-4.772-6.306zm-2.39-2.614H21.1v-4.242h2.746s1.761.069 1.761 1.919c0 2.263-1.431 2.332-1.431 2.332l-.002-.009zm117.658 2.614s2.868-.686 2.868-4.798c0-5.622-4.506-5.622-4.506-5.622h-7.649v16.726h3.825v-5.483h1.501l4.37 5.483h4.372l-4.781-6.306zm-2.842-2.614h-2.62v-4.242h2.633c.338-.005.671.08.966.247.437.253.907.765.907 1.792.002.251-.022.501-.071.747a1.849 1.849 0 01-1.815 1.465v-.009zM33.94 107.561v13.026h3.823v-13.026h3.96v-3.7H30.252v3.7h3.688zm9.15-3.7h3.687v11.654s.25 1.783 2.732 1.783c2.185 0 2.32-1.647 2.32-1.647v-11.79h3.688v12.613S54.97 121 49.235 121s-6.146-4.8-6.146-4.8v-12.339zm15.022 16.726v-16.726h4.37l4.097 9.46 4.097-9.46h4.097v16.726h-3.688v-10.009l-3.276 7.267H65.35l-3.414-7.267v10.009h-3.824zm67.618-16.763h-4.649l-5.596 16.726 4.028.069.821-2.614h5.872c.136 0 1.023 2.536 1.023 2.536h3.961l-5.46-16.717zm-4.294 10.763l1.912-6.445 1.914 6.445h-3.826zm34.06-10.726h-7.652v16.726h8.74c2.185 0 6.418-2.33 6.418-8.774 0-4.067-1.964-6.06-3.762-7.035a7.867 7.867 0 00-3.744-.917zm-.472 13.024h-3.359v-9.46h3.091a4.534 4.534 0 013.258 1.333c.709.725 1.302 1.821 1.302 3.465 0 1.75-.64 2.853-1.378 3.548a4.247 4.247 0 01-2.914 1.114zm-59.082-7.402h3.96s-.82-5.896-7.784-5.896c-6.964 0-8.331 4.667-8.74 6.443-.41 1.775-.547 7.404 3.823 9.872s8.196-.136 9.014-.96v1.645h3.688v-8.911h-7.785v3.154h3.824s-.956 2.613-4.37 2.613c-3.415 0-4.37-3.564-4.37-3.564s-.968-4.848 2.731-6.043a5.481 5.481 0 016.009 1.647zm6.42-5.622h3.688v11.654s.547 1.783 2.732 1.783 2.321-1.647 2.321-1.647v-11.79h3.687v12.613s-.547 4.526-6.282 4.526-6.146-4.8-6.146-4.8v-12.339z" opacity=".4" fill="#000"/></svg>