<svg width="176" height="154" fill="none" xmlns="http://www.w3.org/2000/svg"><path d="M124.022 99.405c.677-2.62-3.844-3.494-3.922.274-.066 2.999 3.387 1.8 3.922-.274zm-37.71 3.338c1.473.639 3.675-.13 3.857-1.838.117-1.07-.013-2.986-.977-3.69-1.603-1.186-2.945.091-3.388 1.682-.326 1.213-.82 3.26.508 3.846zM74.233 95.99c-2.215 3.767 3.101 5.541 4.678 2.711 1.668-3.011-2.932-5.684-4.678-2.711zm-15.219 7.705c-.235 1.721-.052 3.937 2.241 3.768 1.251-.091 2.332-.769 2.424-2.099.221-3.429-4.17-5.241-4.665-1.669zm-11.923-.039c-.82 2.542 3.193 4.185 4.144 1.799 1.16-2.946-3.18-4.772-4.144-1.799zm36.329 19.27c.573.456 1.537.039 1.837-.587.664-1.434-1.29-3.377-2.215-1.642-.326.612-.183 1.786.377 2.229zm10.059 16.376c.495-.6.743-1.734.156-2.36-.482-.522-1.394-.535-1.85.039-.417.508-.534 1.656-.143 2.216.404.574 1.355.678 1.837.105zm3.505-7.849c.195-.261-.052-.769-.365-1.004-.221-.17-.573.195-.664.417-.105.222-.066.561.143.717.156.118.69.131.886-.13zm-.091-3.273c.117.026.26-.052.326-.143.104-.117.143-.287.156-.43.026-.261-.052-.665-.378-.704-.326-.04-.47.378-.482.638.013.274.078.574.378.639zm4.951 8.423c-.039-1.134-1.772-.991-1.759.156 0 1.226 1.798.952 1.759-.156zm-4.574.495c-.26.939 1.173 1.291 1.473.365.287-.886-1.238-1.212-1.472-.365zm68.318-125.764c-.938.743-.182 1.93.704 2.373.651.326 3.635 1.056 3.87.143.234-.9-3.636-3.26-4.574-2.516zm-15.793 22.569c-.755-1.76 2.216-3.547 4.313-4.838 3.115-1.916 4.991-4.941 6.046-6.845.756-1.369 2.229-1.003 2.62-.469 1.159 1.995-1.564 6.271-5.017 8.866-3.192 2.399-6.958 5.424-7.962 3.286zm-3.869.964c-1.447-.013-3.063 1.904-2.593 3.077.703 1.5 3.518.404 4.117-.9.443-1.316-.078-2.177-1.524-2.177zM36.146 71.556c0-2.686-4.43-1.603-8.392-2.568-4.43-.965-7.596-4.212-8.743-2.62-1.472 2.02 1.929 4.289 5.942 5.619 4.769 1.577 11.193 1.968 11.193-.43zm2.671.091c-.313-2.711 4.456-2.372 4.6-.39.13 1.968-4.313 2.855-4.6.39z" fill="#949494"/><path d="M165.901 15.245c1.146 2.608 1.668 5.867.365 10.952-.873 3.534-5.577 7.458-12.757 12.204-1.564 1.043-18.776 13.924-43.351 23.86-1.277-1.839-2.255-4.316-2.489-4.76 2.723-3.376-.886-3.741-4.626-2.438-4.378 1.526-8.77 5.203-2.046 5.62 0 0 1.173 2.803 1.629 4.407 0 0-3.635 1.212-4.417 1.447-1.838-2.138-2.724-4.264-2.958-4.55 5.199-8.762-16.77 1.981-6.958 2.36.469 1.942 1.146 3.52 1.446 4.537-28.067 7.144-57.49 9.192-64.8 6.897-7.114-2.256-11.036-5.255-12.47-9.818-1.993 2.934-3.856 2.373-4.338 1.37-.482-1.005-.521-3.156.195-4.382-6.072.261-5.472-2.555.821-3.403-3.075-10.378 1.355-7.731 3.27-4.028.717-3.52 2.49-6.35 6.816-8.293 9.473-4.198 28.366 2.256 71.001-11.056 30.204-9.426 52.89-30.183 60.851-30.795 5.278-.405 8.587 1.616 10.789 3.833 2.45-9.231 4.118-4.394 5.16-1.148 3.154 0 5.994.287 3.245 3.43 3.544 1.538 5.316 6.492-4.378 3.754zm-16.314 101.566c1.928.574 1.889-4.367 4.365-2.177 1.486 1.317-.547 6.715-4.104 6.545-2.659-.117-4.235-1.147-5.447-3.325-1.407-2.555-.873-5.788-.235-8.487.652-2.777 2.189-7.236 3.844-9.544 1.473-2.034 4.027.156 4.6 2.321.808 2.985-1.407 5.945-2.645 8.487-1.003 2.099-3.57 5.216-.378 6.18zm-45.554 16.78c.495-.378 2.437-1.434 2.958-1.486.925-.091 1.368.769.756 1.408-.534.587-2.385.978-2.619 1.669-.183.521.247.743.743.652.43-.091.99-.535 1.42-.235 1.016.717-1.798 1.539-.704 2.164.482.274 1.147-.352 1.512-.625.391-.3.742-.561 1.303-.483.638.092.677.652.417 1.056-.339.522-.886.874-1.395 1.2-1.029.639-2.006 1.056-2.944.365-.899-.678-1.303-1.995-1.668-3.012-.183-.508-.339-.847-.456-1.382-.091-.548.286-1.004.677-1.291zm-1.694-9.335c-2.814-1.134-1.915-6.493.782-6.949 1.186-.196 2.841.326 3.167 1.747a1.62 1.62 0 01-.43 1.525c-.404.418-1.382.378-1.082-.313.235-.56.235-1.108-.599-1.355-.561-.092-1.082.417-1.369.873-.729 1.16-.299 3.194 1.264 2.881.6-.117 1.173-.612 1.799-.586.833.039.612.73.208 1.225-.886 1.096-2.541 1.435-3.74.952zm-7.388 7.771c-.378-.743-.039-1.591.404-2.191.117-.169.573-.691.573-.691s-.469-.769-.403-1.616c.078-.848.703-1.76 1.863-1.578 1.147.183 1.303 2.438-.183 3.233.43.418.886 1.174.886 1.174s.274-.535.782-.769c.248-.118.77.286.6.495-.13.17-.34.456-.456.639-.235.365.456.378.43.743-.013.17-.157.496-.313.574-.156.078-.626-.144-.86-.287-.352.339-.626.913-1.681.978-.625.065-1.342-.118-1.642-.704zm-4.625 4.12c.886-1.356 2.67-2.034 4-.809 1.29 1.187 1.133 3.169.352 4.59-.391.691-.939 1.486-1.746 1.708-.782.221-1.786-.052-2.49-.43-1.784-.965-.99-3.703-.116-5.059zm-6.946-18.371c1.746-.626 3.35.978 3.623 2.595.273 1.616-.091 4.328-2.072 4.667-1.668.287-3.27.066-3.596-2.164-.235-1.695.195-4.433 2.045-5.098zm8.275 1.434a.784.784 0 00-.548-.482c-.495-.117-1.133.156-1.446.508-.665.757-.639 2.556.378 3.038.638.3 1.29-.156 1.863-.404.404-.182 1.056-.365 1.342.144.248.443-.195 1.03-.495 1.316-.417.379-1.003.639-1.537.783-.952.26-2.007.182-2.763-.496-.82-.73-.99-1.916-.912-2.959.078-1.004.26-2.126 1.055-2.843.743-.665 1.799-.782 2.75-.717 1.25.078 1.928 1.226 1.772 2.386-.065.509-.182 1.017-.704 1.213-.586.221-.82-.313-.755-.77.052-.299.104-.404 0-.717zm4.26 2.152c.6.273 1.095-1.187 1.251-1.513.326-.743 1.238-2.777 2.19-2.881 1.068-.117.703 2.594.703 3.22 0 1.03.156 2.803-.86 3.481-.547.365-1.081-.247-1.133-.808-.053-.508.182-1.03.3-1.512.051-.196.481-1.448.13-1.526-.274-.065-.704 1.213-.795 1.421-.391.874-.847 2.686-2.111 2.569-1.238-.104-1.603-1.265-1.616-2.308-.013-1.095-.378-3.038.209-4.016.312-.521 1.068-.495 1.42-.065.404.483.286 1.604.234 2.178-.026.286-.286 1.59.078 1.76zm-16.21-11.004c-1.068-3.638 1.395-8.892 1.395-8.892-1.133 2.568-6.176 2.307-7.023 4.054-1.056 2.543 1.55 4.316.99 7.563-.39 2.255-3.74 1.59-5.056-2.165.795 2.947-.039 4.903-2.163 4.577-1.628-.261-1.785-1.461-2.606-2.66-.782-1.134-2.137-2.634-4.013-2.49-2.398.182-2.085 1.681-2.228 2.946-.143 1.265-.104 4.029-1.642 4.746-1.368.652-2.476.339-3.284-.939-.847-1.33-.612-3.116-.43-4.602.079-.665.47-4.094.613-4.694-1.29 1.121-5.655 2.164-5.89 4.915-.234 2.751 4.6 7.184.925 8.384-3.166 1.03-4.808-3.755-5.811-5.867-.821-1.708-3.714-8.657-3.323-10.222.69-2.868 4.939-4.485 7.35-5.267 3.01-.94 6.58-.691 8.091 2.125.495-1.721 1.394-5.098 3.388-5.62 1.68-.443 3.44 1.2 4.547 2.321 1.746 1.812 3.453 4.251 4.939 8.253-.078-2.047-1.499-8.618-.183-10.978 1.773-3.168 13.37-6.14 14.62.13.47-1.016 1.785-3.741 3.323-4.393 1.55-.652 2.919.195 3.922 1.356 2.71 3.129 4.079 8.07 4.756 12.06.313 1.799 1.251 6.832-1.616 7.184-2.697.339-2.397-3.99-4.156-5.646-.743-.691-2.437-1.369-3.362-.508-.521.508-.678 2.581-1.003 3.455-1.03 2.777-4.014 4.498-5.07.874zm-1.028 10.782c-.404-1.33-1.799-.535-2.307.17-.717 1.016-.404 2.933.886 3.259 1.342.339 1.798-.952 3.114-1.069.86-.078.86.795.548 1.291-.391.625-1.069 1.056-1.72 1.369-1.238.599-2.124.665-3.427.091-2.437-1.082-2.62-5.228-.508-6.741.977-.691 2.358-1.16 3.557-.886 1.238.287 1.876 1.968 1.511 3.09-.17.534-.755 1.238-1.407.886-.651-.352-.091-.938-.248-1.46zm9.16 17.393c.052.443-.235 1.017-.717 1.082-.469.052-.834-.274-.99-.678-.222-.561-.365-1.304-.482-1.878-.04-.221-.052-.951-.365-1.095-.326-.143-.717 1.539-1.381 1.995-.456.287-1.069-.143-1.173-.626-.117-.534.404-1.395.625-1.851.274-.548 1.082-2.347 1.382-2.869.247-.43.573-1.069 1.081-1.225.417-.13 1.212.078 1.368.587.144.469-1.016 1.812-.782 2.294.196.431 1.564-.456 2.072-.717.535-.274 1.108-.404 1.681-.208.417.143.769.625.391 1.043-.86.951-2.306.56-3.31 1.264-.964.704.496 2.06.6 2.882zm12.874 1.29c.13.613 1.003 1.708-.326 2.269-.86.365-1.134-.248-1.212-1.121-.052-.561.065-1.421-.378-1.682-.378-.222-2.28.404-2.697-.965-.626-2.216 1.16-2.686 2.502-3.064 1.329-.378 3.765-1.173 4.378.991.221.782-.209 1.656-.912 2.008-.886.417-1.564.521-1.355 1.564zm11.232-14.602c-1.72 1.838-2.502-2.673-3.466-2.621-.183.039-.209 1.839-.313 2.086-.104.248-.443.587-1.186.157-.521-.3-.313-1.213-.273-1.721.052-.782.364-2.464.443-3.247.078-.73.091-2.425 1.589-2.021.665.183.378 1.148.3 1.669-.026.235-.222.822-.117.887.364.235.847-.339 1.016-.535.495-.547 1.003-.978 1.694-1.33.365-.182 1.485-.247 1.407.587-.143 1.526-2.371 1.395-2.827 2.621-.378 1.095 2.567 2.073 1.733 3.468zm5.941-2.79c-.377-.222-2.163 3.025-2.462 3.351-.899.977-2.255.612-2.711-.613-.221-.587-.117-1.265.026-1.865.17-.756.248-1.525.404-2.281.118-.613.313-1.461.795-1.904.443-.404.886-.43 1.251.065.717.952-.391 2.803-.612 3.886-.222 1.121.326.808.899.221.247-.247.73-.899 1.068-1.421.965-1.447 2.685-2.881 3.18-1.76.325.73.013 3.924-.183 4.733-.182.717-.325 1.643-1.003 1.969-.704.339-1.368-.196-1.342-.952.026-.769.156-1.187.417-1.721.117-.261.612-1.5.273-1.708zm-5.16-22.712c-1.798.534-1.72-1.03-2.814-1.826-.938-.678-2.424-.326-3.662.509-2.619 1.786-4.039 5.632-2.123 8.37 1.394 1.995 6.176 1.917 6.827-.495.326-1.2-.508-1.643-1.394-1.356-.808.26-1.016 1.082-1.42 1.225-1.655.613-2.645-.912-1.929-2.659.691-1.682 3.219-1.995 4.822-1.748 1.472.222 3.075 1.213 3.544 2.113.391-2.621.521-8.814 3.401-10.092 2.944-1.317 8.795.365 9.811 3.546.613 1.93-.586 4.799-2.241 5.998-1.785 1.304-2.697.43-2.593 2.073.091 1.46 1.538 1.93 2.489 3.273.43.573.586 1.069.612 1.577.287-.821.378-1.095.652-2.021.612-2.086-.704-2.764.456-4.772 1.655-2.881 7.597-2.346 4.873 2.152-.677 1.121-1.368 1.708-1.889 2.959-.652 1.578-.17 3.156-.235 4.707-.078 1.552-1.146 2.881-3.114 2.464-1.394-.3-1.603-1.799-1.459-2.985-.352.195-.495.521-1.577.469-1.798-.091-3.284-2.829-3.674-5.424-.105-.652-.131-1.903-.926-2.151-.768-.248-.964.613-1.003 1.369-.078 1.682.495 5.645-2.176 6.401-.678.196-1.681.04-2.033-.573-.195-.352-.43-1.708-.182-2.96-1.929 3.442-7.532 3.39-10.489 2.282-5.043-1.421-5.63-6.037-5.434-9.479.195-3.442 1.603-6.688 4.561-8.905 2.553-1.903 6.046-2.777 8.717-1.278 3.257 1.826 3.661 6.493 1.602 7.237zm23.494 12.985c.326 1.422 1.355 1.891 2.358 1.448.939-.418 1.082-2.347 2.372-2.243 2.971.717.912 4.746-.143 5.606-2.163 1.774-5.265 1.356-7.102-.547-1.993-2.073-2.254-4.224-1.811-6.962.573-3.56 2.671-7.054 4.222-10.561 1.042-2.36 3.596-4.824 5.798-1.708 1.863 2.647-.365 6.049-2.267 8.331-1.446 1.747-4.013 4.068-3.427 6.636zm-2.893-18.448c2.489 1.33.339 7.027-2.84 5.11-3.075-2.112-.756-7.04 2.84-5.11zm1.785-29.558c1.043 3.195-1.042 4.238-1.733 5.49-.69 1.251.17 2.75-1.967 4.576-.43-.782-1.616-2.751-.717-4.694.899-1.942 3.636-1.656 4.417-5.371zm-3.453-.325s-1.824-1.291-1.733-3.82c.092-2.856 2.411-2.308 3.01-5.125 1.759 3.52-1.941 3.56-1.277 8.945zm-16.131 8.161c5.512 3.534.287 8.527 2.332 10.43 3.818.131.287-6.192 1.512-9.1.912-2.268 1.537-2.62 1.98-4.094.457-1.473-.599-4.837 2.58-6.18-2.097 2.164-.638 4.942-1.081 7.106-.222 1.082-1.277 2.933-1.238 4.42.026 1.486 1.121 2.373 1.837 2.177.717-.195 1.59-2.073.652-4.993 1.303 1.408 1.85 2.894 1.694 4.615-.17 2.282-2.815 1.5-1.994 9.01 3.818.755 1.837-3.417 2.932-5.842 1.094-2.412 2.515-1.695 1.772-4.72 2.815 3.456-.769 4.447-.417 7.289.326 2.607 2.033 4.159.925 6.18a244.072 244.072 0 00-13.942-1.669c-4.118-6.584 4.782-7.614.456-14.629zM100.984 57.84a12.059 12.059 0 014.457-1.642c2.371 5.215 4.925 10.521 6.801 15.567-4.782 3.924-5.694 6.584-.99 15.085-1.798-.143-3.622-.26-5.46-.352-3.974-8.8-3.922-8.931-10.971-8.54-2.111-5.515-3.818-10.795-5.63-16.14.809-.588 2.66-1.292 4.17-1.448 3.154 7.249 6.438 11.187 9.148 10.443 3.062-1.264 1.55-6.897-1.525-12.973zm-32.25 19.597c-.377 2.412 1.825 2.32 2.268 4.38.443 2.06-1.394 5.033 2.137 4.225 2.319-4.107-4-3.755 1.107-10.848-.534 6.52 5.264 3.286 5.264 8.566 2.906.352 1.46-2.164 1.173-3.625-.56-2.75 1.98-3.024 1.785-4.758.86 1.264.026 1.76-.065 2.907s.495 2.282 1.238 2.243c.73-.04 1.46-1.187 1.642-2.778.182-1.59-.26-2.998-1.069-4.693 7.18 5.176.04 9.426 4.157 10.782 2.254.757 3.114-1.251 2.489-2.425-.665-1.264-2.385-1.747-.065-5.202-.6 3.938 2.215 2.555 2.996 5.293.352 1.226.652 2.386 1.942 3 1.29.612 3.857.169 3.427-1.644 1.72.718 1.798 2.452 1.928 3.39-.833-.026-2.24-.052-3.088-.065-10.776-.195-21.37.795-31.077 2.556-1.433-2.569.99-3.768 1.55-5.698.574-1.93-1.576-3.338.261-5.606zm-1.59 3.911c.053 1.121-.638 1.695-1.029 1.864.13-1.63-1.967-1.734-2.11-3.624-.027-1.382 1.38-2.295 1.38-2.295-1.172 2.138 1.668 2.217 1.76 4.055zm68.957 5.659c12.444 1.994 20.379 4.224 26.073 6.258 1.863.665 3.909 1.956 4.613 4.224.521 1.669.169 3.872-.795 6.754-.638 2.138-5.238 17.197-5.772 19.27-.912 3.155-2.268 5.671-4.17 6.858-1.902 1.186-6.098.013-8.704-.665-5.668-1.486-11.845-3.142-20.34-5.254.247 1.747.312 3.442.521 5.306.326 3.012.495 6.767-.469 8.344-1.277 2.087-6.046 2.308-11.636 1.8-13.161 15.854-28.328 10.626-39.065-.131-3.244.222-7.883.118-9.447-1.212-1.472-1.239-1.46-3.064-1.133-5.62.273-2.19.638-5.071 1.133-8.709-7.518 2.829-14.568 5.476-19.467 7.21-4.873 1.525-7.284.365-10.685-6.506-1.642-3.299-6.202-13.599-7.088-15.672-3.961-9.27-.977-11.577 2.423-13.285 5.669-2.83 15.858-6.18 26.96-8.762-.977-2.764-2.059-5.632-3.258-8.8 1.173-.183 2.646-.418 4.21-.678 1.432 4.028 2.788 7.796 4.09 11.473-12.13 2.399-21.799 5.776-27.141 8.592-2.606 1.369-6.737 3.364-3.974 10.365.82 1.982 5.186 11.774 6.75 14.916 3.23 6.532 6.24 5.58 10.88 4.133 4.664-1.656 11.349-4.446 19.61-6.689-.47 3.455-.964 7.08-1.225 9.153-.313 2.438-.977 4.928.182 6.219 1.16 1.291 5.408 1.121 8.392.821 9.694 10.6 24.536 15.672 36.849.157 5.33.482 8.77.9 9.982-1.095.912-1.5.651-3.547.351-6.402-.195-1.773-.716-6.754-.964-8.657 8.509 1.995 15.389 3.846 20.77 5.254 4.183 1.095 10.359 3.559 12.496-3.846.508-1.969 4.965-16.715 5.577-18.749 2.176-6.467-1.629-7.001-4.704-8.096-5.42-1.943-14.281-4.133-26.125-6.037 4.665-15.932 8.965-31.304 11.297-39.622 1.029-.64 3.14-2.152 4.613-3.169-1.681 8.723-6.711 23.795-11.61 40.549zm-82.73-51.383c2.36.965 3.87 2.294 3.78 4.798-1.173.156-2.333.3-3.48.43.704-1.721.952-3.246-.3-5.228zm12.927 2.933c-.065-2.36-2.463-2.868-2.398-4.641.052-1.16 1.994-2.543 1.994-2.543-1.55 3.22 3.792 3.26.404 7.184zm18.972-1.942c-.9.365-3.219.99-4.04 1.186-.599-3.377-.794-6.232-.495-8.214 1.082 2.32 3.18 5.254 4.535 7.028zm10.724-3.612c-.613.326-2.776 1.134-3.219 1.252-.912-2.543-1.785-4.238-2.54-5.424 2.175.913 4.052 2.308 5.759 4.172zm-26.934-7.81c11.102-1.395 26.139-1.747 40.368-.86-2.033 1.056-4.274 2.06-6.685 3.025-15.128-.548-30.464.143-41.097 2.477-6.567 1.63-9.734 2.607-11.792 4.98-1.486 1.721-1.89 4.016-1.655 6.545-1.29.118-2.658.235-4.092.352-.013-.09-.013-.17-.026-.26-.625-8.527.326-12.986 24.98-16.259zm84.136 109.155c4.378 1.199 6.62-.587 8.209-5.294.613-2.216 6.854-20.352 7.727-23.403.873-3.038 2.528-7.21.978-10.665-3.089-6.702-22.712-9.127-29.045-10.665 4.17-14.225 9.682-29.844 11.532-41.279 8.444-5.84 19.519-10.104 17.903-24.329 5.343.365 7.571-4.328 3.128-7.966 1.615-3.181-.548-4.576-4.522-5.098-2.476-7.575-6.88-6.988-8.925-1.46-11.389-9.83-26.843 8.527-45.489 16.78-5.408-.874-45.632-2.425-65.047 3.768-14.099 4.12-11.036 15.398-10.906 17.184-4.77.196-7.818.26-11.48.3-6.476.065-11.284.717-16.261 6.845-5.903-1.721-7.31 1.656-5.447 8.24-7.271 3.872-7.154 7.053-1.082 7.68.587 3.82 1.408 7.47 6.555 6.205.716 1.187 5.537 6.767 14.607 8.501 9.16 1.76 25.604-.626 25.604-.626l2.88 6.376c-13.786 3.846-19.833 5.776-22.92 7.366-5.356 2.582-9.265 4.59-6.02 13.351 1.641 4.433 9.994 23.039 11.635 25.868 2.215 3.611 5.095 3.911 8.288 3.194 3.661-.821 17.72-6.493 17.72-6.493-.208 2.777-2.267 9.283.613 11.904 3.844 3.403 11.923 2.347 11.923 2.347 11.193 11.564 27.441 16.076 41.462.156 0 0 9.877.822 13.265-2.034 2.606-2.203.821-9.205.534-12.634 3.388.639 22.164 5.763 22.581 5.881z" fill="#949494"/><path d="M9.786 65.82c-.834-1.526.039-5.06 1.68-4.381 2.216.9-.99 5.658-1.68 4.38z" fill="#949494"/></svg>