<svg width="86" height="69" viewBox="0 0 86 69" fill="none" xmlns="http://www.w3.org/2000/svg">
<path d="M19.4 0.399902C25 0.399902 29.6 2.1999 33.2 5.7999C36.8 9.26657 38.6 13.8666 38.6 19.5999C38.6 22.2666 38.2667 24.9332 37.6 27.5999C36.9333 30.2666 35.5333 34.2666 33.4 39.5999L21.8 68.3999H2L10.6 36.7999C7.26667 35.3332 4.66667 33.1332 2.8 30.1999C0.933333 27.2666 0 23.7332 0 19.5999C0 13.8666 1.8 9.26657 5.4 5.7999C9.13333 2.1999 13.8 0.399902 19.4 0.399902ZM66.6 0.399902C72.2 0.399902 76.8 2.1999 80.4 5.7999C84 9.26657 85.8 13.8666 85.8 19.5999C85.8 22.2666 85.4667 24.9332 84.8 27.5999C84.1333 30.2666 82.7333 34.2666 80.6 39.5999L69 68.3999H49.2L57.8 36.7999C54.4667 35.3332 51.8667 33.1332 50 30.1999C48.1333 27.2666 47.2 23.7332 47.2 19.5999C47.2 13.8666 49 9.26657 52.6 5.7999C56.3333 2.1999 61 0.399902 66.6 0.399902Z" fill="white"/>
</svg>
