<svg width="86" height="69" fill="none" xmlns="http://www.w3.org/2000/svg"><path d="M19.4.4c5.6 0 10.2 1.8 13.8 5.4 3.6 3.467 5.4 8.067 5.4 13.8 0 2.667-.333 5.333-1 8s-2.067 6.667-4.2 12L21.8 68.4H2l8.6-31.6c-3.333-1.467-5.933-3.667-7.8-6.6S0 23.733 0 19.6C0 13.867 1.8 9.267 5.4 5.8 9.133 2.2 13.8.4 19.4.4zm47.2 0c5.6 0 10.2 1.8 13.8 5.4 3.6 3.467 5.4 8.067 5.4 13.8 0 2.667-.333 5.333-1 8s-2.067 6.667-4.2 12L69 68.4H49.2l8.6-31.6c-3.333-1.467-5.933-3.667-7.8-6.6s-2.8-6.467-2.8-10.6c0-5.733 1.8-10.333 5.4-13.8C56.333 2.2 61 .4 66.6.4z" fill="#fff"/></svg>