<svg xmlns="http://www.w3.org/2000/svg" viewBox="0 0 679.02 123.94"><defs><style>.cls-1{fill:#1e1e1c;}</style></defs><g id="Слой_2" data-name="Слой 2"><g id="Слой_1-2" data-name="Слой 1"><path class="cls-1" d="M67.42,31.19,71.16,8.12H91.62l-3.9,23.07h16.41V54.9H84L80.58,74.39H99.09V98.12H76.68l-4.22,25.5H52.15l4.22-25.5H36.72l-4.22,25.5H11.86l4.4-25.5H0V74.39H20L23.4,54.9H5V31.19H27.3L31.19,8.12H51.5L47.76,31.19Zm-7.15,43.2L63.51,54.9H43.86L40.62,74.39Z"/><path class="cls-1" d="M120,8h48.24c16.08,0,27.94,4.06,35.25,12.18,7.47,8,11.22,18.2,11.22,30.54,0,31.19-19.34,45.48-51.18,45.48H148.69v26.32H120Zm28.74,64.65h11.87c16.24,0,23.87-8.28,23.87-19.82s-6.33-20.46-21.11-20.46H148.69Z"/><path class="cls-1" d="M290.41,34.11h28.1v88.37h-28.1v-5.2a43.16,43.16,0,0,1-22.91,6.66q-20.22,0-31.68-13.64a48.58,48.58,0,0,1-11.54-32.17c0-12.51,3.91-23.23,11.54-32.16q11.46-13.63,31.68-13.64a48.33,48.33,0,0,1,22.91,6Zm0,29.08c-4.89-4.06-10.73-6-17.72-6-6.65,0-11.85,2.11-15.75,6.17a20.73,20.73,0,0,0-5.84,14.78,21.39,21.39,0,0,0,5.84,15c3.9,4.06,9.1,6.17,15.75,6.17,7,0,12.83-2,17.72-6Z"/><path class="cls-1" d="M415.7,105.42a42.4,42.4,0,0,1-34.76,18.52c-13.49,0-24.85-4.38-34.44-13.32-9.42-8.93-14.13-19.65-14.13-32.32,0-12.83,4.71-23.56,14.13-32.49,9.59-8.93,20.95-13.33,34.44-13.33,14.3,0,26.8,7,35.09,18.2L398.16,67.25c-3.9-6.66-9.59-10.07-17.22-10.07A21.08,21.08,0,0,0,359.82,78.3a21.08,21.08,0,0,0,21.12,21c7.63,0,13.32-3.41,17.22-10.07Z"/><path class="cls-1" d="M486.74,68.87l31.68,53.61H487.56L468.4,90.64,457,102.18v20.3H429.07V0H457V64.65l28.43-30.54h32.32Z"/><path class="cls-1" d="M607,86.09H546.57c3.25,9.91,10.72,15.43,20.47,15.43,7.14,0,15.26-4.38,19.66-10.72l17.53,14.46C596,117,581.5,123.94,564.12,123.94q-19.74,0-32.66-13.16c-8.61-8.77-12.83-19.65-12.83-32.48s4.22-23.72,12.83-32.49c8.61-8.93,19.5-13.33,32.66-13.33,13.48,0,23.87,4.4,31.5,13.17S607.16,66,607.16,80.08ZM580.68,69.85c0-8-4.38-15.59-16.56-15.59-8.61,0-15.44,6.49-17.55,15.59Z"/><path class="cls-1" d="M649.28,34.11v9.75c7-7.47,15.93-11.21,27.13-11.38a10.44,10.44,0,0,1,2.61.17V63a53.27,53.27,0,0,0-9.43-1c-12.83,0-19.66,6.34-20.31,19v41.42H621.35V34.11Z"/></g></g></svg>